<svg version="1.1" viewBox="0.0 0.0 600.0 371.0" fill="none" stroke="none" stroke-linecap="square" stroke-miterlimit="10" width="600" height="371" xmlns:xlink="http://www.w3.org/1999/xlink" xmlns="http://www.w3.org/2000/svg"><path fill="#ffffff" d="M0 0L600.0 0L600.0 371.0L0 371.0L0 0Z" fill-rule="nonzero"/><path stroke="#333333" stroke-width="1.0" stroke-linecap="butt" d="M78.5 298.5L581.5 298.5" fill-rule="nonzero"/><path stroke="#cccccc" stroke-width="1.0" stroke-linecap="butt" d="M78.5 239.5L581.5 239.5" fill-rule="nonzero"/><path stroke="#cccccc" stroke-width="1.0" stroke-linecap="butt" d="M78.5 180.5L581.5 180.5" fill-rule="nonzero"/><path stroke="#cccccc" stroke-width="1.0" stroke-linecap="butt" d="M78.5 121.5L581.5 121.5" fill-rule="nonzero"/><path stroke="#cccccc" stroke-width="1.0" stroke-linecap="butt" d="M78.5 62.5L581.5 62.5" fill-rule="nonzero"/><clipPath id="id_0"><path d="M78.55 62.416668L581.45 62.416668L581.45 298.45L78.55 298.45L78.55 62.416668Z" clip-rule="nonzero"/></clipPath><path stroke="#000000" stroke-width="0.0" stroke-linecap="butt" stroke-opacity="0.0" clip-path="url(#id_0)" d="M173.0 298.0L112.0 298.0L112.0 289.0C112.0 287.89542 112.89543 287.0 114.0 287.0L171.0 287.0C172.10457 287.0 173.0 287.89542 173.0 289.0Z" fill-rule="nonzero"/><path fill="#990000" clip-path="url(#id_0)" d="M173.0 298.0L112.0 298.0L112.0 289.0C112.0 287.89542 112.89543 287.0 114.0 287.0L171.0 287.0C172.10457 287.0 173.0 287.89542 173.0 289.0Z" fill-rule="nonzero"/><path stroke="#000000" stroke-width="0.0" stroke-linecap="butt" stroke-opacity="0.0" clip-path="url(#id_0)" d="M267.0 298.0L206.0 298.0L206.0 277.0C206.0 275.89542 206.89543 275.0 208.0 275.0L265.0 275.0C266.10458 275.0 267.0 275.89542 267.0 277.0Z" fill-rule="nonzero"/><path fill="#990000" clip-path="url(#id_0)" d="M267.0 298.0L206.0 298.0L206.0 277.0C206.0 275.89542 206.89543 275.0 208.0 275.0L265.0 275.0C266.10458 275.0 267.0 275.89542 267.0 277.0Z" fill-rule="nonzero"/><path stroke="#000000" stroke-width="0.0" stroke-linecap="butt" stroke-opacity="0.0" clip-path="url(#id_0)" d="M361.0 298.0L300.0 298.0L300.0 253.0C300.0 251.89543 300.89542 251.0 302.0 251.0L359.0 251.0C360.10458 251.0 361.0 251.89543 361.0 253.0Z" fill-rule="nonzero"/><path fill="#990000" clip-path="url(#id_0)" d="M361.0 298.0L300.0 298.0L300.0 253.0C300.0 251.89543 300.89542 251.0 302.0 251.0L359.0 251.0C360.10458 251.0 361.0 251.89543 361.0 253.0Z" fill-rule="nonzero"/><path stroke="#000000" stroke-width="0.0" stroke-linecap="butt" stroke-opacity="0.0" clip-path="url(#id_0)" d="M455.0 298.0L394.0 298.0L394.0 206.0C394.0 204.89543 394.89542 204.0 396.0 204.0L453.0 204.0C454.10458 204.0 455.0 204.89543 455.0 206.0Z" fill-rule="nonzero"/><path fill="#990000" clip-path="url(#id_0)" d="M455.0 298.0L394.0 298.0L394.0 206.0C394.0 204.89543 394.89542 204.0 396.0 204.0L453.0 204.0C454.10458 204.0 455.0 204.89543 455.0 206.0Z" fill-rule="nonzero"/><path stroke="#000000" stroke-width="0.0" stroke-linecap="butt" stroke-opacity="0.0" clip-path="url(#id_0)" d="M549.0 298.0L488.0 298.0L488.0 112.0C488.0 110.89543 488.89542 110.0 490.0 110.0L547.0 110.0C548.10455 110.0 549.0 110.89543 549.0 112.0Z" fill-rule="nonzero"/><path fill="#990000" clip-path="url(#id_0)" d="M549.0 298.0L488.0 298.0L488.0 112.0C488.0 110.89543 488.89542 110.0 490.0 110.0L547.0 110.0C548.10455 110.0 549.0 110.89543 549.0 112.0Z" fill-rule="nonzero"/><path stroke="#ffffff" stroke-width="3.0" stroke-linejoin="round" stroke-linecap="round" d="M144.92188 271.64835L139.07812 271.64835L139.07812 270.4921L141.84375 267.53897Q142.40625 266.9296 142.67188 266.46085Q142.95312 265.9921 142.95312 265.58585Q142.95312 265.00772 142.65625 264.69522Q142.375 264.3671 141.84375 264.3671Q141.26562 264.3671 140.9375 264.75772Q140.60938 265.14835 140.60938 265.8046L138.90625 265.8046Q138.90625 265.02335 139.28125 264.38272Q139.65625 263.72647 140.32812 263.3671Q141.01562 262.9921 141.875 262.9921Q143.1875 262.9921 143.92188 263.63272Q144.65625 264.25772 144.65625 265.41397Q144.65625 266.0546 144.32812 266.71085Q144.0 267.3671 143.20312 268.2421L141.26562 270.28897L144.92188 270.28897L144.92188 271.64835Z" fill-rule="nonzero"/><path fill="#990000" d="M144.92188 271.64835L139.07812 271.64835L139.07812 270.4921L141.84375 267.53897Q142.40625 266.9296 142.67188 266.46085Q142.95312 265.9921 142.95312 265.58585Q142.95312 265.00772 142.65625 264.69522Q142.375 264.3671 141.84375 264.3671Q141.26562 264.3671 140.9375 264.75772Q140.60938 265.14835 140.60938 265.8046L138.90625 265.8046Q138.90625 265.02335 139.28125 264.38272Q139.65625 263.72647 140.32812 263.3671Q141.01562 262.9921 141.875 262.9921Q143.1875 262.9921 143.92188 263.63272Q144.65625 264.25772 144.65625 265.41397Q144.65625 266.0546 144.32812 266.71085Q144.0 267.3671 143.20312 268.2421L141.26562 270.28897L144.92188 270.28897L144.92188 271.64835Z" fill-rule="nonzero"/><path stroke="#990000" stroke-width="3.0" stroke-linejoin="round" stroke-linecap="round" d="M238.09375 287.9296L239.0625 287.9296L239.0625 289.3046L238.09375 289.3046L238.09375 291.14835L236.39062 291.14835L236.39062 289.3046L232.90625 289.3046L232.82812 288.2421L236.375 282.6171L238.09375 282.6171L238.09375 287.9296ZM234.51562 287.9296L236.39062 287.9296L236.39062 284.9296L236.28125 285.1171L234.51562 287.9296Z" fill-rule="nonzero"/><path fill="#ffffff" d="M238.09375 287.9296L239.0625 287.9296L239.0625 289.3046L238.09375 289.3046L238.09375 291.14835L236.39062 291.14835L236.39062 289.3046L232.90625 289.3046L232.82812 288.2421L236.375 282.6171L238.09375 282.6171L238.09375 287.9296ZM234.51562 287.9296L236.39062 287.9296L236.39062 284.9296L236.28125 285.1171L234.51562 287.9296Z" fill-rule="nonzero"/><path stroke="#990000" stroke-width="3.0" stroke-linejoin="round" stroke-linecap="round" d="M332.64062 261.7777Q332.64062 262.4027 332.32812 262.8871Q332.01562 263.35583 331.46875 263.6527Q332.09375 263.9496 332.45312 264.48083Q332.82812 264.99646 332.82812 265.6996Q332.82812 266.8402 332.04688 267.5121Q331.28125 268.16833 329.9375 268.16833Q328.60938 268.16833 327.82812 267.5121Q327.0625 266.8402 327.0625 265.6996Q327.0625 264.99646 327.42188 264.4652Q327.78125 263.93396 328.40625 263.6527Q327.85938 263.35583 327.54688 262.8871Q327.23438 262.4027 327.23438 261.7777Q327.23438 260.68396 327.95312 260.04333Q328.6875 259.3871 329.9375 259.3871Q331.1875 259.3871 331.90625 260.04333Q332.64062 260.68396 332.64062 261.7777ZM331.125 265.5746Q331.125 265.0277 330.79688 264.6996Q330.48438 264.35583 329.9375 264.35583Q329.39062 264.35583 329.0625 264.68396Q328.75 265.0121 328.75 265.5746Q328.75 266.12146 329.0625 266.4652Q329.39062 266.79333 329.95312 266.79333Q330.5 266.79333 330.8125 266.48083Q331.125 266.1527 331.125 265.5746ZM330.95312 261.85583Q330.95312 261.35583 330.6875 261.05896Q330.42188 260.7621 329.9375 260.7621Q329.46875 260.7621 329.20312 261.05896Q328.9375 261.3402 328.9375 261.85583Q328.9375 262.37146 329.20312 262.68396Q329.46875 262.99646 329.9375 262.99646Q330.42188 262.99646 330.6875 262.68396Q330.95312 262.37146 330.95312 261.85583Z" fill-rule="nonzero"/><path fill="#ffffff" d="M332.64062 261.7777Q332.64062 262.4027 332.32812 262.8871Q332.01562 263.35583 331.46875 263.6527Q332.09375 263.9496 332.45312 264.48083Q332.82812 264.99646 332.82812 265.6996Q332.82812 266.8402 332.04688 267.5121Q331.28125 268.16833 329.9375 268.16833Q328.60938 268.16833 327.82812 267.5121Q327.0625 266.8402 327.0625 265.6996Q327.0625 264.99646 327.42188 264.4652Q327.78125 263.93396 328.40625 263.6527Q327.85938 263.35583 327.54688 262.8871Q327.23438 262.4027 327.23438 261.7777Q327.23438 260.68396 327.95312 260.04333Q328.6875 259.3871 329.9375 259.3871Q331.1875 259.3871 331.90625 260.04333Q332.64062 260.68396 332.64062 261.7777ZM331.125 265.5746Q331.125 265.0277 330.79688 264.6996Q330.48438 264.35583 329.9375 264.35583Q329.39062 264.35583 329.0625 264.68396Q328.75 265.0121 328.75 265.5746Q328.75 266.12146 329.0625 266.4652Q329.39062 266.79333 329.95312 266.79333Q330.5 266.79333 330.8125 266.48083Q331.125 266.1527 331.125 265.5746ZM330.95312 261.85583Q330.95312 261.35583 330.6875 261.05896Q330.42188 260.7621 329.9375 260.7621Q329.46875 260.7621 329.20312 261.05896Q328.9375 261.3402 328.9375 261.85583Q328.9375 262.37146 329.20312 262.68396Q329.46875 262.99646 329.9375 262.99646Q330.42188 262.99646 330.6875 262.68396Q330.95312 262.37146 330.95312 261.85583Z" fill-rule="nonzero"/><path stroke="#990000" stroke-width="3.0" stroke-linejoin="round" stroke-linecap="round" d="M421.6875 220.83667L420.0 220.83667L420.0 214.30542L417.98438 214.93042L417.98438 213.55542L421.51562 212.2898L421.6875 212.2898L421.6875 220.83667ZM429.17188 212.21167L429.17188 213.61792L429.01562 213.61792Q427.85938 213.63354 427.15625 214.21167Q426.46875 214.7898 426.32812 215.82104Q427.0 215.13354 428.03125 215.13354Q429.15625 215.13354 429.8125 215.93042Q430.46875 216.7273 430.46875 218.02417Q430.46875 218.8523 430.10938 219.52417Q429.75 220.19604 429.07812 220.58667Q428.42188 220.96167 427.59375 220.96167Q426.25 220.96167 425.42188 220.02417Q424.59375 219.07104 424.59375 217.50854L424.59375 216.89917Q424.59375 215.50854 425.10938 214.44604Q425.64062 213.38354 426.60938 212.80542Q427.59375 212.2273 428.89062 212.21167L429.17188 212.21167ZM427.51562 216.49292Q427.10938 216.49292 426.76562 216.71167Q426.4375 216.9148 426.28125 217.27417L426.28125 217.7898Q426.28125 218.63354 426.60938 219.11792Q426.95312 219.58667 427.5625 219.58667Q428.10938 219.58667 428.4375 219.1648Q428.78125 218.7273 428.78125 218.0398Q428.78125 217.33667 428.4375 216.9148Q428.09375 216.49292 427.51562 216.49292Z" fill-rule="nonzero"/><path fill="#ffffff" d="M421.6875 220.83667L420.0 220.83667L420.0 214.30542L417.98438 214.93042L417.98438 213.55542L421.51562 212.2898L421.6875 212.2898L421.6875 220.83667ZM429.17188 212.21167L429.17188 213.61792L429.01562 213.61792Q427.85938 213.63354 427.15625 214.21167Q426.46875 214.7898 426.32812 215.82104Q427.0 215.13354 428.03125 215.13354Q429.15625 215.13354 429.8125 215.93042Q430.46875 216.7273 430.46875 218.02417Q430.46875 218.8523 430.10938 219.52417Q429.75 220.19604 429.07812 220.58667Q428.42188 220.96167 427.59375 220.96167Q426.25 220.96167 425.42188 220.02417Q424.59375 219.07104 424.59375 217.50854L424.59375 216.89917Q424.59375 215.50854 425.10938 214.44604Q425.64062 213.38354 426.60938 212.80542Q427.59375 212.2273 428.89062 212.21167L429.17188 212.21167ZM427.51562 216.49292Q427.10938 216.49292 426.76562 216.71167Q426.4375 216.9148 426.28125 217.27417L426.28125 217.7898Q426.28125 218.63354 426.60938 219.11792Q426.95312 219.58667 427.5625 219.58667Q428.10938 219.58667 428.4375 219.1648Q428.78125 218.7273 428.78125 218.0398Q428.78125 217.33667 428.4375 216.9148Q428.09375 216.49292 427.51562 216.49292Z" fill-rule="nonzero"/><path stroke="#990000" stroke-width="3.0" stroke-linejoin="round" stroke-linecap="round" d="M513.2969 121.40771L514.2031 121.40771Q514.84375 121.40771 515.15625 121.09521Q515.46875 120.76708 515.46875 120.23583Q515.46875 119.72021 515.15625 119.43896Q514.8594 119.14208 514.3125 119.14208Q513.8281 119.14208 513.5 119.40771Q513.1719 119.67333 513.1719 120.09521L511.48438 120.09521Q511.48438 119.43896 511.84375 118.90771Q512.2031 118.37646 512.84375 118.07958Q513.5 117.76708 514.28125 117.76708Q515.625 117.76708 516.3906 118.42333Q517.1719 119.06396 517.1719 120.20458Q517.1719 120.79833 516.8125 121.29833Q516.4531 121.78271 515.875 122.03271Q516.59375 122.29833 516.9375 122.81396Q517.2969 123.32958 517.2969 124.03271Q517.2969 125.17333 516.46875 125.86083Q515.6406 126.54833 514.28125 126.54833Q513.0 126.54833 512.1875 125.87646Q511.375 125.18896 511.375 124.07958L513.0625 124.07958Q513.0625 124.56396 513.4219 124.87646Q513.7969 125.17333 514.3125 125.17333Q514.9219 125.17333 515.2656 124.86083Q515.6094 124.53271 515.6094 124.00146Q515.6094 122.73583 514.2031 122.73583L513.2969 122.73583L513.2969 121.40771ZM524.4219 126.42333L518.5781 126.42333L518.5781 125.26708L521.34375 122.31396Q521.90625 121.70458 522.1719 121.23583Q522.4531 120.76708 522.4531 120.36083Q522.4531 119.78271 522.15625 119.47021Q521.875 119.14208 521.34375 119.14208Q520.7656 119.14208 520.4375 119.53271Q520.1094 119.92333 520.1094 120.57958L518.40625 120.57958Q518.40625 119.79833 518.78125 119.15771Q519.15625 118.50146 519.8281 118.14208Q520.5156 117.76708 521.375 117.76708Q522.6875 117.76708 523.4219 118.40771Q524.15625 119.03271 524.15625 120.18896Q524.15625 120.82958 523.8281 121.48583Q523.5 122.14208 522.7031 123.01708L520.7656 125.06396L524.4219 125.06396L524.4219 126.42333Z" fill-rule="nonzero"/><path fill="#ffffff" d="M513.2969 121.40771L514.2031 121.40771Q514.84375 121.40771 515.15625 121.09521Q515.46875 120.76708 515.46875 120.23583Q515.46875 119.72021 515.15625 119.43896Q514.8594 119.14208 514.3125 119.14208Q513.8281 119.14208 513.5 119.40771Q513.1719 119.67333 513.1719 120.09521L511.48438 120.09521Q511.48438 119.43896 511.84375 118.90771Q512.2031 118.37646 512.84375 118.07958Q513.5 117.76708 514.28125 117.76708Q515.625 117.76708 516.3906 118.42333Q517.1719 119.06396 517.1719 120.20458Q517.1719 120.79833 516.8125 121.29833Q516.4531 121.78271 515.875 122.03271Q516.59375 122.29833 516.9375 122.81396Q517.2969 123.32958 517.2969 124.03271Q517.2969 125.17333 516.46875 125.86083Q515.6406 126.54833 514.28125 126.54833Q513.0 126.54833 512.1875 125.87646Q511.375 125.18896 511.375 124.07958L513.0625 124.07958Q513.0625 124.56396 513.4219 124.87646Q513.7969 125.17333 514.3125 125.17333Q514.9219 125.17333 515.2656 124.86083Q515.6094 124.53271 515.6094 124.00146Q515.6094 122.73583 514.2031 122.73583L513.2969 122.73583L513.2969 121.40771ZM524.4219 126.42333L518.5781 126.42333L518.5781 125.26708L521.34375 122.31396Q521.90625 121.70458 522.1719 121.23583Q522.4531 120.76708 522.4531 120.36083Q522.4531 119.78271 522.15625 119.47021Q521.875 119.14208 521.34375 119.14208Q520.7656 119.14208 520.4375 119.53271Q520.1094 119.92333 520.1094 120.57958L518.40625 120.57958Q518.40625 119.79833 518.78125 119.15771Q519.15625 118.50146 519.8281 118.14208Q520.5156 117.76708 521.375 117.76708Q522.6875 117.76708 523.4219 118.40771Q524.15625 119.03271 524.15625 120.18896Q524.15625 120.82958 523.8281 121.48583Q523.5 122.14208 522.7031 123.01708L520.7656 125.06396L524.4219 125.06396L524.4219 126.42333Z" fill-rule="nonzero"/><path fill="#424242" d="M267.39062 341.84064L264.64062 341.84064L264.64062 349.45L263.53125 349.45L263.53125 341.84064L260.78125 341.84064L260.78125 340.91876L267.39062 340.91876L267.39062 341.84064ZM270.95312 349.575Q269.65625 349.575 268.84375 348.73126Q268.04688 347.8719 268.04688 346.45L268.04688 346.2625Q268.04688 345.3094 268.40625 344.575Q268.76562 343.825 269.40625 343.41876Q270.0625 342.9969 270.8125 342.9969Q272.04688 342.9969 272.73438 343.8094Q273.42188 344.6219 273.42188 346.1375L273.42188 346.59064L269.125 346.59064Q269.15625 347.52814 269.67188 348.10626Q270.20312 348.6844 271.01562 348.6844Q271.57812 348.6844 271.96875 348.45Q272.375 348.21564 272.6875 347.825L273.34375 348.34064Q272.54688 349.575 270.95312 349.575ZM270.8125 343.8875Q270.15625 343.8875 269.70312 344.3719Q269.26562 344.84064 269.17188 345.7L272.34375 345.7L272.34375 345.6219Q272.29688 344.79376 271.89062 344.34064Q271.5 343.8875 270.8125 343.8875ZM275.34375 343.10626L275.375 343.8094Q276.0625 342.9969 277.25 342.9969Q278.57812 342.9969 279.0625 344.0125Q279.375 343.5594 279.875 343.27814Q280.39062 342.9969 281.07812 342.9969Q283.17188 342.9969 283.20312 345.2L283.20312 349.45L282.125 349.45L282.125 345.2625Q282.125 344.59064 281.8125 344.2625Q281.5 343.91876 280.76562 343.91876Q280.15625 343.91876 279.75 344.27814Q279.35938 344.6375 279.29688 345.2469L279.29688 349.45L278.21875 349.45L278.21875 345.29376Q278.21875 343.91876 276.85938 343.91876Q275.79688 343.91876 275.40625 344.825L275.40625 349.45L274.3125 349.45L274.3125 343.10626L275.34375 343.10626ZM290.67188 346.35626Q290.67188 347.79376 290.01562 348.6844Q289.35938 349.575 288.21875 349.575Q287.0625 349.575 286.40625 348.84064L286.40625 351.8875L285.32812 351.8875L285.32812 343.10626L286.3125 343.10626L286.35938 343.8094Q287.03125 342.9969 288.20312 342.9969Q289.34375 342.9969 290.0 343.85626Q290.67188 344.71564 290.67188 346.2469L290.67188 346.35626ZM289.59375 346.23126Q289.59375 345.15314 289.125 344.54376Q288.67188 343.91876 287.875 343.91876Q286.89062 343.91876 286.40625 344.77814L286.40625 347.8094Q286.89062 348.6844 287.89062 348.6844Q288.67188 348.6844 289.125 348.075Q289.59375 347.45 289.59375 346.23126ZM292.03125 346.21564Q292.03125 345.29376 292.39062 344.54376Q292.76562 343.79376 293.42188 343.40314Q294.07812 342.9969 294.90625 342.9969Q296.20312 342.9969 297.0 343.8875Q297.8125 344.77814 297.8125 346.27814L297.8125 346.35626Q297.8125 347.27814 297.45312 348.0125Q297.09375 348.7469 296.4375 349.16876Q295.78125 349.575 294.92188 349.575Q293.64062 349.575 292.82812 348.6844Q292.03125 347.77814 292.03125 346.29376L292.03125 346.21564ZM293.125 346.35626Q293.125 347.40314 293.60938 348.04376Q294.10938 348.6844 294.92188 348.6844Q295.75 348.6844 296.23438 348.04376Q296.71875 347.3875 296.71875 346.21564Q296.71875 345.1844 296.21875 344.54376Q295.73438 343.8875 294.90625 343.8875Q294.10938 343.8875 293.60938 344.52814Q293.125 345.15314 293.125 346.35626ZM302.28125 345.98126Q302.28125 344.66876 302.625 343.45Q302.98438 342.23126 303.6875 341.23126Q304.39062 340.23126 305.15625 339.825L305.375 340.54376Q304.51562 341.2 303.96875 342.54376Q303.42188 343.8875 303.375 345.5594L303.35938 346.0594Q303.35938 348.325 304.1875 349.98126Q304.6875 350.98126 305.375 351.54376L305.15625 352.2Q304.375 351.77814 303.65625 350.7469Q302.28125 348.7625 302.28125 345.98126ZM307.34375 343.10626L307.375 343.8094Q308.0625 342.9969 309.25 342.9969Q310.57812 342.9969 311.0625 344.0125Q311.375 343.5594 311.875 343.27814Q312.39062 342.9969 313.07812 342.9969Q315.17188 342.9969 315.20312 345.2L315.20312 349.45L314.125 349.45L314.125 345.2625Q314.125 344.59064 313.8125 344.2625Q313.5 343.91876 312.76562 343.91876Q312.15625 343.91876 311.75 344.27814Q311.35938 344.6375 311.29688 345.2469L311.29688 349.45L310.21875 349.45L310.21875 345.29376Q310.21875 343.91876 308.85938 343.91876Q307.79688 343.91876 307.40625 344.825L307.40625 349.45L306.3125 349.45L306.3125 343.10626L307.34375 343.10626ZM318.5 349.45L317.42188 349.45L317.42188 343.10626L318.5 343.10626L318.5 349.45ZM317.32812 341.4344Q317.32812 341.16876 317.48438 340.98126Q317.65625 340.79376 317.96875 340.79376Q318.28125 340.79376 318.4375 340.98126Q318.60938 341.16876 318.60938 341.4344Q318.60938 341.6844 318.4375 341.8719Q318.28125 342.04376 317.96875 342.04376Q317.65625 342.04376 317.48438 341.8719Q317.32812 341.6844 317.32812 341.4344ZM322.85938 348.6844Q323.4375 348.6844 323.875 348.34064Q324.3125 347.98126 324.35938 347.45L325.39062 347.45Q325.35938 347.9969 325.0 348.4969Q324.65625 348.98126 324.07812 349.27814Q323.51562 349.575 322.85938 349.575Q321.5625 349.575 320.79688 348.71564Q320.04688 347.84064 320.04688 346.34064L320.04688 346.15314Q320.04688 345.23126 320.375 344.5125Q320.71875 343.79376 321.34375 343.40314Q321.98438 342.9969 322.85938 342.9969Q323.92188 342.9969 324.625 343.6375Q325.34375 344.2625 325.39062 345.29376L324.35938 345.29376Q324.3125 344.66876 323.89062 344.27814Q323.46875 343.8875 322.85938 343.8875Q322.03125 343.8875 321.57812 344.48126Q321.125 345.075 321.125 346.2L321.125 346.40314Q321.125 347.4969 321.57812 348.09064Q322.03125 348.6844 322.85938 348.6844ZM329.39062 344.075Q329.14062 344.04376 328.85938 344.04376Q327.78125 344.04376 327.40625 344.95L327.40625 349.45L326.32812 349.45L326.32812 343.10626L327.375 343.10626L327.39062 343.84064Q327.92188 342.9969 328.90625 342.9969Q329.21875 342.9969 329.39062 343.075L329.39062 344.075ZM330.03125 346.21564Q330.03125 345.29376 330.39062 344.54376Q330.76562 343.79376 331.42188 343.40314Q332.07812 342.9969 332.90625 342.9969Q334.20312 342.9969 335.0 343.8875Q335.8125 344.77814 335.8125 346.27814L335.8125 346.35626Q335.8125 347.27814 335.45312 348.0125Q335.09375 348.7469 334.4375 349.16876Q333.78125 349.575 332.92188 349.575Q331.64062 349.575 330.82812 348.6844Q330.03125 347.77814 330.03125 346.29376L330.03125 346.21564ZM331.125 346.35626Q331.125 347.40314 331.60938 348.04376Q332.10938 348.6844 332.92188 348.6844Q333.75 348.6844 334.23438 348.04376Q334.71875 347.3875 334.71875 346.21564Q334.71875 345.1844 334.21875 344.54376Q333.73438 343.8875 332.90625 343.8875Q332.10938 343.8875 331.60938 344.52814Q331.125 345.15314 331.125 346.35626ZM341.01562 347.7625Q341.01562 347.325 340.67188 347.09064Q340.34375 346.84064 339.51562 346.66876Q338.70312 346.4969 338.21875 346.2469Q337.73438 345.9969 337.5 345.66876Q337.28125 345.325 337.28125 344.85626Q337.28125 344.075 337.9375 343.54376Q338.59375 342.9969 339.625 342.9969Q340.70312 342.9969 341.35938 343.5594Q342.03125 344.10626 342.03125 344.96564L340.95312 344.96564Q340.95312 344.52814 340.5625 344.21564Q340.1875 343.8875 339.625 343.8875Q339.03125 343.8875 338.6875 344.15314Q338.35938 344.40314 338.35938 344.8094Q338.35938 345.2 338.67188 345.40314Q338.98438 345.60626 339.79688 345.79376Q340.60938 345.96564 341.10938 346.21564Q341.60938 346.46564 341.84375 346.825Q342.09375 347.1844 342.09375 347.6844Q342.09375 348.54376 341.40625 349.0594Q340.73438 349.575 339.65625 349.575Q338.89062 349.575 338.29688 349.3094Q337.71875 349.02814 337.39062 348.54376Q337.0625 348.0594 337.0625 347.4969L338.14062 347.4969Q338.17188 348.04376 338.57812 348.3719Q338.98438 348.6844 339.65625 348.6844Q340.26562 348.6844 340.64062 348.4344Q341.01562 348.1844 341.01562 347.7625ZM347.01562 347.7625Q347.01562 347.325 346.67188 347.09064Q346.34375 346.84064 345.51562 346.66876Q344.70312 346.4969 344.21875 346.2469Q343.73438 345.9969 343.5 345.66876Q343.28125 345.325 343.28125 344.85626Q343.28125 344.075 343.9375 343.54376Q344.59375 342.9969 345.625 342.9969Q346.70312 342.9969 347.35938 343.5594Q348.03125 344.10626 348.03125 344.96564L346.95312 344.96564Q346.95312 344.52814 346.5625 344.21564Q346.1875 343.8875 345.625 343.8875Q345.03125 343.8875 344.6875 344.15314Q344.35938 344.40314 344.35938 344.8094Q344.35938 345.2 344.67188 345.40314Q344.98438 345.60626 345.79688 345.79376Q346.60938 345.96564 347.10938 346.21564Q347.60938 346.46564 347.84375 346.825Q348.09375 347.1844 348.09375 347.6844Q348.09375 348.54376 347.40625 349.0594Q346.73438 349.575 345.65625 349.575Q344.89062 349.575 344.29688 349.3094Q343.71875 349.02814 343.39062 348.54376Q343.0625 348.0594 343.0625 347.4969L344.14062 347.4969Q344.17188 348.04376 344.57812 348.3719Q344.98438 348.6844 345.65625 348.6844Q346.26562 348.6844 346.64062 348.4344Q347.01562 348.1844 347.01562 347.7625ZM351.95312 349.575Q350.65625 349.575 349.84375 348.73126Q349.04688 347.8719 349.04688 346.45L349.04688 346.2625Q349.04688 345.3094 349.40625 344.575Q349.76562 343.825 350.40625 343.41876Q351.0625 342.9969 351.8125 342.9969Q353.04688 342.9969 353.73438 343.8094Q354.42188 344.6219 354.42188 346.1375L354.42188 346.59064L350.125 346.59064Q350.15625 347.52814 350.67188 348.10626Q351.20312 348.6844 352.01562 348.6844Q352.57812 348.6844 352.96875 348.45Q353.375 348.21564 353.6875 347.825L354.34375 348.34064Q353.54688 349.575 351.95312 349.575ZM351.8125 343.8875Q351.15625 343.8875 350.70312 344.3719Q350.26562 344.84064 350.17188 345.7L353.34375 345.7L353.34375 345.6219Q353.29688 344.79376 352.89062 344.34064Q352.5 343.8875 351.8125 343.8875ZM355.0625 346.23126Q355.0625 344.7469 355.75 343.8719Q356.4375 342.9969 357.5625 342.9969Q358.71875 342.9969 359.375 343.8094L359.42188 343.10626L360.42188 343.10626L360.42188 349.29376Q360.42188 350.52814 359.6875 351.23126Q358.95312 351.95 357.73438 351.95Q357.04688 351.95 356.39062 351.65314Q355.73438 351.35626 355.39062 350.85626L355.95312 350.2Q356.64062 351.0594 357.65625 351.0594Q358.4375 351.0594 358.875 350.60626Q359.32812 350.16876 359.32812 349.35626L359.32812 348.8094Q358.67188 349.575 357.54688 349.575Q356.4375 349.575 355.75 348.6844Q355.0625 347.77814 355.0625 346.23126ZM356.15625 346.35626Q356.15625 347.41876 356.59375 348.04376Q357.03125 348.65314 357.82812 348.65314Q358.84375 348.65314 359.32812 347.71564L359.32812 344.825Q358.82812 343.91876 357.82812 343.91876Q357.04688 343.91876 356.59375 344.52814Q356.15625 345.1375 356.15625 346.35626ZM366.23438 348.825Q365.60938 349.575 364.375 349.575Q363.35938 349.575 362.82812 348.98126Q362.29688 348.3875 362.29688 347.23126L362.29688 343.10626L363.375 343.10626L363.375 347.2Q363.375 348.65314 364.54688 348.65314Q365.79688 348.65314 366.20312 347.71564L366.20312 343.10626L367.29688 343.10626L367.29688 349.45L366.26562 349.45L366.23438 348.825ZM370.34375 343.10626L370.375 343.90314Q371.10938 342.9969 372.28125 342.9969Q374.29688 342.9969 374.3125 345.2625L374.3125 349.45L373.21875 349.45L373.21875 345.2469Q373.21875 344.575 372.90625 344.2469Q372.60938 343.91876 371.95312 343.91876Q371.42188 343.91876 371.01562 344.2Q370.625 344.48126 370.40625 344.9344L370.40625 349.45L369.32812 349.45L369.32812 343.10626L370.34375 343.10626ZM376.0625 346.23126Q376.0625 344.7625 376.75 343.8875Q377.4375 342.9969 378.5625 342.9969Q379.67188 342.9969 380.32812 343.7469L380.32812 340.45L381.40625 340.45L381.40625 349.45L380.40625 349.45L380.35938 348.7625Q379.70312 349.575 378.54688 349.575Q377.45312 349.575 376.75 348.66876Q376.0625 347.7625 376.0625 346.3094L376.0625 346.23126ZM377.14062 346.35626Q377.14062 347.4344 377.57812 348.04376Q378.03125 348.65314 378.8125 348.65314Q379.84375 348.65314 380.32812 347.71564L380.32812 344.8094Q379.84375 343.91876 378.82812 343.91876Q378.03125 343.91876 377.57812 344.52814Q377.14062 345.1375 377.14062 346.35626ZM383.03125 346.21564Q383.03125 345.29376 383.39062 344.54376Q383.76562 343.79376 384.42188 343.40314Q385.07812 342.9969 385.90625 342.9969Q387.20312 342.9969 388.0 343.8875Q388.8125 344.77814 388.8125 346.27814L388.8125 346.35626Q388.8125 347.27814 388.45312 348.0125Q388.09375 348.7469 387.4375 349.16876Q386.78125 349.575 385.92188 349.575Q384.64062 349.575 383.82812 348.6844Q383.03125 347.77814 383.03125 346.29376L383.03125 346.21564ZM384.125 346.35626Q384.125 347.40314 384.60938 348.04376Q385.10938 348.6844 385.92188 348.6844Q386.75 348.6844 387.23438 348.04376Q387.71875 347.3875 387.71875 346.21564Q387.71875 345.1844 387.21875 344.54376Q386.73438 343.8875 385.90625 343.8875Q385.10938 343.8875 384.60938 344.52814Q384.125 345.15314 384.125 346.35626ZM394.01562 347.7625Q394.01562 347.325 393.67188 347.09064Q393.34375 346.84064 392.51562 346.66876Q391.70312 346.4969 391.21875 346.2469Q390.73438 345.9969 390.5 345.66876Q390.28125 345.325 390.28125 344.85626Q390.28125 344.075 390.9375 343.54376Q391.59375 342.9969 392.625 342.9969Q393.70312 342.9969 394.35938 343.5594Q395.03125 344.10626 395.03125 344.96564L393.95312 344.96564Q393.95312 344.52814 393.5625 344.21564Q393.1875 343.8875 392.625 343.8875Q392.03125 343.8875 391.6875 344.15314Q391.35938 344.40314 391.35938 344.8094Q391.35938 345.2 391.67188 345.40314Q391.98438 345.60626 392.79688 345.79376Q393.60938 345.96564 394.10938 346.21564Q394.60938 346.46564 394.84375 346.825Q395.09375 347.1844 395.09375 347.6844Q395.09375 348.54376 394.40625 349.0594Q393.73438 349.575 392.65625 349.575Q391.89062 349.575 391.29688 349.3094Q390.71875 349.02814 390.39062 348.54376Q390.0625 348.0594 390.0625 347.4969L391.14062 347.4969Q391.17188 348.04376 391.57812 348.3719Q391.98438 348.6844 392.65625 348.6844Q393.26562 348.6844 393.64062 348.4344Q394.01562 348.1844 394.01562 347.7625ZM398.82812 346.04376Q398.82812 347.35626 398.48438 348.5594Q398.14062 349.7469 397.42188 350.7625Q396.71875 351.77814 395.95312 352.2L395.71875 351.54376Q396.625 350.85626 397.17188 349.40314Q397.71875 347.9344 397.73438 346.16876L397.73438 345.98126Q397.73438 344.7469 397.46875 343.6844Q397.21875 342.6219 396.75 341.79376Q396.29688 340.95 395.71875 340.48126L395.95312 339.825Q396.71875 340.2469 397.42188 341.2469Q398.125 342.2469 398.46875 343.46564Q398.82812 344.66876 398.82812 346.04376Z" fill-rule="nonzero"/><path fill="#424242" d="M27.206263 213.07396L30.550013 213.07396L30.550013 214.19896L22.018763 214.19896L22.018763 211.04271Q22.018763 209.65208 22.737513 208.85521Q23.440638 208.05833 24.628138 208.05833Q25.862513 208.05833 26.534388 208.83958Q27.206263 209.60521 27.206263 211.05833L27.206263 213.07396ZM26.284388 213.07396L26.284388 211.04271Q26.284388 210.13646 25.862513 209.66771Q25.440638 209.18333 24.643763 209.18333Q23.878138 209.18333 23.425013 209.66771Q22.956263 210.13646 22.940638 210.98021L22.940638 213.07396L26.284388 213.07396ZM25.175013 203.29271Q25.143763 203.54271 25.143763 203.82396Q25.143763 204.90208 26.050013 205.27708L30.550013 205.27708L30.550013 206.35521L24.206263 206.35521L24.206263 205.30833L24.940638 205.29271Q24.096888 204.76146 24.096888 203.77708Q24.096888 203.46458 24.175013 203.29271L25.175013 203.29271ZM27.315638 202.65208Q26.393763 202.65208 25.643763 202.29271Q24.893763 201.91771 24.503138 201.26146Q24.096888 200.60521 24.096888 199.77708Q24.096888 198.48021 24.987513 197.68333Q25.878138 196.87083 27.378138 196.87083L27.456263 196.87083Q28.378138 196.87083 29.112513 197.23021Q29.846888 197.58958 30.268763 198.24583Q30.675013 198.90208 30.675013 199.76146Q30.675013 201.04271 29.784388 201.85521Q28.878138 202.65208 27.393763 202.65208L27.315638 202.65208ZM27.456263 201.55833Q28.503138 201.55833 29.143763 201.07396Q29.784388 200.57396 29.784388 199.76146Q29.784388 198.93333 29.143763 198.44896Q28.487513 197.96458 27.315638 197.96458Q26.284388 197.96458 25.643763 198.46458Q24.987513 198.94896 24.987513 199.77708Q24.987513 200.57396 25.628138 201.07396Q26.253138 201.55833 27.456263 201.55833ZM29.784388 192.82396Q29.784388 192.24583 29.440638 191.80833Q29.081263 191.37083 28.550013 191.32396L28.550013 190.29271Q29.096888 190.32396 29.596888 190.68333Q30.081263 191.02708 30.378138 191.60521Q30.675013 192.16771 30.675013 192.82396Q30.675013 194.12083 29.815638 194.88646Q28.940638 195.63646 27.440638 195.63646L27.253138 195.63646Q26.331263 195.63646 25.612513 195.30833Q24.893763 194.96458 24.503138 194.33958Q24.096888 193.69896 24.096888 192.82396Q24.096888 191.76146 24.737513 191.05833Q25.362513 190.33958 26.393763 190.29271L26.393763 191.32396Q25.768763 191.37083 25.378138 191.79271Q24.987513 192.21458 24.987513 192.82396Q24.987513 193.65208 25.581263 194.10521Q26.175013 194.55833 27.300013 194.55833L27.503138 194.55833Q28.596888 194.55833 29.190638 194.10521Q29.784388 193.65208 29.784388 192.82396ZM30.675013 186.73021Q30.675013 188.02708 29.831263 188.83958Q28.971888 189.63646 27.550013 189.63646L27.362513 189.63646Q26.409388 189.63646 25.675013 189.27708Q24.925013 188.91771 24.518763 188.27708Q24.096888 187.62083 24.096888 186.87083Q24.096888 185.63646 24.909388 184.94896Q25.721888 184.26146 27.237513 184.26146L27.690638 184.26146L27.690638 188.55833Q28.628138 188.52708 29.206263 188.01146Q29.784388 187.48021 29.784388 186.66771Q29.784388 186.10521 29.550013 185.71458Q29.315638 185.30833 28.925013 184.99583L29.440638 184.33958Q30.675013 185.13646 30.675013 186.73021ZM24.987513 186.87083Q24.987513 187.52708 25.471888 187.98021Q25.940638 188.41771 26.800013 188.51146L26.800013 185.33958L26.721888 185.33958Q25.893763 185.38646 25.440638 185.79271Q24.987513 186.18333 24.987513 186.87083ZM28.862513 179.66771Q28.425013 179.66771 28.190638 180.01146Q27.940638 180.33958 27.768763 181.16771Q27.596888 181.98021 27.346888 182.46458Q27.096888 182.94896 26.768763 183.18333Q26.425013 183.40208 25.956263 183.40208Q25.175013 183.40208 24.643763 182.74583Q24.096888 182.08958 24.096888 181.05833Q24.096888 179.98021 24.659388 179.32396Q25.206263 178.65208 26.065638 178.65208L26.065638 179.73021Q25.628138 179.73021 25.315638 180.12083Q24.987513 180.49583 24.987513 181.05833Q24.987513 181.65208 25.253138 181.99583Q25.503138 182.32396 25.909388 182.32396Q26.300013 182.32396 26.503138 182.01146Q26.706263 181.69896 26.893763 180.88646Q27.065638 180.07396 27.315638 179.57396Q27.565638 179.07396 27.925013 178.83958Q28.284388 178.58958 28.784388 178.58958Q29.643763 178.58958 30.159388 179.27708Q30.675013 179.94896 30.675013 181.02708Q30.675013 181.79271 30.409388 182.38646Q30.128138 182.96458 29.643763 183.29271Q29.159388 183.62083 28.596888 183.62083L28.596888 182.54271Q29.143763 182.51146 29.471888 182.10521Q29.784388 181.69896 29.784388 181.02708Q29.784388 180.41771 29.534388 180.04271Q29.284388 179.66771 28.862513 179.66771ZM28.862513 173.66771Q28.425013 173.66771 28.190638 174.01146Q27.940638 174.33958 27.768763 175.16771Q27.596888 175.98021 27.346888 176.46458Q27.096888 176.94896 26.768763 177.18333Q26.425013 177.40208 25.956263 177.40208Q25.175013 177.40208 24.643763 176.74583Q24.096888 176.08958 24.096888 175.05833Q24.096888 173.98021 24.659388 173.32396Q25.206263 172.65208 26.065638 172.65208L26.065638 173.73021Q25.628138 173.73021 25.315638 174.12083Q24.987513 174.49583 24.987513 175.05833Q24.987513 175.65208 25.253138 175.99583Q25.503138 176.32396 25.909388 176.32396Q26.300013 176.32396 26.503138 176.01146Q26.706263 175.69896 26.893763 174.88646Q27.065638 174.07396 27.315638 173.57396Q27.565638 173.07396 27.925013 172.83958Q28.284388 172.58958 28.784388 172.58958Q29.643763 172.58958 30.159388 173.27708Q30.675013 173.94896 30.675013 175.02708Q30.675013 175.79271 30.409388 176.38646Q30.128138 176.96458 29.643763 177.29271Q29.159388 177.62083 28.596888 177.62083L28.596888 176.54271Q29.143763 176.51146 29.471888 176.10521Q29.784388 175.69896 29.784388 175.02708Q29.784388 174.41771 29.534388 174.04271Q29.284388 173.66771 28.862513 173.66771ZM27.315638 171.65208Q26.393763 171.65208 25.643763 171.29271Q24.893763 170.91771 24.503138 170.26146Q24.096888 169.60521 24.096888 168.77708Q24.096888 167.48021 24.987513 166.68333Q25.878138 165.87083 27.378138 165.87083L27.456263 165.87083Q28.378138 165.87083 29.112513 166.23021Q29.846888 166.58958 30.268763 167.24583Q30.675013 167.90208 30.675013 168.76146Q30.675013 170.04271 29.784388 170.85521Q28.878138 171.65208 27.393763 171.65208L27.315638 171.65208ZM27.456263 170.55833Q28.503138 170.55833 29.143763 170.07396Q29.784388 169.57396 29.784388 168.76146Q29.784388 167.93333 29.143763 167.44896Q28.487513 166.96458 27.315638 166.96458Q26.284388 166.96458 25.643763 167.46458Q24.987513 167.94896 24.987513 168.77708Q24.987513 169.57396 25.628138 170.07396Q26.253138 170.55833 27.456263 170.55833ZM28.862513 160.66771Q28.425013 160.66771 28.190638 161.01146Q27.940638 161.33958 27.768763 162.16771Q27.596888 162.98021 27.346888 163.46458Q27.096888 163.94896 26.768763 164.18333Q26.425013 164.40208 25.956263 164.40208Q25.175013 164.40208 24.643763 163.74583Q24.096888 163.08958 24.096888 162.05833Q24.096888 160.98021 24.659388 160.32396Q25.206263 159.65208 26.065638 159.65208L26.065638 160.73021Q25.628138 160.73021 25.315638 161.12083Q24.987513 161.49583 24.987513 162.05833Q24.987513 162.65208 25.253138 162.99583Q25.503138 163.32396 25.909388 163.32396Q26.300013 163.32396 26.503138 163.01146Q26.706263 162.69896 26.893763 161.88646Q27.065638 161.07396 27.315638 160.57396Q27.565638 160.07396 27.925013 159.83958Q28.284388 159.58958 28.784388 159.58958Q29.643763 159.58958 30.159388 160.27708Q30.675013 160.94896 30.675013 162.02708Q30.675013 162.79271 30.409388 163.38646Q30.128138 163.96458 29.643763 164.29271Q29.159388 164.62083 28.596888 164.62083L28.596888 163.54271Q29.143763 163.51146 29.471888 163.10521Q29.784388 162.69896 29.784388 162.02708Q29.784388 161.41771 29.534388 161.04271Q29.284388 160.66771 28.862513 160.66771Z" fill-rule="nonzero"/><path fill="#757575" d="M71.6125 299.3094Q71.6125 301.21564 70.95625 302.15314Q70.31563 303.075 68.925 303.075Q67.56563 303.075 66.90938 302.16876Q66.25313 301.2625 66.22188 299.45L66.22188 298.0125Q66.22188 296.1219 66.8625 295.21564Q67.51875 294.29376 68.90938 294.29376Q70.28438 294.29376 70.94063 295.1844Q71.59688 296.0594 71.6125 297.90314L71.6125 299.3094ZM70.51875 297.825Q70.51875 296.45 70.12813 295.825Q69.75313 295.1844 68.90938 295.1844Q68.08125 295.1844 67.69063 295.825Q67.31563 296.45 67.31563 297.7469L67.31563 299.48126Q67.31563 300.85626 67.70625 301.52814Q68.1125 302.1844 68.925 302.1844Q69.72188 302.1844 70.1125 301.5594Q70.50313 300.9344 70.51875 299.60626L70.51875 297.825Z" fill-rule="nonzero"/><path fill="#757575" d="M62.815624 243.94167L61.7375 243.94167L61.7375 236.72292L59.55 237.51979L59.55 236.53542L62.659374 235.36354L62.815624 235.36354L62.815624 243.94167ZM71.6125 240.30104Q71.6125 242.20729 70.95625 243.14479Q70.31563 244.06667 68.925 244.06667Q67.56563 244.06667 66.90938 243.16042Q66.25313 242.25417 66.22188 240.44167L66.22188 239.00417Q66.22188 237.11354 66.8625 236.20729Q67.51875 235.28542 68.90938 235.28542Q70.28438 235.28542 70.94063 236.17604Q71.59688 237.05104 71.6125 238.89479L71.6125 240.30104ZM70.51875 238.81667Q70.51875 237.44167 70.12813 236.81667Q69.75313 236.17604 68.90938 236.17604Q68.08125 236.17604 67.69063 236.81667Q67.31563 237.44167 67.31563 238.73854L67.31563 240.47292Q67.31563 241.84792 67.70625 242.51979Q68.1125 243.17604 68.925 243.17604Q69.72188 243.17604 70.1125 242.55104Q70.50313 241.92604 70.51875 240.59792L70.51875 238.81667Z" fill-rule="nonzero"/><path fill="#757575" d="M64.84688 184.93333L59.253124 184.93333L59.253124 184.15208L62.20625 180.87083Q62.8625 180.12083 63.1125 179.66771Q63.3625 179.19896 63.3625 178.69896Q63.3625 178.02708 62.95625 177.60521Q62.565624 177.16771 61.878124 177.16771Q61.08125 177.16771 60.628124 177.63646Q60.175 178.08958 60.175 178.91771L59.096874 178.91771Q59.096874 177.73021 59.846874 177.01146Q60.6125 176.27708 61.878124 176.27708Q63.08125 176.27708 63.76875 176.90208Q64.45625 177.52708 64.45625 178.57396Q64.45625 179.82396 62.846874 181.57396L60.565624 184.04271L64.84688 184.04271L64.84688 184.93333ZM71.6125 181.29271Q71.6125 183.19896 70.95625 184.13646Q70.31563 185.05833 68.925 185.05833Q67.56563 185.05833 66.90938 184.15208Q66.25313 183.24583 66.22188 181.43333L66.22188 179.99583Q66.22188 178.10521 66.8625 177.19896Q67.51875 176.27708 68.90938 176.27708Q70.28438 176.27708 70.94063 177.16771Q71.59688 178.04271 71.6125 179.88646L71.6125 181.29271ZM70.51875 179.80833Q70.51875 178.43333 70.12813 177.80833Q69.75313 177.16771 68.90938 177.16771Q68.08125 177.16771 67.69063 177.80833Q67.31563 178.43333 67.31563 179.73021L67.31563 181.46458Q67.31563 182.83958 67.70625 183.51146Q68.1125 184.16771 68.925 184.16771Q69.72188 184.16771 70.1125 183.54271Q70.50313 182.91771 70.51875 181.58958L70.51875 179.80833Z" fill-rule="nonzero"/><path fill="#757575" d="M60.83125 121.12813L61.64375 121.12813Q62.425 121.1125 62.8625 120.72188Q63.3 120.33125 63.3 119.65938Q63.3 118.15938 61.8 118.15938Q61.096874 118.15938 60.675 118.56563Q60.26875 118.97188 60.26875 119.62813L59.175 119.62813Q59.175 118.6125 59.909374 117.94063Q60.659374 117.26875 61.8 117.26875Q63.003124 117.26875 63.690624 117.90938Q64.37813 118.55 64.37813 119.69063Q64.37813 120.25313 64.01875 120.76875Q63.659374 121.28438 63.034374 121.55Q63.7375 121.76875 64.1125 122.28438Q64.50313 122.8 64.50313 123.55Q64.50313 124.69063 63.753124 125.37813Q63.003124 126.05 61.8 126.05Q60.6125 126.05 59.846874 125.39375Q59.096874 124.7375 59.096874 123.675L60.190624 123.675Q60.190624 124.34688 60.628124 124.75313Q61.065624 125.15938 61.815624 125.15938Q62.596874 125.15938 63.003124 124.75313Q63.425 124.33125 63.425 123.56563Q63.425 122.83125 62.971874 122.44063Q62.51875 122.03438 61.64375 122.01875L60.83125 122.01875L60.83125 121.12813ZM71.6125 122.28438Q71.6125 124.19063 70.95625 125.12813Q70.31563 126.05 68.925 126.05Q67.56563 126.05 66.90938 125.14375Q66.25313 124.2375 66.22188 122.425L66.22188 120.9875Q66.22188 119.09688 66.8625 118.19063Q67.51875 117.26875 68.90938 117.26875Q70.28438 117.26875 70.94063 118.15938Q71.59688 119.03438 71.6125 120.87813L71.6125 122.28438ZM70.51875 120.8Q70.51875 119.425 70.12813 118.8Q69.75313 118.15938 68.90938 118.15938Q68.08125 118.15938 67.69063 118.8Q67.31563 119.425 67.31563 120.72188L67.31563 122.45625Q67.31563 123.83125 67.70625 124.50313Q68.1125 125.15938 68.925 125.15938Q69.72188 125.15938 70.1125 124.53438Q70.50313 123.90938 70.51875 122.58125L70.51875 120.8Z" fill-rule="nonzero"/><path fill="#757575" d="M63.83125 64.05729L65.01875 64.05729L65.01875 64.93229L63.83125 64.93229L63.83125 66.916664L62.753124 66.916664L62.753124 64.93229L58.8625 64.93229L58.8625 64.291664L62.675 58.385414L63.83125 58.385414L63.83125 64.05729ZM60.096874 64.05729L62.753124 64.05729L62.753124 59.86979L62.6125 60.104164L60.096874 64.05729ZM71.6125 63.27604Q71.6125 65.18229 70.95625 66.11979Q70.31563 67.041664 68.925 67.041664Q67.56563 67.041664 66.90938 66.135414Q66.25313 65.229164 66.22188 63.416664L66.22188 61.979164Q66.22188 60.08854 66.8625 59.18229Q67.51875 58.260414 68.90938 58.260414Q70.28438 58.260414 70.94063 59.15104Q71.59688 60.02604 71.6125 61.86979L71.6125 63.27604ZM70.51875 61.791664Q70.51875 60.416664 70.12813 59.791664Q69.75313 59.15104 68.90938 59.15104Q68.08125 59.15104 67.69063 59.791664Q67.31563 60.416664 67.31563 61.71354L67.31563 63.447914Q67.31563 64.822914 67.70625 65.49479Q68.1125 66.15104 68.925 66.15104Q69.72188 66.15104 70.1125 65.52604Q70.50313 64.90104 70.51875 63.572914L70.51875 61.791664Z" fill-rule="nonzero"/><path fill="#757575" d="M122.359375 312.7Q122.03125 313.10626 121.546875 313.35626Q121.078125 313.59064 120.515625 313.59064Q119.78125 313.59064 119.234375 313.23126Q118.6875 312.8719 118.390625 312.21564Q118.09375 311.54376 118.09375 310.7469Q118.09375 309.90314 118.40625 309.21564Q118.734375 308.52814 119.328125 308.16876Q119.9375 307.79376 120.734375 307.79376Q122.0 307.79376 122.71875 308.7469Q123.453125 309.7 123.453125 311.325L123.453125 311.6375Q123.453125 314.1375 122.46875 315.27814Q121.484375 316.41876 119.5 316.45L119.28125 316.45L119.28125 315.54376L119.515625 315.54376Q120.859375 315.5125 121.578125 314.84064Q122.296875 314.16876 122.359375 312.7ZM120.6875 312.7Q121.234375 312.7 121.6875 312.3719Q122.15625 312.02814 122.375 311.54376L122.375 311.10626Q122.375 310.04376 121.90625 309.3719Q121.4375 308.7 120.734375 308.7Q120.015625 308.7 119.578125 309.2469Q119.15625 309.79376 119.15625 310.7Q119.15625 311.575 119.5625 312.1375Q119.984375 312.7 120.6875 312.7ZM129.78125 313.59064L130.96875 313.59064L130.96875 314.46564L129.78125 314.46564L129.78125 316.45L128.70312 316.45L128.70312 314.46564L124.8125 314.46564L124.8125 313.825L128.625 307.91876L129.78125 307.91876L129.78125 313.59064ZM126.046875 313.59064L128.70312 313.59064L128.70312 309.40314L128.5625 309.6375L126.046875 313.59064ZM136.35938 312.7Q136.03125 313.10626 135.54688 313.35626Q135.07812 313.59064 134.51562 313.59064Q133.78125 313.59064 133.23438 313.23126Q132.6875 312.8719 132.39062 312.21564Q132.09375 311.54376 132.09375 310.7469Q132.09375 309.90314 132.40625 309.21564Q132.73438 308.52814 133.32812 308.16876Q133.9375 307.79376 134.73438 307.79376Q136.0 307.79376 136.71875 308.7469Q137.45312 309.7 137.45312 311.325L137.45312 311.6375Q137.45312 314.1375 136.46875 315.27814Q135.48438 316.41876 133.5 316.45L133.28125 316.45L133.28125 315.54376L133.51562 315.54376Q134.85938 315.5125 135.57812 314.84064Q136.29688 314.16876 136.35938 312.7ZM134.6875 312.7Q135.23438 312.7 135.6875 312.3719Q136.15625 312.02814 136.375 311.54376L136.375 311.10626Q136.375 310.04376 135.90625 309.3719Q135.4375 308.7 134.73438 308.7Q134.01562 308.7 133.57812 309.2469Q133.15625 309.79376 133.15625 310.7Q133.15625 311.575 133.5625 312.1375Q133.98438 312.7 134.6875 312.7ZM146.23438 315.825Q145.60938 316.575 144.375 316.575Q143.35938 316.575 142.82812 315.98126Q142.29688 315.3875 142.29688 314.23126L142.29688 310.10626L143.375 310.10626L143.375 314.2Q143.375 315.65314 144.54688 315.65314Q145.79688 315.65314 146.20312 314.71564L146.20312 310.10626L147.29688 310.10626L147.29688 316.45L146.26562 316.45L146.23438 315.825ZM153.01562 314.7625Q153.01562 314.325 152.67188 314.09064Q152.34375 313.84064 151.51562 313.66876Q150.70312 313.4969 150.21875 313.2469Q149.73438 312.9969 149.5 312.66876Q149.28125 312.325 149.28125 311.85626Q149.28125 311.075 149.9375 310.54376Q150.59375 309.9969 151.625 309.9969Q152.70312 309.9969 153.35938 310.5594Q154.03125 311.10626 154.03125 311.96564L152.95312 311.96564Q152.95312 311.52814 152.5625 311.21564Q152.1875 310.8875 151.625 310.8875Q151.03125 310.8875 150.6875 311.15314Q150.35938 311.40314 150.35938 311.8094Q150.35938 312.2 150.67188 312.40314Q150.98438 312.60626 151.79688 312.79376Q152.60938 312.96564 153.10938 313.21564Q153.60938 313.46564 153.84375 313.825Q154.09375 314.1844 154.09375 314.6844Q154.09375 315.54376 153.40625 316.0594Q152.73438 316.575 151.65625 316.575Q150.89062 316.575 150.29688 316.3094Q149.71875 316.02814 149.39062 315.54376Q149.0625 315.0594 149.0625 314.4969L150.14062 314.4969Q150.17188 315.04376 150.57812 315.3719Q150.98438 315.6844 151.65625 315.6844Q152.26562 315.6844 152.64062 315.4344Q153.01562 315.1844 153.01562 314.7625ZM157.95312 316.575Q156.65625 316.575 155.84375 315.73126Q155.04688 314.8719 155.04688 313.45L155.04688 313.2625Q155.04688 312.3094 155.40625 311.575Q155.76562 310.825 156.40625 310.41876Q157.0625 309.9969 157.8125 309.9969Q159.04688 309.9969 159.73438 310.8094Q160.42188 311.6219 160.42188 313.1375L160.42188 313.59064L156.125 313.59064Q156.15625 314.52814 156.67188 315.10626Q157.20312 315.6844 158.01562 315.6844Q158.57812 315.6844 158.96875 315.45Q159.375 315.21564 159.6875 314.825L160.34375 315.34064Q159.54688 316.575 157.95312 316.575ZM157.8125 310.8875Q157.15625 310.8875 156.70312 311.3719Q156.26562 311.84064 156.17188 312.7L159.34375 312.7L159.34375 312.6219Q159.29688 311.79376 158.89062 311.34064Q158.5 310.8875 157.8125 310.8875ZM163.85938 315.6844Q164.4375 315.6844 164.875 315.34064Q165.3125 314.98126 165.35938 314.45L166.39062 314.45Q166.35938 314.9969 166.0 315.4969Q165.65625 315.98126 165.07812 316.27814Q164.51562 316.575 163.85938 316.575Q162.5625 316.575 161.79688 315.71564Q161.04688 314.84064 161.04688 313.34064L161.04688 313.15314Q161.04688 312.23126 161.375 311.5125Q161.71875 310.79376 162.34375 310.40314Q162.98438 309.9969 163.85938 309.9969Q164.92188 309.9969 165.625 310.6375Q166.34375 311.2625 166.39062 312.29376L165.35938 312.29376Q165.3125 311.66876 164.89062 311.27814Q164.46875 310.8875 163.85938 310.8875Q163.03125 310.8875 162.57812 311.48126Q162.125 312.075 162.125 313.2L162.125 313.40314Q162.125 314.4969 162.57812 315.09064Q163.03125 315.6844 163.85938 315.6844Z" fill-rule="nonzero"/><path fill="#757575" d="M212.26562 316.45L211.1875 316.45L211.1875 309.23126L209.0 310.02814L209.0 309.04376L212.10938 307.8719L212.26562 307.8719L212.26562 316.45ZM221.0625 312.8094Q221.0625 314.71564 220.40625 315.65314Q219.76562 316.575 218.375 316.575Q217.01562 316.575 216.35938 315.66876Q215.70312 314.7625 215.67188 312.95L215.67188 311.5125Q215.67188 309.6219 216.3125 308.71564Q216.96875 307.79376 218.35938 307.79376Q219.73438 307.79376 220.39062 308.6844Q221.04688 309.5594 221.0625 311.40314L221.0625 312.8094ZM219.96875 311.325Q219.96875 309.95 219.57812 309.325Q219.20312 308.6844 218.35938 308.6844Q217.53125 308.6844 217.14062 309.325Q216.76562 309.95 216.76562 311.2469L216.76562 312.98126Q216.76562 314.35626 217.15625 315.02814Q217.5625 315.6844 218.375 315.6844Q219.17188 315.6844 219.5625 315.0594Q219.95312 314.4344 219.96875 313.10626L219.96875 311.325ZM228.21875 308.52814L224.6875 316.45L223.54688 316.45L227.0625 308.8094L222.45312 308.8094L222.45312 307.91876L228.21875 307.91876L228.21875 308.52814ZM233.96875 307.91876L233.96875 308.825L233.76562 308.825Q232.5 308.85626 231.75 309.59064Q231.0 310.3094 230.875 311.6219Q231.5625 310.85626 232.71875 310.85626Q233.82812 310.85626 234.5 311.6375Q235.17188 312.41876 235.17188 313.66876Q235.17188 314.98126 234.45312 315.77814Q233.73438 316.575 232.51562 316.575Q231.29688 316.575 230.53125 315.6375Q229.78125 314.6844 229.78125 313.2L229.78125 312.79376Q229.78125 310.4344 230.78125 309.1844Q231.78125 307.9344 233.76562 307.91876L233.96875 307.91876ZM232.54688 311.7625Q231.98438 311.7625 231.51562 312.09064Q231.04688 312.41876 230.85938 312.9344L230.85938 313.325Q230.85938 314.3875 231.32812 315.02814Q231.8125 315.66876 232.51562 315.66876Q233.25 315.66876 233.67188 315.1375Q234.09375 314.59064 234.09375 313.71564Q234.09375 312.84064 233.67188 312.3094Q233.25 311.7625 232.54688 311.7625ZM243.73438 315.825Q243.10938 316.575 241.875 316.575Q240.85938 316.575 240.32812 315.98126Q239.79688 315.3875 239.79688 314.23126L239.79688 310.10626L240.875 310.10626L240.875 314.2Q240.875 315.65314 242.04688 315.65314Q243.29688 315.65314 243.70312 314.71564L243.70312 310.10626L244.79688 310.10626L244.79688 316.45L243.76562 316.45L243.73438 315.825ZM250.51562 314.7625Q250.51562 314.325 250.17188 314.09064Q249.84375 313.84064 249.01562 313.66876Q248.20312 313.4969 247.71875 313.2469Q247.23438 312.9969 247.0 312.66876Q246.78125 312.325 246.78125 311.85626Q246.78125 311.075 247.4375 310.54376Q248.09375 309.9969 249.125 309.9969Q250.20312 309.9969 250.85938 310.5594Q251.53125 311.10626 251.53125 311.96564L250.45312 311.96564Q250.45312 311.52814 250.0625 311.21564Q249.6875 310.8875 249.125 310.8875Q248.53125 310.8875 248.1875 311.15314Q247.85938 311.40314 247.85938 311.8094Q247.85938 312.2 248.17188 312.40314Q248.48438 312.60626 249.29688 312.79376Q250.10938 312.96564 250.60938 313.21564Q251.10938 313.46564 251.34375 313.825Q251.59375 314.1844 251.59375 314.6844Q251.59375 315.54376 250.90625 316.0594Q250.23438 316.575 249.15625 316.575Q248.39062 316.575 247.79688 316.3094Q247.21875 316.02814 246.89062 315.54376Q246.5625 315.0594 246.5625 314.4969L247.64062 314.4969Q247.67188 315.04376 248.07812 315.3719Q248.48438 315.6844 249.15625 315.6844Q249.76562 315.6844 250.14062 315.4344Q250.51562 315.1844 250.51562 314.7625ZM255.45312 316.575Q254.15625 316.575 253.34375 315.73126Q252.54688 314.8719 252.54688 313.45L252.54688 313.2625Q252.54688 312.3094 252.90625 311.575Q253.26562 310.825 253.90625 310.41876Q254.5625 309.9969 255.3125 309.9969Q256.54688 309.9969 257.23438 310.8094Q257.92188 311.6219 257.92188 313.1375L257.92188 313.59064L253.625 313.59064Q253.65625 314.52814 254.17188 315.10626Q254.70312 315.6844 255.51562 315.6844Q256.07812 315.6844 256.46875 315.45Q256.875 315.21564 257.1875 314.825L257.84375 315.34064Q257.04688 316.575 255.45312 316.575ZM255.3125 310.8875Q254.65625 310.8875 254.20312 311.3719Q253.76562 311.84064 253.67188 312.7L256.84375 312.7L256.84375 312.6219Q256.79688 311.79376 256.39062 311.34064Q256.0 310.8875 255.3125 310.8875ZM261.35938 315.6844Q261.9375 315.6844 262.375 315.34064Q262.8125 314.98126 262.85938 314.45L263.89062 314.45Q263.85938 314.9969 263.5 315.4969Q263.15625 315.98126 262.57812 316.27814Q262.01562 316.575 261.35938 316.575Q260.0625 316.575 259.29688 315.71564Q258.54688 314.84064 258.54688 313.34064L258.54688 313.15314Q258.54688 312.23126 258.875 311.5125Q259.21875 310.79376 259.84375 310.40314Q260.48438 309.9969 261.35938 309.9969Q262.42188 309.9969 263.125 310.6375Q263.84375 311.2625 263.89062 312.29376L262.85938 312.29376Q262.8125 311.66876 262.39062 311.27814Q261.96875 310.8875 261.35938 310.8875Q260.53125 310.8875 260.07812 311.48126Q259.625 312.075 259.625 313.2L259.625 313.40314Q259.625 314.4969 260.07812 315.09064Q260.53125 315.6844 261.35938 315.6844Z" fill-rule="nonzero"/><path fill="#757575" d="M310.35938 312.7Q310.03125 313.10626 309.54688 313.35626Q309.07812 313.59064 308.51562 313.59064Q307.78125 313.59064 307.23438 313.23126Q306.6875 312.8719 306.39062 312.21564Q306.09375 311.54376 306.09375 310.7469Q306.09375 309.90314 306.40625 309.21564Q306.73438 308.52814 307.32812 308.16876Q307.9375 307.79376 308.73438 307.79376Q310.0 307.79376 310.71875 308.7469Q311.45312 309.7 311.45312 311.325L311.45312 311.6375Q311.45312 314.1375 310.46875 315.27814Q309.48438 316.41876 307.5 316.45L307.28125 316.45L307.28125 315.54376L307.51562 315.54376Q308.85938 315.5125 309.57812 314.84064Q310.29688 314.16876 310.35938 312.7ZM308.6875 312.7Q309.23438 312.7 309.6875 312.3719Q310.15625 312.02814 310.375 311.54376L310.375 311.10626Q310.375 310.04376 309.90625 309.3719Q309.4375 308.7 308.73438 308.7Q308.01562 308.7 307.57812 309.2469Q307.15625 309.79376 307.15625 310.7Q307.15625 311.575 307.5625 312.1375Q307.98438 312.7 308.6875 312.7ZM317.46875 307.91876L317.46875 308.825L317.26562 308.825Q316.0 308.85626 315.25 309.59064Q314.5 310.3094 314.375 311.6219Q315.0625 310.85626 316.21875 310.85626Q317.32812 310.85626 318.0 311.6375Q318.67188 312.41876 318.67188 313.66876Q318.67188 314.98126 317.95312 315.77814Q317.23438 316.575 316.01562 316.575Q314.79688 316.575 314.03125 315.6375Q313.28125 314.6844 313.28125 313.2L313.28125 312.79376Q313.28125 310.4344 314.28125 309.1844Q315.28125 307.9344 317.26562 307.91876L317.46875 307.91876ZM316.04688 311.7625Q315.48438 311.7625 315.01562 312.09064Q314.54688 312.41876 314.35938 312.9344L314.35938 313.325Q314.35938 314.3875 314.82812 315.02814Q315.3125 315.66876 316.01562 315.66876Q316.75 315.66876 317.17188 315.1375Q317.59375 314.59064 317.59375 313.71564Q317.59375 312.84064 317.17188 312.3094Q316.75 311.7625 316.04688 311.7625ZM320.70312 312.16876L321.14062 307.91876L325.51562 307.91876L325.51562 308.91876L322.0625 308.91876L321.79688 311.2469Q322.4375 310.8719 323.23438 310.8719Q324.39062 310.8719 325.07812 311.65314Q325.76562 312.41876 325.76562 313.73126Q325.76562 315.04376 325.04688 315.8094Q324.34375 316.575 323.0625 316.575Q321.9375 316.575 321.21875 315.95Q320.5 315.3094 320.40625 314.2L321.42188 314.2Q321.53125 314.9344 321.95312 315.3094Q322.375 315.6844 323.0625 315.6844Q323.8125 315.6844 324.25 315.16876Q324.6875 314.65314 324.6875 313.7469Q324.6875 312.8875 324.21875 312.3719Q323.75 311.85626 322.96875 311.85626Q322.26562 311.85626 321.85938 312.15314L321.57812 312.3875L320.70312 312.16876ZM334.23438 315.825Q333.60938 316.575 332.375 316.575Q331.35938 316.575 330.82812 315.98126Q330.29688 315.3875 330.29688 314.23126L330.29688 310.10626L331.375 310.10626L331.375 314.2Q331.375 315.65314 332.54688 315.65314Q333.79688 315.65314 334.20312 314.71564L334.20312 310.10626L335.29688 310.10626L335.29688 316.45L334.26562 316.45L334.23438 315.825ZM341.01562 314.7625Q341.01562 314.325 340.67188 314.09064Q340.34375 313.84064 339.51562 313.66876Q338.70312 313.4969 338.21875 313.2469Q337.73438 312.9969 337.5 312.66876Q337.28125 312.325 337.28125 311.85626Q337.28125 311.075 337.9375 310.54376Q338.59375 309.9969 339.625 309.9969Q340.70312 309.9969 341.35938 310.5594Q342.03125 311.10626 342.03125 311.96564L340.95312 311.96564Q340.95312 311.52814 340.5625 311.21564Q340.1875 310.8875 339.625 310.8875Q339.03125 310.8875 338.6875 311.15314Q338.35938 311.40314 338.35938 311.8094Q338.35938 312.2 338.67188 312.40314Q338.98438 312.60626 339.79688 312.79376Q340.60938 312.96564 341.10938 313.21564Q341.60938 313.46564 341.84375 313.825Q342.09375 314.1844 342.09375 314.6844Q342.09375 315.54376 341.40625 316.0594Q340.73438 316.575 339.65625 316.575Q338.89062 316.575 338.29688 316.3094Q337.71875 316.02814 337.39062 315.54376Q337.0625 315.0594 337.0625 314.4969L338.14062 314.4969Q338.17188 315.04376 338.57812 315.3719Q338.98438 315.6844 339.65625 315.6844Q340.26562 315.6844 340.64062 315.4344Q341.01562 315.1844 341.01562 314.7625ZM345.95312 316.575Q344.65625 316.575 343.84375 315.73126Q343.04688 314.8719 343.04688 313.45L343.04688 313.2625Q343.04688 312.3094 343.40625 311.575Q343.76562 310.825 344.40625 310.41876Q345.0625 309.9969 345.8125 309.9969Q347.04688 309.9969 347.73438 310.8094Q348.42188 311.6219 348.42188 313.1375L348.42188 313.59064L344.125 313.59064Q344.15625 314.52814 344.67188 315.10626Q345.20312 315.6844 346.01562 315.6844Q346.57812 315.6844 346.96875 315.45Q347.375 315.21564 347.6875 314.825L348.34375 315.34064Q347.54688 316.575 345.95312 316.575ZM345.8125 310.8875Q345.15625 310.8875 344.70312 311.3719Q344.26562 311.84064 344.17188 312.7L347.34375 312.7L347.34375 312.6219Q347.29688 311.79376 346.89062 311.34064Q346.5 310.8875 345.8125 310.8875ZM351.85938 315.6844Q352.4375 315.6844 352.875 315.34064Q353.3125 314.98126 353.35938 314.45L354.39062 314.45Q354.35938 314.9969 354.0 315.4969Q353.65625 315.98126 353.07812 316.27814Q352.51562 316.575 351.85938 316.575Q350.5625 316.575 349.79688 315.71564Q349.04688 314.84064 349.04688 313.34064L349.04688 313.15314Q349.04688 312.23126 349.375 311.5125Q349.71875 310.79376 350.34375 310.40314Q350.98438 309.9969 351.85938 309.9969Q352.92188 309.9969 353.625 310.6375Q354.34375 311.2625 354.39062 312.29376L353.35938 312.29376Q353.3125 311.66876 352.89062 311.27814Q352.46875 310.8875 351.85938 310.8875Q351.03125 310.8875 350.57812 311.48126Q350.125 312.075 350.125 313.2L350.125 313.40314Q350.125 314.4969 350.57812 315.09064Q351.03125 315.6844 351.85938 315.6844Z" fill-rule="nonzero"/><path fill="#757575" d="M400.26562 316.45L399.1875 316.45L399.1875 309.23126L397.0 310.02814L397.0 309.04376L400.10938 307.8719L400.26562 307.8719L400.26562 316.45ZM407.26562 316.45L406.1875 316.45L406.1875 309.23126L404.0 310.02814L404.0 309.04376L407.10938 307.8719L407.26562 307.8719L407.26562 316.45ZM411.20312 312.16876L411.64062 307.91876L416.01562 307.91876L416.01562 308.91876L412.5625 308.91876L412.29688 311.2469Q412.9375 310.8719 413.73438 310.8719Q414.89062 310.8719 415.57812 311.65314Q416.26562 312.41876 416.26562 313.73126Q416.26562 315.04376 415.54688 315.8094Q414.84375 316.575 413.5625 316.575Q412.4375 316.575 411.71875 315.95Q411.0 315.3094 410.90625 314.2L411.92188 314.2Q412.03125 314.9344 412.45312 315.3094Q412.875 315.6844 413.5625 315.6844Q414.3125 315.6844 414.75 315.16876Q415.1875 314.65314 415.1875 313.7469Q415.1875 312.8875 414.71875 312.3719Q414.25 311.85626 413.46875 311.85626Q412.76562 311.85626 412.35938 312.15314L412.07812 312.3875L411.20312 312.16876ZM422.28125 313.59064L423.46875 313.59064L423.46875 314.46564L422.28125 314.46564L422.28125 316.45L421.20312 316.45L421.20312 314.46564L417.3125 314.46564L417.3125 313.825L421.125 307.91876L422.28125 307.91876L422.28125 313.59064ZM418.54688 313.59064L421.20312 313.59064L421.20312 309.40314L421.0625 309.6375L418.54688 313.59064ZM431.73438 315.825Q431.10938 316.575 429.875 316.575Q428.85938 316.575 428.32812 315.98126Q427.79688 315.3875 427.79688 314.23126L427.79688 310.10626L428.875 310.10626L428.875 314.2Q428.875 315.65314 430.04688 315.65314Q431.29688 315.65314 431.70312 314.71564L431.70312 310.10626L432.79688 310.10626L432.79688 316.45L431.76562 316.45L431.73438 315.825ZM438.51562 314.7625Q438.51562 314.325 438.17188 314.09064Q437.84375 313.84064 437.01562 313.66876Q436.20312 313.4969 435.71875 313.2469Q435.23438 312.9969 435.0 312.66876Q434.78125 312.325 434.78125 311.85626Q434.78125 311.075 435.4375 310.54376Q436.09375 309.9969 437.125 309.9969Q438.20312 309.9969 438.85938 310.5594Q439.53125 311.10626 439.53125 311.96564L438.45312 311.96564Q438.45312 311.52814 438.0625 311.21564Q437.6875 310.8875 437.125 310.8875Q436.53125 310.8875 436.1875 311.15314Q435.85938 311.40314 435.85938 311.8094Q435.85938 312.2 436.17188 312.40314Q436.48438 312.60626 437.29688 312.79376Q438.10938 312.96564 438.60938 313.21564Q439.10938 313.46564 439.34375 313.825Q439.59375 314.1844 439.59375 314.6844Q439.59375 315.54376 438.90625 316.0594Q438.23438 316.575 437.15625 316.575Q436.39062 316.575 435.79688 316.3094Q435.21875 316.02814 434.89062 315.54376Q434.5625 315.0594 434.5625 314.4969L435.64062 314.4969Q435.67188 315.04376 436.07812 315.3719Q436.48438 315.6844 437.15625 315.6844Q437.76562 315.6844 438.14062 315.4344Q438.51562 315.1844 438.51562 314.7625ZM443.45312 316.575Q442.15625 316.575 441.34375 315.73126Q440.54688 314.8719 440.54688 313.45L440.54688 313.2625Q440.54688 312.3094 440.90625 311.575Q441.26562 310.825 441.90625 310.41876Q442.5625 309.9969 443.3125 309.9969Q444.54688 309.9969 445.23438 310.8094Q445.92188 311.6219 445.92188 313.1375L445.92188 313.59064L441.625 313.59064Q441.65625 314.52814 442.17188 315.10626Q442.70312 315.6844 443.51562 315.6844Q444.07812 315.6844 444.46875 315.45Q444.875 315.21564 445.1875 314.825L445.84375 315.34064Q445.04688 316.575 443.45312 316.575ZM443.3125 310.8875Q442.65625 310.8875 442.20312 311.3719Q441.76562 311.84064 441.67188 312.7L444.84375 312.7L444.84375 312.6219Q444.79688 311.79376 444.39062 311.34064Q444.0 310.8875 443.3125 310.8875ZM449.35938 315.6844Q449.9375 315.6844 450.375 315.34064Q450.8125 314.98126 450.85938 314.45L451.89062 314.45Q451.85938 314.9969 451.5 315.4969Q451.15625 315.98126 450.57812 316.27814Q450.01562 316.575 449.35938 316.575Q448.0625 316.575 447.29688 315.71564Q446.54688 314.84064 446.54688 313.34064L446.54688 313.15314Q446.54688 312.23126 446.875 311.5125Q447.21875 310.79376 447.84375 310.40314Q448.48438 309.9969 449.35938 309.9969Q450.42188 309.9969 451.125 310.6375Q451.84375 311.2625 451.89062 312.29376L450.85938 312.29376Q450.8125 311.66876 450.39062 311.27814Q449.96875 310.8875 449.35938 310.8875Q448.53125 310.8875 448.07812 311.48126Q447.625 312.075 447.625 313.2L447.625 313.40314Q447.625 314.4969 448.07812 315.09064Q448.53125 315.6844 449.35938 315.6844Z" fill-rule="nonzero"/><path fill="#757575" d="M494.26562 316.45L493.1875 316.45L493.1875 309.23126L491.0 310.02814L491.0 309.04376L494.10938 307.8719L494.26562 307.8719L494.26562 316.45ZM501.26562 316.45L500.1875 316.45L500.1875 309.23126L498.0 310.02814L498.0 309.04376L501.10938 307.8719L501.26562 307.8719L501.26562 316.45ZM510.29688 316.45L504.70312 316.45L504.70312 315.66876L507.65625 312.3875Q508.3125 311.6375 508.5625 311.1844Q508.8125 310.71564 508.8125 310.21564Q508.8125 309.54376 508.40625 309.1219Q508.01562 308.6844 507.32812 308.6844Q506.53125 308.6844 506.07812 309.15314Q505.625 309.60626 505.625 310.4344L504.54688 310.4344Q504.54688 309.2469 505.29688 308.52814Q506.0625 307.79376 507.32812 307.79376Q508.53125 307.79376 509.21875 308.41876Q509.90625 309.04376 509.90625 310.09064Q509.90625 311.34064 508.29688 313.09064L506.01562 315.5594L510.29688 315.5594L510.29688 316.45ZM517.0625 312.8094Q517.0625 314.71564 516.40625 315.65314Q515.7656 316.575 514.375 316.575Q513.0156 316.575 512.3594 315.66876Q511.70312 314.7625 511.67188 312.95L511.67188 311.5125Q511.67188 309.6219 512.3125 308.71564Q512.96875 307.79376 514.3594 307.79376Q515.7344 307.79376 516.3906 308.6844Q517.0469 309.5594 517.0625 311.40314L517.0625 312.8094ZM515.96875 311.325Q515.96875 309.95 515.5781 309.325Q515.2031 308.6844 514.3594 308.6844Q513.53125 308.6844 513.1406 309.325Q512.7656 309.95 512.7656 311.2469L512.7656 312.98126Q512.7656 314.35626 513.15625 315.02814Q513.5625 315.6844 514.375 315.6844Q515.1719 315.6844 515.5625 315.0594Q515.9531 314.4344 515.96875 313.10626L515.96875 311.325ZM525.7344 315.825Q525.1094 316.575 523.875 316.575Q522.8594 316.575 522.3281 315.98126Q521.7969 315.3875 521.7969 314.23126L521.7969 310.10626L522.875 310.10626L522.875 314.2Q522.875 315.65314 524.0469 315.65314Q525.2969 315.65314 525.7031 314.71564L525.7031 310.10626L526.7969 310.10626L526.7969 316.45L525.7656 316.45L525.7344 315.825ZM532.5156 314.7625Q532.5156 314.325 532.1719 314.09064Q531.84375 313.84064 531.0156 313.66876Q530.2031 313.4969 529.71875 313.2469Q529.2344 312.9969 529.0 312.66876Q528.78125 312.325 528.78125 311.85626Q528.78125 311.075 529.4375 310.54376Q530.09375 309.9969 531.125 309.9969Q532.2031 309.9969 532.8594 310.5594Q533.53125 311.10626 533.53125 311.96564L532.4531 311.96564Q532.4531 311.52814 532.0625 311.21564Q531.6875 310.8875 531.125 310.8875Q530.53125 310.8875 530.1875 311.15314Q529.8594 311.40314 529.8594 311.8094Q529.8594 312.2 530.1719 312.40314Q530.4844 312.60626 531.2969 312.79376Q532.1094 312.96564 532.6094 313.21564Q533.1094 313.46564 533.34375 313.825Q533.59375 314.1844 533.59375 314.6844Q533.59375 315.54376 532.90625 316.0594Q532.2344 316.575 531.15625 316.575Q530.3906 316.575 529.7969 316.3094Q529.21875 316.02814 528.8906 315.54376Q528.5625 315.0594 528.5625 314.4969L529.6406 314.4969Q529.6719 315.04376 530.0781 315.3719Q530.4844 315.6844 531.15625 315.6844Q531.7656 315.6844 532.1406 315.4344Q532.5156 315.1844 532.5156 314.7625ZM537.4531 316.575Q536.15625 316.575 535.34375 315.73126Q534.5469 314.8719 534.5469 313.45L534.5469 313.2625Q534.5469 312.3094 534.90625 311.575Q535.2656 310.825 535.90625 310.41876Q536.5625 309.9969 537.3125 309.9969Q538.5469 309.9969 539.2344 310.8094Q539.9219 311.6219 539.9219 313.1375L539.9219 313.59064L535.625 313.59064Q535.65625 314.52814 536.1719 315.10626Q536.7031 315.6844 537.5156 315.6844Q538.0781 315.6844 538.46875 315.45Q538.875 315.21564 539.1875 314.825L539.84375 315.34064Q539.0469 316.575 537.4531 316.575ZM537.3125 310.8875Q536.65625 310.8875 536.2031 311.3719Q535.7656 311.84064 535.6719 312.7L538.84375 312.7L538.84375 312.6219Q538.7969 311.79376 538.3906 311.34064Q538.0 310.8875 537.3125 310.8875ZM543.3594 315.6844Q543.9375 315.6844 544.375 315.34064Q544.8125 314.98126 544.8594 314.45L545.8906 314.45Q545.8594 314.9969 545.5 315.4969Q545.15625 315.98126 544.5781 316.27814Q544.0156 316.575 543.3594 316.575Q542.0625 316.575 541.2969 315.71564Q540.5469 314.84064 540.5469 313.34064L540.5469 313.15314Q540.5469 312.23126 540.875 311.5125Q541.21875 310.79376 541.84375 310.40314Q542.4844 309.9969 543.3594 309.9969Q544.4219 309.9969 545.125 310.6375Q545.84375 311.2625 545.8906 312.29376L544.8594 312.29376Q544.8125 311.66876 544.3906 311.27814Q543.96875 310.8875 543.3594 310.8875Q542.53125 310.8875 542.0781 311.48126Q541.625 312.075 541.625 313.2L541.625 313.40314Q541.625 314.4969 542.0781 315.09064Q542.53125 315.6844 543.3594 315.6844Z" fill-rule="nonzero"/><path fill="#757575" d="M20.20625 37.55L20.20625 23.33125L24.846874 23.33125Q27.159374 23.33125 28.33125 24.284374Q29.503124 25.2375 29.503124 27.1125Q29.503124 28.1125 28.925 28.878124Q28.3625 29.64375 27.39375 30.065624Q28.534374 30.39375 29.20625 31.3Q29.878124 32.190624 29.878124 33.440624Q29.878124 35.3625 28.628124 36.45625Q27.39375 37.55 25.128124 37.55L20.20625 37.55ZM22.08125 30.89375L22.08125 36.01875L25.175 36.01875Q26.4875 36.01875 27.2375 35.346874Q27.9875 34.659374 27.9875 33.471874Q27.9875 30.89375 25.20625 30.89375L22.08125 30.89375ZM22.08125 29.39375L24.909374 29.39375Q26.14375 29.39375 26.878124 28.784374Q27.6125 28.159374 27.6125 27.1125Q27.6125 25.940624 26.925 25.409374Q26.253124 24.878124 24.846874 24.878124L22.08125 24.878124L22.08125 29.39375ZM37.01875 28.596874Q36.6125 28.534374 36.14375 28.534374Q34.3625 28.534374 33.721874 30.05L33.721874 37.55L31.925 37.55L31.925 26.9875L33.675 26.9875L33.70625 28.20625Q34.596874 26.784374 36.221874 26.784374Q36.753124 26.784374 37.01875 26.925L37.01875 28.596874ZM38.440624 32.175Q38.440624 30.6125 39.05 29.378124Q39.659374 28.128124 40.7375 27.45625Q41.83125 26.784374 43.2375 26.784374Q45.39375 26.784374 46.721874 28.284374Q48.065624 29.76875 48.065624 32.253124L48.065624 32.378124Q48.065624 33.925 47.471874 35.159374Q46.878124 36.378124 45.76875 37.065624Q44.675 37.753124 43.253124 37.753124Q41.1125 37.753124 39.76875 36.253124Q38.440624 34.753124 38.440624 32.3L38.440624 32.175ZM40.253124 32.378124Q40.253124 34.14375 41.065624 35.20625Q41.89375 36.26875 43.253124 36.26875Q44.628124 36.26875 45.440624 35.190624Q46.253124 34.1125 46.253124 32.175Q46.253124 30.425 45.425 29.346874Q44.596874 28.26875 43.2375 28.26875Q41.89375 28.26875 41.065624 29.33125Q40.253124 30.39375 40.253124 32.378124ZM56.440624 37.55Q56.284374 37.2375 56.190624 36.440624Q54.925 37.753124 53.175 37.753124Q51.6125 37.753124 50.6125 36.8625Q49.6125 35.971874 49.6125 34.6125Q49.6125 32.971874 50.8625 32.065624Q52.128124 31.14375 54.39375 31.14375L56.159374 31.14375L56.159374 30.315624Q56.159374 29.3625 55.58125 28.8Q55.01875 28.2375 53.925 28.2375Q52.95625 28.2375 52.3 28.7375Q51.64375 29.221874 51.64375 29.909374L49.83125 29.909374Q49.83125 29.128124 50.39375 28.39375Q50.95625 27.64375 51.909374 27.221874Q52.878124 26.784374 54.034374 26.784374Q55.8625 26.784374 56.89375 27.70625Q57.925 28.6125 57.971874 30.221874L57.971874 35.08125Q57.971874 36.534374 58.33125 37.39375L58.33125 37.55L56.440624 37.55ZM53.440624 36.175Q54.3 36.175 55.05 35.7375Q55.815624 35.3 56.159374 34.596874L56.159374 32.425L54.7375 32.425Q51.425 32.425 51.425 34.3625Q51.425 35.221874 51.9875 35.70625Q52.55 36.175 53.440624 36.175ZM60.471874 32.175Q60.471874 29.753124 61.628124 28.26875Q62.784374 26.784374 64.64375 26.784374Q66.50313 26.784374 67.58125 28.05L67.58125 22.55L69.39375 22.55L69.39375 37.55L67.7375 37.55L67.64375 36.409374Q66.56563 37.753124 64.62813 37.753124Q62.8 37.753124 61.628124 36.253124Q60.471874 34.7375 60.471874 32.315624L60.471874 32.175ZM62.284374 32.378124Q62.284374 34.175 63.01875 35.190624Q63.76875 36.20625 65.08125 36.20625Q66.8 36.20625 67.58125 34.675L67.58125 29.815624Q66.78438 28.315624 65.09688 28.315624Q63.76875 28.315624 63.01875 29.346874Q62.284374 30.378124 62.284374 32.378124ZM76.15938 36.26875Q77.12813 36.26875 77.84688 35.690624Q78.56563 35.096874 78.64375 34.221874L80.3625 34.221874Q80.3 35.128124 79.72188 35.95625Q79.15938 36.76875 78.19063 37.26875Q77.2375 37.753124 76.15938 37.753124Q74.00313 37.753124 72.72188 36.315624Q71.45625 34.8625 71.45625 32.3625L71.45625 32.065624Q71.45625 30.51875 72.01875 29.315624Q72.58125 28.1125 73.64375 27.45625Q74.70625 26.784374 76.14375 26.784374Q77.925 26.784374 79.09688 27.846874Q80.28438 28.909374 80.3625 30.6125L78.64375 30.6125Q78.56563 29.596874 77.8625 28.940624Q77.175 28.26875 76.14375 28.26875Q74.76875 28.26875 74.00313 29.26875Q73.25313 30.253124 73.25313 32.128124L73.25313 32.471874Q73.25313 34.3 74.00313 35.284374Q74.75313 36.26875 76.15938 36.26875ZM88.44063 37.55Q88.28438 37.2375 88.19063 36.440624Q86.925 37.753124 85.175 37.753124Q83.6125 37.753124 82.6125 36.8625Q81.6125 35.971874 81.6125 34.6125Q81.6125 32.971874 82.8625 32.065624Q84.12813 31.14375 86.39375 31.14375L88.15938 31.14375L88.15938 30.315624Q88.15938 29.3625 87.58125 28.8Q87.01875 28.2375 85.925 28.2375Q84.95625 28.2375 84.3 28.7375Q83.64375 29.221874 83.64375 29.909374L81.83125 29.909374Q81.83125 29.128124 82.39375 28.39375Q82.95625 27.64375 83.90938 27.221874Q84.87813 26.784374 86.03438 26.784374Q87.8625 26.784374 88.89375 27.70625Q89.925 28.6125 89.97188 30.221874L89.97188 35.08125Q89.97188 36.534374 90.33125 37.39375L90.33125 37.55L88.44063 37.55ZM85.44063 36.175Q86.3 36.175 87.05 35.7375Q87.81563 35.3 88.15938 34.596874L88.15938 32.425L86.7375 32.425Q83.425 32.425 83.425 34.3625Q83.425 35.221874 83.9875 35.70625Q84.55 36.175 85.44063 36.175ZM99.06563 34.753124Q99.06563 34.01875 98.51875 33.6125Q97.97188 33.20625 96.59688 32.909374Q95.22188 32.6125 94.40938 32.20625Q93.6125 31.8 93.22188 31.2375Q92.84688 30.659374 92.84688 29.878124Q92.84688 28.58125 93.94063 27.690624Q95.03438 26.784374 96.75313 26.784374Q98.55 26.784374 99.65938 27.721874Q100.78438 28.64375 100.78438 30.08125L98.95625 30.08125Q98.95625 29.346874 98.33125 28.815624Q97.70625 28.26875 96.75313 28.26875Q95.75313 28.26875 95.19063 28.70625Q94.64375 29.128124 94.64375 29.83125Q94.64375 30.471874 95.15938 30.815624Q95.675 31.14375 97.03438 31.45625Q98.39375 31.753124 99.22188 32.175Q100.06563 32.58125 100.47188 33.175Q100.87813 33.76875 100.87813 34.6125Q100.87813 36.034374 99.7375 36.89375Q98.6125 37.753124 96.8 37.753124Q95.53438 37.753124 94.55 37.3Q93.58125 36.846874 93.01875 36.05Q92.47188 35.2375 92.47188 34.3L94.28438 34.3Q94.33125 35.20625 95.00313 35.7375Q95.69063 36.26875 96.8 36.26875Q97.83125 36.26875 98.44063 35.8625Q99.06563 35.440624 99.06563 34.753124ZM105.3625 24.425L105.3625 26.9875L107.34688 26.9875L107.34688 28.378124L105.3625 28.378124L105.3625 34.925Q105.3625 35.565624 105.62813 35.89375Q105.89375 36.20625 106.53438 36.20625Q106.84688 36.20625 107.39375 36.08125L107.39375 37.55Q106.675 37.753124 106.00313 37.753124Q104.8 37.753124 104.175 37.01875Q103.56563 36.284374 103.56563 34.925L103.56563 28.378124L101.64375 28.378124L101.64375 26.9875L103.56563 26.9875L103.56563 24.425L105.3625 24.425Z" fill-rule="nonzero"/></svg>