<svg version="1.1" viewBox="0.0 0.0 618.0 371.0" fill="none" stroke="none" stroke-linecap="square" stroke-miterlimit="10" width="618" height="371" xmlns:xlink="http://www.w3.org/1999/xlink" xmlns="http://www.w3.org/2000/svg"><path fill="#ffffff" d="M0 0L618.0 0L618.0 371.0L0 371.0L0 0Z" fill-rule="nonzero"/><path stroke="#333333" stroke-width="1.0" stroke-linecap="butt" d="M59.5 331.5L599.5 331.5" fill-rule="nonzero"/><path stroke="#cccccc" stroke-width="1.0" stroke-linecap="butt" d="M59.5 271.5L599.5 271.5" fill-rule="nonzero"/><path stroke="#cccccc" stroke-width="1.0" stroke-linecap="butt" d="M59.5 210.5L599.5 210.5" fill-rule="nonzero"/><path stroke="#cccccc" stroke-width="1.0" stroke-linecap="butt" d="M59.5 150.5L599.5 150.5" fill-rule="nonzero"/><path stroke="#cccccc" stroke-width="1.0" stroke-linecap="butt" d="M59.5 89.5L599.5 89.5" fill-rule="nonzero"/><clipPath id="id_0"><path d="M59.55 89.78333L599.45 89.78333L599.45 331.45L59.55 331.45L59.55 89.78333Z" clip-rule="nonzero"/></clipPath><path stroke="#000000" stroke-width="0.0" stroke-linecap="butt" stroke-opacity="0.0" clip-path="url(#id_0)" d="M167.0 331.0L116.0 331.0L116.0 264.0C116.0 262.89542 116.89543 262.0 118.0 262.0L165.0 262.0C166.10457 262.0 167.0 262.89542 167.0 264.0Z" fill-rule="nonzero"/><path fill="#4285f4" clip-path="url(#id_0)" d="M167.0 331.0L116.0 331.0L116.0 264.0C116.0 262.89542 116.89543 262.0 118.0 262.0L165.0 262.0C166.10457 262.0 167.0 262.89542 167.0 264.0Z" fill-rule="nonzero"/><path stroke="#000000" stroke-width="0.0" stroke-linecap="butt" stroke-opacity="0.0" clip-path="url(#id_0)" d="M329.0 331.0L278.0 331.0L278.0 189.0C278.0 187.89543 278.89542 187.0 280.0 187.0L327.0 187.0C328.10458 187.0 329.0 187.89543 329.0 189.0Z" fill-rule="nonzero"/><path fill="#4285f4" clip-path="url(#id_0)" d="M329.0 331.0L278.0 331.0L278.0 189.0C278.0 187.89543 278.89542 187.0 280.0 187.0L327.0 187.0C328.10458 187.0 329.0 187.89543 329.0 189.0Z" fill-rule="nonzero"/><path stroke="#000000" stroke-width="0.0" stroke-linecap="butt" stroke-opacity="0.0" clip-path="url(#id_0)" d="M490.0 331.0L439.0 331.0L439.0 92.0C439.0 90.89543 439.89542 90.0 441.0 90.0L488.0 90.0C489.10458 90.0 490.0 90.89543 490.0 92.0Z" fill-rule="nonzero"/><path fill="#4285f4" clip-path="url(#id_0)" d="M490.0 331.0L439.0 331.0L439.0 92.0C439.0 90.89543 439.89542 90.0 441.0 90.0L488.0 90.0C489.10458 90.0 490.0 90.89543 490.0 92.0Z" fill-rule="nonzero"/><path stroke="#000000" stroke-width="0.0" stroke-linecap="butt" stroke-opacity="0.0" clip-path="url(#id_0)" d="M219.0 331.0L168.0 331.0L168.0 268.0C168.0 266.89542 168.89543 266.0 170.0 266.0L217.0 266.0C218.10457 266.0 219.0 266.89542 219.0 268.0Z" fill-rule="nonzero"/><path fill="#db4437" clip-path="url(#id_0)" d="M219.0 331.0L168.0 331.0L168.0 268.0C168.0 266.89542 168.89543 266.0 170.0 266.0L217.0 266.0C218.10457 266.0 219.0 266.89542 219.0 268.0Z" fill-rule="nonzero"/><path stroke="#000000" stroke-width="0.0" stroke-linecap="butt" stroke-opacity="0.0" clip-path="url(#id_0)" d="M381.0 331.0L330.0 331.0L330.0 222.0C330.0 220.89543 330.89542 220.0 332.0 220.0L379.0 220.0C380.10458 220.0 381.0 220.89543 381.0 222.0Z" fill-rule="nonzero"/><path fill="#db4437" clip-path="url(#id_0)" d="M381.0 331.0L330.0 331.0L330.0 222.0C330.0 220.89543 330.89542 220.0 332.0 220.0L379.0 220.0C380.10458 220.0 381.0 220.89543 381.0 222.0Z" fill-rule="nonzero"/><path stroke="#000000" stroke-width="0.0" stroke-linecap="butt" stroke-opacity="0.0" clip-path="url(#id_0)" d="M542.0 331.0L491.0 331.0L491.0 135.0C491.0 133.89543 491.89542 133.0 493.0 133.0L540.0 133.0C541.10455 133.0 542.0 133.89543 542.0 135.0Z" fill-rule="nonzero"/><path fill="#db4437" clip-path="url(#id_0)" d="M542.0 331.0L491.0 331.0L491.0 135.0C491.0 133.89543 491.89542 133.0 493.0 133.0L540.0 133.0C541.10455 133.0 542.0 133.89543 542.0 135.0Z" fill-rule="nonzero"/><path stroke="#4285f4" stroke-width="3.0" stroke-linejoin="round" stroke-linecap="round" d="M128.82812 274.96646L129.32812 270.63834L134.10938 270.63834L134.10938 272.0446L130.71875 272.0446L130.5 273.88834Q131.10938 273.5602 131.78125 273.5602Q133.0 273.5602 133.6875 274.32584Q134.39062 275.07584 134.39062 276.4352Q134.39062 277.26334 134.03125 277.9196Q133.6875 278.5602 133.03125 278.9352Q132.39062 279.2946 131.5 279.2946Q130.73438 279.2946 130.0625 278.9821Q129.40625 278.65396 129.01562 278.09146Q128.64062 277.52896 128.60938 276.7946L130.29688 276.7946Q130.34375 277.32584 130.65625 277.6227Q130.98438 277.9196 131.5 277.9196Q132.07812 277.9196 132.375 277.51334Q132.6875 277.09146 132.6875 276.34146Q132.6875 275.6071 132.32812 275.2321Q131.98438 274.84146 131.32812 274.84146Q130.71875 274.84146 130.34375 275.15396L130.1875 275.3102L128.82812 274.96646ZM141.375 271.59146L138.07812 279.1696L136.29688 279.1696L139.59375 272.01334L135.35938 272.01334L135.35938 270.63834L141.375 270.63834L141.375 271.59146ZM146.6875 279.1696L145.0 279.1696L145.0 272.63834L142.98438 273.26334L142.98438 271.88834L146.51562 270.6227L146.6875 270.6227L146.6875 279.1696ZM155.375 271.59146L152.07812 279.1696L150.29688 279.1696L153.59375 272.01334L149.35938 272.01334L149.35938 270.63834L155.375 270.63834L155.375 271.59146Z" fill-rule="nonzero"/><path fill="#ffffff" d="M128.82812 274.96646L129.32812 270.63834L134.10938 270.63834L134.10938 272.0446L130.71875 272.0446L130.5 273.88834Q131.10938 273.5602 131.78125 273.5602Q133.0 273.5602 133.6875 274.32584Q134.39062 275.07584 134.39062 276.4352Q134.39062 277.26334 134.03125 277.9196Q133.6875 278.5602 133.03125 278.9352Q132.39062 279.2946 131.5 279.2946Q130.73438 279.2946 130.0625 278.9821Q129.40625 278.65396 129.01562 278.09146Q128.64062 277.52896 128.60938 276.7946L130.29688 276.7946Q130.34375 277.32584 130.65625 277.6227Q130.98438 277.9196 131.5 277.9196Q132.07812 277.9196 132.375 277.51334Q132.6875 277.09146 132.6875 276.34146Q132.6875 275.6071 132.32812 275.2321Q131.98438 274.84146 131.32812 274.84146Q130.71875 274.84146 130.34375 275.15396L130.1875 275.3102L128.82812 274.96646ZM141.375 271.59146L138.07812 279.1696L136.29688 279.1696L139.59375 272.01334L135.35938 272.01334L135.35938 270.63834L141.375 270.63834L141.375 271.59146ZM146.6875 279.1696L145.0 279.1696L145.0 272.63834L142.98438 273.26334L142.98438 271.88834L146.51562 270.6227L146.6875 270.6227L146.6875 279.1696ZM155.375 271.59146L152.07812 279.1696L150.29688 279.1696L153.59375 272.01334L149.35938 272.01334L149.35938 270.63834L155.375 270.63834L155.375 271.59146Z" fill-rule="nonzero"/><path stroke="#4285f4" stroke-width="3.0" stroke-linejoin="round" stroke-linecap="round" d="M291.1875 203.73334L289.5 203.73334L289.5 197.20209L287.48438 197.82709L287.48438 196.45209L291.01562 195.18646L291.1875 195.18646L291.1875 203.73334ZM298.1875 203.73334L296.5 203.73334L296.5 197.20209L294.48438 197.82709L294.48438 196.45209L298.01562 195.18646L298.1875 195.18646L298.1875 203.73334ZM305.04688 200.32709Q304.375 200.96771 303.5 200.96771Q302.35938 200.96771 301.67188 200.20209Q301.0 199.42084 301.0 198.10834Q301.0 197.26459 301.35938 196.56146Q301.73438 195.85834 302.39062 195.46771Q303.04688 195.07709 303.875 195.07709Q304.71875 195.07709 305.375 195.49896Q306.03125 195.92084 306.39062 196.71771Q306.75 197.51459 306.76562 198.53021L306.76562 199.15521Q306.76562 201.29584 305.70312 202.51459Q304.64062 203.73334 302.6875 203.81146L302.28125 203.81146L302.28125 202.40521L302.65625 202.38959Q304.85938 202.29584 305.04688 200.32709ZM303.90625 199.67084Q304.32812 199.67084 304.60938 199.46771Q304.90625 199.24896 305.0625 198.95209L305.0625 198.26459Q305.0625 197.40521 304.73438 196.93646Q304.40625 196.45209 303.85938 196.45209Q303.34375 196.45209 303.01562 196.92084Q302.6875 197.37396 302.6875 198.07709Q302.6875 198.78021 303.0 199.23334Q303.32812 199.67084 303.90625 199.67084ZM312.67188 195.10834L312.67188 196.51459L312.51562 196.51459Q311.35938 196.53021 310.65625 197.10834Q309.96875 197.68646 309.82812 198.71771Q310.5 198.03021 311.53125 198.03021Q312.65625 198.03021 313.3125 198.82709Q313.96875 199.62396 313.96875 200.92084Q313.96875 201.74896 313.60938 202.42084Q313.25 203.09271 312.57812 203.48334Q311.92188 203.85834 311.09375 203.85834Q309.75 203.85834 308.92188 202.92084Q308.09375 201.96771 308.09375 200.40521L308.09375 199.79584Q308.09375 198.40521 308.60938 197.34271Q309.14062 196.28021 310.10938 195.70209Q311.09375 195.12396 312.39062 195.10834L312.67188 195.10834ZM311.01562 199.38959Q310.60938 199.38959 310.26562 199.60834Q309.9375 199.81146 309.78125 200.17084L309.78125 200.68646Q309.78125 201.53021 310.10938 202.01459Q310.45312 202.48334 311.0625 202.48334Q311.60938 202.48334 311.9375 202.06146Q312.28125 201.62396 312.28125 200.93646Q312.28125 200.23334 311.9375 199.81146Q311.59375 199.38959 311.01562 199.38959ZM320.82812 200.20209Q320.82812 201.96771 320.09375 202.92084Q319.35938 203.85834 317.95312 203.85834Q316.54688 203.85834 315.8125 202.93646Q315.07812 202.01459 315.0625 200.29584L315.0625 198.71771Q315.0625 196.93646 315.79688 196.01459Q316.54688 195.07709 317.9375 195.07709Q319.32812 195.07709 320.0625 195.99896Q320.8125 196.92084 320.82812 198.63959L320.82812 200.20209ZM319.125 198.48334Q319.125 197.42084 318.82812 196.93646Q318.54688 196.45209 317.9375 196.45209Q317.34375 196.45209 317.04688 196.92084Q316.76562 197.37396 316.75 198.35834L316.75 200.42084Q316.75 201.46771 317.03125 201.98334Q317.3125 202.48334 317.95312 202.48334Q318.5625 202.48334 318.84375 201.99896Q319.125 201.51459 319.125 200.51459L319.125 198.48334Z" fill-rule="nonzero"/><path fill="#ffffff" d="M291.1875 203.73334L289.5 203.73334L289.5 197.20209L287.48438 197.82709L287.48438 196.45209L291.01562 195.18646L291.1875 195.18646L291.1875 203.73334ZM298.1875 203.73334L296.5 203.73334L296.5 197.20209L294.48438 197.82709L294.48438 196.45209L298.01562 195.18646L298.1875 195.18646L298.1875 203.73334ZM305.04688 200.32709Q304.375 200.96771 303.5 200.96771Q302.35938 200.96771 301.67188 200.20209Q301.0 199.42084 301.0 198.10834Q301.0 197.26459 301.35938 196.56146Q301.73438 195.85834 302.39062 195.46771Q303.04688 195.07709 303.875 195.07709Q304.71875 195.07709 305.375 195.49896Q306.03125 195.92084 306.39062 196.71771Q306.75 197.51459 306.76562 198.53021L306.76562 199.15521Q306.76562 201.29584 305.70312 202.51459Q304.64062 203.73334 302.6875 203.81146L302.28125 203.81146L302.28125 202.40521L302.65625 202.38959Q304.85938 202.29584 305.04688 200.32709ZM303.90625 199.67084Q304.32812 199.67084 304.60938 199.46771Q304.90625 199.24896 305.0625 198.95209L305.0625 198.26459Q305.0625 197.40521 304.73438 196.93646Q304.40625 196.45209 303.85938 196.45209Q303.34375 196.45209 303.01562 196.92084Q302.6875 197.37396 302.6875 198.07709Q302.6875 198.78021 303.0 199.23334Q303.32812 199.67084 303.90625 199.67084ZM312.67188 195.10834L312.67188 196.51459L312.51562 196.51459Q311.35938 196.53021 310.65625 197.10834Q309.96875 197.68646 309.82812 198.71771Q310.5 198.03021 311.53125 198.03021Q312.65625 198.03021 313.3125 198.82709Q313.96875 199.62396 313.96875 200.92084Q313.96875 201.74896 313.60938 202.42084Q313.25 203.09271 312.57812 203.48334Q311.92188 203.85834 311.09375 203.85834Q309.75 203.85834 308.92188 202.92084Q308.09375 201.96771 308.09375 200.40521L308.09375 199.79584Q308.09375 198.40521 308.60938 197.34271Q309.14062 196.28021 310.10938 195.70209Q311.09375 195.12396 312.39062 195.10834L312.67188 195.10834ZM311.01562 199.38959Q310.60938 199.38959 310.26562 199.60834Q309.9375 199.81146 309.78125 200.17084L309.78125 200.68646Q309.78125 201.53021 310.10938 202.01459Q310.45312 202.48334 311.0625 202.48334Q311.60938 202.48334 311.9375 202.06146Q312.28125 201.62396 312.28125 200.93646Q312.28125 200.23334 311.9375 199.81146Q311.59375 199.38959 311.01562 199.38959ZM320.82812 200.20209Q320.82812 201.96771 320.09375 202.92084Q319.35938 203.85834 317.95312 203.85834Q316.54688 203.85834 315.8125 202.93646Q315.07812 202.01459 315.0625 200.29584L315.0625 198.71771Q315.0625 196.93646 315.79688 196.01459Q316.54688 195.07709 317.9375 195.07709Q319.32812 195.07709 320.0625 195.99896Q320.8125 196.92084 320.82812 198.63959L320.82812 200.20209ZM319.125 198.48334Q319.125 197.42084 318.82812 196.93646Q318.54688 196.45209 317.9375 196.45209Q317.34375 196.45209 317.04688 196.92084Q316.76562 197.37396 316.75 198.35834L316.75 200.42084Q316.75 201.46771 317.03125 201.98334Q317.3125 202.48334 317.95312 202.48334Q318.5625 202.48334 318.84375 201.99896Q319.125 201.51459 319.125 200.51459L319.125 198.48334Z" fill-rule="nonzero"/><path stroke="#4285f4" stroke-width="3.0" stroke-linejoin="round" stroke-linecap="round" d="M452.1875 107.03042L450.5 107.03042L450.5 100.49917L448.48438 101.12417L448.48438 99.74917L452.01562 98.48354L452.1875 98.48354L452.1875 107.03042ZM459.04688 103.62417Q458.375 104.26479 457.5 104.26479Q456.35938 104.26479 455.67188 103.49917Q455.0 102.71792 455.0 101.40542Q455.0 100.56167 455.35938 99.85854Q455.73438 99.15542 456.39062 98.76479Q457.04688 98.37417 457.875 98.37417Q458.71875 98.37417 459.375 98.79604Q460.03125 99.21792 460.39062 100.01479Q460.75 100.81167 460.76562 101.82729L460.76562 102.45229Q460.76562 104.59292 459.70312 105.81167Q458.64062 107.03042 456.6875 107.10854L456.28125 107.10854L456.28125 105.70229L456.65625 105.68667Q458.85938 105.59292 459.04688 103.62417ZM457.90625 102.96792Q458.32812 102.96792 458.60938 102.76479Q458.90625 102.54604 459.0625 102.24917L459.0625 101.56167Q459.0625 100.70229 458.73438 100.23354Q458.40625 99.74917 457.85938 99.74917Q457.34375 99.74917 457.01562 100.21792Q456.6875 100.67104 456.6875 101.37417Q456.6875 102.07729 457.0 102.53042Q457.32812 102.96792 457.90625 102.96792ZM466.04688 103.62417Q465.375 104.26479 464.5 104.26479Q463.35938 104.26479 462.67188 103.49917Q462.0 102.71792 462.0 101.40542Q462.0 100.56167 462.35938 99.85854Q462.73438 99.15542 463.39062 98.76479Q464.04688 98.37417 464.875 98.37417Q465.71875 98.37417 466.375 98.79604Q467.03125 99.21792 467.39062 100.01479Q467.75 100.81167 467.76562 101.82729L467.76562 102.45229Q467.76562 104.59292 466.70312 105.81167Q465.64062 107.03042 463.6875 107.10854L463.28125 107.10854L463.28125 105.70229L463.65625 105.68667Q465.85938 105.59292 466.04688 103.62417ZM464.90625 102.96792Q465.32812 102.96792 465.60938 102.76479Q465.90625 102.54604 466.0625 102.24917L466.0625 101.56167Q466.0625 100.70229 465.73438 100.23354Q465.40625 99.74917 464.85938 99.74917Q464.34375 99.74917 464.01562 100.21792Q463.6875 100.67104 463.6875 101.37417Q463.6875 102.07729 464.0 102.53042Q464.32812 102.96792 464.90625 102.96792ZM473.67188 98.40542L473.67188 99.81167L473.51562 99.81167Q472.35938 99.82729 471.65625 100.40542Q470.96875 100.98354 470.82812 102.01479Q471.5 101.32729 472.53125 101.32729Q473.65625 101.32729 474.3125 102.12417Q474.96875 102.92104 474.96875 104.21792Q474.96875 105.04604 474.60938 105.71792Q474.25 106.38979 473.57812 106.78042Q472.92188 107.15542 472.09375 107.15542Q470.75 107.15542 469.92188 106.21792Q469.09375 105.26479 469.09375 103.70229L469.09375 103.09292Q469.09375 101.70229 469.60938 100.63979Q470.14062 99.57729 471.10938 98.99917Q472.09375 98.42104 473.39062 98.40542L473.67188 98.40542ZM472.01562 102.68667Q471.60938 102.68667 471.26562 102.90542Q470.9375 103.10854 470.78125 103.46792L470.78125 103.98354Q470.78125 104.82729 471.10938 105.31167Q471.45312 105.78042 472.0625 105.78042Q472.60938 105.78042 472.9375 105.35854Q473.28125 104.92104 473.28125 104.23354Q473.28125 103.53042 472.9375 103.10854Q472.59375 102.68667 472.01562 102.68667ZM477.79688 102.01479L478.70312 102.01479Q479.34375 102.01479 479.65625 101.70229Q479.96875 101.37417 479.96875 100.84292Q479.96875 100.32729 479.65625 100.04604Q479.35938 99.74917 478.8125 99.74917Q478.32812 99.74917 478.0 100.01479Q477.67188 100.28042 477.67188 100.70229L475.98438 100.70229Q475.98438 100.04604 476.34375 99.51479Q476.70312 98.98354 477.34375 98.68667Q478.0 98.37417 478.78125 98.37417Q480.125 98.37417 480.89062 99.03042Q481.67188 99.67104 481.67188 100.81167Q481.67188 101.40542 481.3125 101.90542Q480.95312 102.38979 480.375 102.63979Q481.09375 102.90542 481.4375 103.42104Q481.79688 103.93667 481.79688 104.63979Q481.79688 105.78042 480.96875 106.46792Q480.14062 107.15542 478.78125 107.15542Q477.5 107.15542 476.6875 106.48354Q475.875 105.79604 475.875 104.68667L477.5625 104.68667Q477.5625 105.17104 477.92188 105.48354Q478.29688 105.78042 478.8125 105.78042Q479.42188 105.78042 479.76562 105.46792Q480.10938 105.13979 480.10938 104.60854Q480.10938 103.34292 478.70312 103.34292L477.79688 103.34292L477.79688 102.01479Z" fill-rule="nonzero"/><path fill="#ffffff" d="M452.1875 107.03042L450.5 107.03042L450.5 100.49917L448.48438 101.12417L448.48438 99.74917L452.01562 98.48354L452.1875 98.48354L452.1875 107.03042ZM459.04688 103.62417Q458.375 104.26479 457.5 104.26479Q456.35938 104.26479 455.67188 103.49917Q455.0 102.71792 455.0 101.40542Q455.0 100.56167 455.35938 99.85854Q455.73438 99.15542 456.39062 98.76479Q457.04688 98.37417 457.875 98.37417Q458.71875 98.37417 459.375 98.79604Q460.03125 99.21792 460.39062 100.01479Q460.75 100.81167 460.76562 101.82729L460.76562 102.45229Q460.76562 104.59292 459.70312 105.81167Q458.64062 107.03042 456.6875 107.10854L456.28125 107.10854L456.28125 105.70229L456.65625 105.68667Q458.85938 105.59292 459.04688 103.62417ZM457.90625 102.96792Q458.32812 102.96792 458.60938 102.76479Q458.90625 102.54604 459.0625 102.24917L459.0625 101.56167Q459.0625 100.70229 458.73438 100.23354Q458.40625 99.74917 457.85938 99.74917Q457.34375 99.74917 457.01562 100.21792Q456.6875 100.67104 456.6875 101.37417Q456.6875 102.07729 457.0 102.53042Q457.32812 102.96792 457.90625 102.96792ZM466.04688 103.62417Q465.375 104.26479 464.5 104.26479Q463.35938 104.26479 462.67188 103.49917Q462.0 102.71792 462.0 101.40542Q462.0 100.56167 462.35938 99.85854Q462.73438 99.15542 463.39062 98.76479Q464.04688 98.37417 464.875 98.37417Q465.71875 98.37417 466.375 98.79604Q467.03125 99.21792 467.39062 100.01479Q467.75 100.81167 467.76562 101.82729L467.76562 102.45229Q467.76562 104.59292 466.70312 105.81167Q465.64062 107.03042 463.6875 107.10854L463.28125 107.10854L463.28125 105.70229L463.65625 105.68667Q465.85938 105.59292 466.04688 103.62417ZM464.90625 102.96792Q465.32812 102.96792 465.60938 102.76479Q465.90625 102.54604 466.0625 102.24917L466.0625 101.56167Q466.0625 100.70229 465.73438 100.23354Q465.40625 99.74917 464.85938 99.74917Q464.34375 99.74917 464.01562 100.21792Q463.6875 100.67104 463.6875 101.37417Q463.6875 102.07729 464.0 102.53042Q464.32812 102.96792 464.90625 102.96792ZM473.67188 98.40542L473.67188 99.81167L473.51562 99.81167Q472.35938 99.82729 471.65625 100.40542Q470.96875 100.98354 470.82812 102.01479Q471.5 101.32729 472.53125 101.32729Q473.65625 101.32729 474.3125 102.12417Q474.96875 102.92104 474.96875 104.21792Q474.96875 105.04604 474.60938 105.71792Q474.25 106.38979 473.57812 106.78042Q472.92188 107.15542 472.09375 107.15542Q470.75 107.15542 469.92188 106.21792Q469.09375 105.26479 469.09375 103.70229L469.09375 103.09292Q469.09375 101.70229 469.60938 100.63979Q470.14062 99.57729 471.10938 98.99917Q472.09375 98.42104 473.39062 98.40542L473.67188 98.40542ZM472.01562 102.68667Q471.60938 102.68667 471.26562 102.90542Q470.9375 103.10854 470.78125 103.46792L470.78125 103.98354Q470.78125 104.82729 471.10938 105.31167Q471.45312 105.78042 472.0625 105.78042Q472.60938 105.78042 472.9375 105.35854Q473.28125 104.92104 473.28125 104.23354Q473.28125 103.53042 472.9375 103.10854Q472.59375 102.68667 472.01562 102.68667ZM477.79688 102.01479L478.70312 102.01479Q479.34375 102.01479 479.65625 101.70229Q479.96875 101.37417 479.96875 100.84292Q479.96875 100.32729 479.65625 100.04604Q479.35938 99.74917 478.8125 99.74917Q478.32812 99.74917 478.0 100.01479Q477.67188 100.28042 477.67188 100.70229L475.98438 100.70229Q475.98438 100.04604 476.34375 99.51479Q476.70312 98.98354 477.34375 98.68667Q478.0 98.37417 478.78125 98.37417Q480.125 98.37417 480.89062 99.03042Q481.67188 99.67104 481.67188 100.81167Q481.67188 101.40542 481.3125 101.90542Q480.95312 102.38979 480.375 102.63979Q481.09375 102.90542 481.4375 103.42104Q481.79688 103.93667 481.79688 104.63979Q481.79688 105.78042 480.96875 106.46792Q480.14062 107.15542 478.78125 107.15542Q477.5 107.15542 476.6875 106.48354Q475.875 105.79604 475.875 104.68667L477.5625 104.68667Q477.5625 105.17104 477.92188 105.48354Q478.29688 105.78042 478.8125 105.78042Q479.42188 105.78042 479.76562 105.46792Q480.10938 105.13979 480.10938 104.60854Q480.10938 103.34292 478.70312 103.34292L477.79688 103.34292L477.79688 102.01479Z" fill-rule="nonzero"/><path stroke="#db4437" stroke-width="3.0" stroke-linejoin="round" stroke-linecap="round" d="M180.82812 278.5673L181.32812 274.23917L186.10938 274.23917L186.10938 275.64542L182.71875 275.64542L182.5 277.48917Q183.10938 277.16104 183.78125 277.16104Q185.0 277.16104 185.6875 277.92667Q186.39062 278.67667 186.39062 280.03604Q186.39062 280.86417 186.03125 281.52042Q185.6875 282.16104 185.03125 282.53604Q184.39062 282.89542 183.5 282.89542Q182.73438 282.89542 182.0625 282.58292Q181.40625 282.2548 181.01562 281.6923Q180.64062 281.1298 180.60938 280.39542L182.29688 280.39542Q182.34375 280.92667 182.65625 281.22354Q182.98438 281.52042 183.5 281.52042Q184.07812 281.52042 184.375 281.11417Q184.6875 280.6923 184.6875 279.9423Q184.6875 279.20792 184.32812 278.83292Q183.98438 278.4423 183.32812 278.4423Q182.71875 278.4423 182.34375 278.7548L182.1875 278.91104L180.82812 278.5673ZM192.59375 279.55167L193.5625 279.55167L193.5625 280.92667L192.59375 280.92667L192.59375 282.77042L190.89062 282.77042L190.89062 280.92667L187.40625 280.92667L187.32812 279.86417L190.875 274.23917L192.59375 274.23917L192.59375 279.55167ZM189.01562 279.55167L190.89062 279.55167L190.89062 276.55167L190.78125 276.73917L189.01562 279.55167ZM198.6875 282.77042L197.0 282.77042L197.0 276.23917L194.98438 276.86417L194.98438 275.48917L198.51562 274.22354L198.6875 274.22354L198.6875 282.77042ZM205.54688 279.36417Q204.875 280.0048 204.0 280.0048Q202.85938 280.0048 202.17188 279.23917Q201.5 278.45792 201.5 277.14542Q201.5 276.30167 201.85938 275.59854Q202.23438 274.89542 202.89062 274.5048Q203.54688 274.11417 204.375 274.11417Q205.21875 274.11417 205.875 274.53604Q206.53125 274.95792 206.89062 275.7548Q207.25 276.55167 207.26562 277.5673L207.26562 278.1923Q207.26562 280.33292 206.20312 281.55167Q205.14062 282.77042 203.1875 282.84854L202.78125 282.84854L202.78125 281.4423L203.15625 281.42667Q205.35938 281.33292 205.54688 279.36417ZM204.40625 278.70792Q204.82812 278.70792 205.10938 278.5048Q205.40625 278.28604 205.5625 277.98917L205.5625 277.30167Q205.5625 276.4423 205.23438 275.97354Q204.90625 275.48917 204.35938 275.48917Q203.84375 275.48917 203.51562 275.95792Q203.1875 276.41104 203.1875 277.11417Q203.1875 277.8173 203.5 278.27042Q203.82812 278.70792 204.40625 278.70792Z" fill-rule="nonzero"/><path fill="#ffffff" d="M180.82812 278.5673L181.32812 274.23917L186.10938 274.23917L186.10938 275.64542L182.71875 275.64542L182.5 277.48917Q183.10938 277.16104 183.78125 277.16104Q185.0 277.16104 185.6875 277.92667Q186.39062 278.67667 186.39062 280.03604Q186.39062 280.86417 186.03125 281.52042Q185.6875 282.16104 185.03125 282.53604Q184.39062 282.89542 183.5 282.89542Q182.73438 282.89542 182.0625 282.58292Q181.40625 282.2548 181.01562 281.6923Q180.64062 281.1298 180.60938 280.39542L182.29688 280.39542Q182.34375 280.92667 182.65625 281.22354Q182.98438 281.52042 183.5 281.52042Q184.07812 281.52042 184.375 281.11417Q184.6875 280.6923 184.6875 279.9423Q184.6875 279.20792 184.32812 278.83292Q183.98438 278.4423 183.32812 278.4423Q182.71875 278.4423 182.34375 278.7548L182.1875 278.91104L180.82812 278.5673ZM192.59375 279.55167L193.5625 279.55167L193.5625 280.92667L192.59375 280.92667L192.59375 282.77042L190.89062 282.77042L190.89062 280.92667L187.40625 280.92667L187.32812 279.86417L190.875 274.23917L192.59375 274.23917L192.59375 279.55167ZM189.01562 279.55167L190.89062 279.55167L190.89062 276.55167L190.78125 276.73917L189.01562 279.55167ZM198.6875 282.77042L197.0 282.77042L197.0 276.23917L194.98438 276.86417L194.98438 275.48917L198.51562 274.22354L198.6875 274.22354L198.6875 282.77042ZM205.54688 279.36417Q204.875 280.0048 204.0 280.0048Q202.85938 280.0048 202.17188 279.23917Q201.5 278.45792 201.5 277.14542Q201.5 276.30167 201.85938 275.59854Q202.23438 274.89542 202.89062 274.5048Q203.54688 274.11417 204.375 274.11417Q205.21875 274.11417 205.875 274.53604Q206.53125 274.95792 206.89062 275.7548Q207.25 276.55167 207.26562 277.5673L207.26562 278.1923Q207.26562 280.33292 206.20312 281.55167Q205.14062 282.77042 203.1875 282.84854L202.78125 282.84854L202.78125 281.4423L203.15625 281.42667Q205.35938 281.33292 205.54688 279.36417ZM204.40625 278.70792Q204.82812 278.70792 205.10938 278.5048Q205.40625 278.28604 205.5625 277.98917L205.5625 277.30167Q205.5625 276.4423 205.23438 275.97354Q204.90625 275.48917 204.35938 275.48917Q203.84375 275.48917 203.51562 275.95792Q203.1875 276.41104 203.1875 277.11417Q203.1875 277.8173 203.5 278.27042Q203.82812 278.70792 204.40625 278.70792Z" fill-rule="nonzero"/><path stroke="#db4437" stroke-width="3.0" stroke-linejoin="round" stroke-linecap="round" d="M346.54688 233.10916Q345.875 233.74979 345.0 233.74979Q343.85938 233.74979 343.17188 232.98416Q342.5 232.20291 342.5 230.89041Q342.5 230.04666 342.85938 229.34354Q343.23438 228.64041 343.89062 228.24979Q344.54688 227.85916 345.375 227.85916Q346.21875 227.85916 346.875 228.28104Q347.53125 228.70291 347.89062 229.49979Q348.25 230.29666 348.26562 231.31229L348.26562 231.93729Q348.26562 234.07791 347.20312 235.29666Q346.14062 236.51541 344.1875 236.59354L343.78125 236.59354L343.78125 235.18729L344.15625 235.17166Q346.35938 235.07791 346.54688 233.10916ZM345.40625 232.45291Q345.82812 232.45291 346.10938 232.24979Q346.40625 232.03104 346.5625 231.73416L346.5625 231.04666Q346.5625 230.18729 346.23438 229.71854Q345.90625 229.23416 345.35938 229.23416Q344.84375 229.23416 344.51562 229.70291Q344.1875 230.15604 344.1875 230.85916Q344.1875 231.56229 344.5 232.01541Q344.82812 232.45291 345.40625 232.45291ZM355.42188 236.51541L349.57812 236.51541L349.57812 235.35916L352.34375 232.40604Q352.90625 231.79666 353.17188 231.32791Q353.45312 230.85916 353.45312 230.45291Q353.45312 229.87479 353.15625 229.56229Q352.875 229.23416 352.34375 229.23416Q351.76562 229.23416 351.4375 229.62479Q351.10938 230.01541 351.10938 230.67166L349.40625 230.67166Q349.40625 229.89041 349.78125 229.24979Q350.15625 228.59354 350.82812 228.23416Q351.51562 227.85916 352.375 227.85916Q353.6875 227.85916 354.42188 228.49979Q355.15625 229.12479 355.15625 230.28104Q355.15625 230.92166 354.82812 231.57791Q354.5 232.23416 353.70312 233.10916L351.76562 235.15604L355.42188 235.15604L355.42188 236.51541ZM361.59375 233.29666L362.5625 233.29666L362.5625 234.67166L361.59375 234.67166L361.59375 236.51541L359.89062 236.51541L359.89062 234.67166L356.40625 234.67166L356.32812 233.60916L359.875 227.98416L361.59375 227.98416L361.59375 233.29666ZM358.01562 233.29666L359.89062 233.29666L359.89062 230.29666L359.78125 230.48416L358.01562 233.29666ZM369.375 228.93729L366.07812 236.51541L364.29688 236.51541L367.59375 229.35916L363.35938 229.35916L363.35938 227.98416L369.375 227.98416L369.375 228.93729Z" fill-rule="nonzero"/><path fill="#ffffff" d="M346.54688 233.10916Q345.875 233.74979 345.0 233.74979Q343.85938 233.74979 343.17188 232.98416Q342.5 232.20291 342.5 230.89041Q342.5 230.04666 342.85938 229.34354Q343.23438 228.64041 343.89062 228.24979Q344.54688 227.85916 345.375 227.85916Q346.21875 227.85916 346.875 228.28104Q347.53125 228.70291 347.89062 229.49979Q348.25 230.29666 348.26562 231.31229L348.26562 231.93729Q348.26562 234.07791 347.20312 235.29666Q346.14062 236.51541 344.1875 236.59354L343.78125 236.59354L343.78125 235.18729L344.15625 235.17166Q346.35938 235.07791 346.54688 233.10916ZM345.40625 232.45291Q345.82812 232.45291 346.10938 232.24979Q346.40625 232.03104 346.5625 231.73416L346.5625 231.04666Q346.5625 230.18729 346.23438 229.71854Q345.90625 229.23416 345.35938 229.23416Q344.84375 229.23416 344.51562 229.70291Q344.1875 230.15604 344.1875 230.85916Q344.1875 231.56229 344.5 232.01541Q344.82812 232.45291 345.40625 232.45291ZM355.42188 236.51541L349.57812 236.51541L349.57812 235.35916L352.34375 232.40604Q352.90625 231.79666 353.17188 231.32791Q353.45312 230.85916 353.45312 230.45291Q353.45312 229.87479 353.15625 229.56229Q352.875 229.23416 352.34375 229.23416Q351.76562 229.23416 351.4375 229.62479Q351.10938 230.01541 351.10938 230.67166L349.40625 230.67166Q349.40625 229.89041 349.78125 229.24979Q350.15625 228.59354 350.82812 228.23416Q351.51562 227.85916 352.375 227.85916Q353.6875 227.85916 354.42188 228.49979Q355.15625 229.12479 355.15625 230.28104Q355.15625 230.92166 354.82812 231.57791Q354.5 232.23416 353.70312 233.10916L351.76562 235.15604L355.42188 235.15604L355.42188 236.51541ZM361.59375 233.29666L362.5625 233.29666L362.5625 234.67166L361.59375 234.67166L361.59375 236.51541L359.89062 236.51541L359.89062 234.67166L356.40625 234.67166L356.32812 233.60916L359.875 227.98416L361.59375 227.98416L361.59375 233.29666ZM358.01562 233.29666L359.89062 233.29666L359.89062 230.29666L359.78125 230.48416L358.01562 233.29666ZM369.375 228.93729L366.07812 236.51541L364.29688 236.51541L367.59375 229.35916L363.35938 229.35916L363.35938 227.98416L369.375 227.98416L369.375 228.93729Z" fill-rule="nonzero"/><path stroke="#db4437" stroke-width="3.0" stroke-linejoin="round" stroke-linecap="round" d="M504.1875 149.90208L502.5 149.90208L502.5 143.37083L500.48438 143.99583L500.48438 142.62083L504.01562 141.35521L504.1875 141.35521L504.1875 149.90208ZM511.67188 141.27708L511.67188 142.68333L511.51562 142.68333Q510.35938 142.69896 509.65625 143.27708Q508.96875 143.85521 508.82812 144.88646Q509.5 144.19896 510.53125 144.19896Q511.65625 144.19896 512.3125 144.99583Q512.96875 145.79271 512.96875 147.08958Q512.96875 147.91771 512.6094 148.58958Q512.25 149.26146 511.57812 149.65208Q510.92188 150.02708 510.09375 150.02708Q508.75 150.02708 507.92188 149.08958Q507.09375 148.13646 507.09375 146.57396L507.09375 145.96458Q507.09375 144.57396 507.60938 143.51146Q508.14062 142.44896 509.10938 141.87083Q510.09375 141.29271 511.39062 141.27708L511.67188 141.27708ZM510.01562 145.55833Q509.60938 145.55833 509.26562 145.77708Q508.9375 145.98021 508.78125 146.33958L508.78125 146.85521Q508.78125 147.69896 509.10938 148.18333Q509.45312 148.65208 510.0625 148.65208Q510.60938 148.65208 510.9375 148.23021Q511.28125 147.79271 511.28125 147.10521Q511.28125 146.40208 510.9375 145.98021Q510.59375 145.55833 510.01562 145.55833ZM519.09375 146.68333L520.0625 146.68333L520.0625 148.05833L519.09375 148.05833L519.09375 149.90208L517.3906 149.90208L517.3906 148.05833L513.90625 148.05833L513.8281 146.99583L517.375 141.37083L519.09375 141.37083L519.09375 146.68333ZM515.5156 146.68333L517.3906 146.68333L517.3906 143.68333L517.28125 143.87083L515.5156 146.68333ZM525.1875 149.90208L523.5 149.90208L523.5 143.37083L521.4844 143.99583L521.4844 142.62083L525.0156 141.35521L525.1875 141.35521L525.1875 149.90208ZM528.3281 145.69896L528.8281 141.37083L533.6094 141.37083L533.6094 142.77708L530.21875 142.77708L530.0 144.62083Q530.6094 144.29271 531.28125 144.29271Q532.5 144.29271 533.1875 145.05833Q533.8906 145.80833 533.8906 147.16771Q533.8906 147.99583 533.53125 148.65208Q533.1875 149.29271 532.53125 149.66771Q531.8906 150.02708 531.0 150.02708Q530.2344 150.02708 529.5625 149.71458Q528.90625 149.38646 528.5156 148.82396Q528.1406 148.26146 528.1094 147.52708L529.7969 147.52708Q529.84375 148.05833 530.15625 148.35521Q530.4844 148.65208 531.0 148.65208Q531.5781 148.65208 531.875 148.24583Q532.1875 147.82396 532.1875 147.07396Q532.1875 146.33958 531.8281 145.96458Q531.4844 145.57396 530.8281 145.57396Q530.21875 145.57396 529.84375 145.88646L529.6875 146.04271L528.3281 145.69896Z" fill-rule="nonzero"/><path fill="#ffffff" d="M504.1875 149.90208L502.5 149.90208L502.5 143.37083L500.48438 143.99583L500.48438 142.62083L504.01562 141.35521L504.1875 141.35521L504.1875 149.90208ZM511.67188 141.27708L511.67188 142.68333L511.51562 142.68333Q510.35938 142.69896 509.65625 143.27708Q508.96875 143.85521 508.82812 144.88646Q509.5 144.19896 510.53125 144.19896Q511.65625 144.19896 512.3125 144.99583Q512.96875 145.79271 512.96875 147.08958Q512.96875 147.91771 512.6094 148.58958Q512.25 149.26146 511.57812 149.65208Q510.92188 150.02708 510.09375 150.02708Q508.75 150.02708 507.92188 149.08958Q507.09375 148.13646 507.09375 146.57396L507.09375 145.96458Q507.09375 144.57396 507.60938 143.51146Q508.14062 142.44896 509.10938 141.87083Q510.09375 141.29271 511.39062 141.27708L511.67188 141.27708ZM510.01562 145.55833Q509.60938 145.55833 509.26562 145.77708Q508.9375 145.98021 508.78125 146.33958L508.78125 146.85521Q508.78125 147.69896 509.10938 148.18333Q509.45312 148.65208 510.0625 148.65208Q510.60938 148.65208 510.9375 148.23021Q511.28125 147.79271 511.28125 147.10521Q511.28125 146.40208 510.9375 145.98021Q510.59375 145.55833 510.01562 145.55833ZM519.09375 146.68333L520.0625 146.68333L520.0625 148.05833L519.09375 148.05833L519.09375 149.90208L517.3906 149.90208L517.3906 148.05833L513.90625 148.05833L513.8281 146.99583L517.375 141.37083L519.09375 141.37083L519.09375 146.68333ZM515.5156 146.68333L517.3906 146.68333L517.3906 143.68333L517.28125 143.87083L515.5156 146.68333ZM525.1875 149.90208L523.5 149.90208L523.5 143.37083L521.4844 143.99583L521.4844 142.62083L525.0156 141.35521L525.1875 141.35521L525.1875 149.90208ZM528.3281 145.69896L528.8281 141.37083L533.6094 141.37083L533.6094 142.77708L530.21875 142.77708L530.0 144.62083Q530.6094 144.29271 531.28125 144.29271Q532.5 144.29271 533.1875 145.05833Q533.8906 145.80833 533.8906 147.16771Q533.8906 147.99583 533.53125 148.65208Q533.1875 149.29271 532.53125 149.66771Q531.8906 150.02708 531.0 150.02708Q530.2344 150.02708 529.5625 149.71458Q528.90625 149.38646 528.5156 148.82396Q528.1406 148.26146 528.1094 147.52708L529.7969 147.52708Q529.84375 148.05833 530.15625 148.35521Q530.4844 148.65208 531.0 148.65208Q531.5781 148.65208 531.875 148.24583Q532.1875 147.82396 532.1875 147.07396Q532.1875 146.33958 531.8281 145.96458Q531.4844 145.57396 530.8281 145.57396Q530.21875 145.57396 529.84375 145.88646L529.6875 146.04271L528.3281 145.69896Z" fill-rule="nonzero"/><path fill="#757575" d="M52.6125 332.3094Q52.6125 334.21564 51.95625 335.15314Q51.315624 336.075 49.925 336.075Q48.565624 336.075 47.909374 335.16876Q47.253124 334.2625 47.221874 332.45L47.221874 331.0125Q47.221874 329.1219 47.8625 328.21564Q48.51875 327.29376 49.909374 327.29376Q51.284374 327.29376 51.940624 328.1844Q52.596874 329.0594 52.6125 330.90314L52.6125 332.3094ZM51.51875 330.825Q51.51875 329.45 51.128124 328.825Q50.753124 328.1844 49.909374 328.1844Q49.08125 328.1844 48.690624 328.825Q48.315624 329.45 48.315624 330.7469L48.315624 332.48126Q48.315624 333.85626 48.70625 334.52814Q49.1125 335.1844 49.925 335.1844Q50.721874 335.1844 51.1125 334.5594Q51.503124 333.9344 51.51875 332.60626L51.51875 330.825Z" fill-rule="nonzero"/><path fill="#757575" d="M26.753124 271.25208L27.190624 267.00208L31.565624 267.00208L31.565624 268.00208L28.1125 268.00208L27.846874 270.3302Q28.4875 269.9552 29.284374 269.9552Q30.440624 269.9552 31.128124 270.73645Q31.815624 271.50208 31.815624 272.81458Q31.815624 274.12708 31.096874 274.8927Q30.39375 275.65833 29.1125 275.65833Q27.9875 275.65833 27.26875 275.03333Q26.55 274.3927 26.45625 273.28333L27.471874 273.28333Q27.58125 274.0177 28.003124 274.3927Q28.425 274.7677 29.1125 274.7677Q29.8625 274.7677 30.3 274.25208Q30.7375 273.73645 30.7375 272.8302Q30.7375 271.97083 30.26875 271.4552Q29.8 270.93958 29.01875 270.93958Q28.315624 270.93958 27.909374 271.23645L27.628124 271.47083L26.753124 271.25208ZM38.6125 271.8927Q38.6125 273.79895 37.95625 274.73645Q37.315624 275.65833 35.925 275.65833Q34.565624 275.65833 33.909374 274.75208Q33.253124 273.84583 33.221874 272.03333L33.221874 270.59583Q33.221874 268.7052 33.8625 267.79895Q34.51875 266.87708 35.909374 266.87708Q37.284374 266.87708 37.940624 267.7677Q38.596874 268.6427 38.6125 270.48645L38.6125 271.8927ZM37.51875 270.40833Q37.51875 269.03333 37.128124 268.40833Q36.753124 267.7677 35.909374 267.7677Q35.08125 267.7677 34.690624 268.40833Q34.315624 269.03333 34.315624 270.3302L34.315624 272.06458Q34.315624 273.43958 34.70625 274.11145Q35.1125 274.7677 35.925 274.7677Q36.721874 274.7677 37.1125 274.1427Q37.503124 273.5177 37.51875 272.18958L37.51875 270.40833ZM45.6125 271.8927Q45.6125 273.79895 44.95625 274.73645Q44.315624 275.65833 42.925 275.65833Q41.565624 275.65833 40.909374 274.75208Q40.253124 273.84583 40.221874 272.03333L40.221874 270.59583Q40.221874 268.7052 40.8625 267.79895Q41.51875 266.87708 42.909374 266.87708Q44.284374 266.87708 44.940624 267.7677Q45.596874 268.6427 45.6125 270.48645L45.6125 271.8927ZM44.51875 270.40833Q44.51875 269.03333 44.128124 268.40833Q43.753124 267.7677 42.909374 267.7677Q42.08125 267.7677 41.690624 268.40833Q41.315624 269.03333 41.315624 270.3302L41.315624 272.06458Q41.315624 273.43958 41.70625 274.11145Q42.1125 274.7677 42.925 274.7677Q43.721874 274.7677 44.1125 274.1427Q44.503124 273.5177 44.51875 272.18958L44.51875 270.40833ZM52.6125 271.8927Q52.6125 273.79895 51.95625 274.73645Q51.315624 275.65833 49.925 275.65833Q48.565624 275.65833 47.909374 274.75208Q47.253124 273.84583 47.221874 272.03333L47.221874 270.59583Q47.221874 268.7052 47.8625 267.79895Q48.51875 266.87708 49.909374 266.87708Q51.284374 266.87708 51.940624 267.7677Q52.596874 268.6427 52.6125 270.48645L52.6125 271.8927ZM51.51875 270.40833Q51.51875 269.03333 51.128124 268.40833Q50.753124 267.7677 49.909374 267.7677Q49.08125 267.7677 48.690624 268.40833Q48.315624 269.03333 48.315624 270.3302L48.315624 272.06458Q48.315624 273.43958 48.70625 274.11145Q49.1125 274.7677 49.925 274.7677Q50.721874 274.7677 51.1125 274.1427Q51.503124 273.5177 51.51875 272.18958L51.51875 270.40833Z" fill-rule="nonzero"/><path fill="#757575" d="M22.815624 215.11667L21.7375 215.11667L21.7375 207.89792L19.55 208.6948L19.55 207.71042L22.659374 206.53854L22.815624 206.53854L22.815624 215.11667ZM31.6125 211.47604Q31.6125 213.3823 30.95625 214.3198Q30.315624 215.24167 28.925 215.24167Q27.565624 215.24167 26.909374 214.33542Q26.253124 213.42917 26.221874 211.61667L26.221874 210.17917Q26.221874 208.28854 26.8625 207.3823Q27.51875 206.46042 28.909374 206.46042Q30.284374 206.46042 30.940624 207.35104Q31.596874 208.22604 31.6125 210.0698L31.6125 211.47604ZM30.51875 209.99167Q30.51875 208.61667 30.128124 207.99167Q29.753124 207.35104 28.909374 207.35104Q28.08125 207.35104 27.690624 207.99167Q27.315624 208.61667 27.315624 209.91354L27.315624 211.64792Q27.315624 213.02292 27.70625 213.6948Q28.1125 214.35104 28.925 214.35104Q29.721874 214.35104 30.1125 213.72604Q30.503124 213.10104 30.51875 211.77292L30.51875 209.99167ZM38.6125 211.47604Q38.6125 213.3823 37.95625 214.3198Q37.315624 215.24167 35.925 215.24167Q34.565624 215.24167 33.909374 214.33542Q33.253124 213.42917 33.221874 211.61667L33.221874 210.17917Q33.221874 208.28854 33.8625 207.3823Q34.51875 206.46042 35.909374 206.46042Q37.284374 206.46042 37.940624 207.35104Q38.596874 208.22604 38.6125 210.0698L38.6125 211.47604ZM37.51875 209.99167Q37.51875 208.61667 37.128124 207.99167Q36.753124 207.35104 35.909374 207.35104Q35.08125 207.35104 34.690624 207.99167Q34.315624 208.61667 34.315624 209.91354L34.315624 211.64792Q34.315624 213.02292 34.70625 213.6948Q35.1125 214.35104 35.925 214.35104Q36.721874 214.35104 37.1125 213.72604Q37.503124 213.10104 37.51875 211.77292L37.51875 209.99167ZM45.6125 211.47604Q45.6125 213.3823 44.95625 214.3198Q44.315624 215.24167 42.925 215.24167Q41.565624 215.24167 40.909374 214.33542Q40.253124 213.42917 40.221874 211.61667L40.221874 210.17917Q40.221874 208.28854 40.8625 207.3823Q41.51875 206.46042 42.909374 206.46042Q44.284374 206.46042 44.940624 207.35104Q45.596874 208.22604 45.6125 210.0698L45.6125 211.47604ZM44.51875 209.99167Q44.51875 208.61667 44.128124 207.99167Q43.753124 207.35104 42.909374 207.35104Q42.08125 207.35104 41.690624 207.99167Q41.315624 208.61667 41.315624 209.91354L41.315624 211.64792Q41.315624 213.02292 41.70625 213.6948Q42.1125 214.35104 42.925 214.35104Q43.721874 214.35104 44.1125 213.72604Q44.503124 213.10104 44.51875 211.77292L44.51875 209.99167ZM52.6125 211.47604Q52.6125 213.3823 51.95625 214.3198Q51.315624 215.24167 49.925 215.24167Q48.565624 215.24167 47.909374 214.33542Q47.253124 213.42917 47.221874 211.61667L47.221874 210.17917Q47.221874 208.28854 47.8625 207.3823Q48.51875 206.46042 49.909374 206.46042Q51.284374 206.46042 51.940624 207.35104Q52.596874 208.22604 52.6125 210.0698L52.6125 211.47604ZM51.51875 209.99167Q51.51875 208.61667 51.128124 207.99167Q50.753124 207.35104 49.909374 207.35104Q49.08125 207.35104 48.690624 207.99167Q48.315624 208.61667 48.315624 209.91354L48.315624 211.64792Q48.315624 213.02292 48.70625 213.6948Q49.1125 214.35104 49.925 214.35104Q50.721874 214.35104 51.1125 213.72604Q51.503124 213.10104 51.51875 211.77292L51.51875 209.99167Z" fill-rule="nonzero"/><path fill="#757575" d="M22.815624 154.7L21.7375 154.7L21.7375 147.48125L19.55 148.27812L19.55 147.29375L22.659374 146.12187L22.815624 146.12187L22.815624 154.7ZM26.753124 150.41875L27.190624 146.16875L31.565624 146.16875L31.565624 147.16875L28.1125 147.16875L27.846874 149.49687Q28.4875 149.12187 29.284374 149.12187Q30.440624 149.12187 31.128124 149.90312Q31.815624 150.66875 31.815624 151.98125Q31.815624 153.29375 31.096874 154.05937Q30.39375 154.825 29.1125 154.825Q27.9875 154.825 27.26875 154.2Q26.55 153.55937 26.45625 152.45L27.471874 152.45Q27.58125 153.18437 28.003124 153.55937Q28.425 153.93437 29.1125 153.93437Q29.8625 153.93437 30.3 153.41875Q30.7375 152.90312 30.7375 151.99687Q30.7375 151.1375 30.26875 150.62187Q29.8 150.10625 29.01875 150.10625Q28.315624 150.10625 27.909374 150.40312L27.628124 150.6375L26.753124 150.41875ZM38.6125 151.05937Q38.6125 152.96562 37.95625 153.90312Q37.315624 154.825 35.925 154.825Q34.565624 154.825 33.909374 153.91875Q33.253124 153.0125 33.221874 151.2L33.221874 149.7625Q33.221874 147.87187 33.8625 146.96562Q34.51875 146.04375 35.909374 146.04375Q37.284374 146.04375 37.940624 146.93437Q38.596874 147.80937 38.6125 149.65312L38.6125 151.05937ZM37.51875 149.575Q37.51875 148.2 37.128124 147.575Q36.753124 146.93437 35.909374 146.93437Q35.08125 146.93437 34.690624 147.575Q34.315624 148.2 34.315624 149.49687L34.315624 151.23125Q34.315624 152.60625 34.70625 153.27812Q35.1125 153.93437 35.925 153.93437Q36.721874 153.93437 37.1125 153.30937Q37.503124 152.68437 37.51875 151.35625L37.51875 149.575ZM45.6125 151.05937Q45.6125 152.96562 44.95625 153.90312Q44.315624 154.825 42.925 154.825Q41.565624 154.825 40.909374 153.91875Q40.253124 153.0125 40.221874 151.2L40.221874 149.7625Q40.221874 147.87187 40.8625 146.96562Q41.51875 146.04375 42.909374 146.04375Q44.284374 146.04375 44.940624 146.93437Q45.596874 147.80937 45.6125 149.65312L45.6125 151.05937ZM44.51875 149.575Q44.51875 148.2 44.128124 147.575Q43.753124 146.93437 42.909374 146.93437Q42.08125 146.93437 41.690624 147.575Q41.315624 148.2 41.315624 149.49687L41.315624 151.23125Q41.315624 152.60625 41.70625 153.27812Q42.1125 153.93437 42.925 153.93437Q43.721874 153.93437 44.1125 153.30937Q44.503124 152.68437 44.51875 151.35625L44.51875 149.575ZM52.6125 151.05937Q52.6125 152.96562 51.95625 153.90312Q51.315624 154.825 49.925 154.825Q48.565624 154.825 47.909374 153.91875Q47.253124 153.0125 47.221874 151.2L47.221874 149.7625Q47.221874 147.87187 47.8625 146.96562Q48.51875 146.04375 49.909374 146.04375Q51.284374 146.04375 51.940624 146.93437Q52.596874 147.80937 52.6125 149.65312L52.6125 151.05937ZM51.51875 149.575Q51.51875 148.2 51.128124 147.575Q50.753124 146.93437 49.909374 146.93437Q49.08125 146.93437 48.690624 147.575Q48.315624 148.2 48.315624 149.49687L48.315624 151.23125Q48.315624 152.60625 48.70625 153.27812Q49.1125 153.93437 49.925 153.93437Q50.721874 153.93437 51.1125 153.30937Q51.503124 152.68437 51.51875 151.35625L51.51875 149.575Z" fill-rule="nonzero"/><path fill="#757575" d="M24.846874 94.28333L19.253124 94.28333L19.253124 93.50208L22.20625 90.22083Q22.8625 89.47083 23.1125 89.01771Q23.3625 88.54896 23.3625 88.04896Q23.3625 87.37708 22.95625 86.95521Q22.565624 86.51771 21.878124 86.51771Q21.08125 86.51771 20.628124 86.98646Q20.175 87.43958 20.175 88.26771L19.096874 88.26771Q19.096874 87.08021 19.846874 86.36146Q20.6125 85.62708 21.878124 85.62708Q23.08125 85.62708 23.76875 86.25208Q24.45625 86.87708 24.45625 87.92396Q24.45625 89.17396 22.846874 90.92396L20.565624 93.39271L24.846874 93.39271L24.846874 94.28333ZM31.6125 90.64271Q31.6125 92.54896 30.95625 93.48646Q30.315624 94.40833 28.925 94.40833Q27.565624 94.40833 26.909374 93.50208Q26.253124 92.59583 26.221874 90.78333L26.221874 89.34583Q26.221874 87.45521 26.8625 86.54896Q27.51875 85.62708 28.909374 85.62708Q30.284374 85.62708 30.940624 86.51771Q31.596874 87.39271 31.6125 89.23646L31.6125 90.64271ZM30.51875 89.15833Q30.51875 87.78333 30.128124 87.15833Q29.753124 86.51771 28.909374 86.51771Q28.08125 86.51771 27.690624 87.15833Q27.315624 87.78333 27.315624 89.08021L27.315624 90.81458Q27.315624 92.18958 27.70625 92.86146Q28.1125 93.51771 28.925 93.51771Q29.721874 93.51771 30.1125 92.89271Q30.503124 92.26771 30.51875 90.93958L30.51875 89.15833ZM38.6125 90.64271Q38.6125 92.54896 37.95625 93.48646Q37.315624 94.40833 35.925 94.40833Q34.565624 94.40833 33.909374 93.50208Q33.253124 92.59583 33.221874 90.78333L33.221874 89.34583Q33.221874 87.45521 33.8625 86.54896Q34.51875 85.62708 35.909374 85.62708Q37.284374 85.62708 37.940624 86.51771Q38.596874 87.39271 38.6125 89.23646L38.6125 90.64271ZM37.51875 89.15833Q37.51875 87.78333 37.128124 87.15833Q36.753124 86.51771 35.909374 86.51771Q35.08125 86.51771 34.690624 87.15833Q34.315624 87.78333 34.315624 89.08021L34.315624 90.81458Q34.315624 92.18958 34.70625 92.86146Q35.1125 93.51771 35.925 93.51771Q36.721874 93.51771 37.1125 92.89271Q37.503124 92.26771 37.51875 90.93958L37.51875 89.15833ZM45.6125 90.64271Q45.6125 92.54896 44.95625 93.48646Q44.315624 94.40833 42.925 94.40833Q41.565624 94.40833 40.909374 93.50208Q40.253124 92.59583 40.221874 90.78333L40.221874 89.34583Q40.221874 87.45521 40.8625 86.54896Q41.51875 85.62708 42.909374 85.62708Q44.284374 85.62708 44.940624 86.51771Q45.596874 87.39271 45.6125 89.23646L45.6125 90.64271ZM44.51875 89.15833Q44.51875 87.78333 44.128124 87.15833Q43.753124 86.51771 42.909374 86.51771Q42.08125 86.51771 41.690624 87.15833Q41.315624 87.78333 41.315624 89.08021L41.315624 90.81458Q41.315624 92.18958 41.70625 92.86146Q42.1125 93.51771 42.925 93.51771Q43.721874 93.51771 44.1125 92.89271Q44.503124 92.26771 44.51875 90.93958L44.51875 89.15833ZM52.6125 90.64271Q52.6125 92.54896 51.95625 93.48646Q51.315624 94.40833 49.925 94.40833Q48.565624 94.40833 47.909374 93.50208Q47.253124 92.59583 47.221874 90.78333L47.221874 89.34583Q47.221874 87.45521 47.8625 86.54896Q48.51875 85.62708 49.909374 85.62708Q51.284374 85.62708 51.940624 86.51771Q52.596874 87.39271 52.6125 89.23646L52.6125 90.64271ZM51.51875 89.15833Q51.51875 87.78333 51.128124 87.15833Q50.753124 86.51771 49.909374 86.51771Q49.08125 86.51771 48.690624 87.15833Q48.315624 87.78333 48.315624 89.08021L48.315624 90.81458Q48.315624 92.18958 48.70625 92.86146Q49.1125 93.51771 49.925 93.51771Q50.721874 93.51771 51.1125 92.89271Q51.503124 92.26771 51.51875 90.93958L51.51875 89.15833Z" fill-rule="nonzero"/><path fill="#757575" d="M159.03894 345.16876L159.47644 340.91876L163.85144 340.91876L163.85144 341.91876L160.39832 341.91876L160.13269 344.2469Q160.77332 343.8719 161.57019 343.8719Q162.72644 343.8719 163.41394 344.65314Q164.10144 345.41876 164.10144 346.73126Q164.10144 348.04376 163.38269 348.8094Q162.67957 349.575 161.39832 349.575Q160.27332 349.575 159.55457 348.95Q158.83582 348.3094 158.74207 347.2L159.75769 347.2Q159.86707 347.9344 160.28894 348.3094Q160.71082 348.6844 161.39832 348.6844Q162.14832 348.6844 162.58582 348.16876Q163.02332 347.65314 163.02332 346.7469Q163.02332 345.8875 162.55457 345.3719Q162.08582 344.85626 161.30457 344.85626Q160.60144 344.85626 160.19519 345.15314L159.91394 345.3875L159.03894 345.16876ZM170.89832 345.8094Q170.89832 347.71564 170.24207 348.65314Q169.60144 349.575 168.21082 349.575Q166.85144 349.575 166.19519 348.66876Q165.53894 347.7625 165.50769 345.95L165.50769 344.5125Q165.50769 342.6219 166.14832 341.71564Q166.80457 340.79376 168.19519 340.79376Q169.57019 340.79376 170.22644 341.6844Q170.88269 342.5594 170.89832 344.40314L170.89832 345.8094ZM169.80457 344.325Q169.80457 342.95 169.41394 342.325Q169.03894 341.6844 168.19519 341.6844Q167.36707 341.6844 166.97644 342.325Q166.60144 342.95 166.60144 344.2469L166.60144 345.98126Q166.60144 347.35626 166.99207 348.02814Q167.39832 348.6844 168.21082 348.6844Q169.00769 348.6844 169.39832 348.0594Q169.78894 347.4344 169.80457 346.10626L169.80457 344.325ZM177.89832 345.8094Q177.89832 347.71564 177.24207 348.65314Q176.60144 349.575 175.21082 349.575Q173.85144 349.575 173.19519 348.66876Q172.53894 347.7625 172.50769 345.95L172.50769 344.5125Q172.50769 342.6219 173.14832 341.71564Q173.80457 340.79376 175.19519 340.79376Q176.57019 340.79376 177.22644 341.6844Q177.88269 342.5594 177.89832 344.40314L177.89832 345.8094ZM176.80457 344.325Q176.80457 342.95 176.41394 342.325Q176.03894 341.6844 175.19519 341.6844Q174.36707 341.6844 173.97644 342.325Q173.60144 342.95 173.60144 344.2469L173.60144 345.98126Q173.60144 347.35626 173.99207 348.02814Q174.39832 348.6844 175.21082 348.6844Q176.00769 348.6844 176.39832 348.0594Q176.78894 347.4344 176.80457 346.10626L176.80457 344.325Z" fill-rule="nonzero"/><path fill="#757575" d="M319.76562 349.45L318.6875 349.45L318.6875 342.23126L316.5 343.02814L316.5 342.04376L319.60938 340.8719L319.76562 340.8719L319.76562 349.45ZM328.5625 345.8094Q328.5625 347.71564 327.90625 348.65314Q327.26562 349.575 325.875 349.575Q324.51562 349.575 323.85938 348.66876Q323.20312 347.7625 323.17188 345.95L323.17188 344.5125Q323.17188 342.6219 323.8125 341.71564Q324.46875 340.79376 325.85938 340.79376Q327.23438 340.79376 327.89062 341.6844Q328.54688 342.5594 328.5625 344.40314L328.5625 345.8094ZM327.46875 344.325Q327.46875 342.95 327.07812 342.325Q326.70312 341.6844 325.85938 341.6844Q325.03125 341.6844 324.64062 342.325Q324.26562 342.95 324.26562 344.2469L324.26562 345.98126Q324.26562 347.35626 324.65625 348.02814Q325.0625 348.6844 325.875 348.6844Q326.67188 348.6844 327.0625 348.0594Q327.45312 347.4344 327.46875 346.10626L327.46875 344.325ZM335.5625 345.8094Q335.5625 347.71564 334.90625 348.65314Q334.26562 349.575 332.875 349.575Q331.51562 349.575 330.85938 348.66876Q330.20312 347.7625 330.17188 345.95L330.17188 344.5125Q330.17188 342.6219 330.8125 341.71564Q331.46875 340.79376 332.85938 340.79376Q334.23438 340.79376 334.89062 341.6844Q335.54688 342.5594 335.5625 344.40314L335.5625 345.8094ZM334.46875 344.325Q334.46875 342.95 334.07812 342.325Q333.70312 341.6844 332.85938 341.6844Q332.03125 341.6844 331.64062 342.325Q331.26562 342.95 331.26562 344.2469L331.26562 345.98126Q331.26562 347.35626 331.65625 348.02814Q332.0625 348.6844 332.875 348.6844Q333.67188 348.6844 334.0625 348.0594Q334.45312 347.4344 334.46875 346.10626L334.46875 344.325ZM342.5625 345.8094Q342.5625 347.71564 341.90625 348.65314Q341.26562 349.575 339.875 349.575Q338.51562 349.575 337.85938 348.66876Q337.20312 347.7625 337.17188 345.95L337.17188 344.5125Q337.17188 342.6219 337.8125 341.71564Q338.46875 340.79376 339.85938 340.79376Q341.23438 340.79376 341.89062 341.6844Q342.54688 342.5594 342.5625 344.40314L342.5625 345.8094ZM341.46875 344.325Q341.46875 342.95 341.07812 342.325Q340.70312 341.6844 339.85938 341.6844Q339.03125 341.6844 338.64062 342.325Q338.26562 342.95 338.26562 344.2469L338.26562 345.98126Q338.26562 347.35626 338.65625 348.02814Q339.0625 348.6844 339.875 348.6844Q340.67188 348.6844 341.0625 348.0594Q341.45312 347.4344 341.46875 346.10626L341.46875 344.325Z" fill-rule="nonzero"/><path fill="#757575" d="M482.96106 349.45L477.3673 349.45L477.3673 348.66876L480.32043 345.3875Q480.97668 344.6375 481.22668 344.1844Q481.47668 343.71564 481.47668 343.21564Q481.47668 342.54376 481.07043 342.1219Q480.6798 341.6844 479.9923 341.6844Q479.19543 341.6844 478.7423 342.15314Q478.28918 342.60626 478.28918 343.4344L477.21106 343.4344Q477.21106 342.2469 477.96106 341.52814Q478.72668 340.79376 479.9923 340.79376Q481.19543 340.79376 481.88293 341.41876Q482.57043 342.04376 482.57043 343.09064Q482.57043 344.34064 480.96106 346.09064L478.6798 348.5594L482.96106 348.5594L482.96106 349.45ZM489.72668 345.8094Q489.72668 347.71564 489.07043 348.65314Q488.4298 349.575 487.03918 349.575Q485.6798 349.575 485.02356 348.66876Q484.3673 347.7625 484.33606 345.95L484.33606 344.5125Q484.33606 342.6219 484.97668 341.71564Q485.63293 340.79376 487.02356 340.79376Q488.39856 340.79376 489.0548 341.6844Q489.71106 342.5594 489.72668 344.40314L489.72668 345.8094ZM488.63293 344.325Q488.63293 342.95 488.2423 342.325Q487.8673 341.6844 487.02356 341.6844Q486.19543 341.6844 485.8048 342.325Q485.4298 342.95 485.4298 344.2469L485.4298 345.98126Q485.4298 347.35626 485.82043 348.02814Q486.22668 348.6844 487.03918 348.6844Q487.83606 348.6844 488.22668 348.0594Q488.6173 347.4344 488.63293 346.10626L488.63293 344.325ZM496.72668 345.8094Q496.72668 347.71564 496.07043 348.65314Q495.4298 349.575 494.03918 349.575Q492.6798 349.575 492.02356 348.66876Q491.3673 347.7625 491.33606 345.95L491.33606 344.5125Q491.33606 342.6219 491.97668 341.71564Q492.63293 340.79376 494.02356 340.79376Q495.39856 340.79376 496.0548 341.6844Q496.71106 342.5594 496.72668 344.40314L496.72668 345.8094ZM495.63293 344.325Q495.63293 342.95 495.2423 342.325Q494.8673 341.6844 494.02356 341.6844Q493.19543 341.6844 492.8048 342.325Q492.4298 342.95 492.4298 344.2469L492.4298 345.98126Q492.4298 347.35626 492.82043 348.02814Q493.22668 348.6844 494.03918 348.6844Q494.83606 348.6844 495.22668 348.0594Q495.6173 347.4344 495.63293 346.10626L495.63293 344.325ZM503.72668 345.8094Q503.72668 347.71564 503.07043 348.65314Q502.4298 349.575 501.03918 349.575Q499.6798 349.575 499.02356 348.66876Q498.3673 347.7625 498.33606 345.95L498.33606 344.5125Q498.33606 342.6219 498.97668 341.71564Q499.63293 340.79376 501.02356 340.79376Q502.39856 340.79376 503.0548 341.6844Q503.71106 342.5594 503.72668 344.40314L503.72668 345.8094ZM502.63293 344.325Q502.63293 342.95 502.2423 342.325Q501.8673 341.6844 501.02356 341.6844Q500.19543 341.6844 499.8048 342.325Q499.4298 342.95 499.4298 344.2469L499.4298 345.98126Q499.4298 347.35626 499.82043 348.02814Q500.22668 348.6844 501.03918 348.6844Q501.83606 348.6844 502.22668 348.0594Q502.6173 347.4344 502.63293 346.10626L502.63293 344.325Z" fill-rule="nonzero"/><path fill="#4285f4" d="M200.0 57.416668C200.0 56.864384 200.44771 56.416668 201.0 56.416668L211.0 56.416668C211.55229 56.416668 212.0 56.864384 212.0 57.416668L212.0 67.416664C212.0 67.96895 211.55229 68.416664 211.0 68.416664L201.0 68.416664C200.44771 68.416664 200.0 67.96895 200.0 67.416664Z" fill-rule="nonzero"/><path fill="#757575" d="M226.35938 63.80729Q226.35938 65.322914 225.70312 66.18229Q225.0625 67.041664 223.89062 67.041664Q222.85938 67.041664 222.25 66.24479L222.17188 66.916664L220.65625 66.916664L220.65625 57.916664L222.34375 57.916664L222.34375 61.15104Q222.9375 60.46354 223.89062 60.46354Q225.04688 60.46354 225.70312 61.322914Q226.35938 62.166664 226.35938 63.71354L226.35938 63.80729ZM224.67188 63.68229Q224.67188 62.71354 224.35938 62.27604Q224.0625 61.83854 223.45312 61.83854Q222.65625 61.83854 222.34375 62.49479L222.34375 64.99479Q222.65625 65.666664 223.46875 65.666664Q224.29688 65.666664 224.54688 64.854164Q224.67188 64.479164 224.67188 63.68229ZM233.17188 64.61979L234.0 60.572914L235.625 60.572914L234.01562 66.916664L232.59375 66.916664L231.39062 62.93229L230.1875 66.916664L228.78125 66.916664L227.17188 60.572914L228.79688 60.572914L229.625 64.604164L230.78125 60.572914L232.01562 60.572914L233.17188 64.61979ZM245.03125 62.541664L239.79688 62.541664L239.79688 61.166664L245.03125 61.166664L245.03125 62.541664ZM245.03125 65.08854L239.79688 65.08854L239.79688 63.697914L245.03125 63.697914L245.03125 65.08854ZM253.6875 66.916664L252.0 66.916664L252.0 60.385414L249.98438 61.010414L249.98438 59.635414L253.51562 58.36979L253.6875 58.36979L253.6875 66.916664ZM262.42188 66.916664L256.57812 66.916664L256.57812 65.760414L259.34375 62.80729Q259.90625 62.197914 260.17188 61.729164Q260.45312 61.260414 260.45312 60.854164Q260.45312 60.27604 260.15625 59.96354Q259.875 59.635414 259.34375 59.635414Q258.76562 59.635414 258.4375 60.02604Q258.10938 60.416664 258.10938 61.072914L256.40625 61.072914Q256.40625 60.291664 256.78125 59.65104Q257.15625 58.99479 257.82812 58.635414Q258.51562 58.260414 259.375 58.260414Q260.6875 58.260414 261.42188 58.90104Q262.15625 59.52604 262.15625 60.68229Q262.15625 61.322914 261.82812 61.979164Q261.5 62.635414 260.70312 63.510414L258.76562 65.55729L262.42188 65.55729L262.42188 66.916664ZM263.82812 62.71354L264.32812 58.385414L269.10938 58.385414L269.10938 59.791664L265.71875 59.791664L265.5 61.635414Q266.10938 61.30729 266.78125 61.30729Q268.0 61.30729 268.6875 62.072914Q269.39062 62.822914 269.39062 64.18229Q269.39062 65.010414 269.03125 65.666664Q268.6875 66.30729 268.03125 66.68229Q267.39062 67.041664 266.5 67.041664Q265.73438 67.041664 265.0625 66.729164Q264.40625 66.40104 264.01562 65.83854Q263.64062 65.27604 263.60938 64.541664L265.29688 64.541664Q265.34375 65.072914 265.65625 65.36979Q265.98438 65.666664 266.5 65.666664Q267.07812 65.666664 267.375 65.260414Q267.6875 64.83854 267.6875 64.08854Q267.6875 63.354164 267.32812 62.979164Q266.98438 62.58854 266.32812 62.58854Q265.71875 62.58854 265.34375 62.90104L265.1875 63.05729L263.82812 62.71354ZM273.0625 58.385414L275.25 64.572914L277.4375 58.385414L279.73438 58.385414L279.73438 66.916664L277.96875 66.916664L277.96875 64.58854L278.15625 60.55729L275.84375 66.916664L274.64062 66.916664L272.34375 60.55729L272.51562 64.58854L272.51562 66.916664L270.76562 66.916664L270.76562 58.385414L273.0625 58.385414ZM287.35938 63.80729Q287.35938 65.322914 286.70312 66.18229Q286.0625 67.041664 284.89062 67.041664Q283.85938 67.041664 283.25 66.24479L283.17188 66.916664L281.65625 66.916664L281.65625 57.916664L283.34375 57.916664L283.34375 61.15104Q283.9375 60.46354 284.89062 60.46354Q286.04688 60.46354 286.70312 61.322914Q287.35938 62.166664 287.35938 63.71354L287.35938 63.80729ZM285.67188 63.68229Q285.67188 62.71354 285.35938 62.27604Q285.0625 61.83854 284.45312 61.83854Q283.65625 61.83854 283.34375 62.49479L283.34375 64.99479Q283.65625 65.666664 284.46875 65.666664Q285.29688 65.666664 285.54688 64.854164Q285.67188 64.479164 285.67188 63.68229ZM294.35938 63.80729Q294.35938 65.27604 293.6875 66.166664Q293.03125 67.041664 291.89062 67.041664Q290.9375 67.041664 290.34375 66.36979L290.34375 69.354164L288.65625 69.354164L288.65625 60.572914L290.21875 60.572914L290.28125 61.197914Q290.89062 60.46354 291.89062 60.46354Q293.0625 60.46354 293.70312 61.33854Q294.35938 62.197914 294.35938 63.71354L294.35938 63.80729ZM292.67188 63.68229Q292.67188 62.791664 292.34375 62.322914Q292.03125 61.83854 291.4375 61.83854Q290.64062 61.83854 290.34375 62.447914L290.34375 65.041664Q290.65625 65.666664 291.45312 65.666664Q292.67188 65.666664 292.67188 63.68229ZM299.07812 65.166664Q299.07812 64.854164 298.76562 64.68229Q298.46875 64.49479 297.79688 64.354164Q295.53125 63.885414 295.53125 62.43229Q295.53125 61.58854 296.21875 61.02604Q296.92188 60.46354 298.0625 60.46354Q299.26562 60.46354 299.98438 61.02604Q300.71875 61.58854 300.71875 62.510414L299.01562 62.510414Q299.01562 62.135414 298.78125 61.90104Q298.54688 61.666664 298.04688 61.666664Q297.625 61.666664 297.39062 61.86979Q297.15625 62.05729 297.15625 62.354164Q297.15625 62.635414 297.42188 62.80729Q297.6875 62.979164 298.3125 63.104164Q298.95312 63.229164 299.39062 63.385414Q300.73438 63.885414 300.73438 65.08854Q300.73438 65.96354 299.98438 66.510414Q299.25 67.041664 298.0625 67.041664Q297.26562 67.041664 296.64062 66.760414Q296.03125 66.46354 295.67188 65.979164Q295.32812 65.479164 295.32812 64.90104L296.9375 64.90104Q296.95312 65.354164 297.26562 65.604164Q297.57812 65.83854 298.09375 65.83854Q298.59375 65.83854 298.82812 65.65104Q299.07812 65.46354 299.07812 65.166664Z" fill-rule="nonzero"/><path fill="#db4437" d="M317.0 57.416668C317.0 56.864384 317.44772 56.416668 318.0 56.416668L328.0 56.416668C328.55228 56.416668 329.0 56.864384 329.0 57.416668L329.0 67.416664C329.0 67.96895 328.55228 68.416664 328.0 68.416664L318.0 68.416664C317.44772 68.416664 317.0 67.96895 317.0 67.416664Z" fill-rule="nonzero"/><path fill="#757575" d="M343.35938 63.80729Q343.35938 65.322914 342.70312 66.18229Q342.0625 67.041664 340.89062 67.041664Q339.85938 67.041664 339.25 66.24479L339.17188 66.916664L337.65625 66.916664L337.65625 57.916664L339.34375 57.916664L339.34375 61.15104Q339.9375 60.46354 340.89062 60.46354Q342.04688 60.46354 342.70312 61.322914Q343.35938 62.166664 343.35938 63.71354L343.35938 63.80729ZM341.67188 63.68229Q341.67188 62.71354 341.35938 62.27604Q341.0625 61.83854 340.45312 61.83854Q339.65625 61.83854 339.34375 62.49479L339.34375 64.99479Q339.65625 65.666664 340.46875 65.666664Q341.29688 65.666664 341.54688 64.854164Q341.67188 64.479164 341.67188 63.68229ZM350.17188 64.61979L351.0 60.572914L352.625 60.572914L351.01562 66.916664L349.59375 66.916664L348.39062 62.93229L347.1875 66.916664L345.78125 66.916664L344.17188 60.572914L345.79688 60.572914L346.625 64.604164L347.78125 60.572914L349.01562 60.572914L350.17188 64.61979ZM362.03125 62.541664L356.79688 62.541664L356.79688 61.166664L362.03125 61.166664L362.03125 62.541664ZM362.03125 65.08854L356.79688 65.08854L356.79688 63.697914L362.03125 63.697914L362.03125 65.08854ZM366.82812 62.71354L367.32812 58.385414L372.10938 58.385414L372.10938 59.791664L368.71875 59.791664L368.5 61.635414Q369.10938 61.30729 369.78125 61.30729Q371.0 61.30729 371.6875 62.072914Q372.39062 62.822914 372.39062 64.18229Q372.39062 65.010414 372.03125 65.666664Q371.6875 66.30729 371.03125 66.68229Q370.39062 67.041664 369.5 67.041664Q368.73438 67.041664 368.0625 66.729164Q367.40625 66.40104 367.01562 65.83854Q366.64062 65.27604 366.60938 64.541664L368.29688 64.541664Q368.34375 65.072914 368.65625 65.36979Q368.98438 65.666664 369.5 65.666664Q370.07812 65.666664 370.375 65.260414Q370.6875 64.83854 370.6875 64.08854Q370.6875 63.354164 370.32812 62.979164Q369.98438 62.58854 369.32812 62.58854Q368.71875 62.58854 368.34375 62.90104L368.1875 63.05729L366.82812 62.71354ZM379.32812 63.385414Q379.32812 65.15104 378.59375 66.104164Q377.85938 67.041664 376.45312 67.041664Q375.04688 67.041664 374.3125 66.11979Q373.57812 65.197914 373.5625 63.479164L373.5625 61.90104Q373.5625 60.11979 374.29688 59.197914Q375.04688 58.260414 376.4375 58.260414Q377.82812 58.260414 378.5625 59.18229Q379.3125 60.104164 379.32812 61.822914L379.32812 63.385414ZM377.625 61.666664Q377.625 60.604164 377.32812 60.11979Q377.04688 59.635414 376.4375 59.635414Q375.84375 59.635414 375.54688 60.104164Q375.26562 60.55729 375.25 61.541664L375.25 63.604164Q375.25 64.65104 375.53125 65.166664Q375.8125 65.666664 376.45312 65.666664Q377.0625 65.666664 377.34375 65.18229Q377.625 64.697914 377.625 63.697914L377.625 61.666664ZM386.32812 63.385414Q386.32812 65.15104 385.59375 66.104164Q384.85938 67.041664 383.45312 67.041664Q382.04688 67.041664 381.3125 66.11979Q380.57812 65.197914 380.5625 63.479164L380.5625 61.90104Q380.5625 60.11979 381.29688 59.197914Q382.04688 58.260414 383.4375 58.260414Q384.82812 58.260414 385.5625 59.18229Q386.3125 60.104164 386.32812 61.822914L386.32812 63.385414ZM384.625 61.666664Q384.625 60.604164 384.32812 60.11979Q384.04688 59.635414 383.4375 59.635414Q382.84375 59.635414 382.54688 60.104164Q382.26562 60.55729 382.25 61.541664L382.25 63.604164Q382.25 64.65104 382.53125 65.166664Q382.8125 65.666664 383.45312 65.666664Q384.0625 65.666664 384.34375 65.18229Q384.625 64.697914 384.625 63.697914L384.625 61.666664ZM390.0625 58.385414L392.25 64.572914L394.4375 58.385414L396.73438 58.385414L396.73438 66.916664L394.96875 66.916664L394.96875 64.58854L395.15625 60.55729L392.84375 66.916664L391.64062 66.916664L389.34375 60.55729L389.51562 64.58854L389.51562 66.916664L387.76562 66.916664L387.76562 58.385414L390.0625 58.385414ZM404.35938 63.80729Q404.35938 65.322914 403.70312 66.18229Q403.0625 67.041664 401.89062 67.041664Q400.85938 67.041664 400.25 66.24479L400.17188 66.916664L398.65625 66.916664L398.65625 57.916664L400.34375 57.916664L400.34375 61.15104Q400.9375 60.46354 401.89062 60.46354Q403.04688 60.46354 403.70312 61.322914Q404.35938 62.166664 404.35938 63.71354L404.35938 63.80729ZM402.67188 63.68229Q402.67188 62.71354 402.35938 62.27604Q402.0625 61.83854 401.45312 61.83854Q400.65625 61.83854 400.34375 62.49479L400.34375 64.99479Q400.65625 65.666664 401.46875 65.666664Q402.29688 65.666664 402.54688 64.854164Q402.67188 64.479164 402.67188 63.68229ZM411.35938 63.80729Q411.35938 65.27604 410.6875 66.166664Q410.03125 67.041664 408.89062 67.041664Q407.9375 67.041664 407.34375 66.36979L407.34375 69.354164L405.65625 69.354164L405.65625 60.572914L407.21875 60.572914L407.28125 61.197914Q407.89062 60.46354 408.89062 60.46354Q410.0625 60.46354 410.70312 61.33854Q411.35938 62.197914 411.35938 63.71354L411.35938 63.80729ZM409.67188 63.68229Q409.67188 62.791664 409.34375 62.322914Q409.03125 61.83854 408.4375 61.83854Q407.64062 61.83854 407.34375 62.447914L407.34375 65.041664Q407.65625 65.666664 408.45312 65.666664Q409.67188 65.666664 409.67188 63.68229ZM416.07812 65.166664Q416.07812 64.854164 415.76562 64.68229Q415.46875 64.49479 414.79688 64.354164Q412.53125 63.885414 412.53125 62.43229Q412.53125 61.58854 413.21875 61.02604Q413.92188 60.46354 415.0625 60.46354Q416.26562 60.46354 416.98438 61.02604Q417.71875 61.58854 417.71875 62.510414L416.01562 62.510414Q416.01562 62.135414 415.78125 61.90104Q415.54688 61.666664 415.04688 61.666664Q414.625 61.666664 414.39062 61.86979Q414.15625 62.05729 414.15625 62.354164Q414.15625 62.635414 414.42188 62.80729Q414.6875 62.979164 415.3125 63.104164Q415.95312 63.229164 416.39062 63.385414Q417.73438 63.885414 417.73438 65.08854Q417.73438 65.96354 416.98438 66.510414Q416.25 67.041664 415.0625 67.041664Q414.26562 67.041664 413.64062 66.760414Q413.03125 66.46354 412.67188 65.979164Q412.32812 65.479164 412.32812 64.90104L413.9375 64.90104Q413.95312 65.354164 414.26562 65.604164Q414.57812 65.83854 415.09375 65.83854Q415.59375 65.83854 415.82812 65.65104Q416.07812 65.46354 416.07812 65.166664Z" fill-rule="nonzero"/><path fill="#757575" d="M30.51875 25.70625L26.175 25.70625L26.175 37.55L23.2375 37.55L23.2375 25.70625L18.940624 25.70625L18.940624 23.33125L30.51875 23.33125L30.51875 25.70625ZM37.753124 37.55Q37.565624 37.175 37.471874 36.596874Q36.45625 37.753124 34.815624 37.753124Q33.253124 37.753124 32.2375 36.846874Q31.221874 35.940624 31.221874 34.58125Q31.221874 32.89375 32.45625 32.003124Q33.70625 31.096874 36.065624 31.096874L37.3625 31.096874L37.3625 30.4875Q37.3625 29.753124 36.9875 29.315624Q36.6125 28.878124 35.8 28.878124Q35.08125 28.878124 34.675 29.221874Q34.26875 29.565624 34.26875 30.159374L31.45625 30.159374Q31.45625 29.2375 32.01875 28.45625Q32.58125 27.675 33.6125 27.2375Q34.659374 26.784374 35.940624 26.784374Q37.89375 26.784374 39.034374 27.76875Q40.190624 28.753124 40.190624 30.534374L40.190624 35.1125Q40.20625 36.6125 40.6125 37.378124L40.6125 37.55L37.753124 37.55ZM35.425 35.58125Q36.05 35.58125 36.565624 35.315624Q37.096874 35.034374 37.3625 34.565624L37.3625 32.7375L36.3 32.7375Q34.190624 32.7375 34.05 34.20625L34.034374 34.378124Q34.034374 34.909374 34.409374 35.253124Q34.784374 35.58125 35.425 35.58125ZM45.284374 26.9875L45.3625 28.159374Q46.4875 26.784374 48.409374 26.784374Q50.440624 26.784374 51.20625 28.39375Q52.315624 26.784374 54.378124 26.784374Q56.096874 26.784374 56.940624 27.784374Q57.784374 28.784374 57.784374 30.8L57.784374 37.55L54.95625 37.55L54.95625 30.815624Q54.95625 29.909374 54.596874 29.503124Q54.253124 29.08125 53.3625 29.08125Q52.08125 29.08125 51.596874 30.3L51.6125 37.55L48.784374 37.55L48.784374 30.815624Q48.784374 29.909374 48.425 29.503124Q48.065624 29.08125 47.190624 29.08125Q45.9875 29.08125 45.45625 30.08125L45.45625 37.55L42.628124 37.55L42.628124 26.9875L45.284374 26.9875ZM65.75313 37.55Q65.56563 37.175 65.47188 36.596874Q64.45625 37.753124 62.815624 37.753124Q61.253124 37.753124 60.2375 36.846874Q59.221874 35.940624 59.221874 34.58125Q59.221874 32.89375 60.45625 32.003124Q61.70625 31.096874 64.06563 31.096874L65.3625 31.096874L65.3625 30.4875Q65.3625 29.753124 64.9875 29.315624Q64.6125 28.878124 63.8 28.878124Q63.08125 28.878124 62.675 29.221874Q62.26875 29.565624 62.26875 30.159374L59.45625 30.159374Q59.45625 29.2375 60.01875 28.45625Q60.58125 27.675 61.6125 27.2375Q62.659374 26.784374 63.940624 26.784374Q65.89375 26.784374 67.03438 27.76875Q68.19063 28.753124 68.19063 30.534374L68.19063 35.1125Q68.20625 36.6125 68.6125 37.378124L68.6125 37.55L65.75313 37.55ZM63.425 35.58125Q64.05 35.58125 64.56563 35.315624Q65.09688 35.034374 65.3625 34.565624L65.3625 32.7375L64.3 32.7375Q62.190624 32.7375 62.05 34.20625L62.034374 34.378124Q62.034374 34.909374 62.409374 35.253124Q62.784374 35.58125 63.425 35.58125ZM73.2375 26.9875L73.31563 28.20625Q74.45625 26.784374 76.3625 26.784374Q78.03438 26.784374 78.84688 27.76875Q79.675 28.753124 79.69063 30.721874L79.69063 37.55L76.87813 37.55L76.87813 30.784374Q76.87813 29.89375 76.4875 29.4875Q76.09688 29.08125 75.19063 29.08125Q73.9875 29.08125 73.39375 30.096874L73.39375 37.55L70.58125 37.55L70.58125 26.9875L73.2375 26.9875ZM84.39375 28.128124Q85.51875 26.784374 87.20625 26.784374Q90.64375 26.784374 90.69063 30.784374L90.69063 37.55L87.87813 37.55L87.87813 30.8625Q87.87813 29.95625 87.4875 29.51875Q87.09688 29.08125 86.19063 29.08125Q84.94063 29.08125 84.39375 30.034374L84.39375 37.55L81.56563 37.55L81.56563 22.55L84.39375 22.55L84.39375 28.128124ZM92.19063 32.175Q92.19063 30.596874 92.8 29.3625Q93.40938 28.128124 94.53438 27.45625Q95.675 26.784374 97.19063 26.784374Q99.33125 26.784374 100.675 28.096874Q102.03438 29.409374 102.19063 31.64375L102.20625 32.378124Q102.20625 34.8 100.84688 36.284374Q99.4875 37.753124 97.20625 37.753124Q94.925 37.753124 93.55 36.284374Q92.19063 34.815624 92.19063 32.3L92.19063 32.175ZM95.01875 32.378124Q95.01875 33.878124 95.58125 34.675Q96.14375 35.471874 97.20625 35.471874Q98.2375 35.471874 98.8 34.690624Q99.37813 33.89375 99.37813 32.175Q99.37813 30.690624 98.8 29.878124Q98.2375 29.065624 97.19063 29.065624Q96.14375 29.065624 95.58125 29.878124Q95.01875 30.690624 95.01875 32.378124ZM108.19063 32.190624Q108.19063 29.721874 109.3 28.253124Q110.40938 26.784374 112.33125 26.784374Q113.87813 26.784374 114.87813 27.940624L114.87813 22.55L117.72188 22.55L117.72188 37.55L115.175 37.55L115.03438 36.425Q113.97188 37.753124 112.31563 37.753124Q110.45625 37.753124 109.31563 36.284374Q108.19063 34.8 108.19063 32.190624ZM111.01875 32.39375Q111.01875 33.878124 111.53438 34.675Q112.05 35.45625 113.03438 35.45625Q114.34688 35.45625 114.87813 34.3625L114.87813 30.190624Q114.3625 29.08125 113.06563 29.08125Q111.01875 29.08125 111.01875 32.39375ZM119.19063 32.175Q119.19063 30.596874 119.8 29.3625Q120.40938 28.128124 121.53438 27.45625Q122.675 26.784374 124.19063 26.784374Q126.33125 26.784374 127.675 28.096874Q129.03438 29.409374 129.19063 31.64375L129.20625 32.378124Q129.20625 34.8 127.84688 36.284374Q126.4875 37.753124 124.20625 37.753124Q121.925 37.753124 120.55 36.284374Q119.19063 34.815624 119.19063 32.3L119.19063 32.175ZM122.01875 32.378124Q122.01875 33.878124 122.58125 34.675Q123.14375 35.471874 124.20625 35.471874Q125.2375 35.471874 125.8 34.690624Q126.37813 33.89375 126.37813 32.175Q126.37813 30.690624 125.8 29.878124Q125.2375 29.065624 124.19063 29.065624Q123.14375 29.065624 122.58125 29.878124Q122.01875 30.690624 122.01875 32.378124ZM139.59688 34.096874L141.55 26.9875L144.50313 26.9875L140.94063 37.55L138.2375 37.55L134.675 26.9875L137.62813 26.9875L139.59688 34.096874ZM150.50313 37.753124Q148.175 37.753124 146.70625 36.33125Q145.25313 34.89375 145.25313 32.51875L145.25313 32.253124Q145.25313 30.659374 145.8625 29.409374Q146.4875 28.14375 147.6125 27.471874Q148.7375 26.784374 150.19063 26.784374Q152.34688 26.784374 153.59688 28.159374Q154.84688 29.51875 154.84688 32.034374L154.84688 33.190624L148.1125 33.190624Q148.25313 34.221874 148.94063 34.846874Q149.62813 35.471874 150.69063 35.471874Q152.31563 35.471874 153.2375 34.284374L154.6125 35.846874Q153.9875 36.7375 152.89375 37.253124Q151.81563 37.753124 150.50313 37.753124ZM150.175 29.065624Q149.33125 29.065624 148.8 29.64375Q148.28438 30.20625 148.14375 31.253124L152.06563 31.253124L152.06563 31.034374Q152.05 30.096874 151.56563 29.58125Q151.08125 29.065624 150.175 29.065624ZM160.01875 24.378124L160.01875 26.9875L161.81563 26.9875L161.81563 29.05L160.01875 29.05L160.01875 34.33125Q160.01875 34.909374 160.2375 35.175Q160.45625 35.425 161.09688 35.425Q161.56563 35.425 161.925 35.346874L161.925 37.4875Q161.09688 37.753124 160.22188 37.753124Q157.25313 37.753124 157.19063 34.753124L157.19063 29.05L155.64375 29.05L155.64375 26.9875L157.19063 26.9875L157.19063 24.378124L160.01875 24.378124ZM163.19063 32.175Q163.19063 30.596874 163.8 29.3625Q164.40938 28.128124 165.53438 27.45625Q166.675 26.784374 168.19063 26.784374Q170.33125 26.784374 171.675 28.096874Q173.03438 29.409374 173.19063 31.64375L173.20625 32.378124Q173.20625 34.8 171.84688 36.284374Q170.4875 37.753124 168.20625 37.753124Q165.925 37.753124 164.55 36.284374Q163.19063 34.815624 163.19063 32.3L163.19063 32.175ZM166.01875 32.378124Q166.01875 33.878124 166.58125 34.675Q167.14375 35.471874 168.20625 35.471874Q169.2375 35.471874 169.8 34.690624Q170.37813 33.89375 170.37813 32.175Q170.37813 30.690624 169.8 29.878124Q169.2375 29.065624 168.19063 29.065624Q167.14375 29.065624 166.58125 29.878124Q166.01875 30.690624 166.01875 32.378124ZM180.56563 29.628124Q180.00313 29.55 179.55 29.55Q177.95625 29.55 177.45625 30.628124L177.45625 37.55L174.62813 37.55L174.62813 26.9875L177.3 26.9875L177.37813 28.2375Q178.22188 26.784374 179.7375 26.784374Q180.20625 26.784374 180.6125 26.909374L180.56563 29.628124ZM190.65938 30.14375L192.44063 26.9875L195.45625 26.9875L192.44063 32.159374L195.58125 37.55L192.55 37.55L190.675 34.221874L188.8 37.55L185.75313 37.55L188.89375 32.159374L185.89375 26.9875L188.925 26.9875L190.65938 30.14375ZM212.51875 25.70625L208.175 25.70625L208.175 37.55L205.2375 37.55L205.2375 25.70625L200.94063 25.70625L200.94063 23.33125L212.51875 23.33125L212.51875 25.70625ZM218.50313 37.753124Q216.175 37.753124 214.70625 36.33125Q213.25313 34.89375 213.25313 32.51875L213.25313 32.253124Q213.25313 30.659374 213.8625 29.409374Q214.4875 28.14375 215.6125 27.471874Q216.7375 26.784374 218.19063 26.784374Q220.34688 26.784374 221.59688 28.159374Q222.84688 29.51875 222.84688 32.034374L222.84688 33.190624L216.1125 33.190624Q216.25313 34.221874 216.94063 34.846874Q217.62813 35.471874 218.69063 35.471874Q220.31563 35.471874 221.2375 34.284374L222.6125 35.846874Q221.9875 36.7375 220.89375 37.253124Q219.81563 37.753124 218.50313 37.753124ZM218.175 29.065624Q217.33125 29.065624 216.8 29.64375Q216.28438 30.20625 216.14375 31.253124L220.06563 31.253124L220.06563 31.034374Q220.05 30.096874 219.56563 29.58125Q219.08125 29.065624 218.175 29.065624ZM227.28438 26.9875L227.3625 28.159374Q228.4875 26.784374 230.40938 26.784374Q232.44063 26.784374 233.20625 28.39375Q234.31563 26.784374 236.37813 26.784374Q238.09688 26.784374 238.94063 27.784374Q239.78438 28.784374 239.78438 30.8L239.78438 37.55L236.95625 37.55L236.95625 30.815624Q236.95625 29.909374 236.59688 29.503124Q236.25313 29.08125 235.3625 29.08125Q234.08125 29.08125 233.59688 30.3L233.6125 37.55L230.78438 37.55L230.78438 30.815624Q230.78438 29.909374 230.425 29.503124Q230.06563 29.08125 229.19063 29.08125Q227.9875 29.08125 227.45625 30.08125L227.45625 37.55L224.62813 37.55L224.62813 26.9875L227.28438 26.9875ZM251.14375 32.3625Q251.14375 34.8 250.03438 36.284374Q248.925 37.753124 247.05 37.753124Q245.44063 37.753124 244.45625 36.628124L244.45625 41.6125L241.62813 41.6125L241.62813 26.9875L244.25313 26.9875L244.34688 28.01875Q245.37813 26.784374 247.01875 26.784374Q248.97188 26.784374 250.05 28.2375Q251.14375 29.675 251.14375 32.221874L251.14375 32.3625ZM248.33125 32.159374Q248.33125 30.690624 247.8 29.89375Q247.28438 29.08125 246.28438 29.08125Q244.95625 29.08125 244.45625 30.096874L244.45625 34.425Q244.97188 35.471874 246.3 35.471874Q248.33125 35.471874 248.33125 32.159374ZM252.19063 32.175Q252.19063 30.596874 252.8 29.3625Q253.40938 28.128124 254.53438 27.45625Q255.675 26.784374 257.1906 26.784374Q259.33124 26.784374 260.675 28.096874Q262.03436 29.409374 262.1906 31.64375L262.20624 32.378124Q262.20624 34.8 260.84686 36.284374Q259.4875 37.753124 257.20624 37.753124Q254.925 37.753124 253.55 36.284374Q252.19063 34.815624 252.19063 32.3L252.19063 32.175ZM255.01875 32.378124Q255.01875 33.878124 255.58125 34.675Q256.14374 35.471874 257.20624 35.471874Q258.2375 35.471874 258.8 34.690624Q259.3781 33.89375 259.3781 32.175Q259.3781 30.690624 258.8 29.878124Q258.2375 29.065624 257.1906 29.065624Q256.14374 29.065624 255.58125 29.878124Q255.01875 30.690624 255.01875 32.378124ZM268.1906 32.190624Q268.1906 29.721874 269.3 28.253124Q270.40936 26.784374 272.33124 26.784374Q273.8781 26.784374 274.8781 27.940624L274.8781 22.55L277.72186 22.55L277.72186 37.55L275.175 37.55L275.03436 36.425Q273.97186 37.753124 272.3156 37.753124Q270.45624 37.753124 269.3156 36.284374Q268.1906 34.8 268.1906 32.190624ZM271.01874 32.39375Q271.01874 33.878124 271.53436 34.675Q272.05 35.45625 273.03436 35.45625Q274.34686 35.45625 274.8781 34.3625L274.8781 30.190624Q274.3625 29.08125 273.0656 29.08125Q271.01874 29.08125 271.01874 32.39375ZM284.5031 37.753124Q282.175 37.753124 280.70624 36.33125Q279.2531 34.89375 279.2531 32.51875L279.2531 32.253124Q279.2531 30.659374 279.8625 29.409374Q280.4875 28.14375 281.6125 27.471874Q282.7375 26.784374 284.1906 26.784374Q286.34686 26.784374 287.59686 28.159374Q288.84686 29.51875 288.84686 32.034374L288.84686 33.190624L282.1125 33.190624Q282.2531 34.221874 282.9406 34.846874Q283.6281 35.471874 284.6906 35.471874Q286.3156 35.471874 287.2375 34.284374L288.6125 35.846874Q287.9875 36.7375 286.89374 37.253124Q285.8156 37.753124 284.5031 37.753124ZM284.175 29.065624Q283.33124 29.065624 282.8 29.64375Q282.28436 30.20625 282.14374 31.253124L286.0656 31.253124L286.0656 31.034374Q286.05 30.096874 285.5656 29.58125Q285.08124 29.065624 284.175 29.065624ZM300.5031 37.753124Q298.175 37.753124 296.70624 36.33125Q295.2531 34.89375 295.2531 32.51875L295.2531 32.253124Q295.2531 30.659374 295.8625 29.409374Q296.4875 28.14375 297.6125 27.471874Q298.7375 26.784374 300.1906 26.784374Q302.34686 26.784374 303.59686 28.159374Q304.84686 29.51875 304.84686 32.034374L304.84686 33.190624L298.1125 33.190624Q298.2531 34.221874 298.9406 34.846874Q299.6281 35.471874 300.6906 35.471874Q302.3156 35.471874 303.2375 34.284374L304.6125 35.846874Q303.9875 36.7375 302.89374 37.253124Q301.8156 37.753124 300.5031 37.753124ZM300.175 29.065624Q299.33124 29.065624 298.8 29.64375Q298.28436 30.20625 298.14374 31.253124L302.0656 31.253124L302.0656 31.034374Q302.05 30.096874 301.5656 29.58125Q301.08124 29.065624 300.175 29.065624ZM310.65936 30.14375L312.4406 26.9875L315.45624 26.9875L312.4406 32.159374L315.58124 37.55L312.55 37.55L310.675 34.221874L308.8 37.55L305.7531 37.55L308.89374 32.159374L305.89374 26.9875L308.925 26.9875L310.65936 30.14375ZM321.5031 37.753124Q319.175 37.753124 317.70624 36.33125Q316.2531 34.89375 316.2531 32.51875L316.2531 32.253124Q316.2531 30.659374 316.8625 29.409374Q317.4875 28.14375 318.6125 27.471874Q319.7375 26.784374 321.1906 26.784374Q323.34686 26.784374 324.59686 28.159374Q325.84686 29.51875 325.84686 32.034374L325.84686 33.190624L319.1125 33.190624Q319.2531 34.221874 319.9406 34.846874Q320.6281 35.471874 321.6906 35.471874Q323.3156 35.471874 324.2375 34.284374L325.6125 35.846874Q324.9875 36.7375 323.89374 37.253124Q322.8156 37.753124 321.5031 37.753124ZM321.175 29.065624Q320.33124 29.065624 319.8 29.64375Q319.28436 30.20625 319.14374 31.253124L323.0656 31.253124L323.0656 31.034374Q323.05 30.096874 322.5656 29.58125Q322.08124 29.065624 321.175 29.065624ZM332.03436 35.471874Q332.8156 35.471874 333.3 35.05Q333.78436 34.6125 333.8 33.89375L336.45624 33.89375Q336.4406 34.971874 335.8625 35.8625Q335.28436 36.753124 334.28436 37.253124Q333.28436 37.753124 332.08124 37.753124Q329.8156 37.753124 328.5031 36.315624Q327.1906 34.8625 327.1906 32.33125L327.1906 32.14375Q327.1906 29.690624 328.4875 28.2375Q329.8 26.784374 332.0656 26.784374Q334.03436 26.784374 335.2375 27.925Q336.4406 29.05 336.45624 30.925L333.8 30.925Q333.78436 30.096874 333.3 29.58125Q332.8156 29.065624 332.0031 29.065624Q331.01874 29.065624 330.51874 29.784374Q330.01874 30.503124 330.01874 32.1125L330.01874 32.409374Q330.01874 34.05 330.51874 34.76875Q331.01874 35.471874 332.03436 35.471874ZM343.95624 36.471874Q342.925 37.753124 341.0656 37.753124Q339.3781 37.753124 338.47186 36.76875Q337.58124 35.784374 337.5656 33.909374L337.5656 26.9875L340.39374 26.9875L340.39374 33.815624Q340.39374 35.45625 341.89374 35.45625Q343.33124 35.45625 343.8625 34.45625L343.8625 26.9875L346.6906 26.9875L346.6906 37.55L344.03436 37.55L343.95624 36.471874ZM353.03436 35.471874Q353.8156 35.471874 354.3 35.05Q354.78436 34.6125 354.8 33.89375L357.45624 33.89375Q357.4406 34.971874 356.8625 35.8625Q356.28436 36.753124 355.28436 37.253124Q354.28436 37.753124 353.08124 37.753124Q350.8156 37.753124 349.5031 36.315624Q348.1906 34.8625 348.1906 32.33125L348.1906 32.14375Q348.1906 29.690624 349.4875 28.2375Q350.8 26.784374 353.0656 26.784374Q355.03436 26.784374 356.2375 27.925Q357.4406 29.05 357.45624 30.925L354.8 30.925Q354.78436 30.096874 354.3 29.58125Q353.8156 29.065624 353.0031 29.065624Q352.01874 29.065624 351.51874 29.784374Q351.01874 30.503124 351.01874 32.1125L351.01874 32.409374Q351.01874 34.05 351.51874 34.76875Q352.01874 35.471874 353.03436 35.471874ZM353.925 37.4875L353.8156 38.05Q355.28436 38.315624 355.28436 39.7375Q355.28436 40.815624 354.3781 41.440624Q353.4875 42.065624 351.8625 42.065624L351.8 40.425Q352.89374 40.425 352.89374 39.64375Q352.89374 39.2375 352.5656 39.08125Q352.2375 38.925 351.5031 38.878124L351.8156 37.4875L353.925 37.4875ZM364.7531 37.55Q364.5656 37.175 364.47186 36.596874Q363.45624 37.753124 361.8156 37.753124Q360.2531 37.753124 359.2375 36.846874Q358.22186 35.940624 358.22186 34.58125Q358.22186 32.89375 359.45624 32.003124Q360.70624 31.096874 363.0656 31.096874L364.3625 31.096874L364.3625 30.4875Q364.3625 29.753124 363.9875 29.315624Q363.6125 28.878124 362.8 28.878124Q362.08124 28.878124 361.675 29.221874Q361.26874 29.565624 361.26874 30.159374L358.45624 30.159374Q358.45624 29.2375 359.01874 28.45625Q359.58124 27.675 360.6125 27.2375Q361.65936 26.784374 362.9406 26.784374Q364.89374 26.784374 366.03436 27.76875Q367.1906 28.753124 367.1906 30.534374L367.1906 35.1125Q367.20624 36.6125 367.6125 37.378124L367.6125 37.55L364.7531 37.55ZM362.425 35.58125Q363.05 35.58125 363.5656 35.315624Q364.09686 35.034374 364.3625 34.565624L364.3625 32.7375L363.3 32.7375Q361.1906 32.7375 361.05 34.20625L361.03436 34.378124Q361.03436 34.909374 361.40936 35.253124Q361.78436 35.58125 362.425 35.58125ZM367.05 22.659374Q367.05 23.76875 366.39374 24.51875Q365.7531 25.26875 364.83124 25.26875Q364.45624 25.26875 364.15936 25.190624Q363.8781 25.096874 363.3625 24.83125Q362.8625 24.55 362.64374 24.4875Q362.425 24.425 362.15936 24.425Q361.8156 24.425 361.5656 24.675Q361.33124 24.909374 361.33124 25.3625L359.6906 25.26875Q359.6906 24.175 360.33124 23.425Q360.97186 22.659374 361.89374 22.659374Q362.1906 22.659374 362.4406 22.7375Q362.70624 22.8 363.28436 23.08125Q363.8781 23.3625 364.09686 23.425Q364.33124 23.4875 364.58124 23.4875Q364.925 23.4875 365.15936 23.253124Q365.40936 23.003124 365.40936 22.565624L367.05 22.659374ZM369.1906 32.175Q369.1906 30.596874 369.8 29.3625Q370.40936 28.128124 371.53436 27.45625Q372.675 26.784374 374.1906 26.784374Q376.33124 26.784374 377.675 28.096874Q379.03436 29.409374 379.1906 31.64375L379.20624 32.378124Q379.20624 34.8 377.84686 36.284374Q376.4875 37.753124 374.20624 37.753124Q371.925 37.753124 370.55 36.284374Q369.1906 34.815624 369.1906 32.3L369.1906 32.175ZM372.01874 32.378124Q372.01874 33.878124 372.58124 34.675Q373.14374 35.471874 374.20624 35.471874Q375.2375 35.471874 375.8 34.690624Q376.3781 33.89375 376.3781 32.175Q376.3781 30.690624 375.8 29.878124Q375.2375 29.065624 374.1906 29.065624Q373.14374 29.065624 372.58124 29.878124Q372.01874 30.690624 372.01874 32.378124ZM385.76874 31.76875Q385.76874 29.534374 386.3625 27.51875Q386.95624 25.4875 388.1125 23.940624Q389.28436 22.378124 390.6281 21.76875L391.175 23.284374Q389.7531 24.346874 388.95624 26.55Q388.15936 28.753124 388.15936 31.70625L388.15936 32.01875Q388.15936 34.971874 388.9406 37.190624Q389.7375 39.409374 391.175 40.503124L390.6281 41.9875Q389.3 41.39375 388.15936 39.878124Q387.01874 38.378124 386.40936 36.409374Q385.8 34.440624 385.76874 32.284374L385.76874 31.76875ZM395.28436 26.9875L395.3625 28.159374Q396.4875 26.784374 398.40936 26.784374Q400.4406 26.784374 401.20624 28.39375Q402.3156 26.784374 404.3781 26.784374Q406.09686 26.784374 406.9406 27.784374Q407.78436 28.784374 407.78436 30.8L407.78436 37.55L404.95624 37.55L404.95624 30.815624Q404.95624 29.909374 404.59686 29.503124Q404.2531 29.08125 403.3625 29.08125Q402.08124 29.08125 401.59686 30.3L401.6125 37.55L398.78436 37.55L398.78436 30.815624Q398.78436 29.909374 398.425 29.503124Q398.0656 29.08125 397.1906 29.08125Q395.9875 29.08125 395.45624 30.08125L395.45624 37.55L392.6281 37.55L392.6281 26.9875L395.28436 26.9875ZM412.6125 37.55L409.78436 37.55L409.78436 26.9875L412.6125 26.9875L412.6125 37.55ZM409.6125 24.253124Q409.6125 23.6125 410.03436 23.20625Q410.47186 22.8 411.1906 22.8Q411.925 22.8 412.34686 23.20625Q412.78436 23.6125 412.78436 24.253124Q412.78436 24.89375 412.34686 25.3Q411.90936 25.70625 411.1906 25.70625Q410.4875 25.70625 410.05 25.3Q409.6125 24.89375 409.6125 24.253124ZM419.03436 35.471874Q419.8156 35.471874 420.3 35.05Q420.78436 34.6125 420.8 33.89375L423.45624 33.89375Q423.4406 34.971874 422.8625 35.8625Q422.28436 36.753124 421.28436 37.253124Q420.28436 37.753124 419.08124 37.753124Q416.8156 37.753124 415.5031 36.315624Q414.1906 34.8625 414.1906 32.33125L414.1906 32.14375Q414.1906 29.690624 415.4875 28.2375Q416.8 26.784374 419.0656 26.784374Q421.03436 26.784374 422.2375 27.925Q423.4406 29.05 423.45624 30.925L420.8 30.925Q420.78436 30.096874 420.3 29.58125Q419.8156 29.065624 419.0031 29.065624Q418.01874 29.065624 417.51874 29.784374Q417.01874 30.503124 417.01874 32.1125L417.01874 32.409374Q417.01874 34.05 417.51874 34.76875Q418.01874 35.471874 419.03436 35.471874ZM430.5656 29.628124Q430.0031 29.55 429.55 29.55Q427.95624 29.55 427.45624 30.628124L427.45624 37.55L424.6281 37.55L424.6281 26.9875L427.3 26.9875L427.3781 28.2375Q428.22186 26.784374 429.7375 26.784374Q430.20624 26.784374 430.6125 26.909374L430.5656 29.628124ZM431.1906 32.175Q431.1906 30.596874 431.8 29.3625Q432.40936 28.128124 433.53436 27.45625Q434.675 26.784374 436.1906 26.784374Q438.33124 26.784374 439.675 28.096874Q441.03436 29.409374 441.1906 31.64375L441.20624 32.378124Q441.20624 34.8 439.84686 36.284374Q438.4875 37.753124 436.20624 37.753124Q433.925 37.753124 432.55 36.284374Q431.1906 34.815624 431.1906 32.3L431.1906 32.175ZM434.01874 32.378124Q434.01874 33.878124 434.58124 34.675Q435.14374 35.471874 436.20624 35.471874Q437.2375 35.471874 437.8 34.690624Q438.3781 33.89375 438.3781 32.175Q438.3781 30.690624 437.8 29.878124Q437.2375 29.065624 436.1906 29.065624Q435.14374 29.065624 434.58124 29.878124Q434.01874 30.690624 434.01874 32.378124ZM448.3625 34.628124Q448.3625 34.1125 447.84686 33.815624Q447.33124 33.51875 446.20624 33.284374Q442.425 32.4875 442.425 30.08125Q442.425 28.675 443.59686 27.7375Q444.76874 26.784374 446.64374 26.784374Q448.65936 26.784374 449.8625 27.7375Q451.0656 28.675 451.0656 30.190624L448.2531 30.190624Q448.2531 29.596874 447.8625 29.20625Q447.47186 28.8 446.64374 28.8Q445.925 28.8 445.53436 29.128124Q445.14374 29.440624 445.14374 29.940624Q445.14374 30.409374 445.58124 30.70625Q446.03436 30.9875 447.08124 31.20625Q448.14374 31.409374 448.8625 31.675Q451.09686 32.4875 451.09686 34.51875Q451.09686 35.95625 449.8625 36.8625Q448.6281 37.753124 446.65936 37.753124Q445.33124 37.753124 444.3 37.284374Q443.26874 36.8 442.675 35.971874Q442.09686 35.14375 442.09686 34.190624L444.76874 34.190624Q444.8156 34.940624 445.33124 35.346874Q445.84686 35.7375 446.72186 35.7375Q447.53436 35.7375 447.9406 35.440624Q448.3625 35.128124 448.3625 34.628124ZM458.3625 34.628124Q458.3625 34.1125 457.84686 33.815624Q457.33124 33.51875 456.20624 33.284374Q452.425 32.4875 452.425 30.08125Q452.425 28.675 453.59686 27.7375Q454.76874 26.784374 456.64374 26.784374Q458.65936 26.784374 459.8625 27.7375Q461.0656 28.675 461.0656 30.190624L458.2531 30.190624Q458.2531 29.596874 457.8625 29.20625Q457.47186 28.8 456.64374 28.8Q455.925 28.8 455.53436 29.128124Q455.14374 29.440624 455.14374 29.940624Q455.14374 30.409374 455.58124 30.70625Q456.03436 30.9875 457.08124 31.20625Q458.14374 31.409374 458.8625 31.675Q461.09686 32.4875 461.09686 34.51875Q461.09686 35.95625 459.8625 36.8625Q458.6281 37.753124 456.65936 37.753124Q455.33124 37.753124 454.3 37.284374Q453.26874 36.8 452.675 35.971874Q452.09686 35.14375 452.09686 34.190624L454.76874 34.190624Q454.8156 34.940624 455.33124 35.346874Q455.84686 35.7375 456.72186 35.7375Q457.53436 35.7375 457.9406 35.440624Q458.3625 35.128124 458.3625 34.628124ZM467.5031 37.753124Q465.175 37.753124 463.70624 36.33125Q462.2531 34.89375 462.2531 32.51875L462.2531 32.253124Q462.2531 30.659374 462.8625 29.409374Q463.4875 28.14375 464.6125 27.471874Q465.7375 26.784374 467.1906 26.784374Q469.34686 26.784374 470.59686 28.159374Q471.84686 29.51875 471.84686 32.034374L471.84686 33.190624L465.1125 33.190624Q465.2531 34.221874 465.9406 34.846874Q466.6281 35.471874 467.6906 35.471874Q469.3156 35.471874 470.2375 34.284374L471.6125 35.846874Q470.9875 36.7375 469.89374 37.253124Q468.8156 37.753124 467.5031 37.753124ZM467.175 29.065624Q466.33124 29.065624 465.8 29.64375Q465.28436 30.20625 465.14374 31.253124L469.0656 31.253124L469.0656 31.034374Q469.05 30.096874 468.5656 29.58125Q468.08124 29.065624 467.175 29.065624ZM473.22186 32.190624Q473.22186 29.753124 474.3781 28.26875Q475.53436 26.784374 477.5031 26.784374Q479.2375 26.784374 480.20624 27.971874L480.33124 26.9875L482.8781 26.9875L482.8781 37.190624Q482.8781 38.58125 482.2531 39.6125Q481.6281 40.64375 480.47186 41.175Q479.33124 41.70625 477.8 41.70625Q476.64374 41.70625 475.53436 41.2375Q474.4406 40.784374 473.8625 40.05L475.1125 38.33125Q476.175 39.51875 477.675 39.51875Q478.8 39.51875 479.425 38.909374Q480.05 38.315624 480.05 37.20625L480.05 36.64375Q479.08124 37.753124 477.4875 37.753124Q475.58124 37.753124 474.39374 36.26875Q473.22186 34.76875 473.22186 32.3L473.22186 32.190624ZM476.05 32.39375Q476.05 33.83125 476.6281 34.64375Q477.20624 35.45625 478.20624 35.45625Q479.4875 35.45625 480.05 34.4875L480.05 30.05Q479.4875 29.08125 478.22186 29.08125Q477.20624 29.08125 476.6281 29.909374Q476.05 30.7375 476.05 32.39375ZM490.95624 36.471874Q489.925 37.753124 488.0656 37.753124Q486.3781 37.753124 485.47186 36.76875Q484.58124 35.784374 484.5656 33.909374L484.5656 26.9875L487.39374 26.9875L487.39374 33.815624Q487.39374 35.45625 488.89374 35.45625Q490.33124 35.45625 490.8625 34.45625L490.8625 26.9875L493.6906 26.9875L493.6906 37.55L491.03436 37.55L490.95624 36.471874ZM498.2375 26.9875L498.3156 28.20625Q499.45624 26.784374 501.3625 26.784374Q503.03436 26.784374 503.84686 27.76875Q504.675 28.753124 504.6906 30.721874L504.6906 37.55L501.8781 37.55L501.8781 30.784374Q501.8781 29.89375 501.4875 29.4875Q501.09686 29.08125 500.1906 29.08125Q498.9875 29.08125 498.39374 30.096874L498.39374 37.55L495.58124 37.55L495.58124 26.9875L498.2375 26.9875ZM506.1906 32.190624Q506.1906 29.721874 507.3 28.253124Q508.40936 26.784374 510.33124 26.784374Q511.8781 26.784374 512.8781 27.940624L512.8781 22.55L515.72186 22.55L515.72186 37.55L513.175 37.55L513.03436 36.425Q511.97186 37.753124 510.3156 37.753124Q508.45624 37.753124 507.3156 36.284374Q506.1906 34.8 506.1906 32.190624ZM509.01874 32.39375Q509.01874 33.878124 509.53436 34.675Q510.05 35.45625 511.03436 35.45625Q512.34686 35.45625 512.8781 34.3625L512.8781 30.190624Q512.3625 29.08125 511.0656 29.08125Q509.01874 29.08125 509.01874 32.39375ZM517.1906 32.175Q517.1906 30.596874 517.8 29.3625Q518.40936 28.128124 519.53436 27.45625Q520.675 26.784374 522.1906 26.784374Q524.33124 26.784374 525.675 28.096874Q527.03436 29.409374 527.1906 31.64375L527.20624 32.378124Q527.20624 34.8 525.84686 36.284374Q524.4875 37.753124 522.20624 37.753124Q519.925 37.753124 518.55 36.284374Q517.1906 34.815624 517.1906 32.3L517.1906 32.175ZM520.01874 32.378124Q520.01874 33.878124 520.58124 34.675Q521.14374 35.471874 522.20624 35.471874Q523.2375 35.471874 523.8 34.690624Q524.3781 33.89375 524.3781 32.175Q524.3781 30.690624 523.8 29.878124Q523.2375 29.065624 522.1906 29.065624Q521.14374 29.065624 520.58124 29.878124Q520.01874 30.690624 520.01874 32.378124ZM534.3625 34.628124Q534.3625 34.1125 533.84686 33.815624Q533.33124 33.51875 532.20624 33.284374Q528.425 32.4875 528.425 30.08125Q528.425 28.675 529.59686 27.7375Q530.76874 26.784374 532.64374 26.784374Q534.65936 26.784374 535.8625 27.7375Q537.0656 28.675 537.0656 30.190624L534.2531 30.190624Q534.2531 29.596874 533.8625 29.20625Q533.47186 28.8 532.64374 28.8Q531.925 28.8 531.53436 29.128124Q531.14374 29.440624 531.14374 29.940624Q531.14374 30.409374 531.58124 30.70625Q532.03436 30.9875 533.08124 31.20625Q534.14374 31.409374 534.8625 31.675Q537.09686 32.4875 537.09686 34.51875Q537.09686 35.95625 535.8625 36.8625Q534.6281 37.753124 532.65936 37.753124Q531.33124 37.753124 530.3 37.284374Q529.26874 36.8 528.675 35.971874Q528.09686 35.14375 528.09686 34.190624L530.76874 34.190624Q530.8156 34.940624 531.33124 35.346874Q531.84686 35.7375 532.72186 35.7375Q533.53436 35.7375 533.9406 35.440624Q534.3625 35.128124 534.3625 34.628124ZM543.5031 31.9875Q543.5031 34.20625 542.8625 36.253124Q542.22186 38.284374 541.03436 39.846874Q539.84686 41.409374 538.4875 41.9875L537.9406 40.503124Q539.33124 39.45625 540.1281 37.284374Q540.925 35.096874 540.95624 32.26875L540.95624 31.753124Q540.95624 28.83125 540.15936 26.6125Q539.3625 24.378124 537.9406 23.26875L538.4875 21.76875Q539.8156 22.346874 540.9875 23.8625Q542.175 25.378124 542.8156 27.39375Q543.47186 29.39375 543.5031 31.55L543.5031 31.9875Z" fill-rule="nonzero"/></svg>