<svg version="1.1" viewBox="0.0 0.0 600.0 371.0" fill="none" stroke="none" stroke-linecap="square" stroke-miterlimit="10" width="600" height="371" xmlns:xlink="http://www.w3.org/1999/xlink" xmlns="http://www.w3.org/2000/svg"><path fill="#ffffff" d="M0 0L600.0 0L600.0 371.0L0 371.0L0 0Z" fill-rule="nonzero"/><path stroke="#333333" stroke-width="1.0" stroke-linecap="butt" d="M58.5 334.5L581.5 334.5" fill-rule="nonzero"/><path stroke="#cccccc" stroke-width="1.0" stroke-linecap="butt" d="M58.5 283.5L581.5 283.5" fill-rule="nonzero"/><path stroke="#cccccc" stroke-width="1.0" stroke-linecap="butt" d="M58.5 233.5L581.5 233.5" fill-rule="nonzero"/><path stroke="#cccccc" stroke-width="1.0" stroke-linecap="butt" d="M58.5 182.5L581.5 182.5" fill-rule="nonzero"/><path stroke="#cccccc" stroke-width="1.0" stroke-linecap="butt" d="M58.5 132.5L581.5 132.5" fill-rule="nonzero"/><path stroke="#cccccc" stroke-width="1.0" stroke-linecap="butt" d="M58.5 81.5L581.5 81.5" fill-rule="nonzero"/><clipPath id="id_0"><path d="M58.5 81.40846L581.45 81.40846L581.45 334.45L58.5 334.45L58.5 81.40846Z" clip-rule="nonzero"/></clipPath><path stroke="#000000" stroke-width="0.0" stroke-linecap="butt" stroke-opacity="0.0" clip-path="url(#id_0)" d="M163.0 334.0L113.0 334.0L113.0 279.0C113.0 277.89542 113.89543 277.0 115.0 277.0L161.0 277.0C162.10457 277.0 163.0 277.89542 163.0 279.0Z" fill-rule="nonzero"/><path fill="#4285f4" clip-path="url(#id_0)" d="M163.0 334.0L113.0 334.0L113.0 279.0C113.0 277.89542 113.89543 277.0 115.0 277.0L161.0 277.0C162.10457 277.0 163.0 277.89542 163.0 279.0Z" fill-rule="nonzero"/><path stroke="#000000" stroke-width="0.0" stroke-linecap="butt" stroke-opacity="0.0" clip-path="url(#id_0)" d="M319.0 334.0L269.0 334.0L269.0 215.0C269.0 213.89543 269.89542 213.0 271.0 213.0L317.0 213.0C318.10458 213.0 319.0 213.89543 319.0 215.0Z" fill-rule="nonzero"/><path fill="#4285f4" clip-path="url(#id_0)" d="M319.0 334.0L269.0 334.0L269.0 215.0C269.0 213.89543 269.89542 213.0 271.0 213.0L317.0 213.0C318.10458 213.0 319.0 213.89543 319.0 215.0Z" fill-rule="nonzero"/><path stroke="#000000" stroke-width="0.0" stroke-linecap="butt" stroke-opacity="0.0" clip-path="url(#id_0)" d="M475.0 334.0L425.0 334.0L425.0 134.0C425.0 132.89543 425.89542 132.0 427.0 132.0L473.0 132.0C474.10458 132.0 475.0 132.89543 475.0 134.0Z" fill-rule="nonzero"/><path fill="#4285f4" clip-path="url(#id_0)" d="M475.0 334.0L425.0 334.0L425.0 134.0C425.0 132.89543 425.89542 132.0 427.0 132.0L473.0 132.0C474.10458 132.0 475.0 132.89543 475.0 134.0Z" fill-rule="nonzero"/><path stroke="#000000" stroke-width="0.0" stroke-linecap="butt" stroke-opacity="0.0" clip-path="url(#id_0)" d="M214.0 334.0L164.0 334.0L164.0 276.0C164.0 274.89542 164.89543 274.0 166.0 274.0L212.0 274.0C213.10457 274.0 214.0 274.89542 214.0 276.0Z" fill-rule="nonzero"/><path fill="#db4437" clip-path="url(#id_0)" d="M214.0 334.0L164.0 334.0L164.0 276.0C164.0 274.89542 164.89543 274.0 166.0 274.0L212.0 274.0C213.10457 274.0 214.0 274.89542 214.0 276.0Z" fill-rule="nonzero"/><path stroke="#000000" stroke-width="0.0" stroke-linecap="butt" stroke-opacity="0.0" clip-path="url(#id_0)" d="M370.0 334.0L320.0 334.0L320.0 229.0C320.0 227.89543 320.89542 227.0 322.0 227.0L368.0 227.0C369.10458 227.0 370.0 227.89543 370.0 229.0Z" fill-rule="nonzero"/><path fill="#db4437" clip-path="url(#id_0)" d="M370.0 334.0L320.0 334.0L320.0 229.0C320.0 227.89543 320.89542 227.0 322.0 227.0L368.0 227.0C369.10458 227.0 370.0 227.89543 370.0 229.0Z" fill-rule="nonzero"/><path stroke="#000000" stroke-width="0.0" stroke-linecap="butt" stroke-opacity="0.0" clip-path="url(#id_0)" d="M526.0 334.0L476.0 334.0L476.0 126.0C476.0 124.89543 476.89542 124.0 478.0 124.0L524.0 124.0C525.10455 124.0 526.0 124.89543 526.0 126.0Z" fill-rule="nonzero"/><path fill="#db4437" clip-path="url(#id_0)" d="M526.0 334.0L476.0 334.0L476.0 126.0C476.0 124.89543 476.89542 124.0 478.0 124.0L524.0 124.0C525.10455 124.0 526.0 124.89543 526.0 126.0Z" fill-rule="nonzero"/><path stroke="#4285f4" stroke-width="3.0" stroke-linejoin="round" stroke-linecap="round" d="M125.328125 289.18134L125.828125 284.8532L130.60938 284.8532L130.60938 286.25946L127.21875 286.25946L127.0 288.1032Q127.609375 287.7751 128.28125 287.7751Q129.5 287.7751 130.1875 288.5407Q130.89062 289.2907 130.89062 290.6501Q130.89062 291.4782 130.53125 292.13446Q130.1875 292.7751 129.53125 293.1501Q128.89062 293.50946 128.0 293.50946Q127.234375 293.50946 126.5625 293.19696Q125.90625 292.86884 125.515625 292.30634Q125.140625 291.74384 125.109375 291.00946L126.796875 291.00946Q126.84375 291.5407 127.15625 291.8376Q127.484375 292.13446 128.0 292.13446Q128.57812 292.13446 128.875 291.7282Q129.1875 291.30634 129.1875 290.55634Q129.1875 289.82196 128.82812 289.44696Q128.48438 289.05634 127.828125 289.05634Q127.21875 289.05634 126.84375 289.36884L126.6875 289.5251L125.328125 289.18134ZM137.875 285.80634L134.57812 293.38446L132.79688 293.38446L136.09375 286.2282L131.85938 286.2282L131.85938 284.8532L137.875 284.8532L137.875 285.80634ZM143.1875 293.38446L141.5 293.38446L141.5 286.8532L139.48438 287.4782L139.48438 286.1032L143.01562 284.8376L143.1875 284.8376L143.1875 293.38446ZM151.875 285.80634L148.57812 293.38446L146.79688 293.38446L150.09375 286.2282L145.85938 286.2282L145.85938 284.8532L151.875 284.8532L151.875 285.80634Z" fill-rule="nonzero"/><path fill="#ffffff" d="M125.328125 289.18134L125.828125 284.8532L130.60938 284.8532L130.60938 286.25946L127.21875 286.25946L127.0 288.1032Q127.609375 287.7751 128.28125 287.7751Q129.5 287.7751 130.1875 288.5407Q130.89062 289.2907 130.89062 290.6501Q130.89062 291.4782 130.53125 292.13446Q130.1875 292.7751 129.53125 293.1501Q128.89062 293.50946 128.0 293.50946Q127.234375 293.50946 126.5625 293.19696Q125.90625 292.86884 125.515625 292.30634Q125.140625 291.74384 125.109375 291.00946L126.796875 291.00946Q126.84375 291.5407 127.15625 291.8376Q127.484375 292.13446 128.0 292.13446Q128.57812 292.13446 128.875 291.7282Q129.1875 291.30634 129.1875 290.55634Q129.1875 289.82196 128.82812 289.44696Q128.48438 289.05634 127.828125 289.05634Q127.21875 289.05634 126.84375 289.36884L126.6875 289.5251L125.328125 289.18134ZM137.875 285.80634L134.57812 293.38446L132.79688 293.38446L136.09375 286.2282L131.85938 286.2282L131.85938 284.8532L137.875 284.8532L137.875 285.80634ZM143.1875 293.38446L141.5 293.38446L141.5 286.8532L139.48438 287.4782L139.48438 286.1032L143.01562 284.8376L143.1875 284.8376L143.1875 293.38446ZM151.875 285.80634L148.57812 293.38446L146.79688 293.38446L150.09375 286.2282L145.85938 286.2282L145.85938 284.8532L151.875 284.8532L151.875 285.80634Z" fill-rule="nonzero"/><path stroke="#4285f4" stroke-width="3.0" stroke-linejoin="round" stroke-linecap="round" d="M281.6875 230.19493L280.0 230.19493L280.0 223.66368L277.98438 224.28868L277.98438 222.91368L281.51562 221.64806L281.6875 221.64806L281.6875 230.19493ZM288.6875 230.19493L287.0 230.19493L287.0 223.66368L284.98438 224.28868L284.98438 222.91368L288.51562 221.64806L288.6875 221.64806L288.6875 230.19493ZM295.54688 226.78868Q294.875 227.4293 294.0 227.4293Q292.85938 227.4293 292.17188 226.66368Q291.5 225.88243 291.5 224.56993Q291.5 223.72618 291.85938 223.02306Q292.23438 222.31993 292.89062 221.9293Q293.54688 221.53868 294.375 221.53868Q295.21875 221.53868 295.875 221.96056Q296.53125 222.38243 296.89062 223.1793Q297.25 223.97618 297.26562 224.9918L297.26562 225.6168Q297.26562 227.75743 296.20312 228.97618Q295.14062 230.19493 293.1875 230.27306L292.78125 230.27306L292.78125 228.8668L293.15625 228.85118Q295.35938 228.75743 295.54688 226.78868ZM294.40625 226.13243Q294.82812 226.13243 295.10938 225.9293Q295.40625 225.71056 295.5625 225.41368L295.5625 224.72618Q295.5625 223.8668 295.23438 223.39806Q294.90625 222.91368 294.35938 222.91368Q293.84375 222.91368 293.51562 223.38243Q293.1875 223.83556 293.1875 224.53868Q293.1875 225.2418 293.5 225.69493Q293.82812 226.13243 294.40625 226.13243ZM303.17188 221.56993L303.17188 222.97618L303.01562 222.97618Q301.85938 222.9918 301.15625 223.56993Q300.46875 224.14806 300.32812 225.1793Q301.0 224.4918 302.03125 224.4918Q303.15625 224.4918 303.8125 225.28868Q304.46875 226.08556 304.46875 227.38243Q304.46875 228.21056 304.10938 228.88243Q303.75 229.5543 303.07812 229.94493Q302.42188 230.31993 301.59375 230.31993Q300.25 230.31993 299.42188 229.38243Q298.59375 228.4293 298.59375 226.8668L298.59375 226.25743Q298.59375 224.8668 299.10938 223.8043Q299.64062 222.7418 300.60938 222.16368Q301.59375 221.58556 302.89062 221.56993L303.17188 221.56993ZM301.51562 225.85118Q301.10938 225.85118 300.76562 226.06993Q300.4375 226.27306 300.28125 226.63243L300.28125 227.14806Q300.28125 227.9918 300.60938 228.47618Q300.95312 228.94493 301.5625 228.94493Q302.10938 228.94493 302.4375 228.52306Q302.78125 228.08556 302.78125 227.39806Q302.78125 226.69493 302.4375 226.27306Q302.09375 225.85118 301.51562 225.85118ZM311.32812 226.66368Q311.32812 228.4293 310.59375 229.38243Q309.85938 230.31993 308.45312 230.31993Q307.04688 230.31993 306.3125 229.39806Q305.57812 228.47618 305.5625 226.75743L305.5625 225.1793Q305.5625 223.39806 306.29688 222.47618Q307.04688 221.53868 308.4375 221.53868Q309.82812 221.53868 310.5625 222.46056Q311.3125 223.38243 311.32812 225.10118L311.32812 226.66368ZM309.625 224.94493Q309.625 223.88243 309.32812 223.39806Q309.04688 222.91368 308.4375 222.91368Q307.84375 222.91368 307.54688 223.38243Q307.26562 223.83556 307.25 224.81993L307.25 226.88243Q307.25 227.9293 307.53125 228.44493Q307.8125 228.94493 308.45312 228.94493Q309.0625 228.94493 309.34375 228.46056Q309.625 227.97618 309.625 226.97618L309.625 224.94493Z" fill-rule="nonzero"/><path fill="#ffffff" d="M281.6875 230.19493L280.0 230.19493L280.0 223.66368L277.98438 224.28868L277.98438 222.91368L281.51562 221.64806L281.6875 221.64806L281.6875 230.19493ZM288.6875 230.19493L287.0 230.19493L287.0 223.66368L284.98438 224.28868L284.98438 222.91368L288.51562 221.64806L288.6875 221.64806L288.6875 230.19493ZM295.54688 226.78868Q294.875 227.4293 294.0 227.4293Q292.85938 227.4293 292.17188 226.66368Q291.5 225.88243 291.5 224.56993Q291.5 223.72618 291.85938 223.02306Q292.23438 222.31993 292.89062 221.9293Q293.54688 221.53868 294.375 221.53868Q295.21875 221.53868 295.875 221.96056Q296.53125 222.38243 296.89062 223.1793Q297.25 223.97618 297.26562 224.9918L297.26562 225.6168Q297.26562 227.75743 296.20312 228.97618Q295.14062 230.19493 293.1875 230.27306L292.78125 230.27306L292.78125 228.8668L293.15625 228.85118Q295.35938 228.75743 295.54688 226.78868ZM294.40625 226.13243Q294.82812 226.13243 295.10938 225.9293Q295.40625 225.71056 295.5625 225.41368L295.5625 224.72618Q295.5625 223.8668 295.23438 223.39806Q294.90625 222.91368 294.35938 222.91368Q293.84375 222.91368 293.51562 223.38243Q293.1875 223.83556 293.1875 224.53868Q293.1875 225.2418 293.5 225.69493Q293.82812 226.13243 294.40625 226.13243ZM303.17188 221.56993L303.17188 222.97618L303.01562 222.97618Q301.85938 222.9918 301.15625 223.56993Q300.46875 224.14806 300.32812 225.1793Q301.0 224.4918 302.03125 224.4918Q303.15625 224.4918 303.8125 225.28868Q304.46875 226.08556 304.46875 227.38243Q304.46875 228.21056 304.10938 228.88243Q303.75 229.5543 303.07812 229.94493Q302.42188 230.31993 301.59375 230.31993Q300.25 230.31993 299.42188 229.38243Q298.59375 228.4293 298.59375 226.8668L298.59375 226.25743Q298.59375 224.8668 299.10938 223.8043Q299.64062 222.7418 300.60938 222.16368Q301.59375 221.58556 302.89062 221.56993L303.17188 221.56993ZM301.51562 225.85118Q301.10938 225.85118 300.76562 226.06993Q300.4375 226.27306 300.28125 226.63243L300.28125 227.14806Q300.28125 227.9918 300.60938 228.47618Q300.95312 228.94493 301.5625 228.94493Q302.10938 228.94493 302.4375 228.52306Q302.78125 228.08556 302.78125 227.39806Q302.78125 226.69493 302.4375 226.27306Q302.09375 225.85118 301.51562 225.85118ZM311.32812 226.66368Q311.32812 228.4293 310.59375 229.38243Q309.85938 230.31993 308.45312 230.31993Q307.04688 230.31993 306.3125 229.39806Q305.57812 228.47618 305.5625 226.75743L305.5625 225.1793Q305.5625 223.39806 306.29688 222.47618Q307.04688 221.53868 308.4375 221.53868Q309.82812 221.53868 310.5625 222.46056Q311.3125 223.38243 311.32812 225.10118L311.32812 226.66368ZM309.625 224.94493Q309.625 223.88243 309.32812 223.39806Q309.04688 222.91368 308.4375 222.91368Q307.84375 222.91368 307.54688 223.38243Q307.26562 223.83556 307.25 224.81993L307.25 226.88243Q307.25 227.9293 307.53125 228.44493Q307.8125 228.94493 308.45312 228.94493Q309.0625 228.94493 309.34375 228.46056Q309.625 227.97618 309.625 226.97618L309.625 224.94493Z" fill-rule="nonzero"/><path stroke="#4285f4" stroke-width="3.0" stroke-linejoin="round" stroke-linecap="round" d="M437.6875 149.19127L436.0 149.19127L436.0 142.66002L433.98438 143.28502L433.98438 141.91002L437.51562 140.6444L437.6875 140.6444L437.6875 149.19127ZM444.54688 145.78502Q443.875 146.42564 443.0 146.42564Q441.85938 146.42564 441.17188 145.66002Q440.5 144.87877 440.5 143.56627Q440.5 142.72252 440.85938 142.0194Q441.23438 141.31627 441.89062 140.92564Q442.54688 140.53502 443.375 140.53502Q444.21875 140.53502 444.875 140.9569Q445.53125 141.37877 445.89062 142.17564Q446.25 142.97252 446.26562 143.98814L446.26562 144.61314Q446.26562 146.75377 445.20312 147.97252Q444.14062 149.19127 442.1875 149.2694L441.78125 149.2694L441.78125 147.86314L442.15625 147.84752Q444.35938 147.75377 444.54688 145.78502ZM443.40625 145.12877Q443.82812 145.12877 444.10938 144.92564Q444.40625 144.7069 444.5625 144.41002L444.5625 143.72252Q444.5625 142.86314 444.23438 142.3944Q443.90625 141.91002 443.35938 141.91002Q442.84375 141.91002 442.51562 142.37877Q442.1875 142.8319 442.1875 143.53502Q442.1875 144.23814 442.5 144.69127Q442.82812 145.12877 443.40625 145.12877ZM451.54688 145.78502Q450.875 146.42564 450.0 146.42564Q448.85938 146.42564 448.17188 145.66002Q447.5 144.87877 447.5 143.56627Q447.5 142.72252 447.85938 142.0194Q448.23438 141.31627 448.89062 140.92564Q449.54688 140.53502 450.375 140.53502Q451.21875 140.53502 451.875 140.9569Q452.53125 141.37877 452.89062 142.17564Q453.25 142.97252 453.26562 143.98814L453.26562 144.61314Q453.26562 146.75377 452.20312 147.97252Q451.14062 149.19127 449.1875 149.2694L448.78125 149.2694L448.78125 147.86314L449.15625 147.84752Q451.35938 147.75377 451.54688 145.78502ZM450.40625 145.12877Q450.82812 145.12877 451.10938 144.92564Q451.40625 144.7069 451.5625 144.41002L451.5625 143.72252Q451.5625 142.86314 451.23438 142.3944Q450.90625 141.91002 450.35938 141.91002Q449.84375 141.91002 449.51562 142.37877Q449.1875 142.8319 449.1875 143.53502Q449.1875 144.23814 449.5 144.69127Q449.82812 145.12877 450.40625 145.12877ZM459.17188 140.56627L459.17188 141.97252L459.01562 141.97252Q457.85938 141.98814 457.15625 142.56627Q456.46875 143.1444 456.32812 144.17564Q457.0 143.48814 458.03125 143.48814Q459.15625 143.48814 459.8125 144.28502Q460.46875 145.0819 460.46875 146.37877Q460.46875 147.2069 460.10938 147.87877Q459.75 148.55064 459.07812 148.94127Q458.42188 149.31627 457.59375 149.31627Q456.25 149.31627 455.42188 148.37877Q454.59375 147.42564 454.59375 145.86314L454.59375 145.25377Q454.59375 143.86314 455.10938 142.80064Q455.64062 141.73814 456.60938 141.16002Q457.59375 140.5819 458.89062 140.56627L459.17188 140.56627ZM457.51562 144.84752Q457.10938 144.84752 456.76562 145.06627Q456.4375 145.2694 456.28125 145.62877L456.28125 146.1444Q456.28125 146.98814 456.60938 147.47252Q456.95312 147.94127 457.5625 147.94127Q458.10938 147.94127 458.4375 147.5194Q458.78125 147.0819 458.78125 146.3944Q458.78125 145.69127 458.4375 145.2694Q458.09375 144.84752 457.51562 144.84752ZM463.29688 144.17564L464.20312 144.17564Q464.84375 144.17564 465.15625 143.86314Q465.46875 143.53502 465.46875 143.00377Q465.46875 142.48814 465.15625 142.2069Q464.85938 141.91002 464.3125 141.91002Q463.82812 141.91002 463.5 142.17564Q463.17188 142.44127 463.17188 142.86314L461.48438 142.86314Q461.48438 142.2069 461.84375 141.67564Q462.20312 141.1444 462.84375 140.84752Q463.5 140.53502 464.28125 140.53502Q465.625 140.53502 466.39062 141.19127Q467.17188 141.8319 467.17188 142.97252Q467.17188 143.56627 466.8125 144.06627Q466.45312 144.55064 465.875 144.80064Q466.59375 145.06627 466.9375 145.5819Q467.29688 146.09752 467.29688 146.80064Q467.29688 147.94127 466.46875 148.62877Q465.64062 149.31627 464.28125 149.31627Q463.0 149.31627 462.1875 148.6444Q461.375 147.9569 461.375 146.84752L463.0625 146.84752Q463.0625 147.3319 463.42188 147.6444Q463.79688 147.94127 464.3125 147.94127Q464.92188 147.94127 465.26562 147.62877Q465.60938 147.30064 465.60938 146.7694Q465.60938 145.50377 464.20312 145.50377L463.29688 145.50377L463.29688 144.17564Z" fill-rule="nonzero"/><path fill="#ffffff" d="M437.6875 149.19127L436.0 149.19127L436.0 142.66002L433.98438 143.28502L433.98438 141.91002L437.51562 140.6444L437.6875 140.6444L437.6875 149.19127ZM444.54688 145.78502Q443.875 146.42564 443.0 146.42564Q441.85938 146.42564 441.17188 145.66002Q440.5 144.87877 440.5 143.56627Q440.5 142.72252 440.85938 142.0194Q441.23438 141.31627 441.89062 140.92564Q442.54688 140.53502 443.375 140.53502Q444.21875 140.53502 444.875 140.9569Q445.53125 141.37877 445.89062 142.17564Q446.25 142.97252 446.26562 143.98814L446.26562 144.61314Q446.26562 146.75377 445.20312 147.97252Q444.14062 149.19127 442.1875 149.2694L441.78125 149.2694L441.78125 147.86314L442.15625 147.84752Q444.35938 147.75377 444.54688 145.78502ZM443.40625 145.12877Q443.82812 145.12877 444.10938 144.92564Q444.40625 144.7069 444.5625 144.41002L444.5625 143.72252Q444.5625 142.86314 444.23438 142.3944Q443.90625 141.91002 443.35938 141.91002Q442.84375 141.91002 442.51562 142.37877Q442.1875 142.8319 442.1875 143.53502Q442.1875 144.23814 442.5 144.69127Q442.82812 145.12877 443.40625 145.12877ZM451.54688 145.78502Q450.875 146.42564 450.0 146.42564Q448.85938 146.42564 448.17188 145.66002Q447.5 144.87877 447.5 143.56627Q447.5 142.72252 447.85938 142.0194Q448.23438 141.31627 448.89062 140.92564Q449.54688 140.53502 450.375 140.53502Q451.21875 140.53502 451.875 140.9569Q452.53125 141.37877 452.89062 142.17564Q453.25 142.97252 453.26562 143.98814L453.26562 144.61314Q453.26562 146.75377 452.20312 147.97252Q451.14062 149.19127 449.1875 149.2694L448.78125 149.2694L448.78125 147.86314L449.15625 147.84752Q451.35938 147.75377 451.54688 145.78502ZM450.40625 145.12877Q450.82812 145.12877 451.10938 144.92564Q451.40625 144.7069 451.5625 144.41002L451.5625 143.72252Q451.5625 142.86314 451.23438 142.3944Q450.90625 141.91002 450.35938 141.91002Q449.84375 141.91002 449.51562 142.37877Q449.1875 142.8319 449.1875 143.53502Q449.1875 144.23814 449.5 144.69127Q449.82812 145.12877 450.40625 145.12877ZM459.17188 140.56627L459.17188 141.97252L459.01562 141.97252Q457.85938 141.98814 457.15625 142.56627Q456.46875 143.1444 456.32812 144.17564Q457.0 143.48814 458.03125 143.48814Q459.15625 143.48814 459.8125 144.28502Q460.46875 145.0819 460.46875 146.37877Q460.46875 147.2069 460.10938 147.87877Q459.75 148.55064 459.07812 148.94127Q458.42188 149.31627 457.59375 149.31627Q456.25 149.31627 455.42188 148.37877Q454.59375 147.42564 454.59375 145.86314L454.59375 145.25377Q454.59375 143.86314 455.10938 142.80064Q455.64062 141.73814 456.60938 141.16002Q457.59375 140.5819 458.89062 140.56627L459.17188 140.56627ZM457.51562 144.84752Q457.10938 144.84752 456.76562 145.06627Q456.4375 145.2694 456.28125 145.62877L456.28125 146.1444Q456.28125 146.98814 456.60938 147.47252Q456.95312 147.94127 457.5625 147.94127Q458.10938 147.94127 458.4375 147.5194Q458.78125 147.0819 458.78125 146.3944Q458.78125 145.69127 458.4375 145.2694Q458.09375 144.84752 457.51562 144.84752ZM463.29688 144.17564L464.20312 144.17564Q464.84375 144.17564 465.15625 143.86314Q465.46875 143.53502 465.46875 143.00377Q465.46875 142.48814 465.15625 142.2069Q464.85938 141.91002 464.3125 141.91002Q463.82812 141.91002 463.5 142.17564Q463.17188 142.44127 463.17188 142.86314L461.48438 142.86314Q461.48438 142.2069 461.84375 141.67564Q462.20312 141.1444 462.84375 140.84752Q463.5 140.53502 464.28125 140.53502Q465.625 140.53502 466.39062 141.19127Q467.17188 141.8319 467.17188 142.97252Q467.17188 143.56627 466.8125 144.06627Q466.45312 144.55064 465.875 144.80064Q466.59375 145.06627 466.9375 145.5819Q467.29688 146.09752 467.29688 146.80064Q467.29688 147.94127 466.46875 148.62877Q465.64062 149.31627 464.28125 149.31627Q463.0 149.31627 462.1875 148.6444Q461.375 147.9569 461.375 146.84752L463.0625 146.84752Q463.0625 147.3319 463.42188 147.6444Q463.79688 147.94127 464.3125 147.94127Q464.92188 147.94127 465.26562 147.62877Q465.60938 147.30064 465.60938 146.7694Q465.60938 145.50377 464.20312 145.50377L463.29688 145.50377L463.29688 144.17564Z" fill-rule="nonzero"/><path stroke="#db4437" stroke-width="3.0" stroke-linejoin="round" stroke-linecap="round" d="M176.32812 286.61044L176.82812 282.28232L181.60938 282.28232L181.60938 283.68857L178.21875 283.68857L178.0 285.53232Q178.60938 285.2042 179.28125 285.2042Q180.5 285.2042 181.1875 285.96982Q181.89062 286.71982 181.89062 288.0792Q181.89062 288.90732 181.53125 289.56357Q181.1875 290.2042 180.53125 290.5792Q179.89062 290.93857 179.0 290.93857Q178.23438 290.93857 177.5625 290.62607Q176.90625 290.29794 176.51562 289.73544Q176.14062 289.17294 176.10938 288.43857L177.79688 288.43857Q177.84375 288.96982 178.15625 289.2667Q178.48438 289.56357 179.0 289.56357Q179.57812 289.56357 179.875 289.15732Q180.1875 288.73544 180.1875 287.98544Q180.1875 287.25107 179.82812 286.87607Q179.48438 286.48544 178.82812 286.48544Q178.21875 286.48544 177.84375 286.79794L177.6875 286.9542L176.32812 286.61044ZM187.04688 287.40732Q186.375 288.04794 185.5 288.04794Q184.35938 288.04794 183.67188 287.28232Q183.0 286.50107 183.0 285.18857Q183.0 284.34482 183.35938 283.6417Q183.73438 282.93857 184.39062 282.54794Q185.04688 282.15732 185.875 282.15732Q186.71875 282.15732 187.375 282.5792Q188.03125 283.00107 188.39062 283.79794Q188.75 284.59482 188.76562 285.61044L188.76562 286.23544Q188.76562 288.37607 187.70312 289.59482Q186.64062 290.81357 184.6875 290.8917L184.28125 290.8917L184.28125 289.48544L184.65625 289.46982Q186.85938 289.37607 187.04688 287.40732ZM185.90625 286.75107Q186.32812 286.75107 186.60938 286.54794Q186.90625 286.3292 187.0625 286.03232L187.0625 285.34482Q187.0625 284.48544 186.73438 284.0167Q186.40625 283.53232 185.85938 283.53232Q185.34375 283.53232 185.01562 284.00107Q184.6875 284.4542 184.6875 285.15732Q184.6875 285.86044 185.0 286.31357Q185.32812 286.75107 185.90625 286.75107ZM195.875 283.23544L192.57812 290.81357L190.79688 290.81357L194.09375 283.65732L189.85938 283.65732L189.85938 282.28232L195.875 282.28232L195.875 283.23544ZM201.1875 290.81357L199.5 290.81357L199.5 284.28232L197.48438 284.90732L197.48438 283.53232L201.01562 282.2667L201.1875 282.2667L201.1875 290.81357Z" fill-rule="nonzero"/><path fill="#ffffff" d="M176.32812 286.61044L176.82812 282.28232L181.60938 282.28232L181.60938 283.68857L178.21875 283.68857L178.0 285.53232Q178.60938 285.2042 179.28125 285.2042Q180.5 285.2042 181.1875 285.96982Q181.89062 286.71982 181.89062 288.0792Q181.89062 288.90732 181.53125 289.56357Q181.1875 290.2042 180.53125 290.5792Q179.89062 290.93857 179.0 290.93857Q178.23438 290.93857 177.5625 290.62607Q176.90625 290.29794 176.51562 289.73544Q176.14062 289.17294 176.10938 288.43857L177.79688 288.43857Q177.84375 288.96982 178.15625 289.2667Q178.48438 289.56357 179.0 289.56357Q179.57812 289.56357 179.875 289.15732Q180.1875 288.73544 180.1875 287.98544Q180.1875 287.25107 179.82812 286.87607Q179.48438 286.48544 178.82812 286.48544Q178.21875 286.48544 177.84375 286.79794L177.6875 286.9542L176.32812 286.61044ZM187.04688 287.40732Q186.375 288.04794 185.5 288.04794Q184.35938 288.04794 183.67188 287.28232Q183.0 286.50107 183.0 285.18857Q183.0 284.34482 183.35938 283.6417Q183.73438 282.93857 184.39062 282.54794Q185.04688 282.15732 185.875 282.15732Q186.71875 282.15732 187.375 282.5792Q188.03125 283.00107 188.39062 283.79794Q188.75 284.59482 188.76562 285.61044L188.76562 286.23544Q188.76562 288.37607 187.70312 289.59482Q186.64062 290.81357 184.6875 290.8917L184.28125 290.8917L184.28125 289.48544L184.65625 289.46982Q186.85938 289.37607 187.04688 287.40732ZM185.90625 286.75107Q186.32812 286.75107 186.60938 286.54794Q186.90625 286.3292 187.0625 286.03232L187.0625 285.34482Q187.0625 284.48544 186.73438 284.0167Q186.40625 283.53232 185.85938 283.53232Q185.34375 283.53232 185.01562 284.00107Q184.6875 284.4542 184.6875 285.15732Q184.6875 285.86044 185.0 286.31357Q185.32812 286.75107 185.90625 286.75107ZM195.875 283.23544L192.57812 290.81357L190.79688 290.81357L194.09375 283.65732L189.85938 283.65732L189.85938 282.28232L195.875 282.28232L195.875 283.23544ZM201.1875 290.81357L199.5 290.81357L199.5 284.28232L197.48438 284.90732L197.48438 283.53232L201.01562 282.2667L201.1875 282.2667L201.1875 290.81357Z" fill-rule="nonzero"/><path stroke="#db4437" stroke-width="3.0" stroke-linejoin="round" stroke-linecap="round" d="M332.6875 243.4948L331.0 243.4948L331.0 236.96355L328.98438 237.58855L328.98438 236.21355L332.51562 234.94792L332.6875 234.94792L332.6875 243.4948ZM341.32812 239.96355Q341.32812 241.72917 340.59375 242.6823Q339.85938 243.6198 338.45312 243.6198Q337.04688 243.6198 336.3125 242.69792Q335.57812 241.77605 335.5625 240.0573L335.5625 238.47917Q335.5625 236.69792 336.29688 235.77605Q337.04688 234.83855 338.4375 234.83855Q339.82812 234.83855 340.5625 235.76042Q341.3125 236.6823 341.32812 238.40105L341.32812 239.96355ZM339.625 238.2448Q339.625 237.1823 339.32812 236.69792Q339.04688 236.21355 338.4375 236.21355Q337.84375 236.21355 337.54688 236.6823Q337.26562 237.13542 337.25 238.1198L337.25 240.1823Q337.25 241.22917 337.53125 241.7448Q337.8125 242.2448 338.45312 242.2448Q339.0625 242.2448 339.34375 241.76042Q339.625 241.27605 339.625 240.27605L339.625 238.2448ZM347.17188 234.8698L347.17188 236.27605L347.01562 236.27605Q345.85938 236.29167 345.15625 236.8698Q344.46875 237.44792 344.32812 238.47917Q345.0 237.79167 346.03125 237.79167Q347.15625 237.79167 347.8125 238.58855Q348.46875 239.38542 348.46875 240.6823Q348.46875 241.51042 348.10938 242.1823Q347.75 242.85417 347.07812 243.2448Q346.42188 243.6198 345.59375 243.6198Q344.25 243.6198 343.42188 242.6823Q342.59375 241.72917 342.59375 240.16667L342.59375 239.5573Q342.59375 238.16667 343.10938 237.10417Q343.64062 236.04167 344.60938 235.46355Q345.59375 234.88542 346.89062 234.8698L347.17188 234.8698ZM345.51562 239.15105Q345.10938 239.15105 344.76562 239.3698Q344.4375 239.57292 344.28125 239.9323L344.28125 240.44792Q344.28125 241.29167 344.60938 241.77605Q344.95312 242.2448 345.5625 242.2448Q346.10938 242.2448 346.4375 241.82292Q346.78125 241.38542 346.78125 240.69792Q346.78125 239.9948 346.4375 239.57292Q346.09375 239.15105 345.51562 239.15105ZM354.59375 240.27605L355.5625 240.27605L355.5625 241.65105L354.59375 241.65105L354.59375 243.4948L352.89062 243.4948L352.89062 241.65105L349.40625 241.65105L349.32812 240.58855L352.875 234.96355L354.59375 234.96355L354.59375 240.27605ZM351.01562 240.27605L352.89062 240.27605L352.89062 237.27605L352.78125 237.46355L351.01562 240.27605ZM361.17188 234.8698L361.17188 236.27605L361.01562 236.27605Q359.85938 236.29167 359.15625 236.8698Q358.46875 237.44792 358.32812 238.47917Q359.0 237.79167 360.03125 237.79167Q361.15625 237.79167 361.8125 238.58855Q362.46875 239.38542 362.46875 240.6823Q362.46875 241.51042 362.10938 242.1823Q361.75 242.85417 361.07812 243.2448Q360.42188 243.6198 359.59375 243.6198Q358.25 243.6198 357.42188 242.6823Q356.59375 241.72917 356.59375 240.16667L356.59375 239.5573Q356.59375 238.16667 357.10938 237.10417Q357.64062 236.04167 358.60938 235.46355Q359.59375 234.88542 360.89062 234.8698L361.17188 234.8698ZM359.51562 239.15105Q359.10938 239.15105 358.76562 239.3698Q358.4375 239.57292 358.28125 239.9323L358.28125 240.44792Q358.28125 241.29167 358.60938 241.77605Q358.95312 242.2448 359.5625 242.2448Q360.10938 242.2448 360.4375 241.82292Q360.78125 241.38542 360.78125 240.69792Q360.78125 239.9948 360.4375 239.57292Q360.09375 239.15105 359.51562 239.15105Z" fill-rule="nonzero"/><path fill="#ffffff" d="M332.6875 243.4948L331.0 243.4948L331.0 236.96355L328.98438 237.58855L328.98438 236.21355L332.51562 234.94792L332.6875 234.94792L332.6875 243.4948ZM341.32812 239.96355Q341.32812 241.72917 340.59375 242.6823Q339.85938 243.6198 338.45312 243.6198Q337.04688 243.6198 336.3125 242.69792Q335.57812 241.77605 335.5625 240.0573L335.5625 238.47917Q335.5625 236.69792 336.29688 235.77605Q337.04688 234.83855 338.4375 234.83855Q339.82812 234.83855 340.5625 235.76042Q341.3125 236.6823 341.32812 238.40105L341.32812 239.96355ZM339.625 238.2448Q339.625 237.1823 339.32812 236.69792Q339.04688 236.21355 338.4375 236.21355Q337.84375 236.21355 337.54688 236.6823Q337.26562 237.13542 337.25 238.1198L337.25 240.1823Q337.25 241.22917 337.53125 241.7448Q337.8125 242.2448 338.45312 242.2448Q339.0625 242.2448 339.34375 241.76042Q339.625 241.27605 339.625 240.27605L339.625 238.2448ZM347.17188 234.8698L347.17188 236.27605L347.01562 236.27605Q345.85938 236.29167 345.15625 236.8698Q344.46875 237.44792 344.32812 238.47917Q345.0 237.79167 346.03125 237.79167Q347.15625 237.79167 347.8125 238.58855Q348.46875 239.38542 348.46875 240.6823Q348.46875 241.51042 348.10938 242.1823Q347.75 242.85417 347.07812 243.2448Q346.42188 243.6198 345.59375 243.6198Q344.25 243.6198 343.42188 242.6823Q342.59375 241.72917 342.59375 240.16667L342.59375 239.5573Q342.59375 238.16667 343.10938 237.10417Q343.64062 236.04167 344.60938 235.46355Q345.59375 234.88542 346.89062 234.8698L347.17188 234.8698ZM345.51562 239.15105Q345.10938 239.15105 344.76562 239.3698Q344.4375 239.57292 344.28125 239.9323L344.28125 240.44792Q344.28125 241.29167 344.60938 241.77605Q344.95312 242.2448 345.5625 242.2448Q346.10938 242.2448 346.4375 241.82292Q346.78125 241.38542 346.78125 240.69792Q346.78125 239.9948 346.4375 239.57292Q346.09375 239.15105 345.51562 239.15105ZM354.59375 240.27605L355.5625 240.27605L355.5625 241.65105L354.59375 241.65105L354.59375 243.4948L352.89062 243.4948L352.89062 241.65105L349.40625 241.65105L349.32812 240.58855L352.875 234.96355L354.59375 234.96355L354.59375 240.27605ZM351.01562 240.27605L352.89062 240.27605L352.89062 237.27605L352.78125 237.46355L351.01562 240.27605ZM361.17188 234.8698L361.17188 236.27605L361.01562 236.27605Q359.85938 236.29167 359.15625 236.8698Q358.46875 237.44792 358.32812 238.47917Q359.0 237.79167 360.03125 237.79167Q361.15625 237.79167 361.8125 238.58855Q362.46875 239.38542 362.46875 240.6823Q362.46875 241.51042 362.10938 242.1823Q361.75 242.85417 361.07812 243.2448Q360.42188 243.6198 359.59375 243.6198Q358.25 243.6198 357.42188 242.6823Q356.59375 241.72917 356.59375 240.16667L356.59375 239.5573Q356.59375 238.16667 357.10938 237.10417Q357.64062 236.04167 358.60938 235.46355Q359.59375 234.88542 360.89062 234.8698L361.17188 234.8698ZM359.51562 239.15105Q359.10938 239.15105 358.76562 239.3698Q358.4375 239.57292 358.28125 239.9323L358.28125 240.44792Q358.28125 241.29167 358.60938 241.77605Q358.95312 242.2448 359.5625 242.2448Q360.10938 242.2448 360.4375 241.82292Q360.78125 241.38542 360.78125 240.69792Q360.78125 239.9948 360.4375 239.57292Q360.09375 239.15105 359.51562 239.15105Z" fill-rule="nonzero"/><path stroke="#db4437" stroke-width="3.0" stroke-linejoin="round" stroke-linecap="round" d="M490.42188 140.6081L484.57812 140.6081L484.57812 139.45184L487.34375 136.49872Q487.90625 135.88934 488.17188 135.4206Q488.45312 134.95184 488.45312 134.5456Q488.45312 133.96747 488.15625 133.65497Q487.875 133.32684 487.34375 133.32684Q486.76562 133.32684 486.4375 133.71747Q486.10938 134.1081 486.10938 134.76434L484.40625 134.76434Q484.40625 133.9831 484.78125 133.34247Q485.15625 132.68622 485.82812 132.32684Q486.51562 131.95184 487.375 131.95184Q488.6875 131.95184 489.42188 132.59247Q490.15625 133.21747 490.15625 134.37372Q490.15625 135.01434 489.82812 135.6706Q489.5 136.32684 488.70312 137.20184L486.76562 139.24872L490.42188 139.24872L490.42188 140.6081ZM497.32812 137.07684Q497.32812 138.84247 496.59375 139.7956Q495.85938 140.7331 494.45312 140.7331Q493.04688 140.7331 492.3125 139.81122Q491.57812 138.88934 491.5625 137.1706L491.5625 135.59247Q491.5625 133.81122 492.29688 132.88934Q493.04688 131.95184 494.4375 131.95184Q495.82812 131.95184 496.5625 132.87372Q497.3125 133.7956 497.32812 135.51434L497.32812 137.07684ZM495.625 135.3581Q495.625 134.2956 495.32812 133.81122Q495.04688 133.32684 494.4375 133.32684Q493.84375 133.32684 493.54688 133.7956Q493.26562 134.24872 493.25 135.2331L493.25 137.2956Q493.25 138.34247 493.53125 138.8581Q493.8125 139.3581 494.45312 139.3581Q495.0625 139.3581 495.34375 138.87372Q495.625 138.38934 495.625 137.38934L495.625 135.3581ZM504.14062 134.34247Q504.14062 134.96747 503.82812 135.45184Q503.51562 135.9206 502.96875 136.21747Q503.59375 136.51434 503.95312 137.0456Q504.32812 137.56122 504.32812 138.26434Q504.32812 139.40497 503.54688 140.07684Q502.78125 140.7331 501.4375 140.7331Q500.10938 140.7331 499.32812 140.07684Q498.5625 139.40497 498.5625 138.26434Q498.5625 137.56122 498.92188 137.02997Q499.28125 136.49872 499.90625 136.21747Q499.35938 135.9206 499.04688 135.45184Q498.73438 134.96747 498.73438 134.34247Q498.73438 133.24872 499.45312 132.6081Q500.1875 131.95184 501.4375 131.95184Q502.6875 131.95184 503.40625 132.6081Q504.14062 133.24872 504.14062 134.34247ZM502.625 138.13934Q502.625 137.59247 502.29688 137.26434Q501.98438 136.9206 501.4375 136.9206Q500.89062 136.9206 500.5625 137.24872Q500.25 137.57684 500.25 138.13934Q500.25 138.68622 500.5625 139.02997Q500.89062 139.3581 501.45312 139.3581Q502.0 139.3581 502.3125 139.0456Q502.625 138.71747 502.625 138.13934ZM502.45312 134.4206Q502.45312 133.9206 502.1875 133.62372Q501.92188 133.32684 501.4375 133.32684Q500.96875 133.32684 500.70312 133.62372Q500.4375 133.90497 500.4375 134.4206Q500.4375 134.93622 500.70312 135.24872Q500.96875 135.56122 501.4375 135.56122Q501.92188 135.56122 502.1875 135.24872Q502.45312 134.93622 502.45312 134.4206ZM509.6875 140.6081L508.0 140.6081L508.0 134.07684L505.98438 134.70184L505.98438 133.32684L509.51562 132.06122L509.6875 132.06122L509.6875 140.6081ZM516.6875 140.6081L515.0 140.6081L515.0 134.07684L512.9844 134.70184L512.9844 133.32684L516.5156 132.06122L516.6875 132.06122L516.6875 140.6081Z" fill-rule="nonzero"/><path fill="#ffffff" d="M490.42188 140.6081L484.57812 140.6081L484.57812 139.45184L487.34375 136.49872Q487.90625 135.88934 488.17188 135.4206Q488.45312 134.95184 488.45312 134.5456Q488.45312 133.96747 488.15625 133.65497Q487.875 133.32684 487.34375 133.32684Q486.76562 133.32684 486.4375 133.71747Q486.10938 134.1081 486.10938 134.76434L484.40625 134.76434Q484.40625 133.9831 484.78125 133.34247Q485.15625 132.68622 485.82812 132.32684Q486.51562 131.95184 487.375 131.95184Q488.6875 131.95184 489.42188 132.59247Q490.15625 133.21747 490.15625 134.37372Q490.15625 135.01434 489.82812 135.6706Q489.5 136.32684 488.70312 137.20184L486.76562 139.24872L490.42188 139.24872L490.42188 140.6081ZM497.32812 137.07684Q497.32812 138.84247 496.59375 139.7956Q495.85938 140.7331 494.45312 140.7331Q493.04688 140.7331 492.3125 139.81122Q491.57812 138.88934 491.5625 137.1706L491.5625 135.59247Q491.5625 133.81122 492.29688 132.88934Q493.04688 131.95184 494.4375 131.95184Q495.82812 131.95184 496.5625 132.87372Q497.3125 133.7956 497.32812 135.51434L497.32812 137.07684ZM495.625 135.3581Q495.625 134.2956 495.32812 133.81122Q495.04688 133.32684 494.4375 133.32684Q493.84375 133.32684 493.54688 133.7956Q493.26562 134.24872 493.25 135.2331L493.25 137.2956Q493.25 138.34247 493.53125 138.8581Q493.8125 139.3581 494.45312 139.3581Q495.0625 139.3581 495.34375 138.87372Q495.625 138.38934 495.625 137.38934L495.625 135.3581ZM504.14062 134.34247Q504.14062 134.96747 503.82812 135.45184Q503.51562 135.9206 502.96875 136.21747Q503.59375 136.51434 503.95312 137.0456Q504.32812 137.56122 504.32812 138.26434Q504.32812 139.40497 503.54688 140.07684Q502.78125 140.7331 501.4375 140.7331Q500.10938 140.7331 499.32812 140.07684Q498.5625 139.40497 498.5625 138.26434Q498.5625 137.56122 498.92188 137.02997Q499.28125 136.49872 499.90625 136.21747Q499.35938 135.9206 499.04688 135.45184Q498.73438 134.96747 498.73438 134.34247Q498.73438 133.24872 499.45312 132.6081Q500.1875 131.95184 501.4375 131.95184Q502.6875 131.95184 503.40625 132.6081Q504.14062 133.24872 504.14062 134.34247ZM502.625 138.13934Q502.625 137.59247 502.29688 137.26434Q501.98438 136.9206 501.4375 136.9206Q500.89062 136.9206 500.5625 137.24872Q500.25 137.57684 500.25 138.13934Q500.25 138.68622 500.5625 139.02997Q500.89062 139.3581 501.45312 139.3581Q502.0 139.3581 502.3125 139.0456Q502.625 138.71747 502.625 138.13934ZM502.45312 134.4206Q502.45312 133.9206 502.1875 133.62372Q501.92188 133.32684 501.4375 133.32684Q500.96875 133.32684 500.70312 133.62372Q500.4375 133.90497 500.4375 134.4206Q500.4375 134.93622 500.70312 135.24872Q500.96875 135.56122 501.4375 135.56122Q501.92188 135.56122 502.1875 135.24872Q502.45312 134.93622 502.45312 134.4206ZM509.6875 140.6081L508.0 140.6081L508.0 134.07684L505.98438 134.70184L505.98438 133.32684L509.51562 132.06122L509.6875 132.06122L509.6875 140.6081ZM516.6875 140.6081L515.0 140.6081L515.0 134.07684L512.9844 134.70184L512.9844 133.32684L516.5156 132.06122L516.6875 132.06122L516.6875 140.6081Z" fill-rule="nonzero"/><path fill="#757575" d="M51.5625 335.3094Q51.5625 337.21564 50.90625 338.15314Q50.265625 339.075 48.875 339.075Q47.515625 339.075 46.859375 338.16876Q46.203125 337.2625 46.171875 335.45L46.171875 334.0125Q46.171875 332.1219 46.8125 331.21564Q47.46875 330.29376 48.859375 330.29376Q50.234375 330.29376 50.890625 331.1844Q51.546875 332.0594 51.5625 333.90314L51.5625 335.3094ZM50.46875 333.825Q50.46875 332.45 50.078125 331.825Q49.703125 331.1844 48.859375 331.1844Q48.03125 331.1844 47.640625 331.825Q47.265625 332.45 47.265625 333.7469L47.265625 335.48126Q47.265625 336.85626 47.65625 337.52814Q48.0625 338.1844 48.875 338.1844Q49.671875 338.1844 50.0625 337.5594Q50.453125 336.9344 50.46875 335.60626L50.46875 333.825Z" fill-rule="nonzero"/><path fill="#757575" d="M25.703125 284.06046L26.140625 279.81046L30.515625 279.81046L30.515625 280.81046L27.0625 280.81046L26.796875 283.13858Q27.4375 282.76358 28.234375 282.76358Q29.390625 282.76358 30.078125 283.54483Q30.765625 284.31046 30.765625 285.62296Q30.765625 286.93546 30.046875 287.70108Q29.34375 288.4667 28.0625 288.4667Q26.9375 288.4667 26.21875 287.8417Q25.5 287.20108 25.40625 286.0917L26.421875 286.0917Q26.53125 286.82608 26.953125 287.20108Q27.375 287.57608 28.0625 287.57608Q28.8125 287.57608 29.25 287.06046Q29.6875 286.54483 29.6875 285.63858Q29.6875 284.7792 29.21875 284.26358Q28.75 283.74796 27.96875 283.74796Q27.265625 283.74796 26.859375 284.04483L26.578125 284.2792L25.703125 284.06046ZM37.5625 284.70108Q37.5625 286.60733 36.90625 287.54483Q36.265625 288.4667 34.875 288.4667Q33.515625 288.4667 32.859375 287.56046Q32.203125 286.6542 32.171875 284.8417L32.171875 283.4042Q32.171875 281.51358 32.8125 280.60733Q33.46875 279.68546 34.859375 279.68546Q36.234375 279.68546 36.890625 280.57608Q37.546875 281.45108 37.5625 283.29483L37.5625 284.70108ZM36.46875 283.2167Q36.46875 281.8417 36.078125 281.2167Q35.703125 280.57608 34.859375 280.57608Q34.03125 280.57608 33.640625 281.2167Q33.265625 281.8417 33.265625 283.13858L33.265625 284.87296Q33.265625 286.24796 33.65625 286.91983Q34.0625 287.57608 34.875 287.57608Q35.671875 287.57608 36.0625 286.95108Q36.453125 286.32608 36.46875 284.99796L36.46875 283.2167ZM44.5625 284.70108Q44.5625 286.60733 43.90625 287.54483Q43.265625 288.4667 41.875 288.4667Q40.515625 288.4667 39.859375 287.56046Q39.203125 286.6542 39.171875 284.8417L39.171875 283.4042Q39.171875 281.51358 39.8125 280.60733Q40.46875 279.68546 41.859375 279.68546Q43.234375 279.68546 43.890625 280.57608Q44.546875 281.45108 44.5625 283.29483L44.5625 284.70108ZM43.46875 283.2167Q43.46875 281.8417 43.078125 281.2167Q42.703125 280.57608 41.859375 280.57608Q41.03125 280.57608 40.640625 281.2167Q40.265625 281.8417 40.265625 283.13858L40.265625 284.87296Q40.265625 286.24796 40.65625 286.91983Q41.0625 287.57608 41.875 287.57608Q42.671875 287.57608 43.0625 286.95108Q43.453125 286.32608 43.46875 284.99796L43.46875 283.2167ZM51.5625 284.70108Q51.5625 286.60733 50.90625 287.54483Q50.265625 288.4667 48.875 288.4667Q47.515625 288.4667 46.859375 287.56046Q46.203125 286.6542 46.171875 284.8417L46.171875 283.4042Q46.171875 281.51358 46.8125 280.60733Q47.46875 279.68546 48.859375 279.68546Q50.234375 279.68546 50.890625 280.57608Q51.546875 281.45108 51.5625 283.29483L51.5625 284.70108ZM50.46875 283.2167Q50.46875 281.8417 50.078125 281.2167Q49.703125 280.57608 48.859375 280.57608Q48.03125 280.57608 47.640625 281.2167Q47.265625 281.8417 47.265625 283.13858L47.265625 284.87296Q47.265625 286.24796 47.65625 286.91983Q48.0625 287.57608 48.875 287.57608Q49.671875 287.57608 50.0625 286.95108Q50.453125 286.32608 50.46875 284.99796L50.46875 283.2167Z" fill-rule="nonzero"/><path fill="#757575" d="M21.765625 237.73338L20.6875 237.73338L20.6875 230.51463L18.5 231.31151L18.5 230.32713L21.609375 229.15526L21.765625 229.15526L21.765625 237.73338ZM30.5625 234.09276Q30.5625 235.99901 29.90625 236.93651Q29.265625 237.85838 27.875 237.85838Q26.515625 237.85838 25.859375 236.95213Q25.203125 236.04588 25.171875 234.23338L25.171875 232.79588Q25.171875 230.90526 25.8125 229.99901Q26.46875 229.07713 27.859375 229.07713Q29.234375 229.07713 29.890625 229.96776Q30.546875 230.84276 30.5625 232.68651L30.5625 234.09276ZM29.46875 232.60838Q29.46875 231.23338 29.078125 230.60838Q28.703125 229.96776 27.859375 229.96776Q27.03125 229.96776 26.640625 230.60838Q26.265625 231.23338 26.265625 232.53026L26.265625 234.26463Q26.265625 235.63963 26.65625 236.31151Q27.0625 236.96776 27.875 236.96776Q28.671875 236.96776 29.0625 236.34276Q29.453125 235.71776 29.46875 234.38963L29.46875 232.60838ZM37.5625 234.09276Q37.5625 235.99901 36.90625 236.93651Q36.265625 237.85838 34.875 237.85838Q33.515625 237.85838 32.859375 236.95213Q32.203125 236.04588 32.171875 234.23338L32.171875 232.79588Q32.171875 230.90526 32.8125 229.99901Q33.46875 229.07713 34.859375 229.07713Q36.234375 229.07713 36.890625 229.96776Q37.546875 230.84276 37.5625 232.68651L37.5625 234.09276ZM36.46875 232.60838Q36.46875 231.23338 36.078125 230.60838Q35.703125 229.96776 34.859375 229.96776Q34.03125 229.96776 33.640625 230.60838Q33.265625 231.23338 33.265625 232.53026L33.265625 234.26463Q33.265625 235.63963 33.65625 236.31151Q34.0625 236.96776 34.875 236.96776Q35.671875 236.96776 36.0625 236.34276Q36.453125 235.71776 36.46875 234.38963L36.46875 232.60838ZM44.5625 234.09276Q44.5625 235.99901 43.90625 236.93651Q43.265625 237.85838 41.875 237.85838Q40.515625 237.85838 39.859375 236.95213Q39.203125 236.04588 39.171875 234.23338L39.171875 232.79588Q39.171875 230.90526 39.8125 229.99901Q40.46875 229.07713 41.859375 229.07713Q43.234375 229.07713 43.890625 229.96776Q44.546875 230.84276 44.5625 232.68651L44.5625 234.09276ZM43.46875 232.60838Q43.46875 231.23338 43.078125 230.60838Q42.703125 229.96776 41.859375 229.96776Q41.03125 229.96776 40.640625 230.60838Q40.265625 231.23338 40.265625 232.53026L40.265625 234.26463Q40.265625 235.63963 40.65625 236.31151Q41.0625 236.96776 41.875 236.96776Q42.671875 236.96776 43.0625 236.34276Q43.453125 235.71776 43.46875 234.38963L43.46875 232.60838ZM51.5625 234.09276Q51.5625 235.99901 50.90625 236.93651Q50.265625 237.85838 48.875 237.85838Q47.515625 237.85838 46.859375 236.95213Q46.203125 236.04588 46.171875 234.23338L46.171875 232.79588Q46.171875 230.90526 46.8125 229.99901Q47.46875 229.07713 48.859375 229.07713Q50.234375 229.07713 50.890625 229.96776Q51.546875 230.84276 51.5625 232.68651L51.5625 234.09276ZM50.46875 232.60838Q50.46875 231.23338 50.078125 230.60838Q49.703125 229.96776 48.859375 229.96776Q48.03125 229.96776 47.640625 230.60838Q47.265625 231.23338 47.265625 232.53026L47.265625 234.26463Q47.265625 235.63963 47.65625 236.31151Q48.0625 236.96776 48.875 236.96776Q49.671875 236.96776 50.0625 236.34276Q50.453125 235.71776 50.46875 234.38963L50.46875 232.60838Z" fill-rule="nonzero"/><path fill="#757575" d="M21.765625 187.12508L20.6875 187.12508L20.6875 179.90633L18.5 180.7032L18.5 179.71883L21.609375 178.54695L21.765625 178.54695L21.765625 187.12508ZM25.703125 182.84383L26.140625 178.59383L30.515625 178.59383L30.515625 179.59383L27.0625 179.59383L26.796875 181.92195Q27.4375 181.54695 28.234375 181.54695Q29.390625 181.54695 30.078125 182.3282Q30.765625 183.09383 30.765625 184.40633Q30.765625 185.71883 30.046875 186.48445Q29.34375 187.25008 28.0625 187.25008Q26.9375 187.25008 26.21875 186.62508Q25.5 185.98445 25.40625 184.87508L26.421875 184.87508Q26.53125 185.60945 26.953125 185.98445Q27.375 186.35945 28.0625 186.35945Q28.8125 186.35945 29.25 185.84383Q29.6875 185.3282 29.6875 184.42195Q29.6875 183.56258 29.21875 183.04695Q28.75 182.53133 27.96875 182.53133Q27.265625 182.53133 26.859375 182.8282L26.578125 183.06258L25.703125 182.84383ZM37.5625 183.48445Q37.5625 185.3907 36.90625 186.3282Q36.265625 187.25008 34.875 187.25008Q33.515625 187.25008 32.859375 186.34383Q32.203125 185.43758 32.171875 183.62508L32.171875 182.18758Q32.171875 180.29695 32.8125 179.3907Q33.46875 178.46883 34.859375 178.46883Q36.234375 178.46883 36.890625 179.35945Q37.546875 180.23445 37.5625 182.0782L37.5625 183.48445ZM36.46875 182.00008Q36.46875 180.62508 36.078125 180.00008Q35.703125 179.35945 34.859375 179.35945Q34.03125 179.35945 33.640625 180.00008Q33.265625 180.62508 33.265625 181.92195L33.265625 183.65633Q33.265625 185.03133 33.65625 185.7032Q34.0625 186.35945 34.875 186.35945Q35.671875 186.35945 36.0625 185.73445Q36.453125 185.10945 36.46875 183.78133L36.46875 182.00008ZM44.5625 183.48445Q44.5625 185.3907 43.90625 186.3282Q43.265625 187.25008 41.875 187.25008Q40.515625 187.25008 39.859375 186.34383Q39.203125 185.43758 39.171875 183.62508L39.171875 182.18758Q39.171875 180.29695 39.8125 179.3907Q40.46875 178.46883 41.859375 178.46883Q43.234375 178.46883 43.890625 179.35945Q44.546875 180.23445 44.5625 182.0782L44.5625 183.48445ZM43.46875 182.00008Q43.46875 180.62508 43.078125 180.00008Q42.703125 179.35945 41.859375 179.35945Q41.03125 179.35945 40.640625 180.00008Q40.265625 180.62508 40.265625 181.92195L40.265625 183.65633Q40.265625 185.03133 40.65625 185.7032Q41.0625 186.35945 41.875 186.35945Q42.671875 186.35945 43.0625 185.73445Q43.453125 185.10945 43.46875 183.78133L43.46875 182.00008ZM51.5625 183.48445Q51.5625 185.3907 50.90625 186.3282Q50.265625 187.25008 48.875 187.25008Q47.515625 187.25008 46.859375 186.34383Q46.203125 185.43758 46.171875 183.62508L46.171875 182.18758Q46.171875 180.29695 46.8125 179.3907Q47.46875 178.46883 48.859375 178.46883Q50.234375 178.46883 50.890625 179.35945Q51.546875 180.23445 51.5625 182.0782L51.5625 183.48445ZM50.46875 182.00008Q50.46875 180.62508 50.078125 180.00008Q49.703125 179.35945 48.859375 179.35945Q48.03125 179.35945 47.640625 180.00008Q47.265625 180.62508 47.265625 181.92195L47.265625 183.65633Q47.265625 185.03133 47.65625 185.7032Q48.0625 186.35945 48.875 186.35945Q49.671875 186.35945 50.0625 185.73445Q50.453125 185.10945 50.46875 183.78133L50.46875 182.00008Z" fill-rule="nonzero"/><path fill="#757575" d="M23.796875 136.51677L18.203125 136.51677L18.203125 135.73552L21.15625 132.45427Q21.8125 131.70427 22.0625 131.25114Q22.3125 130.7824 22.3125 130.2824Q22.3125 129.61052 21.90625 129.18864Q21.515625 128.75114 20.828125 128.75114Q20.03125 128.75114 19.578125 129.2199Q19.125 129.67302 19.125 130.50114L18.046875 130.50114Q18.046875 129.31364 18.796875 128.5949Q19.5625 127.86052 20.828125 127.86052Q22.03125 127.86052 22.71875 128.48552Q23.40625 129.11052 23.40625 130.1574Q23.40625 131.4074 21.796875 133.1574L19.515625 135.62614L23.796875 135.62614L23.796875 136.51677ZM30.5625 132.87614Q30.5625 134.7824 29.90625 135.7199Q29.265625 136.64177 27.875 136.64177Q26.515625 136.64177 25.859375 135.73552Q25.203125 134.82927 25.171875 133.01677L25.171875 131.57927Q25.171875 129.68864 25.8125 128.7824Q26.46875 127.86052 27.859375 127.86052Q29.234375 127.86052 29.890625 128.75114Q30.546875 129.62614 30.5625 131.4699L30.5625 132.87614ZM29.46875 131.39177Q29.46875 130.01677 29.078125 129.39177Q28.703125 128.75114 27.859375 128.75114Q27.03125 128.75114 26.640625 129.39177Q26.265625 130.01677 26.265625 131.31364L26.265625 133.04802Q26.265625 134.42302 26.65625 135.0949Q27.0625 135.75114 27.875 135.75114Q28.671875 135.75114 29.0625 135.12614Q29.453125 134.50114 29.46875 133.17302L29.46875 131.39177ZM37.5625 132.87614Q37.5625 134.7824 36.90625 135.7199Q36.265625 136.64177 34.875 136.64177Q33.515625 136.64177 32.859375 135.73552Q32.203125 134.82927 32.171875 133.01677L32.171875 131.57927Q32.171875 129.68864 32.8125 128.7824Q33.46875 127.86052 34.859375 127.86052Q36.234375 127.86052 36.890625 128.75114Q37.546875 129.62614 37.5625 131.4699L37.5625 132.87614ZM36.46875 131.39177Q36.46875 130.01677 36.078125 129.39177Q35.703125 128.75114 34.859375 128.75114Q34.03125 128.75114 33.640625 129.39177Q33.265625 130.01677 33.265625 131.31364L33.265625 133.04802Q33.265625 134.42302 33.65625 135.0949Q34.0625 135.75114 34.875 135.75114Q35.671875 135.75114 36.0625 135.12614Q36.453125 134.50114 36.46875 133.17302L36.46875 131.39177ZM44.5625 132.87614Q44.5625 134.7824 43.90625 135.7199Q43.265625 136.64177 41.875 136.64177Q40.515625 136.64177 39.859375 135.73552Q39.203125 134.82927 39.171875 133.01677L39.171875 131.57927Q39.171875 129.68864 39.8125 128.7824Q40.46875 127.86052 41.859375 127.86052Q43.234375 127.86052 43.890625 128.75114Q44.546875 129.62614 44.5625 131.4699L44.5625 132.87614ZM43.46875 131.39177Q43.46875 130.01677 43.078125 129.39177Q42.703125 128.75114 41.859375 128.75114Q41.03125 128.75114 40.640625 129.39177Q40.265625 130.01677 40.265625 131.31364L40.265625 133.04802Q40.265625 134.42302 40.65625 135.0949Q41.0625 135.75114 41.875 135.75114Q42.671875 135.75114 43.0625 135.12614Q43.453125 134.50114 43.46875 133.17302L43.46875 131.39177ZM51.5625 132.87614Q51.5625 134.7824 50.90625 135.7199Q50.265625 136.64177 48.875 136.64177Q47.515625 136.64177 46.859375 135.73552Q46.203125 134.82927 46.171875 133.01677L46.171875 131.57927Q46.171875 129.68864 46.8125 128.7824Q47.46875 127.86052 48.859375 127.86052Q50.234375 127.86052 50.890625 128.75114Q51.546875 129.62614 51.5625 131.4699L51.5625 132.87614ZM50.46875 131.39177Q50.46875 130.01677 50.078125 129.39177Q49.703125 128.75114 48.859375 128.75114Q48.03125 128.75114 47.640625 129.39177Q47.265625 130.01677 47.265625 131.31364L47.265625 133.04802Q47.265625 134.42302 47.65625 135.0949Q48.0625 135.75114 48.875 135.75114Q49.671875 135.75114 50.0625 135.12614Q50.453125 134.50114 50.46875 133.17302L50.46875 131.39177Z" fill-rule="nonzero"/><path fill="#757575" d="M23.796875 85.90846L18.203125 85.90846L18.203125 85.12721L21.15625 81.84596Q21.8125 81.09596 22.0625 80.64284Q22.3125 80.17409 22.3125 79.67409Q22.3125 79.00221 21.90625 78.58034Q21.515625 78.14284 20.828125 78.14284Q20.03125 78.14284 19.578125 78.61159Q19.125 79.06471 19.125 79.89284L18.046875 79.89284Q18.046875 78.70534 18.796875 77.98659Q19.5625 77.25221 20.828125 77.25221Q22.03125 77.25221 22.71875 77.87721Q23.40625 78.50221 23.40625 79.54909Q23.40625 80.79909 21.796875 82.54909L19.515625 85.01784L23.796875 85.01784L23.796875 85.90846ZM25.703125 81.62721L26.140625 77.37721L30.515625 77.37721L30.515625 78.37721L27.0625 78.37721L26.796875 80.70534Q27.4375 80.33034 28.234375 80.33034Q29.390625 80.33034 30.078125 81.11159Q30.765625 81.87721 30.765625 83.18971Q30.765625 84.50221 30.046875 85.26784Q29.34375 86.03346 28.0625 86.03346Q26.9375 86.03346 26.21875 85.40846Q25.5 84.76784 25.40625 83.65846L26.421875 83.65846Q26.53125 84.39284 26.953125 84.76784Q27.375 85.14284 28.0625 85.14284Q28.8125 85.14284 29.25 84.62721Q29.6875 84.11159 29.6875 83.20534Q29.6875 82.34596 29.21875 81.83034Q28.75 81.31471 27.96875 81.31471Q27.265625 81.31471 26.859375 81.61159L26.578125 81.84596L25.703125 81.62721ZM37.5625 82.26784Q37.5625 84.17409 36.90625 85.11159Q36.265625 86.03346 34.875 86.03346Q33.515625 86.03346 32.859375 85.12721Q32.203125 84.22096 32.171875 82.40846L32.171875 80.97096Q32.171875 79.08034 32.8125 78.17409Q33.46875 77.25221 34.859375 77.25221Q36.234375 77.25221 36.890625 78.14284Q37.546875 79.01784 37.5625 80.86159L37.5625 82.26784ZM36.46875 80.78346Q36.46875 79.40846 36.078125 78.78346Q35.703125 78.14284 34.859375 78.14284Q34.03125 78.14284 33.640625 78.78346Q33.265625 79.40846 33.265625 80.70534L33.265625 82.43971Q33.265625 83.81471 33.65625 84.48659Q34.0625 85.14284 34.875 85.14284Q35.671875 85.14284 36.0625 84.51784Q36.453125 83.89284 36.46875 82.56471L36.46875 80.78346ZM44.5625 82.26784Q44.5625 84.17409 43.90625 85.11159Q43.265625 86.03346 41.875 86.03346Q40.515625 86.03346 39.859375 85.12721Q39.203125 84.22096 39.171875 82.40846L39.171875 80.97096Q39.171875 79.08034 39.8125 78.17409Q40.46875 77.25221 41.859375 77.25221Q43.234375 77.25221 43.890625 78.14284Q44.546875 79.01784 44.5625 80.86159L44.5625 82.26784ZM43.46875 80.78346Q43.46875 79.40846 43.078125 78.78346Q42.703125 78.14284 41.859375 78.14284Q41.03125 78.14284 40.640625 78.78346Q40.265625 79.40846 40.265625 80.70534L40.265625 82.43971Q40.265625 83.81471 40.65625 84.48659Q41.0625 85.14284 41.875 85.14284Q42.671875 85.14284 43.0625 84.51784Q43.453125 83.89284 43.46875 82.56471L43.46875 80.78346ZM51.5625 82.26784Q51.5625 84.17409 50.90625 85.11159Q50.265625 86.03346 48.875 86.03346Q47.515625 86.03346 46.859375 85.12721Q46.203125 84.22096 46.171875 82.40846L46.171875 80.97096Q46.171875 79.08034 46.8125 78.17409Q47.46875 77.25221 48.859375 77.25221Q50.234375 77.25221 50.890625 78.14284Q51.546875 79.01784 51.5625 80.86159L51.5625 82.26784ZM50.46875 80.78346Q50.46875 79.40846 50.078125 78.78346Q49.703125 78.14284 48.859375 78.14284Q48.03125 78.14284 47.640625 78.78346Q47.265625 79.40846 47.265625 80.70534L47.265625 82.43971Q47.265625 83.81471 47.65625 84.48659Q48.0625 85.14284 48.875 85.14284Q49.671875 85.14284 50.0625 84.51784Q50.453125 83.89284 50.46875 82.56471L50.46875 80.78346Z" fill-rule="nonzero"/><path fill="#757575" d="M154.57365 348.16876L155.01115 343.91876L159.38615 343.91876L159.38615 344.91876L155.93303 344.91876L155.6674 347.2469Q156.30803 346.8719 157.1049 346.8719Q158.26115 346.8719 158.94865 347.65314Q159.63615 348.41876 159.63615 349.73126Q159.63615 351.04376 158.9174 351.8094Q158.21428 352.575 156.93303 352.575Q155.80803 352.575 155.08928 351.95Q154.37053 351.3094 154.27678 350.2L155.2924 350.2Q155.40178 350.9344 155.82365 351.3094Q156.24553 351.6844 156.93303 351.6844Q157.68303 351.6844 158.12053 351.16876Q158.55803 350.65314 158.55803 349.7469Q158.55803 348.8875 158.08928 348.3719Q157.62053 347.85626 156.83928 347.85626Q156.13615 347.85626 155.7299 348.15314L155.44865 348.3875L154.57365 348.16876ZM166.43303 348.8094Q166.43303 350.71564 165.77678 351.65314Q165.13615 352.575 163.74553 352.575Q162.38615 352.575 161.7299 351.66876Q161.07365 350.7625 161.0424 348.95L161.0424 347.5125Q161.0424 345.6219 161.68303 344.71564Q162.33928 343.79376 163.7299 343.79376Q165.1049 343.79376 165.76115 344.6844Q166.4174 345.5594 166.43303 347.40314L166.43303 348.8094ZM165.33928 347.325Q165.33928 345.95 164.94865 345.325Q164.57365 344.6844 163.7299 344.6844Q162.90178 344.6844 162.51115 345.325Q162.13615 345.95 162.13615 347.2469L162.13615 348.98126Q162.13615 350.35626 162.52678 351.02814Q162.93303 351.6844 163.74553 351.6844Q164.5424 351.6844 164.93303 351.0594Q165.32365 350.4344 165.33928 349.10626L165.33928 347.325ZM173.43303 348.8094Q173.43303 350.71564 172.77678 351.65314Q172.13615 352.575 170.74553 352.575Q169.38615 352.575 168.7299 351.66876Q168.07365 350.7625 168.0424 348.95L168.0424 347.5125Q168.0424 345.6219 168.68303 344.71564Q169.33928 343.79376 170.7299 343.79376Q172.1049 343.79376 172.76115 344.6844Q173.4174 345.5594 173.43303 347.40314L173.43303 348.8094ZM172.33928 347.325Q172.33928 345.95 171.94865 345.325Q171.57365 344.6844 170.7299 344.6844Q169.90178 344.6844 169.51115 345.325Q169.13615 345.95 169.13615 347.2469L169.13615 348.98126Q169.13615 350.35626 169.52678 351.02814Q169.93303 351.6844 170.74553 351.6844Q171.5424 351.6844 171.93303 351.0594Q172.32365 350.4344 172.33928 349.10626L172.33928 347.325Z" fill-rule="nonzero"/><path fill="#757575" d="M310.24063 352.45L309.1625 352.45L309.1625 345.23126L306.975 346.02814L306.975 345.04376L310.08438 343.8719L310.24063 343.8719L310.24063 352.45ZM319.0375 348.8094Q319.0375 350.71564 318.38126 351.65314Q317.74063 352.575 316.35 352.575Q314.99063 352.575 314.33438 351.66876Q313.67813 350.7625 313.64688 348.95L313.64688 347.5125Q313.64688 345.6219 314.2875 344.71564Q314.94376 343.79376 316.33438 343.79376Q317.70938 343.79376 318.36563 344.6844Q319.02188 345.5594 319.0375 347.40314L319.0375 348.8094ZM317.94376 347.325Q317.94376 345.95 317.55313 345.325Q317.17813 344.6844 316.33438 344.6844Q315.50626 344.6844 315.11563 345.325Q314.74063 345.95 314.74063 347.2469L314.74063 348.98126Q314.74063 350.35626 315.13126 351.02814Q315.5375 351.6844 316.35 351.6844Q317.14688 351.6844 317.5375 351.0594Q317.92813 350.4344 317.94376 349.10626L317.94376 347.325ZM326.0375 348.8094Q326.0375 350.71564 325.38126 351.65314Q324.74063 352.575 323.35 352.575Q321.99063 352.575 321.33438 351.66876Q320.67813 350.7625 320.64688 348.95L320.64688 347.5125Q320.64688 345.6219 321.2875 344.71564Q321.94376 343.79376 323.33438 343.79376Q324.70938 343.79376 325.36563 344.6844Q326.02188 345.5594 326.0375 347.40314L326.0375 348.8094ZM324.94376 347.325Q324.94376 345.95 324.55313 345.325Q324.17813 344.6844 323.33438 344.6844Q322.50626 344.6844 322.11563 345.325Q321.74063 345.95 321.74063 347.2469L321.74063 348.98126Q321.74063 350.35626 322.13126 351.02814Q322.5375 351.6844 323.35 351.6844Q324.14688 351.6844 324.5375 351.0594Q324.92813 350.4344 324.94376 349.10626L324.94376 347.325ZM333.0375 348.8094Q333.0375 350.71564 332.38126 351.65314Q331.74063 352.575 330.35 352.575Q328.99063 352.575 328.33438 351.66876Q327.67813 350.7625 327.64688 348.95L327.64688 347.5125Q327.64688 345.6219 328.2875 344.71564Q328.94376 343.79376 330.33438 343.79376Q331.70938 343.79376 332.36563 344.6844Q333.02188 345.5594 333.0375 347.40314L333.0375 348.8094ZM331.94376 347.325Q331.94376 345.95 331.55313 345.325Q331.17813 344.6844 330.33438 344.6844Q329.50626 344.6844 329.11563 345.325Q328.74063 345.95 328.74063 347.2469L328.74063 348.98126Q328.74063 350.35626 329.13126 351.02814Q329.5375 351.6844 330.35 351.6844Q331.14688 351.6844 331.5375 351.0594Q331.92813 350.4344 331.94376 349.10626L331.94376 347.325Z" fill-rule="nonzero"/><path fill="#757575" d="M468.37634 352.45L462.7826 352.45L462.7826 351.66876L465.73572 348.3875Q466.39197 347.6375 466.64197 347.1844Q466.89197 346.71564 466.89197 346.21564Q466.89197 345.54376 466.48572 345.1219Q466.0951 344.6844 465.4076 344.6844Q464.61072 344.6844 464.1576 345.15314Q463.70447 345.60626 463.70447 346.4344L462.62634 346.4344Q462.62634 345.2469 463.37634 344.52814Q464.14197 343.79376 465.4076 343.79376Q466.61072 343.79376 467.29822 344.41876Q467.98572 345.04376 467.98572 346.09064Q467.98572 347.34064 466.37634 349.09064L464.0951 351.5594L468.37634 351.5594L468.37634 352.45ZM475.14197 348.8094Q475.14197 350.71564 474.48572 351.65314Q473.8451 352.575 472.45447 352.575Q471.0951 352.575 470.43884 351.66876Q469.7826 350.7625 469.75134 348.95L469.75134 347.5125Q469.75134 345.6219 470.39197 344.71564Q471.04822 343.79376 472.43884 343.79376Q473.81384 343.79376 474.4701 344.6844Q475.12634 345.5594 475.14197 347.40314L475.14197 348.8094ZM474.04822 347.325Q474.04822 345.95 473.6576 345.325Q473.2826 344.6844 472.43884 344.6844Q471.61072 344.6844 471.2201 345.325Q470.8451 345.95 470.8451 347.2469L470.8451 348.98126Q470.8451 350.35626 471.23572 351.02814Q471.64197 351.6844 472.45447 351.6844Q473.25134 351.6844 473.64197 351.0594Q474.0326 350.4344 474.04822 349.10626L474.04822 347.325ZM482.14197 348.8094Q482.14197 350.71564 481.48572 351.65314Q480.8451 352.575 479.45447 352.575Q478.0951 352.575 477.43884 351.66876Q476.7826 350.7625 476.75134 348.95L476.75134 347.5125Q476.75134 345.6219 477.39197 344.71564Q478.04822 343.79376 479.43884 343.79376Q480.81384 343.79376 481.4701 344.6844Q482.12634 345.5594 482.14197 347.40314L482.14197 348.8094ZM481.04822 347.325Q481.04822 345.95 480.6576 345.325Q480.2826 344.6844 479.43884 344.6844Q478.61072 344.6844 478.2201 345.325Q477.8451 345.95 477.8451 347.2469L477.8451 348.98126Q477.8451 350.35626 478.23572 351.02814Q478.64197 351.6844 479.45447 351.6844Q480.25134 351.6844 480.64197 351.0594Q481.0326 350.4344 481.04822 349.10626L481.04822 347.325ZM489.14197 348.8094Q489.14197 350.71564 488.48572 351.65314Q487.8451 352.575 486.45447 352.575Q485.0951 352.575 484.43884 351.66876Q483.7826 350.7625 483.75134 348.95L483.75134 347.5125Q483.75134 345.6219 484.39197 344.71564Q485.04822 343.79376 486.43884 343.79376Q487.81384 343.79376 488.4701 344.6844Q489.12634 345.5594 489.14197 347.40314L489.14197 348.8094ZM488.04822 347.325Q488.04822 345.95 487.6576 345.325Q487.2826 344.6844 486.43884 344.6844Q485.61072 344.6844 485.2201 345.325Q484.8451 345.95 484.8451 347.2469L484.8451 348.98126Q484.8451 350.35626 485.23572 351.02814Q485.64197 351.6844 486.45447 351.6844Q487.25134 351.6844 487.64197 351.0594Q488.0326 350.4344 488.04822 349.10626L488.04822 347.325Z" fill-rule="nonzero"/><path fill="#4285f4" d="M221.33646 55.686348C221.33646 55.134064 221.78418 54.686348 222.33646 54.686348L232.33646 54.686348C232.88875 54.686348 233.33646 55.134064 233.33646 55.686348L233.33646 65.68635C233.33646 66.23863 232.88875 66.68635 232.33646 66.68635L222.33646 66.68635C221.78418 66.68635 221.33646 66.23863 221.33646 65.68635Z" fill-rule="nonzero"/><path fill="#757575" d="M243.33646 65.18635L242.25833 65.18635L242.25833 56.186348L243.33646 56.186348L243.33646 65.18635ZM249.07083 65.18635Q248.97708 64.99885 248.91458 64.51447Q248.16458 65.31135 247.1177 65.31135Q246.1802 65.31135 245.57083 64.7801Q244.97708 64.24885 244.97708 63.420723Q244.97708 62.436348 245.72708 61.889473Q246.47708 61.342598 247.85208 61.342598L248.89896 61.342598L248.89896 60.842598Q248.89896 60.280098 248.5552 59.951973Q248.22708 59.608223 247.5552 59.608223Q246.97708 59.608223 246.58646 59.905098Q246.19583 60.186348 246.19583 60.608223L245.10208 60.608223Q245.10208 60.123848 245.4302 59.686348Q245.77396 59.248848 246.35208 58.998848Q246.9302 58.733223 247.6177 58.733223Q248.72708 58.733223 249.33646 59.280098Q249.96146 59.826973 249.9927 60.780098L249.9927 63.701973Q249.9927 64.57697 250.21146 65.0926L250.21146 65.18635L249.07083 65.18635ZM247.27396 64.35822Q247.78958 64.35822 248.2427 64.0926Q248.69583 63.826973 248.89896 63.405098L248.89896 62.108223L248.0552 62.108223Q246.0552 62.108223 246.0552 63.280098Q246.0552 63.780098 246.39896 64.07697Q246.7427 64.35822 247.27396 64.35822ZM253.63333 57.311348L253.63333 58.842598L254.8052 58.842598L254.8052 59.686348L253.63333 59.686348L253.63333 63.608223Q253.63333 63.998848 253.78958 64.18635Q253.94583 64.37385 254.32083 64.37385Q254.50833 64.37385 254.83646 64.31135L254.83646 65.18635Q254.41458 65.31135 254.00833 65.31135Q253.28958 65.31135 252.91458 64.87385Q252.53958 64.42072 252.53958 63.608223L252.53958 59.686348L251.38333 59.686348L251.38333 58.842598L252.53958 58.842598L252.53958 57.311348L253.63333 57.311348ZM264.1177 60.420723L259.22708 60.420723L259.22708 59.467598L264.1177 59.467598L264.1177 60.420723ZM264.1177 62.842598L259.22708 62.842598L259.22708 61.905098L264.1177 61.905098L264.1177 62.842598ZM269.53958 60.905098L269.97708 56.655098L274.35208 56.655098L274.35208 57.655098L270.89896 57.655098L270.63333 59.983223Q271.27396 59.608223 272.07083 59.608223Q273.22708 59.608223 273.91458 60.389473Q274.60208 61.155098 274.60208 62.467598Q274.60208 63.780098 273.88333 64.54572Q273.1802 65.31135 271.89896 65.31135Q270.77396 65.31135 270.0552 64.68635Q269.33646 64.04572 269.2427 62.936348L270.25833 62.936348Q270.3677 63.670723 270.78958 64.04572Q271.21146 64.42072 271.89896 64.42072Q272.64896 64.42072 273.08646 63.905098Q273.52396 63.389473 273.52396 62.483223Q273.52396 61.623848 273.0552 61.108223Q272.58646 60.592598 271.8052 60.592598Q271.10208 60.592598 270.69583 60.889473L270.41458 61.123848L269.53958 60.905098ZM280.07083 64.56135Q279.44583 65.31135 278.21146 65.31135Q277.19583 65.31135 276.66458 64.7176Q276.13333 64.12385 276.13333 62.967598L276.13333 58.842598L277.21146 58.842598L277.21146 62.936348Q277.21146 64.38947 278.38333 64.38947Q279.63333 64.38947 280.03958 63.451973L280.03958 58.842598L281.13333 58.842598L281.13333 65.18635L280.10208 65.18635L280.07083 64.56135ZM286.85208 63.498848Q286.85208 63.061348 286.50833 62.826973Q286.1802 62.576973 285.35208 62.405098Q284.53958 62.233223 284.0552 61.983223Q283.57083 61.733223 283.33646 61.405098Q283.1177 61.061348 283.1177 60.592598Q283.1177 59.811348 283.77396 59.280098Q284.4302 58.733223 285.46146 58.733223Q286.53958 58.733223 287.19583 59.295723Q287.8677 59.842598 287.8677 60.701973L286.78958 60.701973Q286.78958 60.264473 286.39896 59.951973Q286.02396 59.623848 285.46146 59.623848Q284.8677 59.623848 284.52396 59.889473Q284.19583 60.139473 284.19583 60.545723Q284.19583 60.936348 284.50833 61.139473Q284.82083 61.342598 285.63333 61.530098Q286.44583 61.701973 286.94583 61.951973Q287.44583 62.201973 287.6802 62.561348Q287.9302 62.920723 287.9302 63.420723Q287.9302 64.2801 287.2427 64.79572Q286.57083 65.31135 285.4927 65.31135Q284.72708 65.31135 284.13333 65.04572Q283.5552 64.76447 283.22708 64.2801Q282.89896 63.795723 282.89896 63.233223L283.97708 63.233223Q284.00833 63.780098 284.41458 64.10822Q284.82083 64.42072 285.4927 64.42072Q286.10208 64.42072 286.47708 64.17072Q286.85208 63.920723 286.85208 63.498848Z" fill-rule="nonzero"/><path fill="#db4437" d="M304.33646 55.686348C304.33646 55.134064 304.78418 54.686348 305.33646 54.686348L315.33646 54.686348C315.88873 54.686348 316.33646 55.134064 316.33646 55.686348L316.33646 65.68635C316.33646 66.23863 315.88873 66.68635 315.33646 66.68635L305.33646 66.68635C304.78418 66.68635 304.33646 66.23863 304.33646 65.68635Z" fill-rule="nonzero"/><path fill="#757575" d="M326.33646 65.18635L325.25833 65.18635L325.25833 56.186348L326.33646 56.186348L326.33646 65.18635ZM332.07083 65.18635Q331.97708 64.99885 331.91458 64.51447Q331.16458 65.31135 330.1177 65.31135Q329.1802 65.31135 328.57083 64.7801Q327.97708 64.24885 327.97708 63.420723Q327.97708 62.436348 328.72708 61.889473Q329.47708 61.342598 330.85208 61.342598L331.89896 61.342598L331.89896 60.842598Q331.89896 60.280098 331.5552 59.951973Q331.22708 59.608223 330.5552 59.608223Q329.97708 59.608223 329.58646 59.905098Q329.19583 60.186348 329.19583 60.608223L328.10208 60.608223Q328.10208 60.123848 328.4302 59.686348Q328.77396 59.248848 329.35208 58.998848Q329.9302 58.733223 330.6177 58.733223Q331.72708 58.733223 332.33646 59.280098Q332.96146 59.826973 332.9927 60.780098L332.9927 63.701973Q332.9927 64.57697 333.21146 65.0926L333.21146 65.18635L332.07083 65.18635ZM330.27396 64.35822Q330.78958 64.35822 331.2427 64.0926Q331.69583 63.826973 331.89896 63.405098L331.89896 62.108223L331.0552 62.108223Q329.0552 62.108223 329.0552 63.280098Q329.0552 63.780098 329.39896 64.07697Q329.7427 64.35822 330.27396 64.35822ZM336.63333 57.311348L336.63333 58.842598L337.8052 58.842598L337.8052 59.686348L336.63333 59.686348L336.63333 63.608223Q336.63333 63.998848 336.78958 64.18635Q336.94583 64.37385 337.32083 64.37385Q337.50833 64.37385 337.83646 64.31135L337.83646 65.18635Q337.41458 65.31135 337.00833 65.31135Q336.28958 65.31135 335.91458 64.87385Q335.53958 64.42072 335.53958 63.608223L335.53958 59.686348L334.38333 59.686348L334.38333 58.842598L335.53958 58.842598L335.53958 57.311348L336.63333 57.311348ZM347.1177 60.420723L342.22708 60.420723L342.22708 59.467598L347.1177 59.467598L347.1177 60.420723ZM347.1177 62.842598L342.22708 62.842598L342.22708 61.905098L347.1177 61.905098L347.1177 62.842598ZM355.60208 65.18635L354.52396 65.18635L354.52396 57.967598L352.33646 58.764473L352.33646 57.780098L355.44583 56.608223L355.60208 56.608223L355.60208 65.18635ZM364.39896 61.545723Q364.39896 63.451973 363.7427 64.38947Q363.10208 65.31135 361.71146 65.31135Q360.35208 65.31135 359.69583 64.4051Q359.03958 63.498848 359.00833 61.686348L359.00833 60.248848Q359.00833 58.358223 359.64896 57.451973Q360.3052 56.530098 361.69583 56.530098Q363.07083 56.530098 363.72708 57.420723Q364.38333 58.295723 364.39896 60.139473L364.39896 61.545723ZM363.3052 60.061348Q363.3052 58.686348 362.91458 58.061348Q362.53958 57.420723 361.69583 57.420723Q360.8677 57.420723 360.47708 58.061348Q360.10208 58.686348 360.10208 59.983223L360.10208 61.717598Q360.10208 63.092598 360.4927 63.764473Q360.89896 64.42072 361.71146 64.42072Q362.50833 64.42072 362.89896 63.795723Q363.28958 63.170723 363.3052 61.842598L363.3052 60.061348ZM370.07083 64.56135Q369.44583 65.31135 368.21146 65.31135Q367.19583 65.31135 366.66458 64.7176Q366.13333 64.12385 366.13333 62.967598L366.13333 58.842598L367.21146 58.842598L367.21146 62.936348Q367.21146 64.38947 368.38333 64.38947Q369.63333 64.38947 370.03958 63.451973L370.03958 58.842598L371.13333 58.842598L371.13333 65.18635L370.10208 65.18635L370.07083 64.56135ZM376.85208 63.498848Q376.85208 63.061348 376.50833 62.826973Q376.1802 62.576973 375.35208 62.405098Q374.53958 62.233223 374.0552 61.983223Q373.57083 61.733223 373.33646 61.405098Q373.1177 61.061348 373.1177 60.592598Q373.1177 59.811348 373.77396 59.280098Q374.4302 58.733223 375.46146 58.733223Q376.53958 58.733223 377.19583 59.295723Q377.8677 59.842598 377.8677 60.701973L376.78958 60.701973Q376.78958 60.264473 376.39896 59.951973Q376.02396 59.623848 375.46146 59.623848Q374.8677 59.623848 374.52396 59.889473Q374.19583 60.139473 374.19583 60.545723Q374.19583 60.936348 374.50833 61.139473Q374.82083 61.342598 375.63333 61.530098Q376.44583 61.701973 376.94583 61.951973Q377.44583 62.201973 377.6802 62.561348Q377.9302 62.920723 377.9302 63.420723Q377.9302 64.2801 377.2427 64.79572Q376.57083 65.31135 375.4927 65.31135Q374.72708 65.31135 374.13333 65.04572Q373.5552 64.76447 373.22708 64.2801Q372.89896 63.795723 372.89896 63.233223L373.97708 63.233223Q374.00833 63.780098 374.41458 64.10822Q374.82083 64.42072 375.4927 64.42072Q376.10208 64.42072 376.47708 64.17072Q376.85208 63.920723 376.85208 63.498848Z" fill-rule="nonzero"/><path fill="#757575" d="M30.191671 23.97593L25.847921 23.97593L25.847921 35.81968L22.910421 35.81968L22.910421 23.97593L18.613546 23.97593L18.613546 21.60093L30.191671 21.60093L30.191671 23.97593ZM37.42605 35.81968Q37.23855 35.44468 37.1448 34.866554Q36.129173 36.022804 34.48855 36.022804Q32.92605 36.022804 31.910421 35.116554Q30.894796 34.210304 30.894796 32.85093Q30.894796 31.16343 32.129173 30.272804Q33.379173 29.366554 35.73855 29.366554L37.035423 29.366554L37.035423 28.75718Q37.035423 28.022804 36.660423 27.585304Q36.285423 27.147804 35.472923 27.147804Q34.754173 27.147804 34.347923 27.491554Q33.941673 27.835304 33.941673 28.429054L31.129171 28.429054Q31.129171 27.50718 31.691671 26.72593Q32.254173 25.94468 33.285423 25.50718Q34.3323 25.054054 35.61355 25.054054Q37.566673 25.054054 38.7073 26.03843Q39.86355 27.022804 39.86355 28.804054L39.86355 33.38218Q39.879173 34.88218 40.285423 35.647804L40.285423 35.81968L37.42605 35.81968ZM35.097923 33.85093Q35.722923 33.85093 36.23855 33.585304Q36.7698 33.304054 37.035423 32.835304L37.035423 31.00718L35.972923 31.00718Q33.86355 31.00718 33.722923 32.47593L33.7073 32.647804Q33.7073 33.179054 34.0823 33.522804Q34.4573 33.85093 35.097923 33.85093ZM44.9573 25.25718L45.035423 26.429054Q46.160423 25.054054 48.0823 25.054054Q50.11355 25.054054 50.879173 26.66343Q51.98855 25.054054 54.05105 25.054054Q55.7698 25.054054 56.61355 26.054054Q57.4573 27.054054 57.4573 29.06968L57.4573 35.81968L54.629173 35.81968L54.629173 29.085304Q54.629173 28.179054 54.2698 27.772804Q53.92605 27.35093 53.035423 27.35093Q51.754173 27.35093 51.2698 28.56968L51.285423 35.81968L48.4573 35.81968L48.4573 29.085304Q48.4573 28.179054 48.097923 27.772804Q47.73855 27.35093 46.86355 27.35093Q45.660423 27.35093 45.129173 28.35093L45.129173 35.81968L42.30105 35.81968L42.30105 25.25718L44.9573 25.25718ZM65.42605 35.81968Q65.23855 35.44468 65.1448 34.866554Q64.12917 36.022804 62.48855 36.022804Q60.92605 36.022804 59.910423 35.116554Q58.8948 34.210304 58.8948 32.85093Q58.8948 31.16343 60.129173 30.272804Q61.379173 29.366554 63.73855 29.366554L65.03542 29.366554L65.03542 28.75718Q65.03542 28.022804 64.66042 27.585304Q64.28542 27.147804 63.472923 27.147804Q62.754173 27.147804 62.347923 27.491554Q61.941673 27.835304 61.941673 28.429054L59.129173 28.429054Q59.129173 27.50718 59.691673 26.72593Q60.254173 25.94468 61.285423 25.50718Q62.3323 25.054054 63.61355 25.054054Q65.56667 25.054054 66.7073 26.03843Q67.86355 27.022804 67.86355 28.804054L67.86355 33.38218Q67.87917 34.88218 68.28542 35.647804L68.28542 35.81968L65.42605 35.81968ZM63.097923 33.85093Q63.722923 33.85093 64.23855 33.585304Q64.7698 33.304054 65.03542 32.835304L65.03542 31.00718L63.972923 31.00718Q61.86355 31.00718 61.722923 32.47593L61.7073 32.647804Q61.7073 33.179054 62.0823 33.522804Q62.4573 33.85093 63.097923 33.85093ZM72.91042 25.25718L72.98855 26.47593Q74.12917 25.054054 76.03542 25.054054Q77.7073 25.054054 78.5198 26.03843Q79.34792 27.022804 79.36355 28.991554L79.36355 35.81968L76.55105 35.81968L76.55105 29.054054Q76.55105 28.16343 76.16042 27.75718Q75.7698 27.35093 74.86355 27.35093Q73.66042 27.35093 73.06667 28.366554L73.06667 35.81968L70.25417 35.81968L70.25417 25.25718L72.91042 25.25718ZM84.06667 26.397804Q85.19167 25.054054 86.87917 25.054054Q90.31667 25.054054 90.36355 29.054054L90.36355 35.81968L87.55105 35.81968L87.55105 29.13218Q87.55105 28.22593 87.16042 27.78843Q86.7698 27.35093 85.86355 27.35093Q84.61355 27.35093 84.06667 28.304054L84.06667 35.81968L81.23855 35.81968L81.23855 20.81968L84.06667 20.81968L84.06667 26.397804ZM91.86355 30.44468Q91.86355 28.866554 92.47292 27.63218Q93.0823 26.397804 94.2073 25.72593Q95.34792 25.054054 96.86355 25.054054Q99.00417 25.054054 100.34792 26.366554Q101.7073 27.679054 101.86355 29.91343L101.87917 30.647804Q101.87917 33.06968 100.5198 34.554054Q99.16042 36.022804 96.87917 36.022804Q94.59792 36.022804 93.22292 34.554054Q91.86355 33.085304 91.86355 30.56968L91.86355 30.44468ZM94.69167 30.647804Q94.69167 32.147804 95.25417 32.94468Q95.81667 33.741554 96.87917 33.741554Q97.91042 33.741554 98.47292 32.960304Q99.05105 32.16343 99.05105 30.44468Q99.05105 28.960304 98.47292 28.147804Q97.91042 27.335304 96.86355 27.335304Q95.81667 27.335304 95.25417 28.147804Q94.69167 28.960304 94.69167 30.647804ZM107.86355 30.460304Q107.86355 27.991554 108.97292 26.522804Q110.0823 25.054054 112.00417 25.054054Q113.55105 25.054054 114.55105 26.210304L114.55105 20.81968L117.3948 20.81968L117.3948 35.81968L114.84792 35.81968L114.7073 34.69468Q113.6448 36.022804 111.98855 36.022804Q110.12917 36.022804 108.98855 34.554054Q107.86355 33.06968 107.86355 30.460304ZM110.69167 30.66343Q110.69167 32.147804 111.2073 32.94468Q111.72292 33.72593 112.7073 33.72593Q114.0198 33.72593 114.55105 32.63218L114.55105 28.460304Q114.03542 27.35093 112.73855 27.35093Q110.69167 27.35093 110.69167 30.66343ZM118.86355 30.44468Q118.86355 28.866554 119.47292 27.63218Q120.0823 26.397804 121.2073 25.72593Q122.34792 25.054054 123.86355 25.054054Q126.00417 25.054054 127.34792 26.366554Q128.7073 27.679054 128.86356 29.91343L128.87918 30.647804Q128.87918 33.06968 127.5198 34.554054Q126.16042 36.022804 123.87917 36.022804Q121.59792 36.022804 120.22292 34.554054Q118.86355 33.085304 118.86355 30.56968L118.86355 30.44468ZM121.69167 30.647804Q121.69167 32.147804 122.25417 32.94468Q122.81667 33.741554 123.87917 33.741554Q124.91042 33.741554 125.47292 32.960304Q126.05105 32.16343 126.05105 30.44468Q126.05105 28.960304 125.47292 28.147804Q124.91042 27.335304 123.86355 27.335304Q122.81667 27.335304 122.25417 28.147804Q121.69167 28.960304 121.69167 30.647804ZM139.26979 32.366554L141.22292 25.25718L144.17604 25.25718L140.61354 35.81968L137.91042 35.81968L134.34792 25.25718L137.30104 25.25718L139.26979 32.366554ZM150.17604 36.022804Q147.84792 36.022804 146.37917 34.60093Q144.92604 33.16343 144.92604 30.78843L144.92604 30.522804Q144.92604 28.929054 145.53542 27.679054Q146.16042 26.41343 147.28542 25.741554Q148.41042 25.054054 149.86354 25.054054Q152.01979 25.054054 153.26979 26.429054Q154.51979 27.78843 154.51979 30.304054L154.51979 31.460304L147.78542 31.460304Q147.92604 32.491554 148.61354 33.116554Q149.30104 33.741554 150.36354 33.741554Q151.98854 33.741554 152.91042 32.554054L154.28542 34.116554Q153.66042 35.00718 152.56667 35.522804Q151.48854 36.022804 150.17604 36.022804ZM149.84792 27.335304Q149.00417 27.335304 148.47292 27.91343Q147.95729 28.47593 147.81667 29.522804L151.73854 29.522804L151.73854 29.304054Q151.72292 28.366554 151.23854 27.85093Q150.75417 27.335304 149.84792 27.335304ZM159.69167 22.647804L159.69167 25.25718L161.48854 25.25718L161.48854 27.31968L159.69167 27.31968L159.69167 32.60093Q159.69167 33.179054 159.91042 33.44468Q160.12917 33.69468 160.76979 33.69468Q161.23854 33.69468 161.59792 33.616554L161.59792 35.75718Q160.76979 36.022804 159.89479 36.022804Q156.92604 36.022804 156.86354 33.022804L156.86354 27.31968L155.31667 27.31968L155.31667 25.25718L156.86354 25.25718L156.86354 22.647804L159.69167 22.647804ZM162.86354 30.44468Q162.86354 28.866554 163.47292 27.63218Q164.08229 26.397804 165.20729 25.72593Q166.34792 25.054054 167.86354 25.054054Q170.00417 25.054054 171.34792 26.366554Q172.70729 27.679054 172.86354 29.91343L172.87917 30.647804Q172.87917 33.06968 171.51979 34.554054Q170.16042 36.022804 167.87917 36.022804Q165.59792 36.022804 164.22292 34.554054Q162.86354 33.085304 162.86354 30.56968L162.86354 30.44468ZM165.69167 30.647804Q165.69167 32.147804 166.25417 32.94468Q166.81667 33.741554 167.87917 33.741554Q168.91042 33.741554 169.47292 32.960304Q170.05104 32.16343 170.05104 30.44468Q170.05104 28.960304 169.47292 28.147804Q168.91042 27.335304 167.86354 27.335304Q166.81667 27.335304 166.25417 28.147804Q165.69167 28.960304 165.69167 30.647804ZM180.23854 27.897804Q179.67604 27.81968 179.22292 27.81968Q177.62917 27.81968 177.12917 28.897804L177.12917 35.81968L174.30104 35.81968L174.30104 25.25718L176.97292 25.25718L177.05104 26.50718Q177.89479 25.054054 179.41042 25.054054Q179.87917 25.054054 180.28542 25.179054L180.23854 27.897804ZM190.33229 28.41343L192.11354 25.25718L195.12917 25.25718L192.11354 30.429054L195.25417 35.81968L192.22292 35.81968L190.34792 32.491554L188.47292 35.81968L185.42604 35.81968L188.56667 30.429054L185.56667 25.25718L188.59792 25.25718L190.33229 28.41343ZM212.19167 23.97593L207.84792 23.97593L207.84792 35.81968L204.91042 35.81968L204.91042 23.97593L200.61354 23.97593L200.61354 21.60093L212.19167 21.60093L212.19167 23.97593ZM218.17604 36.022804Q215.84792 36.022804 214.37917 34.60093Q212.92604 33.16343 212.92604 30.78843L212.92604 30.522804Q212.92604 28.929054 213.53542 27.679054Q214.16042 26.41343 215.28542 25.741554Q216.41042 25.054054 217.86354 25.054054Q220.01979 25.054054 221.26979 26.429054Q222.51979 27.78843 222.51979 30.304054L222.51979 31.460304L215.78542 31.460304Q215.92604 32.491554 216.61354 33.116554Q217.30104 33.741554 218.36354 33.741554Q219.98854 33.741554 220.91042 32.554054L222.28542 34.116554Q221.66042 35.00718 220.56667 35.522804Q219.48854 36.022804 218.17604 36.022804ZM217.84792 27.335304Q217.00417 27.335304 216.47292 27.91343Q215.95729 28.47593 215.81667 29.522804L219.73854 29.522804L219.73854 29.304054Q219.72292 28.366554 219.23854 27.85093Q218.75417 27.335304 217.84792 27.335304ZM226.95729 25.25718L227.03542 26.429054Q228.16042 25.054054 230.08229 25.054054Q232.11354 25.054054 232.87917 26.66343Q233.98854 25.054054 236.05104 25.054054Q237.76979 25.054054 238.61354 26.054054Q239.45729 27.054054 239.45729 29.06968L239.45729 35.81968L236.62917 35.81968L236.62917 29.085304Q236.62917 28.179054 236.26979 27.772804Q235.92604 27.35093 235.03542 27.35093Q233.75417 27.35093 233.26979 28.56968L233.28542 35.81968L230.45729 35.81968L230.45729 29.085304Q230.45729 28.179054 230.09792 27.772804Q229.73854 27.35093 228.86354 27.35093Q227.66042 27.35093 227.12917 28.35093L227.12917 35.81968L224.30104 35.81968L224.30104 25.25718L226.95729 25.25718ZM250.81667 30.63218Q250.81667 33.06968 249.70729 34.554054Q248.59792 36.022804 246.72292 36.022804Q245.11354 36.022804 244.12917 34.897804L244.12917 39.88218L241.30104 39.88218L241.30104 25.25718L243.92604 25.25718L244.01979 26.28843Q245.05104 25.054054 246.69167 25.054054Q248.64479 25.054054 249.72292 26.50718Q250.81667 27.94468 250.81667 30.491554L250.81667 30.63218ZM248.00417 30.429054Q248.00417 28.960304 247.47292 28.16343Q246.95729 27.35093 245.95729 27.35093Q244.62917 27.35093 244.12917 28.366554L244.12917 32.69468Q244.64479 33.741554 245.97292 33.741554Q248.00417 33.741554 248.00417 30.429054ZM251.86354 30.44468Q251.86354 28.866554 252.47292 27.63218Q253.08229 26.397804 254.20729 25.72593Q255.34792 25.054054 256.86353 25.054054Q259.00415 25.054054 260.3479 26.366554Q261.70728 27.679054 261.86353 29.91343L261.87915 30.647804Q261.87915 33.06968 260.51978 34.554054Q259.1604 36.022804 256.87915 36.022804Q254.59792 36.022804 253.22292 34.554054Q251.86354 33.085304 251.86354 30.56968L251.86354 30.44468ZM254.69167 30.647804Q254.69167 32.147804 255.25417 32.94468Q255.81667 33.741554 256.87915 33.741554Q257.9104 33.741554 258.4729 32.960304Q259.05103 32.16343 259.05103 30.44468Q259.05103 28.960304 258.4729 28.147804Q257.9104 27.335304 256.86353 27.335304Q255.81667 27.335304 255.25417 28.147804Q254.69167 28.960304 254.69167 30.647804ZM267.86356 30.460304Q267.86356 27.991554 268.97293 26.522804Q270.0823 25.054054 272.00418 25.054054Q273.55106 25.054054 274.55106 26.210304L274.55106 20.81968L277.3948 20.81968L277.3948 35.81968L274.84793 35.81968L274.7073 34.69468Q273.6448 36.022804 271.98856 36.022804Q270.12918 36.022804 268.98856 34.554054Q267.86356 33.06968 267.86356 30.460304ZM270.69168 30.66343Q270.69168 32.147804 271.2073 32.94468Q271.72293 33.72593 272.7073 33.72593Q274.0198 33.72593 274.55106 32.63218L274.55106 28.460304Q274.03543 27.35093 272.73856 27.35093Q270.69168 27.35093 270.69168 30.66343ZM284.17606 36.022804Q281.84793 36.022804 280.37918 34.60093Q278.92606 33.16343 278.92606 30.78843L278.92606 30.522804Q278.92606 28.929054 279.53543 27.679054Q280.16043 26.41343 281.28543 25.741554Q282.41043 25.054054 283.86356 25.054054Q286.0198 25.054054 287.2698 26.429054Q288.5198 27.78843 288.5198 30.304054L288.5198 31.460304L281.78543 31.460304Q281.92606 32.491554 282.61356 33.116554Q283.30106 33.741554 284.36356 33.741554Q285.98856 33.741554 286.91043 32.554054L288.28543 34.116554Q287.66043 35.00718 286.56668 35.522804Q285.48856 36.022804 284.17606 36.022804ZM283.84793 27.335304Q283.00418 27.335304 282.47293 27.91343Q281.9573 28.47593 281.81668 29.522804L285.73856 29.522804L285.73856 29.304054Q285.72293 28.366554 285.23856 27.85093Q284.75418 27.335304 283.84793 27.335304ZM300.17606 36.022804Q297.84793 36.022804 296.37918 34.60093Q294.92606 33.16343 294.92606 30.78843L294.92606 30.522804Q294.92606 28.929054 295.53543 27.679054Q296.16043 26.41343 297.28543 25.741554Q298.41043 25.054054 299.86356 25.054054Q302.0198 25.054054 303.2698 26.429054Q304.5198 27.78843 304.5198 30.304054L304.5198 31.460304L297.78543 31.460304Q297.92606 32.491554 298.61356 33.116554Q299.30106 33.741554 300.36356 33.741554Q301.98856 33.741554 302.91043 32.554054L304.28543 34.116554Q303.66043 35.00718 302.56668 35.522804Q301.48856 36.022804 300.17606 36.022804ZM299.84793 27.335304Q299.00418 27.335304 298.47293 27.91343Q297.9573 28.47593 297.81668 29.522804L301.73856 29.522804L301.73856 29.304054Q301.72293 28.366554 301.23856 27.85093Q300.75418 27.335304 299.84793 27.335304ZM310.3323 28.41343L312.11356 25.25718L315.12918 25.25718L312.11356 30.429054L315.25418 35.81968L312.22293 35.81968L310.34793 32.491554L308.47293 35.81968L305.42606 35.81968L308.56668 30.429054L305.56668 25.25718L308.59793 25.25718L310.3323 28.41343ZM321.17606 36.022804Q318.84793 36.022804 317.37918 34.60093Q315.92606 33.16343 315.92606 30.78843L315.92606 30.522804Q315.92606 28.929054 316.53543 27.679054Q317.16043 26.41343 318.28543 25.741554Q319.41043 25.054054 320.86356 25.054054Q323.0198 25.054054 324.2698 26.429054Q325.5198 27.78843 325.5198 30.304054L325.5198 31.460304L318.78543 31.460304Q318.92606 32.491554 319.61356 33.116554Q320.30106 33.741554 321.36356 33.741554Q322.98856 33.741554 323.91043 32.554054L325.28543 34.116554Q324.66043 35.00718 323.56668 35.522804Q322.48856 36.022804 321.17606 36.022804ZM320.84793 27.335304Q320.00418 27.335304 319.47293 27.91343Q318.9573 28.47593 318.81668 29.522804L322.73856 29.522804L322.73856 29.304054Q322.72293 28.366554 322.23856 27.85093Q321.75418 27.335304 320.84793 27.335304ZM331.7073 33.741554Q332.48856 33.741554 332.97293 33.31968Q333.4573 32.88218 333.47293 32.16343L336.12918 32.16343Q336.11356 33.241554 335.53543 34.13218Q334.9573 35.022804 333.9573 35.522804Q332.9573 36.022804 331.75418 36.022804Q329.48856 36.022804 328.17606 34.585304Q326.86356 33.13218 326.86356 30.60093L326.86356 30.41343Q326.86356 27.960304 328.16043 26.50718Q329.47293 25.054054 331.73856 25.054054Q333.7073 25.054054 334.91043 26.19468Q336.11356 27.31968 336.12918 29.19468L333.47293 29.19468Q333.4573 28.366554 332.97293 27.85093Q332.48856 27.335304 331.67606 27.335304Q330.69168 27.335304 330.19168 28.054054Q329.69168 28.772804 329.69168 30.38218L329.69168 30.679054Q329.69168 32.31968 330.19168 33.03843Q330.69168 33.741554 331.7073 33.741554ZM343.62918 34.741554Q342.59793 36.022804 340.73856 36.022804Q339.05106 36.022804 338.1448 35.03843Q337.25418 34.054054 337.23856 32.179054L337.23856 25.25718L340.06668 25.25718L340.06668 32.085304Q340.06668 33.72593 341.56668 33.72593Q343.00418 33.72593 343.53543 32.72593L343.53543 25.25718L346.36356 25.25718L346.36356 35.81968L343.7073 35.81968L343.62918 34.741554ZM352.7073 33.741554Q353.48856 33.741554 353.97293 33.31968Q354.4573 32.88218 354.47293 32.16343L357.12918 32.16343Q357.11356 33.241554 356.53543 34.13218Q355.9573 35.022804 354.9573 35.522804Q353.9573 36.022804 352.75418 36.022804Q350.48856 36.022804 349.17606 34.585304Q347.86356 33.13218 347.86356 30.60093L347.86356 30.41343Q347.86356 27.960304 349.16043 26.50718Q350.47293 25.054054 352.73856 25.054054Q354.7073 25.054054 355.91043 26.19468Q357.11356 27.31968 357.12918 29.19468L354.47293 29.19468Q354.4573 28.366554 353.97293 27.85093Q353.48856 27.335304 352.67606 27.335304Q351.69168 27.335304 351.19168 28.054054Q350.69168 28.772804 350.69168 30.38218L350.69168 30.679054Q350.69168 32.31968 351.19168 33.03843Q351.69168 33.741554 352.7073 33.741554ZM353.59793 35.75718L353.48856 36.31968Q354.9573 36.585304 354.9573 38.00718Q354.9573 39.085304 354.05106 39.710304Q353.16043 40.335304 351.53543 40.335304L351.47293 38.69468Q352.56668 38.69468 352.56668 37.91343Q352.56668 37.50718 352.23856 37.35093Q351.91043 37.19468 351.17606 37.147804L351.48856 35.75718L353.59793 35.75718ZM364.42606 35.81968Q364.23856 35.44468 364.1448 34.866554Q363.12918 36.022804 361.48856 36.022804Q359.92606 36.022804 358.91043 35.116554Q357.8948 34.210304 357.8948 32.85093Q357.8948 31.16343 359.12918 30.272804Q360.37918 29.366554 362.73856 29.366554L364.03543 29.366554L364.03543 28.75718Q364.03543 28.022804 363.66043 27.585304Q363.28543 27.147804 362.47293 27.147804Q361.75418 27.147804 361.34793 27.491554Q360.94168 27.835304 360.94168 28.429054L358.12918 28.429054Q358.12918 27.50718 358.69168 26.72593Q359.25418 25.94468 360.28543 25.50718Q361.3323 25.054054 362.61356 25.054054Q364.56668 25.054054 365.7073 26.03843Q366.86356 27.022804 366.86356 28.804054L366.86356 33.38218Q366.87918 34.88218 367.28543 35.647804L367.28543 35.81968L364.42606 35.81968ZM362.09793 33.85093Q362.72293 33.85093 363.23856 33.585304Q363.7698 33.304054 364.03543 32.835304L364.03543 31.00718L362.97293 31.00718Q360.86356 31.00718 360.72293 32.47593L360.7073 32.647804Q360.7073 33.179054 361.0823 33.522804Q361.4573 33.85093 362.09793 33.85093ZM366.72293 20.929054Q366.72293 22.03843 366.06668 22.78843Q365.42606 23.53843 364.50418 23.53843Q364.12918 23.53843 363.8323 23.460304Q363.55106 23.366554 363.03543 23.10093Q362.53543 22.81968 362.31668 22.75718Q362.09793 22.69468 361.8323 22.69468Q361.48856 22.69468 361.23856 22.94468Q361.00418 23.179054 361.00418 23.63218L359.36356 23.53843Q359.36356 22.44468 360.00418 21.69468Q360.6448 20.929054 361.56668 20.929054Q361.86356 20.929054 362.11356 21.00718Q362.37918 21.06968 362.9573 21.35093Q363.55106 21.63218 363.7698 21.69468Q364.00418 21.75718 364.25418 21.75718Q364.59793 21.75718 364.8323 21.522804Q365.0823 21.272804 365.0823 20.835304L366.72293 20.929054ZM368.86356 30.44468Q368.86356 28.866554 369.47293 27.63218Q370.0823 26.397804 371.2073 25.72593Q372.34793 25.054054 373.86356 25.054054Q376.00418 25.054054 377.34793 26.366554Q378.7073 27.679054 378.86356 29.91343L378.87918 30.647804Q378.87918 33.06968 377.5198 34.554054Q376.16043 36.022804 373.87918 36.022804Q371.59793 36.022804 370.22293 34.554054Q368.86356 33.085304 368.86356 30.56968L368.86356 30.44468ZM371.69168 30.647804Q371.69168 32.147804 372.25418 32.94468Q372.81668 33.741554 373.87918 33.741554Q374.91043 33.741554 375.47293 32.960304Q376.05106 32.16343 376.05106 30.44468Q376.05106 28.960304 375.47293 28.147804Q374.91043 27.335304 373.86356 27.335304Q372.81668 27.335304 372.25418 28.147804Q371.69168 28.960304 371.69168 30.647804ZM385.44168 30.03843Q385.44168 27.804054 386.03543 25.78843Q386.62918 23.75718 387.78543 22.210304Q388.9573 20.647804 390.30106 20.03843L390.84793 21.554054Q389.42606 22.616554 388.62918 24.81968Q387.8323 27.022804 387.8323 29.97593L387.8323 30.28843Q387.8323 33.241554 388.61356 35.460304Q389.41043 37.679054 390.84793 38.772804L390.30106 40.25718Q388.97293 39.66343 387.8323 38.147804Q386.69168 36.647804 386.0823 34.679054Q385.47293 32.710304 385.44168 30.554054L385.44168 30.03843ZM394.9573 25.25718L395.03543 26.429054Q396.16043 25.054054 398.0823 25.054054Q400.11356 25.054054 400.87918 26.66343Q401.98856 25.054054 404.05106 25.054054Q405.7698 25.054054 406.61356 26.054054Q407.4573 27.054054 407.4573 29.06968L407.4573 35.81968L404.62918 35.81968L404.62918 29.085304Q404.62918 28.179054 404.2698 27.772804Q403.92606 27.35093 403.03543 27.35093Q401.75418 27.35093 401.2698 28.56968L401.28543 35.81968L398.4573 35.81968L398.4573 29.085304Q398.4573 28.179054 398.09793 27.772804Q397.73856 27.35093 396.86356 27.35093Q395.66043 27.35093 395.12918 28.35093L395.12918 35.81968L392.30106 35.81968L392.30106 25.25718L394.9573 25.25718ZM412.28543 35.81968L409.4573 35.81968L409.4573 25.25718L412.28543 25.25718L412.28543 35.81968ZM409.28543 22.522804Q409.28543 21.88218 409.7073 21.47593Q410.1448 21.06968 410.86356 21.06968Q411.59793 21.06968 412.0198 21.47593Q412.4573 21.88218 412.4573 22.522804Q412.4573 23.16343 412.0198 23.56968Q411.5823 23.97593 410.86356 23.97593Q410.16043 23.97593 409.72293 23.56968Q409.28543 23.16343 409.28543 22.522804ZM418.7073 33.741554Q419.48856 33.741554 419.97293 33.31968Q420.4573 32.88218 420.47293 32.16343L423.12918 32.16343Q423.11356 33.241554 422.53543 34.13218Q421.9573 35.022804 420.9573 35.522804Q419.9573 36.022804 418.75418 36.022804Q416.48856 36.022804 415.17606 34.585304Q413.86356 33.13218 413.86356 30.60093L413.86356 30.41343Q413.86356 27.960304 415.16043 26.50718Q416.47293 25.054054 418.73856 25.054054Q420.7073 25.054054 421.91043 26.19468Q423.11356 27.31968 423.12918 29.19468L420.47293 29.19468Q420.4573 28.366554 419.97293 27.85093Q419.48856 27.335304 418.67606 27.335304Q417.69168 27.335304 417.19168 28.054054Q416.69168 28.772804 416.69168 30.38218L416.69168 30.679054Q416.69168 32.31968 417.19168 33.03843Q417.69168 33.741554 418.7073 33.741554ZM430.23856 27.897804Q429.67606 27.81968 429.22293 27.81968Q427.62918 27.81968 427.12918 28.897804L427.12918 35.81968L424.30106 35.81968L424.30106 25.25718L426.97293 25.25718L427.05106 26.50718Q427.8948 25.054054 429.41043 25.054054Q429.87918 25.054054 430.28543 25.179054L430.23856 27.897804ZM430.86356 30.44468Q430.86356 28.866554 431.47293 27.63218Q432.0823 26.397804 433.2073 25.72593Q434.34793 25.054054 435.86356 25.054054Q438.00418 25.054054 439.34793 26.366554Q440.7073 27.679054 440.86356 29.91343L440.87918 30.647804Q440.87918 33.06968 439.5198 34.554054Q438.16043 36.022804 435.87918 36.022804Q433.59793 36.022804 432.22293 34.554054Q430.86356 33.085304 430.86356 30.56968L430.86356 30.44468ZM433.69168 30.647804Q433.69168 32.147804 434.25418 32.94468Q434.81668 33.741554 435.87918 33.741554Q436.91043 33.741554 437.47293 32.960304Q438.05106 32.16343 438.05106 30.44468Q438.05106 28.960304 437.47293 28.147804Q436.91043 27.335304 435.86356 27.335304Q434.81668 27.335304 434.25418 28.147804Q433.69168 28.960304 433.69168 30.647804ZM448.03543 32.897804Q448.03543 32.38218 447.5198 32.085304Q447.00418 31.78843 445.87918 31.554054Q442.09793 30.75718 442.09793 28.35093Q442.09793 26.94468 443.2698 26.00718Q444.44168 25.054054 446.31668 25.054054Q448.3323 25.054054 449.53543 26.00718Q450.73856 26.94468 450.73856 28.460304L447.92606 28.460304Q447.92606 27.866554 447.53543 27.47593Q447.1448 27.06968 446.31668 27.06968Q445.59793 27.06968 445.2073 27.397804Q444.81668 27.710304 444.81668 28.210304Q444.81668 28.679054 445.25418 28.97593Q445.7073 29.25718 446.75418 29.47593Q447.81668 29.679054 448.53543 29.94468Q450.7698 30.75718 450.7698 32.78843Q450.7698 34.22593 449.53543 35.13218Q448.30106 36.022804 446.3323 36.022804Q445.00418 36.022804 443.97293 35.554054Q442.94168 35.06968 442.34793 34.241554Q441.7698 33.41343 441.7698 32.460304L444.44168 32.460304Q444.48856 33.210304 445.00418 33.616554Q445.5198 34.00718 446.3948 34.00718Q447.2073 34.00718 447.61356 33.710304Q448.03543 33.397804 448.03543 32.897804ZM458.03543 32.897804Q458.03543 32.38218 457.5198 32.085304Q457.00418 31.78843 455.87918 31.554054Q452.09793 30.75718 452.09793 28.35093Q452.09793 26.94468 453.2698 26.00718Q454.44168 25.054054 456.31668 25.054054Q458.3323 25.054054 459.53543 26.00718Q460.73856 26.94468 460.73856 28.460304L457.92606 28.460304Q457.92606 27.866554 457.53543 27.47593Q457.1448 27.06968 456.31668 27.06968Q455.59793 27.06968 455.2073 27.397804Q454.81668 27.710304 454.81668 28.210304Q454.81668 28.679054 455.25418 28.97593Q455.7073 29.25718 456.75418 29.47593Q457.81668 29.679054 458.53543 29.94468Q460.7698 30.75718 460.7698 32.78843Q460.7698 34.22593 459.53543 35.13218Q458.30106 36.022804 456.3323 36.022804Q455.00418 36.022804 453.97293 35.554054Q452.94168 35.06968 452.34793 34.241554Q451.7698 33.41343 451.7698 32.460304L454.44168 32.460304Q454.48856 33.210304 455.00418 33.616554Q455.5198 34.00718 456.3948 34.00718Q457.2073 34.00718 457.61356 33.710304Q458.03543 33.397804 458.03543 32.897804ZM467.17606 36.022804Q464.84793 36.022804 463.37918 34.60093Q461.92606 33.16343 461.92606 30.78843L461.92606 30.522804Q461.92606 28.929054 462.53543 27.679054Q463.16043 26.41343 464.28543 25.741554Q465.41043 25.054054 466.86356 25.054054Q469.0198 25.054054 470.2698 26.429054Q471.5198 27.78843 471.5198 30.304054L471.5198 31.460304L464.78543 31.460304Q464.92606 32.491554 465.61356 33.116554Q466.30106 33.741554 467.36356 33.741554Q468.98856 33.741554 469.91043 32.554054L471.28543 34.116554Q470.66043 35.00718 469.56668 35.522804Q468.48856 36.022804 467.17606 36.022804ZM466.84793 27.335304Q466.00418 27.335304 465.47293 27.91343Q464.9573 28.47593 464.81668 29.522804L468.73856 29.522804L468.73856 29.304054Q468.72293 28.366554 468.23856 27.85093Q467.75418 27.335304 466.84793 27.335304ZM472.8948 30.460304Q472.8948 28.022804 474.05106 26.53843Q475.2073 25.054054 477.17606 25.054054Q478.91043 25.054054 479.87918 26.241554L480.00418 25.25718L482.55106 25.25718L482.55106 35.460304Q482.55106 36.85093 481.92606 37.88218Q481.30106 38.91343 480.1448 39.44468Q479.00418 39.97593 477.47293 39.97593Q476.31668 39.97593 475.2073 39.50718Q474.11356 39.054054 473.53543 38.31968L474.78543 36.60093Q475.84793 37.78843 477.34793 37.78843Q478.47293 37.78843 479.09793 37.179054Q479.72293 36.585304 479.72293 35.47593L479.72293 34.91343Q478.75418 36.022804 477.16043 36.022804Q475.25418 36.022804 474.06668 34.53843Q472.8948 33.03843 472.8948 30.56968L472.8948 30.460304ZM475.72293 30.66343Q475.72293 32.10093 476.30106 32.91343Q476.87918 33.72593 477.87918 33.72593Q479.16043 33.72593 479.72293 32.75718L479.72293 28.31968Q479.16043 27.35093 477.8948 27.35093Q476.87918 27.35093 476.30106 28.179054Q475.72293 29.00718 475.72293 30.66343ZM490.62918 34.741554Q489.59793 36.022804 487.73856 36.022804Q486.05106 36.022804 485.1448 35.03843Q484.25418 34.054054 484.23856 32.179054L484.23856 25.25718L487.06668 25.25718L487.06668 32.085304Q487.06668 33.72593 488.56668 33.72593Q490.00418 33.72593 490.53543 32.72593L490.53543 25.25718L493.36356 25.25718L493.36356 35.81968L490.7073 35.81968L490.62918 34.741554ZM497.91043 25.25718L497.98856 26.47593Q499.12918 25.054054 501.03543 25.054054Q502.7073 25.054054 503.5198 26.03843Q504.34793 27.022804 504.36356 28.991554L504.36356 35.81968L501.55106 35.81968L501.55106 29.054054Q501.55106 28.16343 501.16043 27.75718Q500.7698 27.35093 499.86356 27.35093Q498.66043 27.35093 498.06668 28.366554L498.06668 35.81968L495.25418 35.81968L495.25418 25.25718L497.91043 25.25718ZM505.86356 30.460304Q505.86356 27.991554 506.97293 26.522804Q508.0823 25.054054 510.00418 25.054054Q511.55106 25.054054 512.551 26.210304L512.551 20.81968L515.3948 20.81968L515.3948 35.81968L512.8479 35.81968L512.7073 34.69468Q511.6448 36.022804 509.98856 36.022804Q508.12918 36.022804 506.98856 34.554054Q505.86356 33.06968 505.86356 30.460304ZM508.69168 30.66343Q508.69168 32.147804 509.2073 32.94468Q509.72293 33.72593 510.7073 33.72593Q512.0198 33.72593 512.551 32.63218L512.551 28.460304Q512.0354 27.35093 510.73856 27.35093Q508.69168 27.35093 508.69168 30.66343ZM516.8635 30.44468Q516.8635 28.866554 517.4729 27.63218Q518.0823 26.397804 519.2073 25.72593Q520.3479 25.054054 521.8635 25.054054Q524.00415 25.054054 525.3479 26.366554Q526.7073 27.679054 526.8635 29.91343L526.87915 30.647804Q526.87915 33.06968 525.5198 34.554054Q524.1604 36.022804 521.87915 36.022804Q519.5979 36.022804 518.2229 34.554054Q516.8635 33.085304 516.8635 30.56968L516.8635 30.44468ZM519.69165 30.647804Q519.69165 32.147804 520.25415 32.94468Q520.81665 33.741554 521.87915 33.741554Q522.9104 33.741554 523.4729 32.960304Q524.051 32.16343 524.051 30.44468Q524.051 28.960304 523.4729 28.147804Q522.9104 27.335304 521.8635 27.335304Q520.81665 27.335304 520.25415 28.147804Q519.69165 28.960304 519.69165 30.647804ZM534.0354 32.897804Q534.0354 32.38218 533.5198 32.085304Q533.00415 31.78843 531.87915 31.554054Q528.0979 30.75718 528.0979 28.35093Q528.0979 26.94468 529.2698 26.00718Q530.44165 25.054054 532.31665 25.054054Q534.3323 25.054054 535.5354 26.00718Q536.7385 26.94468 536.7385 28.460304L533.926 28.460304Q533.926 27.866554 533.5354 27.47593Q533.1448 27.06968 532.31665 27.06968Q531.5979 27.06968 531.2073 27.397804Q530.81665 27.710304 530.81665 28.210304Q530.81665 28.679054 531.25415 28.97593Q531.7073 29.25718 532.75415 29.47593Q533.81665 29.679054 534.5354 29.94468Q536.7698 30.75718 536.7698 32.78843Q536.7698 34.22593 535.5354 35.13218Q534.301 36.022804 532.3323 36.022804Q531.00415 36.022804 529.9729 35.554054Q528.94165 35.06968 528.3479 34.241554Q527.7698 33.41343 527.7698 32.460304L530.44165 32.460304Q530.4885 33.210304 531.00415 33.616554Q531.5198 34.00718 532.3948 34.00718Q533.2073 34.00718 533.6135 33.710304Q534.0354 33.397804 534.0354 32.897804ZM543.176 30.25718Q543.176 32.47593 542.5354 34.522804Q541.8948 36.554054 540.7073 38.116554Q539.5198 39.679054 538.1604 40.25718L537.6135 38.772804Q539.00415 37.72593 539.801 35.554054Q540.5979 33.366554 540.62915 30.53843L540.62915 30.022804Q540.62915 27.10093 539.8323 24.88218Q539.0354 22.647804 537.6135 21.53843L538.1604 20.03843Q539.4885 20.616554 540.6604 22.13218Q541.8479 23.647804 542.4885 25.66343Q543.1448 27.66343 543.176 29.81968L543.176 30.25718Z" fill-rule="nonzero"/></svg>