<svg version="1.1" viewBox="0.0 0.0 600.0 371.0" fill="none" stroke="none" stroke-linecap="square" stroke-miterlimit="10" width="600" height="371" xmlns:xlink="http://www.w3.org/1999/xlink" xmlns="http://www.w3.org/2000/svg"><path fill="#ffffff" d="M0 0L600.0 0L600.0 371.0L0 371.0L0 0Z" fill-rule="nonzero"/><path stroke="#333333" stroke-width="1.0" stroke-linecap="butt" d="M78.5 298.5L581.5 298.5" fill-rule="nonzero"/><path stroke="#cccccc" stroke-width="1.0" stroke-linecap="butt" d="M78.5 239.5L581.5 239.5" fill-rule="nonzero"/><path stroke="#cccccc" stroke-width="1.0" stroke-linecap="butt" d="M78.5 180.5L581.5 180.5" fill-rule="nonzero"/><path stroke="#cccccc" stroke-width="1.0" stroke-linecap="butt" d="M78.5 121.5L581.5 121.5" fill-rule="nonzero"/><path stroke="#cccccc" stroke-width="1.0" stroke-linecap="butt" d="M78.5 62.5L581.5 62.5" fill-rule="nonzero"/><clipPath id="id_0"><path d="M78.55 62.416668L581.45 62.416668L581.45 298.45L78.55 298.45L78.55 62.416668Z" clip-rule="nonzero"/></clipPath><path stroke="#000000" stroke-width="0.0" stroke-linecap="butt" stroke-opacity="0.0" clip-path="url(#id_0)" d="M173.0 298.0L112.0 298.0L112.0 289.0C112.0 287.89542 112.89543 287.0 114.0 287.0L171.0 287.0C172.10457 287.0 173.0 287.89542 173.0 289.0Z" fill-rule="nonzero"/><path fill="#4285f4" clip-path="url(#id_0)" d="M173.0 298.0L112.0 298.0L112.0 289.0C112.0 287.89542 112.89543 287.0 114.0 287.0L171.0 287.0C172.10457 287.0 173.0 287.89542 173.0 289.0Z" fill-rule="nonzero"/><path stroke="#000000" stroke-width="0.0" stroke-linecap="butt" stroke-opacity="0.0" clip-path="url(#id_0)" d="M267.0 298.0L206.0 298.0L206.0 277.0C206.0 275.89542 206.89543 275.0 208.0 275.0L265.0 275.0C266.10458 275.0 267.0 275.89542 267.0 277.0Z" fill-rule="nonzero"/><path fill="#4285f4" clip-path="url(#id_0)" d="M267.0 298.0L206.0 298.0L206.0 277.0C206.0 275.89542 206.89543 275.0 208.0 275.0L265.0 275.0C266.10458 275.0 267.0 275.89542 267.0 277.0Z" fill-rule="nonzero"/><path stroke="#000000" stroke-width="0.0" stroke-linecap="butt" stroke-opacity="0.0" clip-path="url(#id_0)" d="M361.0 298.0L300.0 298.0L300.0 253.0C300.0 251.89543 300.89542 251.0 302.0 251.0L359.0 251.0C360.10458 251.0 361.0 251.89543 361.0 253.0Z" fill-rule="nonzero"/><path fill="#4285f4" clip-path="url(#id_0)" d="M361.0 298.0L300.0 298.0L300.0 253.0C300.0 251.89543 300.89542 251.0 302.0 251.0L359.0 251.0C360.10458 251.0 361.0 251.89543 361.0 253.0Z" fill-rule="nonzero"/><path stroke="#000000" stroke-width="0.0" stroke-linecap="butt" stroke-opacity="0.0" clip-path="url(#id_0)" d="M455.0 298.0L394.0 298.0L394.0 206.0C394.0 204.89543 394.89542 204.0 396.0 204.0L453.0 204.0C454.10458 204.0 455.0 204.89543 455.0 206.0Z" fill-rule="nonzero"/><path fill="#4285f4" clip-path="url(#id_0)" d="M455.0 298.0L394.0 298.0L394.0 206.0C394.0 204.89543 394.89542 204.0 396.0 204.0L453.0 204.0C454.10458 204.0 455.0 204.89543 455.0 206.0Z" fill-rule="nonzero"/><path stroke="#000000" stroke-width="0.0" stroke-linecap="butt" stroke-opacity="0.0" clip-path="url(#id_0)" d="M549.0 298.0L488.0 298.0L488.0 112.0C488.0 110.89543 488.89542 110.0 490.0 110.0L547.0 110.0C548.10455 110.0 549.0 110.89543 549.0 112.0Z" fill-rule="nonzero"/><path fill="#4285f4" clip-path="url(#id_0)" d="M549.0 298.0L488.0 298.0L488.0 112.0C488.0 110.89543 488.89542 110.0 490.0 110.0L547.0 110.0C548.10455 110.0 549.0 110.89543 549.0 112.0Z" fill-rule="nonzero"/><path stroke="#ffffff" stroke-width="3.0" stroke-linejoin="round" stroke-linecap="round" d="M144.92188 271.64835L139.07812 271.64835L139.07812 270.4921L141.84375 267.53897Q142.40625 266.9296 142.67188 266.46085Q142.95312 265.9921 142.95312 265.58585Q142.95312 265.00772 142.65625 264.69522Q142.375 264.3671 141.84375 264.3671Q141.26562 264.3671 140.9375 264.75772Q140.60938 265.14835 140.60938 265.8046L138.90625 265.8046Q138.90625 265.02335 139.28125 264.38272Q139.65625 263.72647 140.32812 263.3671Q141.01562 262.9921 141.875 262.9921Q143.1875 262.9921 143.92188 263.63272Q144.65625 264.25772 144.65625 265.41397Q144.65625 266.0546 144.32812 266.71085Q144.0 267.3671 143.20312 268.2421L141.26562 270.28897L144.92188 270.28897L144.92188 271.64835Z" fill-rule="nonzero"/><path fill="#4285f4" d="M144.92188 271.64835L139.07812 271.64835L139.07812 270.4921L141.84375 267.53897Q142.40625 266.9296 142.67188 266.46085Q142.95312 265.9921 142.95312 265.58585Q142.95312 265.00772 142.65625 264.69522Q142.375 264.3671 141.84375 264.3671Q141.26562 264.3671 140.9375 264.75772Q140.60938 265.14835 140.60938 265.8046L138.90625 265.8046Q138.90625 265.02335 139.28125 264.38272Q139.65625 263.72647 140.32812 263.3671Q141.01562 262.9921 141.875 262.9921Q143.1875 262.9921 143.92188 263.63272Q144.65625 264.25772 144.65625 265.41397Q144.65625 266.0546 144.32812 266.71085Q144.0 267.3671 143.20312 268.2421L141.26562 270.28897L144.92188 270.28897L144.92188 271.64835Z" fill-rule="nonzero"/><path stroke="#4285f4" stroke-width="3.0" stroke-linejoin="round" stroke-linecap="round" d="M238.09375 287.9296L239.0625 287.9296L239.0625 289.3046L238.09375 289.3046L238.09375 291.14835L236.39062 291.14835L236.39062 289.3046L232.90625 289.3046L232.82812 288.2421L236.375 282.6171L238.09375 282.6171L238.09375 287.9296ZM234.51562 287.9296L236.39062 287.9296L236.39062 284.9296L236.28125 285.1171L234.51562 287.9296Z" fill-rule="nonzero"/><path fill="#ffffff" d="M238.09375 287.9296L239.0625 287.9296L239.0625 289.3046L238.09375 289.3046L238.09375 291.14835L236.39062 291.14835L236.39062 289.3046L232.90625 289.3046L232.82812 288.2421L236.375 282.6171L238.09375 282.6171L238.09375 287.9296ZM234.51562 287.9296L236.39062 287.9296L236.39062 284.9296L236.28125 285.1171L234.51562 287.9296Z" fill-rule="nonzero"/><path stroke="#4285f4" stroke-width="3.0" stroke-linejoin="round" stroke-linecap="round" d="M332.64062 261.7777Q332.64062 262.4027 332.32812 262.8871Q332.01562 263.35583 331.46875 263.6527Q332.09375 263.9496 332.45312 264.48083Q332.82812 264.99646 332.82812 265.6996Q332.82812 266.8402 332.04688 267.5121Q331.28125 268.16833 329.9375 268.16833Q328.60938 268.16833 327.82812 267.5121Q327.0625 266.8402 327.0625 265.6996Q327.0625 264.99646 327.42188 264.4652Q327.78125 263.93396 328.40625 263.6527Q327.85938 263.35583 327.54688 262.8871Q327.23438 262.4027 327.23438 261.7777Q327.23438 260.68396 327.95312 260.04333Q328.6875 259.3871 329.9375 259.3871Q331.1875 259.3871 331.90625 260.04333Q332.64062 260.68396 332.64062 261.7777ZM331.125 265.5746Q331.125 265.0277 330.79688 264.6996Q330.48438 264.35583 329.9375 264.35583Q329.39062 264.35583 329.0625 264.68396Q328.75 265.0121 328.75 265.5746Q328.75 266.12146 329.0625 266.4652Q329.39062 266.79333 329.95312 266.79333Q330.5 266.79333 330.8125 266.48083Q331.125 266.1527 331.125 265.5746ZM330.95312 261.85583Q330.95312 261.35583 330.6875 261.05896Q330.42188 260.7621 329.9375 260.7621Q329.46875 260.7621 329.20312 261.05896Q328.9375 261.3402 328.9375 261.85583Q328.9375 262.37146 329.20312 262.68396Q329.46875 262.99646 329.9375 262.99646Q330.42188 262.99646 330.6875 262.68396Q330.95312 262.37146 330.95312 261.85583Z" fill-rule="nonzero"/><path fill="#ffffff" d="M332.64062 261.7777Q332.64062 262.4027 332.32812 262.8871Q332.01562 263.35583 331.46875 263.6527Q332.09375 263.9496 332.45312 264.48083Q332.82812 264.99646 332.82812 265.6996Q332.82812 266.8402 332.04688 267.5121Q331.28125 268.16833 329.9375 268.16833Q328.60938 268.16833 327.82812 267.5121Q327.0625 266.8402 327.0625 265.6996Q327.0625 264.99646 327.42188 264.4652Q327.78125 263.93396 328.40625 263.6527Q327.85938 263.35583 327.54688 262.8871Q327.23438 262.4027 327.23438 261.7777Q327.23438 260.68396 327.95312 260.04333Q328.6875 259.3871 329.9375 259.3871Q331.1875 259.3871 331.90625 260.04333Q332.64062 260.68396 332.64062 261.7777ZM331.125 265.5746Q331.125 265.0277 330.79688 264.6996Q330.48438 264.35583 329.9375 264.35583Q329.39062 264.35583 329.0625 264.68396Q328.75 265.0121 328.75 265.5746Q328.75 266.12146 329.0625 266.4652Q329.39062 266.79333 329.95312 266.79333Q330.5 266.79333 330.8125 266.48083Q331.125 266.1527 331.125 265.5746ZM330.95312 261.85583Q330.95312 261.35583 330.6875 261.05896Q330.42188 260.7621 329.9375 260.7621Q329.46875 260.7621 329.20312 261.05896Q328.9375 261.3402 328.9375 261.85583Q328.9375 262.37146 329.20312 262.68396Q329.46875 262.99646 329.9375 262.99646Q330.42188 262.99646 330.6875 262.68396Q330.95312 262.37146 330.95312 261.85583Z" fill-rule="nonzero"/><path stroke="#4285f4" stroke-width="3.0" stroke-linejoin="round" stroke-linecap="round" d="M421.6875 220.83667L420.0 220.83667L420.0 214.30542L417.98438 214.93042L417.98438 213.55542L421.51562 212.2898L421.6875 212.2898L421.6875 220.83667ZM429.17188 212.21167L429.17188 213.61792L429.01562 213.61792Q427.85938 213.63354 427.15625 214.21167Q426.46875 214.7898 426.32812 215.82104Q427.0 215.13354 428.03125 215.13354Q429.15625 215.13354 429.8125 215.93042Q430.46875 216.7273 430.46875 218.02417Q430.46875 218.8523 430.10938 219.52417Q429.75 220.19604 429.07812 220.58667Q428.42188 220.96167 427.59375 220.96167Q426.25 220.96167 425.42188 220.02417Q424.59375 219.07104 424.59375 217.50854L424.59375 216.89917Q424.59375 215.50854 425.10938 214.44604Q425.64062 213.38354 426.60938 212.80542Q427.59375 212.2273 428.89062 212.21167L429.17188 212.21167ZM427.51562 216.49292Q427.10938 216.49292 426.76562 216.71167Q426.4375 216.9148 426.28125 217.27417L426.28125 217.7898Q426.28125 218.63354 426.60938 219.11792Q426.95312 219.58667 427.5625 219.58667Q428.10938 219.58667 428.4375 219.1648Q428.78125 218.7273 428.78125 218.0398Q428.78125 217.33667 428.4375 216.9148Q428.09375 216.49292 427.51562 216.49292Z" fill-rule="nonzero"/><path fill="#ffffff" d="M421.6875 220.83667L420.0 220.83667L420.0 214.30542L417.98438 214.93042L417.98438 213.55542L421.51562 212.2898L421.6875 212.2898L421.6875 220.83667ZM429.17188 212.21167L429.17188 213.61792L429.01562 213.61792Q427.85938 213.63354 427.15625 214.21167Q426.46875 214.7898 426.32812 215.82104Q427.0 215.13354 428.03125 215.13354Q429.15625 215.13354 429.8125 215.93042Q430.46875 216.7273 430.46875 218.02417Q430.46875 218.8523 430.10938 219.52417Q429.75 220.19604 429.07812 220.58667Q428.42188 220.96167 427.59375 220.96167Q426.25 220.96167 425.42188 220.02417Q424.59375 219.07104 424.59375 217.50854L424.59375 216.89917Q424.59375 215.50854 425.10938 214.44604Q425.64062 213.38354 426.60938 212.80542Q427.59375 212.2273 428.89062 212.21167L429.17188 212.21167ZM427.51562 216.49292Q427.10938 216.49292 426.76562 216.71167Q426.4375 216.9148 426.28125 217.27417L426.28125 217.7898Q426.28125 218.63354 426.60938 219.11792Q426.95312 219.58667 427.5625 219.58667Q428.10938 219.58667 428.4375 219.1648Q428.78125 218.7273 428.78125 218.0398Q428.78125 217.33667 428.4375 216.9148Q428.09375 216.49292 427.51562 216.49292Z" fill-rule="nonzero"/><path stroke="#4285f4" stroke-width="3.0" stroke-linejoin="round" stroke-linecap="round" d="M513.2969 121.40771L514.2031 121.40771Q514.84375 121.40771 515.15625 121.09521Q515.46875 120.76708 515.46875 120.23583Q515.46875 119.72021 515.15625 119.43896Q514.8594 119.14208 514.3125 119.14208Q513.8281 119.14208 513.5 119.40771Q513.1719 119.67333 513.1719 120.09521L511.48438 120.09521Q511.48438 119.43896 511.84375 118.90771Q512.2031 118.37646 512.84375 118.07958Q513.5 117.76708 514.28125 117.76708Q515.625 117.76708 516.3906 118.42333Q517.1719 119.06396 517.1719 120.20458Q517.1719 120.79833 516.8125 121.29833Q516.4531 121.78271 515.875 122.03271Q516.59375 122.29833 516.9375 122.81396Q517.2969 123.32958 517.2969 124.03271Q517.2969 125.17333 516.46875 125.86083Q515.6406 126.54833 514.28125 126.54833Q513.0 126.54833 512.1875 125.87646Q511.375 125.18896 511.375 124.07958L513.0625 124.07958Q513.0625 124.56396 513.4219 124.87646Q513.7969 125.17333 514.3125 125.17333Q514.9219 125.17333 515.2656 124.86083Q515.6094 124.53271 515.6094 124.00146Q515.6094 122.73583 514.2031 122.73583L513.2969 122.73583L513.2969 121.40771ZM524.4219 126.42333L518.5781 126.42333L518.5781 125.26708L521.34375 122.31396Q521.90625 121.70458 522.1719 121.23583Q522.4531 120.76708 522.4531 120.36083Q522.4531 119.78271 522.15625 119.47021Q521.875 119.14208 521.34375 119.14208Q520.7656 119.14208 520.4375 119.53271Q520.1094 119.92333 520.1094 120.57958L518.40625 120.57958Q518.40625 119.79833 518.78125 119.15771Q519.15625 118.50146 519.8281 118.14208Q520.5156 117.76708 521.375 117.76708Q522.6875 117.76708 523.4219 118.40771Q524.15625 119.03271 524.15625 120.18896Q524.15625 120.82958 523.8281 121.48583Q523.5 122.14208 522.7031 123.01708L520.7656 125.06396L524.4219 125.06396L524.4219 126.42333Z" fill-rule="nonzero"/><path fill="#ffffff" d="M513.2969 121.40771L514.2031 121.40771Q514.84375 121.40771 515.15625 121.09521Q515.46875 120.76708 515.46875 120.23583Q515.46875 119.72021 515.15625 119.43896Q514.8594 119.14208 514.3125 119.14208Q513.8281 119.14208 513.5 119.40771Q513.1719 119.67333 513.1719 120.09521L511.48438 120.09521Q511.48438 119.43896 511.84375 118.90771Q512.2031 118.37646 512.84375 118.07958Q513.5 117.76708 514.28125 117.76708Q515.625 117.76708 516.3906 118.42333Q517.1719 119.06396 517.1719 120.20458Q517.1719 120.79833 516.8125 121.29833Q516.4531 121.78271 515.875 122.03271Q516.59375 122.29833 516.9375 122.81396Q517.2969 123.32958 517.2969 124.03271Q517.2969 125.17333 516.46875 125.86083Q515.6406 126.54833 514.28125 126.54833Q513.0 126.54833 512.1875 125.87646Q511.375 125.18896 511.375 124.07958L513.0625 124.07958Q513.0625 124.56396 513.4219 124.87646Q513.7969 125.17333 514.3125 125.17333Q514.9219 125.17333 515.2656 124.86083Q515.6094 124.53271 515.6094 124.00146Q515.6094 122.73583 514.2031 122.73583L513.2969 122.73583L513.2969 121.40771ZM524.4219 126.42333L518.5781 126.42333L518.5781 125.26708L521.34375 122.31396Q521.90625 121.70458 522.1719 121.23583Q522.4531 120.76708 522.4531 120.36083Q522.4531 119.78271 522.15625 119.47021Q521.875 119.14208 521.34375 119.14208Q520.7656 119.14208 520.4375 119.53271Q520.1094 119.92333 520.1094 120.57958L518.40625 120.57958Q518.40625 119.79833 518.78125 119.15771Q519.15625 118.50146 519.8281 118.14208Q520.5156 117.76708 521.375 117.76708Q522.6875 117.76708 523.4219 118.40771Q524.15625 119.03271 524.15625 120.18896Q524.15625 120.82958 523.8281 121.48583Q523.5 122.14208 522.7031 123.01708L520.7656 125.06396L524.4219 125.06396L524.4219 126.42333Z" fill-rule="nonzero"/><path fill="#424242" d="M267.39062 341.84064L264.64062 341.84064L264.64062 349.45L263.53125 349.45L263.53125 341.84064L260.78125 341.84064L260.78125 340.91876L267.39062 340.91876L267.39062 341.84064ZM270.95312 349.575Q269.65625 349.575 268.84375 348.73126Q268.04688 347.8719 268.04688 346.45L268.04688 346.2625Q268.04688 345.3094 268.40625 344.575Q268.76562 343.825 269.40625 343.41876Q270.0625 342.9969 270.8125 342.9969Q272.04688 342.9969 272.73438 343.8094Q273.42188 344.6219 273.42188 346.1375L273.42188 346.59064L269.125 346.59064Q269.15625 347.52814 269.67188 348.10626Q270.20312 348.6844 271.01562 348.6844Q271.57812 348.6844 271.96875 348.45Q272.375 348.21564 272.6875 347.825L273.34375 348.34064Q272.54688 349.575 270.95312 349.575ZM270.8125 343.8875Q270.15625 343.8875 269.70312 344.3719Q269.26562 344.84064 269.17188 345.7L272.34375 345.7L272.34375 345.6219Q272.29688 344.79376 271.89062 344.34064Q271.5 343.8875 270.8125 343.8875ZM275.34375 343.10626L275.375 343.8094Q276.0625 342.9969 277.25 342.9969Q278.57812 342.9969 279.0625 344.0125Q279.375 343.5594 279.875 343.27814Q280.39062 342.9969 281.07812 342.9969Q283.17188 342.9969 283.20312 345.2L283.20312 349.45L282.125 349.45L282.125 345.2625Q282.125 344.59064 281.8125 344.2625Q281.5 343.91876 280.76562 343.91876Q280.15625 343.91876 279.75 344.27814Q279.35938 344.6375 279.29688 345.2469L279.29688 349.45L278.21875 349.45L278.21875 345.29376Q278.21875 343.91876 276.85938 343.91876Q275.79688 343.91876 275.40625 344.825L275.40625 349.45L274.3125 349.45L274.3125 343.10626L275.34375 343.10626ZM290.67188 346.35626Q290.67188 347.79376 290.01562 348.6844Q289.35938 349.575 288.21875 349.575Q287.0625 349.575 286.40625 348.84064L286.40625 351.8875L285.32812 351.8875L285.32812 343.10626L286.3125 343.10626L286.35938 343.8094Q287.03125 342.9969 288.20312 342.9969Q289.34375 342.9969 290.0 343.85626Q290.67188 344.71564 290.67188 346.2469L290.67188 346.35626ZM289.59375 346.23126Q289.59375 345.15314 289.125 344.54376Q288.67188 343.91876 287.875 343.91876Q286.89062 343.91876 286.40625 344.77814L286.40625 347.8094Q286.89062 348.6844 287.89062 348.6844Q288.67188 348.6844 289.125 348.075Q289.59375 347.45 289.59375 346.23126ZM292.03125 346.21564Q292.03125 345.29376 292.39062 344.54376Q292.76562 343.79376 293.42188 343.40314Q294.07812 342.9969 294.90625 342.9969Q296.20312 342.9969 297.0 343.8875Q297.8125 344.77814 297.8125 346.27814L297.8125 346.35626Q297.8125 347.27814 297.45312 348.0125Q297.09375 348.7469 296.4375 349.16876Q295.78125 349.575 294.92188 349.575Q293.64062 349.575 292.82812 348.6844Q292.03125 347.77814 292.03125 346.29376L292.03125 346.21564ZM293.125 346.35626Q293.125 347.40314 293.60938 348.04376Q294.10938 348.6844 294.92188 348.6844Q295.75 348.6844 296.23438 348.04376Q296.71875 347.3875 296.71875 346.21564Q296.71875 345.1844 296.21875 344.54376Q295.73438 343.8875 294.90625 343.8875Q294.10938 343.8875 293.60938 344.52814Q293.125 345.15314 293.125 346.35626ZM302.28125 345.98126Q302.28125 344.66876 302.625 343.45Q302.98438 342.23126 303.6875 341.23126Q304.39062 340.23126 305.15625 339.825L305.375 340.54376Q304.51562 341.2 303.96875 342.54376Q303.42188 343.8875 303.375 345.5594L303.35938 346.0594Q303.35938 348.325 304.1875 349.98126Q304.6875 350.98126 305.375 351.54376L305.15625 352.2Q304.375 351.77814 303.65625 350.7469Q302.28125 348.7625 302.28125 345.98126ZM307.34375 343.10626L307.375 343.8094Q308.0625 342.9969 309.25 342.9969Q310.57812 342.9969 311.0625 344.0125Q311.375 343.5594 311.875 343.27814Q312.39062 342.9969 313.07812 342.9969Q315.17188 342.9969 315.20312 345.2L315.20312 349.45L314.125 349.45L314.125 345.2625Q314.125 344.59064 313.8125 344.2625Q313.5 343.91876 312.76562 343.91876Q312.15625 343.91876 311.75 344.27814Q311.35938 344.6375 311.29688 345.2469L311.29688 349.45L310.21875 349.45L310.21875 345.29376Q310.21875 343.91876 308.85938 343.91876Q307.79688 343.91876 307.40625 344.825L307.40625 349.45L306.3125 349.45L306.3125 343.10626L307.34375 343.10626ZM318.5 349.45L317.42188 349.45L317.42188 343.10626L318.5 343.10626L318.5 349.45ZM317.32812 341.4344Q317.32812 341.16876 317.48438 340.98126Q317.65625 340.79376 317.96875 340.79376Q318.28125 340.79376 318.4375 340.98126Q318.60938 341.16876 318.60938 341.4344Q318.60938 341.6844 318.4375 341.8719Q318.28125 342.04376 317.96875 342.04376Q317.65625 342.04376 317.48438 341.8719Q317.32812 341.6844 317.32812 341.4344ZM322.85938 348.6844Q323.4375 348.6844 323.875 348.34064Q324.3125 347.98126 324.35938 347.45L325.39062 347.45Q325.35938 347.9969 325.0 348.4969Q324.65625 348.98126 324.07812 349.27814Q323.51562 349.575 322.85938 349.575Q321.5625 349.575 320.79688 348.71564Q320.04688 347.84064 320.04688 346.34064L320.04688 346.15314Q320.04688 345.23126 320.375 344.5125Q320.71875 343.79376 321.34375 343.40314Q321.98438 342.9969 322.85938 342.9969Q323.92188 342.9969 324.625 343.6375Q325.34375 344.2625 325.39062 345.29376L324.35938 345.29376Q324.3125 344.66876 323.89062 344.27814Q323.46875 343.8875 322.85938 343.8875Q322.03125 343.8875 321.57812 344.48126Q321.125 345.075 321.125 346.2L321.125 346.40314Q321.125 347.4969 321.57812 348.09064Q322.03125 348.6844 322.85938 348.6844ZM329.39062 344.075Q329.14062 344.04376 328.85938 344.04376Q327.78125 344.04376 327.40625 344.95L327.40625 349.45L326.32812 349.45L326.32812 343.10626L327.375 343.10626L327.39062 343.84064Q327.92188 342.9969 328.90625 342.9969Q329.21875 342.9969 329.39062 343.075L329.39062 344.075ZM330.03125 346.21564Q330.03125 345.29376 330.39062 344.54376Q330.76562 343.79376 331.42188 343.40314Q332.07812 342.9969 332.90625 342.9969Q334.20312 342.9969 335.0 343.8875Q335.8125 344.77814 335.8125 346.27814L335.8125 346.35626Q335.8125 347.27814 335.45312 348.0125Q335.09375 348.7469 334.4375 349.16876Q333.78125 349.575 332.92188 349.575Q331.64062 349.575 330.82812 348.6844Q330.03125 347.77814 330.03125 346.29376L330.03125 346.21564ZM331.125 346.35626Q331.125 347.40314 331.60938 348.04376Q332.10938 348.6844 332.92188 348.6844Q333.75 348.6844 334.23438 348.04376Q334.71875 347.3875 334.71875 346.21564Q334.71875 345.1844 334.21875 344.54376Q333.73438 343.8875 332.90625 343.8875Q332.10938 343.8875 331.60938 344.52814Q331.125 345.15314 331.125 346.35626ZM341.01562 347.7625Q341.01562 347.325 340.67188 347.09064Q340.34375 346.84064 339.51562 346.66876Q338.70312 346.4969 338.21875 346.2469Q337.73438 345.9969 337.5 345.66876Q337.28125 345.325 337.28125 344.85626Q337.28125 344.075 337.9375 343.54376Q338.59375 342.9969 339.625 342.9969Q340.70312 342.9969 341.35938 343.5594Q342.03125 344.10626 342.03125 344.96564L340.95312 344.96564Q340.95312 344.52814 340.5625 344.21564Q340.1875 343.8875 339.625 343.8875Q339.03125 343.8875 338.6875 344.15314Q338.35938 344.40314 338.35938 344.8094Q338.35938 345.2 338.67188 345.40314Q338.98438 345.60626 339.79688 345.79376Q340.60938 345.96564 341.10938 346.21564Q341.60938 346.46564 341.84375 346.825Q342.09375 347.1844 342.09375 347.6844Q342.09375 348.54376 341.40625 349.0594Q340.73438 349.575 339.65625 349.575Q338.89062 349.575 338.29688 349.3094Q337.71875 349.02814 337.39062 348.54376Q337.0625 348.0594 337.0625 347.4969L338.14062 347.4969Q338.17188 348.04376 338.57812 348.3719Q338.98438 348.6844 339.65625 348.6844Q340.26562 348.6844 340.64062 348.4344Q341.01562 348.1844 341.01562 347.7625ZM347.01562 347.7625Q347.01562 347.325 346.67188 347.09064Q346.34375 346.84064 345.51562 346.66876Q344.70312 346.4969 344.21875 346.2469Q343.73438 345.9969 343.5 345.66876Q343.28125 345.325 343.28125 344.85626Q343.28125 344.075 343.9375 343.54376Q344.59375 342.9969 345.625 342.9969Q346.70312 342.9969 347.35938 343.5594Q348.03125 344.10626 348.03125 344.96564L346.95312 344.96564Q346.95312 344.52814 346.5625 344.21564Q346.1875 343.8875 345.625 343.8875Q345.03125 343.8875 344.6875 344.15314Q344.35938 344.40314 344.35938 344.8094Q344.35938 345.2 344.67188 345.40314Q344.98438 345.60626 345.79688 345.79376Q346.60938 345.96564 347.10938 346.21564Q347.60938 346.46564 347.84375 346.825Q348.09375 347.1844 348.09375 347.6844Q348.09375 348.54376 347.40625 349.0594Q346.73438 349.575 345.65625 349.575Q344.89062 349.575 344.29688 349.3094Q343.71875 349.02814 343.39062 348.54376Q343.0625 348.0594 343.0625 347.4969L344.14062 347.4969Q344.17188 348.04376 344.57812 348.3719Q344.98438 348.6844 345.65625 348.6844Q346.26562 348.6844 346.64062 348.4344Q347.01562 348.1844 347.01562 347.7625ZM351.95312 349.575Q350.65625 349.575 349.84375 348.73126Q349.04688 347.8719 349.04688 346.45L349.04688 346.2625Q349.04688 345.3094 349.40625 344.575Q349.76562 343.825 350.40625 343.41876Q351.0625 342.9969 351.8125 342.9969Q353.04688 342.9969 353.73438 343.8094Q354.42188 344.6219 354.42188 346.1375L354.42188 346.59064L350.125 346.59064Q350.15625 347.52814 350.67188 348.10626Q351.20312 348.6844 352.01562 348.6844Q352.57812 348.6844 352.96875 348.45Q353.375 348.21564 353.6875 347.825L354.34375 348.34064Q353.54688 349.575 351.95312 349.575ZM351.8125 343.8875Q351.15625 343.8875 350.70312 344.3719Q350.26562 344.84064 350.17188 345.7L353.34375 345.7L353.34375 345.6219Q353.29688 344.79376 352.89062 344.34064Q352.5 343.8875 351.8125 343.8875ZM355.0625 346.23126Q355.0625 344.7469 355.75 343.8719Q356.4375 342.9969 357.5625 342.9969Q358.71875 342.9969 359.375 343.8094L359.42188 343.10626L360.42188 343.10626L360.42188 349.29376Q360.42188 350.52814 359.6875 351.23126Q358.95312 351.95 357.73438 351.95Q357.04688 351.95 356.39062 351.65314Q355.73438 351.35626 355.39062 350.85626L355.95312 350.2Q356.64062 351.0594 357.65625 351.0594Q358.4375 351.0594 358.875 350.60626Q359.32812 350.16876 359.32812 349.35626L359.32812 348.8094Q358.67188 349.575 357.54688 349.575Q356.4375 349.575 355.75 348.6844Q355.0625 347.77814 355.0625 346.23126ZM356.15625 346.35626Q356.15625 347.41876 356.59375 348.04376Q357.03125 348.65314 357.82812 348.65314Q358.84375 348.65314 359.32812 347.71564L359.32812 344.825Q358.82812 343.91876 357.82812 343.91876Q357.04688 343.91876 356.59375 344.52814Q356.15625 345.1375 356.15625 346.35626ZM366.23438 348.825Q365.60938 349.575 364.375 349.575Q363.35938 349.575 362.82812 348.98126Q362.29688 348.3875 362.29688 347.23126L362.29688 343.10626L363.375 343.10626L363.375 347.2Q363.375 348.65314 364.54688 348.65314Q365.79688 348.65314 366.20312 347.71564L366.20312 343.10626L367.29688 343.10626L367.29688 349.45L366.26562 349.45L366.23438 348.825ZM370.34375 343.10626L370.375 343.90314Q371.10938 342.9969 372.28125 342.9969Q374.29688 342.9969 374.3125 345.2625L374.3125 349.45L373.21875 349.45L373.21875 345.2469Q373.21875 344.575 372.90625 344.2469Q372.60938 343.91876 371.95312 343.91876Q371.42188 343.91876 371.01562 344.2Q370.625 344.48126 370.40625 344.9344L370.40625 349.45L369.32812 349.45L369.32812 343.10626L370.34375 343.10626ZM376.0625 346.23126Q376.0625 344.7625 376.75 343.8875Q377.4375 342.9969 378.5625 342.9969Q379.67188 342.9969 380.32812 343.7469L380.32812 340.45L381.40625 340.45L381.40625 349.45L380.40625 349.45L380.35938 348.7625Q379.70312 349.575 378.54688 349.575Q377.45312 349.575 376.75 348.66876Q376.0625 347.7625 376.0625 346.3094L376.0625 346.23126ZM377.14062 346.35626Q377.14062 347.4344 377.57812 348.04376Q378.03125 348.65314 378.8125 348.65314Q379.84375 348.65314 380.32812 347.71564L380.32812 344.8094Q379.84375 343.91876 378.82812 343.91876Q378.03125 343.91876 377.57812 344.52814Q377.14062 345.1375 377.14062 346.35626ZM383.03125 346.21564Q383.03125 345.29376 383.39062 344.54376Q383.76562 343.79376 384.42188 343.40314Q385.07812 342.9969 385.90625 342.9969Q387.20312 342.9969 388.0 343.8875Q388.8125 344.77814 388.8125 346.27814L388.8125 346.35626Q388.8125 347.27814 388.45312 348.0125Q388.09375 348.7469 387.4375 349.16876Q386.78125 349.575 385.92188 349.575Q384.64062 349.575 383.82812 348.6844Q383.03125 347.77814 383.03125 346.29376L383.03125 346.21564ZM384.125 346.35626Q384.125 347.40314 384.60938 348.04376Q385.10938 348.6844 385.92188 348.6844Q386.75 348.6844 387.23438 348.04376Q387.71875 347.3875 387.71875 346.21564Q387.71875 345.1844 387.21875 344.54376Q386.73438 343.8875 385.90625 343.8875Q385.10938 343.8875 384.60938 344.52814Q384.125 345.15314 384.125 346.35626ZM394.01562 347.7625Q394.01562 347.325 393.67188 347.09064Q393.34375 346.84064 392.51562 346.66876Q391.70312 346.4969 391.21875 346.2469Q390.73438 345.9969 390.5 345.66876Q390.28125 345.325 390.28125 344.85626Q390.28125 344.075 390.9375 343.54376Q391.59375 342.9969 392.625 342.9969Q393.70312 342.9969 394.35938 343.5594Q395.03125 344.10626 395.03125 344.96564L393.95312 344.96564Q393.95312 344.52814 393.5625 344.21564Q393.1875 343.8875 392.625 343.8875Q392.03125 343.8875 391.6875 344.15314Q391.35938 344.40314 391.35938 344.8094Q391.35938 345.2 391.67188 345.40314Q391.98438 345.60626 392.79688 345.79376Q393.60938 345.96564 394.10938 346.21564Q394.60938 346.46564 394.84375 346.825Q395.09375 347.1844 395.09375 347.6844Q395.09375 348.54376 394.40625 349.0594Q393.73438 349.575 392.65625 349.575Q391.89062 349.575 391.29688 349.3094Q390.71875 349.02814 390.39062 348.54376Q390.0625 348.0594 390.0625 347.4969L391.14062 347.4969Q391.17188 348.04376 391.57812 348.3719Q391.98438 348.6844 392.65625 348.6844Q393.26562 348.6844 393.64062 348.4344Q394.01562 348.1844 394.01562 347.7625ZM398.82812 346.04376Q398.82812 347.35626 398.48438 348.5594Q398.14062 349.7469 397.42188 350.7625Q396.71875 351.77814 395.95312 352.2L395.71875 351.54376Q396.625 350.85626 397.17188 349.40314Q397.71875 347.9344 397.73438 346.16876L397.73438 345.98126Q397.73438 344.7469 397.46875 343.6844Q397.21875 342.6219 396.75 341.79376Q396.29688 340.95 395.71875 340.48126L395.95312 339.825Q396.71875 340.2469 397.42188 341.2469Q398.125 342.2469 398.46875 343.46564Q398.82812 344.66876 398.82812 346.04376Z" fill-rule="nonzero"/><path fill="#424242" d="M27.206263 213.07396L30.550013 213.07396L30.550013 214.19896L22.018763 214.19896L22.018763 211.04271Q22.018763 209.65208 22.737513 208.85521Q23.440638 208.05833 24.628138 208.05833Q25.862513 208.05833 26.534388 208.83958Q27.206263 209.60521 27.206263 211.05833L27.206263 213.07396ZM26.284388 213.07396L26.284388 211.04271Q26.284388 210.13646 25.862513 209.66771Q25.440638 209.18333 24.643763 209.18333Q23.878138 209.18333 23.425013 209.66771Q22.956263 210.13646 22.940638 210.98021L22.940638 213.07396L26.284388 213.07396ZM25.175013 203.29271Q25.143763 203.54271 25.143763 203.82396Q25.143763 204.90208 26.050013 205.27708L30.550013 205.27708L30.550013 206.35521L24.206263 206.35521L24.206263 205.30833L24.940638 205.29271Q24.096888 204.76146 24.096888 203.77708Q24.096888 203.46458 24.175013 203.29271L25.175013 203.29271ZM27.315638 202.65208Q26.393763 202.65208 25.643763 202.29271Q24.893763 201.91771 24.503138 201.26146Q24.096888 200.60521 24.096888 199.77708Q24.096888 198.48021 24.987513 197.68333Q25.878138 196.87083 27.378138 196.87083L27.456263 196.87083Q28.378138 196.87083 29.112513 197.23021Q29.846888 197.58958 30.268763 198.24583Q30.675013 198.90208 30.675013 199.76146Q30.675013 201.04271 29.784388 201.85521Q28.878138 202.65208 27.393763 202.65208L27.315638 202.65208ZM27.456263 201.55833Q28.503138 201.55833 29.143763 201.07396Q29.784388 200.57396 29.784388 199.76146Q29.784388 198.93333 29.143763 198.44896Q28.487513 197.96458 27.315638 197.96458Q26.284388 197.96458 25.643763 198.46458Q24.987513 198.94896 24.987513 199.77708Q24.987513 200.57396 25.628138 201.07396Q26.253138 201.55833 27.456263 201.55833ZM29.784388 192.82396Q29.784388 192.24583 29.440638 191.80833Q29.081263 191.37083 28.550013 191.32396L28.550013 190.29271Q29.096888 190.32396 29.596888 190.68333Q30.081263 191.02708 30.378138 191.60521Q30.675013 192.16771 30.675013 192.82396Q30.675013 194.12083 29.815638 194.88646Q28.940638 195.63646 27.440638 195.63646L27.253138 195.63646Q26.331263 195.63646 25.612513 195.30833Q24.893763 194.96458 24.503138 194.33958Q24.096888 193.69896 24.096888 192.82396Q24.096888 191.76146 24.737513 191.05833Q25.362513 190.33958 26.393763 190.29271L26.393763 191.32396Q25.768763 191.37083 25.378138 191.79271Q24.987513 192.21458 24.987513 192.82396Q24.987513 193.65208 25.581263 194.10521Q26.175013 194.55833 27.300013 194.55833L27.503138 194.55833Q28.596888 194.55833 29.190638 194.10521Q29.784388 193.65208 29.784388 192.82396ZM30.675013 186.73021Q30.675013 188.02708 29.831263 188.83958Q28.971888 189.63646 27.550013 189.63646L27.362513 189.63646Q26.409388 189.63646 25.675013 189.27708Q24.925013 188.91771 24.518763 188.27708Q24.096888 187.62083 24.096888 186.87083Q24.096888 185.63646 24.909388 184.94896Q25.721888 184.26146 27.237513 184.26146L27.690638 184.26146L27.690638 188.55833Q28.628138 188.52708 29.206263 188.01146Q29.784388 187.48021 29.784388 186.66771Q29.784388 186.10521 29.550013 185.71458Q29.315638 185.30833 28.925013 184.99583L29.440638 184.33958Q30.675013 185.13646 30.675013 186.73021ZM24.987513 186.87083Q24.987513 187.52708 25.471888 187.98021Q25.940638 188.41771 26.800013 188.51146L26.800013 185.33958L26.721888 185.33958Q25.893763 185.38646 25.440638 185.79271Q24.987513 186.18333 24.987513 186.87083ZM28.862513 179.66771Q28.425013 179.66771 28.190638 180.01146Q27.940638 180.33958 27.768763 181.16771Q27.596888 181.98021 27.346888 182.46458Q27.096888 182.94896 26.768763 183.18333Q26.425013 183.40208 25.956263 183.40208Q25.175013 183.40208 24.643763 182.74583Q24.096888 182.08958 24.096888 181.05833Q24.096888 179.98021 24.659388 179.32396Q25.206263 178.65208 26.065638 178.65208L26.065638 179.73021Q25.628138 179.73021 25.315638 180.12083Q24.987513 180.49583 24.987513 181.05833Q24.987513 181.65208 25.253138 181.99583Q25.503138 182.32396 25.909388 182.32396Q26.300013 182.32396 26.503138 182.01146Q26.706263 181.69896 26.893763 180.88646Q27.065638 180.07396 27.315638 179.57396Q27.565638 179.07396 27.925013 178.83958Q28.284388 178.58958 28.784388 178.58958Q29.643763 178.58958 30.159388 179.27708Q30.675013 179.94896 30.675013 181.02708Q30.675013 181.79271 30.409388 182.38646Q30.128138 182.96458 29.643763 183.29271Q29.159388 183.62083 28.596888 183.62083L28.596888 182.54271Q29.143763 182.51146 29.471888 182.10521Q29.784388 181.69896 29.784388 181.02708Q29.784388 180.41771 29.534388 180.04271Q29.284388 179.66771 28.862513 179.66771ZM28.862513 173.66771Q28.425013 173.66771 28.190638 174.01146Q27.940638 174.33958 27.768763 175.16771Q27.596888 175.98021 27.346888 176.46458Q27.096888 176.94896 26.768763 177.18333Q26.425013 177.40208 25.956263 177.40208Q25.175013 177.40208 24.643763 176.74583Q24.096888 176.08958 24.096888 175.05833Q24.096888 173.98021 24.659388 173.32396Q25.206263 172.65208 26.065638 172.65208L26.065638 173.73021Q25.628138 173.73021 25.315638 174.12083Q24.987513 174.49583 24.987513 175.05833Q24.987513 175.65208 25.253138 175.99583Q25.503138 176.32396 25.909388 176.32396Q26.300013 176.32396 26.503138 176.01146Q26.706263 175.69896 26.893763 174.88646Q27.065638 174.07396 27.315638 173.57396Q27.565638 173.07396 27.925013 172.83958Q28.284388 172.58958 28.784388 172.58958Q29.643763 172.58958 30.159388 173.27708Q30.675013 173.94896 30.675013 175.02708Q30.675013 175.79271 30.409388 176.38646Q30.128138 176.96458 29.643763 177.29271Q29.159388 177.62083 28.596888 177.62083L28.596888 176.54271Q29.143763 176.51146 29.471888 176.10521Q29.784388 175.69896 29.784388 175.02708Q29.784388 174.41771 29.534388 174.04271Q29.284388 173.66771 28.862513 173.66771ZM27.315638 171.65208Q26.393763 171.65208 25.643763 171.29271Q24.893763 170.91771 24.503138 170.26146Q24.096888 169.60521 24.096888 168.77708Q24.096888 167.48021 24.987513 166.68333Q25.878138 165.87083 27.378138 165.87083L27.456263 165.87083Q28.378138 165.87083 29.112513 166.23021Q29.846888 166.58958 30.268763 167.24583Q30.675013 167.90208 30.675013 168.76146Q30.675013 170.04271 29.784388 170.85521Q28.878138 171.65208 27.393763 171.65208L27.315638 171.65208ZM27.456263 170.55833Q28.503138 170.55833 29.143763 170.07396Q29.784388 169.57396 29.784388 168.76146Q29.784388 167.93333 29.143763 167.44896Q28.487513 166.96458 27.315638 166.96458Q26.284388 166.96458 25.643763 167.46458Q24.987513 167.94896 24.987513 168.77708Q24.987513 169.57396 25.628138 170.07396Q26.253138 170.55833 27.456263 170.55833ZM28.862513 160.66771Q28.425013 160.66771 28.190638 161.01146Q27.940638 161.33958 27.768763 162.16771Q27.596888 162.98021 27.346888 163.46458Q27.096888 163.94896 26.768763 164.18333Q26.425013 164.40208 25.956263 164.40208Q25.175013 164.40208 24.643763 163.74583Q24.096888 163.08958 24.096888 162.05833Q24.096888 160.98021 24.659388 160.32396Q25.206263 159.65208 26.065638 159.65208L26.065638 160.73021Q25.628138 160.73021 25.315638 161.12083Q24.987513 161.49583 24.987513 162.05833Q24.987513 162.65208 25.253138 162.99583Q25.503138 163.32396 25.909388 163.32396Q26.300013 163.32396 26.503138 163.01146Q26.706263 162.69896 26.893763 161.88646Q27.065638 161.07396 27.315638 160.57396Q27.565638 160.07396 27.925013 159.83958Q28.284388 159.58958 28.784388 159.58958Q29.643763 159.58958 30.159388 160.27708Q30.675013 160.94896 30.675013 162.02708Q30.675013 162.79271 30.409388 163.38646Q30.128138 163.96458 29.643763 164.29271Q29.159388 164.62083 28.596888 164.62083L28.596888 163.54271Q29.143763 163.51146 29.471888 163.10521Q29.784388 162.69896 29.784388 162.02708Q29.784388 161.41771 29.534388 161.04271Q29.284388 160.66771 28.862513 160.66771Z" fill-rule="nonzero"/><path fill="#757575" d="M71.6125 299.3094Q71.6125 301.21564 70.95625 302.15314Q70.31563 303.075 68.925 303.075Q67.56563 303.075 66.90938 302.16876Q66.25313 301.2625 66.22188 299.45L66.22188 298.0125Q66.22188 296.1219 66.8625 295.21564Q67.51875 294.29376 68.90938 294.29376Q70.28438 294.29376 70.94063 295.1844Q71.59688 296.0594 71.6125 297.90314L71.6125 299.3094ZM70.51875 297.825Q70.51875 296.45 70.12813 295.825Q69.75313 295.1844 68.90938 295.1844Q68.08125 295.1844 67.69063 295.825Q67.31563 296.45 67.31563 297.7469L67.31563 299.48126Q67.31563 300.85626 67.70625 301.52814Q68.1125 302.1844 68.925 302.1844Q69.72188 302.1844 70.1125 301.5594Q70.50313 300.9344 70.51875 299.60626L70.51875 297.825Z" fill-rule="nonzero"/><path fill="#757575" d="M62.815624 243.94167L61.7375 243.94167L61.7375 236.72292L59.55 237.51979L59.55 236.53542L62.659374 235.36354L62.815624 235.36354L62.815624 243.94167ZM71.6125 240.30104Q71.6125 242.20729 70.95625 243.14479Q70.31563 244.06667 68.925 244.06667Q67.56563 244.06667 66.90938 243.16042Q66.25313 242.25417 66.22188 240.44167L66.22188 239.00417Q66.22188 237.11354 66.8625 236.20729Q67.51875 235.28542 68.90938 235.28542Q70.28438 235.28542 70.94063 236.17604Q71.59688 237.05104 71.6125 238.89479L71.6125 240.30104ZM70.51875 238.81667Q70.51875 237.44167 70.12813 236.81667Q69.75313 236.17604 68.90938 236.17604Q68.08125 236.17604 67.69063 236.81667Q67.31563 237.44167 67.31563 238.73854L67.31563 240.47292Q67.31563 241.84792 67.70625 242.51979Q68.1125 243.17604 68.925 243.17604Q69.72188 243.17604 70.1125 242.55104Q70.50313 241.92604 70.51875 240.59792L70.51875 238.81667Z" fill-rule="nonzero"/><path fill="#757575" d="M64.84688 184.93333L59.253124 184.93333L59.253124 184.15208L62.20625 180.87083Q62.8625 180.12083 63.1125 179.66771Q63.3625 179.19896 63.3625 178.69896Q63.3625 178.02708 62.95625 177.60521Q62.565624 177.16771 61.878124 177.16771Q61.08125 177.16771 60.628124 177.63646Q60.175 178.08958 60.175 178.91771L59.096874 178.91771Q59.096874 177.73021 59.846874 177.01146Q60.6125 176.27708 61.878124 176.27708Q63.08125 176.27708 63.76875 176.90208Q64.45625 177.52708 64.45625 178.57396Q64.45625 179.82396 62.846874 181.57396L60.565624 184.04271L64.84688 184.04271L64.84688 184.93333ZM71.6125 181.29271Q71.6125 183.19896 70.95625 184.13646Q70.31563 185.05833 68.925 185.05833Q67.56563 185.05833 66.90938 184.15208Q66.25313 183.24583 66.22188 181.43333L66.22188 179.99583Q66.22188 178.10521 66.8625 177.19896Q67.51875 176.27708 68.90938 176.27708Q70.28438 176.27708 70.94063 177.16771Q71.59688 178.04271 71.6125 179.88646L71.6125 181.29271ZM70.51875 179.80833Q70.51875 178.43333 70.12813 177.80833Q69.75313 177.16771 68.90938 177.16771Q68.08125 177.16771 67.69063 177.80833Q67.31563 178.43333 67.31563 179.73021L67.31563 181.46458Q67.31563 182.83958 67.70625 183.51146Q68.1125 184.16771 68.925 184.16771Q69.72188 184.16771 70.1125 183.54271Q70.50313 182.91771 70.51875 181.58958L70.51875 179.80833Z" fill-rule="nonzero"/><path fill="#757575" d="M60.83125 121.12813L61.64375 121.12813Q62.425 121.1125 62.8625 120.72188Q63.3 120.33125 63.3 119.65938Q63.3 118.15938 61.8 118.15938Q61.096874 118.15938 60.675 118.56563Q60.26875 118.97188 60.26875 119.62813L59.175 119.62813Q59.175 118.6125 59.909374 117.94063Q60.659374 117.26875 61.8 117.26875Q63.003124 117.26875 63.690624 117.90938Q64.37813 118.55 64.37813 119.69063Q64.37813 120.25313 64.01875 120.76875Q63.659374 121.28438 63.034374 121.55Q63.7375 121.76875 64.1125 122.28438Q64.50313 122.8 64.50313 123.55Q64.50313 124.69063 63.753124 125.37813Q63.003124 126.05 61.8 126.05Q60.6125 126.05 59.846874 125.39375Q59.096874 124.7375 59.096874 123.675L60.190624 123.675Q60.190624 124.34688 60.628124 124.75313Q61.065624 125.15938 61.815624 125.15938Q62.596874 125.15938 63.003124 124.75313Q63.425 124.33125 63.425 123.56563Q63.425 122.83125 62.971874 122.44063Q62.51875 122.03438 61.64375 122.01875L60.83125 122.01875L60.83125 121.12813ZM71.6125 122.28438Q71.6125 124.19063 70.95625 125.12813Q70.31563 126.05 68.925 126.05Q67.56563 126.05 66.90938 125.14375Q66.25313 124.2375 66.22188 122.425L66.22188 120.9875Q66.22188 119.09688 66.8625 118.19063Q67.51875 117.26875 68.90938 117.26875Q70.28438 117.26875 70.94063 118.15938Q71.59688 119.03438 71.6125 120.87813L71.6125 122.28438ZM70.51875 120.8Q70.51875 119.425 70.12813 118.8Q69.75313 118.15938 68.90938 118.15938Q68.08125 118.15938 67.69063 118.8Q67.31563 119.425 67.31563 120.72188L67.31563 122.45625Q67.31563 123.83125 67.70625 124.50313Q68.1125 125.15938 68.925 125.15938Q69.72188 125.15938 70.1125 124.53438Q70.50313 123.90938 70.51875 122.58125L70.51875 120.8Z" fill-rule="nonzero"/><path fill="#757575" d="M63.83125 64.05729L65.01875 64.05729L65.01875 64.93229L63.83125 64.93229L63.83125 66.916664L62.753124 66.916664L62.753124 64.93229L58.8625 64.93229L58.8625 64.291664L62.675 58.385414L63.83125 58.385414L63.83125 64.05729ZM60.096874 64.05729L62.753124 64.05729L62.753124 59.86979L62.6125 60.104164L60.096874 64.05729ZM71.6125 63.27604Q71.6125 65.18229 70.95625 66.11979Q70.31563 67.041664 68.925 67.041664Q67.56563 67.041664 66.90938 66.135414Q66.25313 65.229164 66.22188 63.416664L66.22188 61.979164Q66.22188 60.08854 66.8625 59.18229Q67.51875 58.260414 68.90938 58.260414Q70.28438 58.260414 70.94063 59.15104Q71.59688 60.02604 71.6125 61.86979L71.6125 63.27604ZM70.51875 61.791664Q70.51875 60.416664 70.12813 59.791664Q69.75313 59.15104 68.90938 59.15104Q68.08125 59.15104 67.69063 59.791664Q67.31563 60.416664 67.31563 61.71354L67.31563 63.447914Q67.31563 64.822914 67.70625 65.49479Q68.1125 66.15104 68.925 66.15104Q69.72188 66.15104 70.1125 65.52604Q70.50313 64.90104 70.51875 63.572914L70.51875 61.791664Z" fill-rule="nonzero"/><path fill="#757575" d="M118.265625 316.45L117.1875 316.45L117.1875 309.23126L115.0 310.02814L115.0 309.04376L118.109375 307.8719L118.265625 307.8719L118.265625 316.45ZM125.265625 316.45L124.1875 316.45L124.1875 309.23126L122.0 310.02814L122.0 309.04376L125.109375 307.8719L125.265625 307.8719L125.265625 316.45ZM133.89062 310.1375Q133.89062 310.77814 133.54688 311.27814Q133.20312 311.77814 132.64062 312.0594Q133.29688 312.34064 133.6875 312.90314Q134.07812 313.45 134.07812 314.15314Q134.07812 315.2469 133.32812 315.91876Q132.59375 316.575 131.375 316.575Q130.14062 316.575 129.39062 315.91876Q128.65625 315.2469 128.65625 314.15314Q128.65625 313.45 129.03125 312.90314Q129.40625 312.34064 130.07812 312.0594Q129.51562 311.77814 129.1875 311.27814Q128.85938 310.77814 128.85938 310.1375Q128.85938 309.0594 129.54688 308.4344Q130.23438 307.79376 131.375 307.79376Q132.5 307.79376 133.1875 308.4344Q133.89062 309.0594 133.89062 310.1375ZM133.0 314.1219Q133.0 313.40314 132.54688 312.96564Q132.09375 312.5125 131.35938 312.5125Q130.625 312.5125 130.17188 312.96564Q129.73438 313.40314 129.73438 314.1375Q129.73438 314.85626 130.17188 315.27814Q130.60938 315.6844 131.375 315.6844Q132.125 315.6844 132.5625 315.2625Q133.0 314.84064 133.0 314.1219ZM131.375 308.6844Q130.73438 308.6844 130.32812 309.09064Q129.9375 309.48126 129.9375 310.16876Q129.9375 310.8094 130.32812 311.21564Q130.71875 311.6219 131.35938 311.6219Q132.01562 311.6219 132.40625 311.21564Q132.79688 310.8094 132.79688 310.16876Q132.79688 309.5125 132.39062 309.10626Q131.98438 308.6844 131.375 308.6844ZM136.20312 312.16876L136.64062 307.91876L141.01562 307.91876L141.01562 308.91876L137.5625 308.91876L137.29688 311.2469Q137.9375 310.8719 138.73438 310.8719Q139.89062 310.8719 140.57812 311.65314Q141.26562 312.41876 141.26562 313.73126Q141.26562 315.04376 140.54688 315.8094Q139.84375 316.575 138.5625 316.575Q137.4375 316.575 136.71875 315.95Q136.0 315.3094 135.90625 314.2L136.92188 314.2Q137.03125 314.9344 137.45312 315.3094Q137.875 315.6844 138.5625 315.6844Q139.3125 315.6844 139.75 315.16876Q140.1875 314.65314 140.1875 313.7469Q140.1875 312.8875 139.71875 312.3719Q139.25 311.85626 138.46875 311.85626Q137.76562 311.85626 137.35938 312.15314L137.07812 312.3875L136.20312 312.16876ZM149.73438 315.825Q149.10938 316.575 147.875 316.575Q146.85938 316.575 146.32812 315.98126Q145.79688 315.3875 145.79688 314.23126L145.79688 310.10626L146.875 310.10626L146.875 314.2Q146.875 315.65314 148.04688 315.65314Q149.29688 315.65314 149.70312 314.71564L149.70312 310.10626L150.79688 310.10626L150.79688 316.45L149.76562 316.45L149.73438 315.825ZM156.51562 314.7625Q156.51562 314.325 156.17188 314.09064Q155.84375 313.84064 155.01562 313.66876Q154.20312 313.4969 153.71875 313.2469Q153.23438 312.9969 153.0 312.66876Q152.78125 312.325 152.78125 311.85626Q152.78125 311.075 153.4375 310.54376Q154.09375 309.9969 155.125 309.9969Q156.20312 309.9969 156.85938 310.5594Q157.53125 311.10626 157.53125 311.96564L156.45312 311.96564Q156.45312 311.52814 156.0625 311.21564Q155.6875 310.8875 155.125 310.8875Q154.53125 310.8875 154.1875 311.15314Q153.85938 311.40314 153.85938 311.8094Q153.85938 312.2 154.17188 312.40314Q154.48438 312.60626 155.29688 312.79376Q156.10938 312.96564 156.60938 313.21564Q157.10938 313.46564 157.34375 313.825Q157.59375 314.1844 157.59375 314.6844Q157.59375 315.54376 156.90625 316.0594Q156.23438 316.575 155.15625 316.575Q154.39062 316.575 153.79688 316.3094Q153.21875 316.02814 152.89062 315.54376Q152.5625 315.0594 152.5625 314.4969L153.64062 314.4969Q153.67188 315.04376 154.07812 315.3719Q154.48438 315.6844 155.15625 315.6844Q155.76562 315.6844 156.14062 315.4344Q156.51562 315.1844 156.51562 314.7625ZM161.45312 316.575Q160.15625 316.575 159.34375 315.73126Q158.54688 314.8719 158.54688 313.45L158.54688 313.2625Q158.54688 312.3094 158.90625 311.575Q159.26562 310.825 159.90625 310.41876Q160.5625 309.9969 161.3125 309.9969Q162.54688 309.9969 163.23438 310.8094Q163.92188 311.6219 163.92188 313.1375L163.92188 313.59064L159.625 313.59064Q159.65625 314.52814 160.17188 315.10626Q160.70312 315.6844 161.51562 315.6844Q162.07812 315.6844 162.46875 315.45Q162.875 315.21564 163.1875 314.825L163.84375 315.34064Q163.04688 316.575 161.45312 316.575ZM161.3125 310.8875Q160.65625 310.8875 160.20312 311.3719Q159.76562 311.84064 159.67188 312.7L162.84375 312.7L162.84375 312.6219Q162.79688 311.79376 162.39062 311.34064Q162.0 310.8875 161.3125 310.8875ZM167.35938 315.6844Q167.9375 315.6844 168.375 315.34064Q168.8125 314.98126 168.85938 314.45L169.89062 314.45Q169.85938 314.9969 169.5 315.4969Q169.15625 315.98126 168.57812 316.27814Q168.01562 316.575 167.35938 316.575Q166.0625 316.575 165.29688 315.71564Q164.54688 314.84064 164.54688 313.34064L164.54688 313.15314Q164.54688 312.23126 164.875 311.5125Q165.21875 310.79376 165.84375 310.40314Q166.48438 309.9969 167.35938 309.9969Q168.42188 309.9969 169.125 310.6375Q169.84375 311.2625 169.89062 312.29376L168.85938 312.29376Q168.8125 311.66876 168.39062 311.27814Q167.96875 310.8875 167.35938 310.8875Q166.53125 310.8875 166.07812 311.48126Q165.625 312.075 165.625 313.2L165.625 313.40314Q165.625 314.4969 166.07812 315.09064Q166.53125 315.6844 167.35938 315.6844Z" fill-rule="nonzero"/><path fill="#757575" d="M212.26562 316.45L211.1875 316.45L211.1875 309.23126L209.0 310.02814L209.0 309.04376L212.10938 307.8719L212.26562 307.8719L212.26562 316.45ZM217.28125 311.65314L218.09375 311.65314Q218.875 311.6375 219.3125 311.2469Q219.75 310.85626 219.75 310.1844Q219.75 308.6844 218.25 308.6844Q217.54688 308.6844 217.125 309.09064Q216.71875 309.4969 216.71875 310.15314L215.625 310.15314Q215.625 309.1375 216.35938 308.46564Q217.10938 307.79376 218.25 307.79376Q219.45312 307.79376 220.14062 308.4344Q220.82812 309.075 220.82812 310.21564Q220.82812 310.77814 220.46875 311.29376Q220.10938 311.8094 219.48438 312.075Q220.1875 312.29376 220.5625 312.8094Q220.95312 313.325 220.95312 314.075Q220.95312 315.21564 220.20312 315.90314Q219.45312 316.575 218.25 316.575Q217.0625 316.575 216.29688 315.91876Q215.54688 315.2625 215.54688 314.2L216.64062 314.2Q216.64062 314.8719 217.07812 315.27814Q217.51562 315.6844 218.26562 315.6844Q219.04688 315.6844 219.45312 315.27814Q219.875 314.85626 219.875 314.09064Q219.875 313.35626 219.42188 312.96564Q218.96875 312.5594 218.09375 312.54376L217.28125 312.54376L217.28125 311.65314ZM227.89062 310.1375Q227.89062 310.77814 227.54688 311.27814Q227.20312 311.77814 226.64062 312.0594Q227.29688 312.34064 227.6875 312.90314Q228.07812 313.45 228.07812 314.15314Q228.07812 315.2469 227.32812 315.91876Q226.59375 316.575 225.375 316.575Q224.14062 316.575 223.39062 315.91876Q222.65625 315.2469 222.65625 314.15314Q222.65625 313.45 223.03125 312.90314Q223.40625 312.34064 224.07812 312.0594Q223.51562 311.77814 223.1875 311.27814Q222.85938 310.77814 222.85938 310.1375Q222.85938 309.0594 223.54688 308.4344Q224.23438 307.79376 225.375 307.79376Q226.5 307.79376 227.1875 308.4344Q227.89062 309.0594 227.89062 310.1375ZM227.0 314.1219Q227.0 313.40314 226.54688 312.96564Q226.09375 312.5125 225.35938 312.5125Q224.625 312.5125 224.17188 312.96564Q223.73438 313.40314 223.73438 314.1375Q223.73438 314.85626 224.17188 315.27814Q224.60938 315.6844 225.375 315.6844Q226.125 315.6844 226.5625 315.2625Q227.0 314.84064 227.0 314.1219ZM225.375 308.6844Q224.73438 308.6844 224.32812 309.09064Q223.9375 309.48126 223.9375 310.16876Q223.9375 310.8094 224.32812 311.21564Q224.71875 311.6219 225.35938 311.6219Q226.01562 311.6219 226.40625 311.21564Q226.79688 310.8094 226.79688 310.16876Q226.79688 309.5125 226.39062 309.10626Q225.98438 308.6844 225.375 308.6844ZM234.28125 313.59064L235.46875 313.59064L235.46875 314.46564L234.28125 314.46564L234.28125 316.45L233.20312 316.45L233.20312 314.46564L229.3125 314.46564L229.3125 313.825L233.125 307.91876L234.28125 307.91876L234.28125 313.59064ZM230.54688 313.59064L233.20312 313.59064L233.20312 309.40314L233.0625 309.6375L230.54688 313.59064ZM243.73438 315.825Q243.10938 316.575 241.875 316.575Q240.85938 316.575 240.32812 315.98126Q239.79688 315.3875 239.79688 314.23126L239.79688 310.10626L240.875 310.10626L240.875 314.2Q240.875 315.65314 242.04688 315.65314Q243.29688 315.65314 243.70312 314.71564L243.70312 310.10626L244.79688 310.10626L244.79688 316.45L243.76562 316.45L243.73438 315.825ZM250.51562 314.7625Q250.51562 314.325 250.17188 314.09064Q249.84375 313.84064 249.01562 313.66876Q248.20312 313.4969 247.71875 313.2469Q247.23438 312.9969 247.0 312.66876Q246.78125 312.325 246.78125 311.85626Q246.78125 311.075 247.4375 310.54376Q248.09375 309.9969 249.125 309.9969Q250.20312 309.9969 250.85938 310.5594Q251.53125 311.10626 251.53125 311.96564L250.45312 311.96564Q250.45312 311.52814 250.0625 311.21564Q249.6875 310.8875 249.125 310.8875Q248.53125 310.8875 248.1875 311.15314Q247.85938 311.40314 247.85938 311.8094Q247.85938 312.2 248.17188 312.40314Q248.48438 312.60626 249.29688 312.79376Q250.10938 312.96564 250.60938 313.21564Q251.10938 313.46564 251.34375 313.825Q251.59375 314.1844 251.59375 314.6844Q251.59375 315.54376 250.90625 316.0594Q250.23438 316.575 249.15625 316.575Q248.39062 316.575 247.79688 316.3094Q247.21875 316.02814 246.89062 315.54376Q246.5625 315.0594 246.5625 314.4969L247.64062 314.4969Q247.67188 315.04376 248.07812 315.3719Q248.48438 315.6844 249.15625 315.6844Q249.76562 315.6844 250.14062 315.4344Q250.51562 315.1844 250.51562 314.7625ZM255.45312 316.575Q254.15625 316.575 253.34375 315.73126Q252.54688 314.8719 252.54688 313.45L252.54688 313.2625Q252.54688 312.3094 252.90625 311.575Q253.26562 310.825 253.90625 310.41876Q254.5625 309.9969 255.3125 309.9969Q256.54688 309.9969 257.23438 310.8094Q257.92188 311.6219 257.92188 313.1375L257.92188 313.59064L253.625 313.59064Q253.65625 314.52814 254.17188 315.10626Q254.70312 315.6844 255.51562 315.6844Q256.07812 315.6844 256.46875 315.45Q256.875 315.21564 257.1875 314.825L257.84375 315.34064Q257.04688 316.575 255.45312 316.575ZM255.3125 310.8875Q254.65625 310.8875 254.20312 311.3719Q253.76562 311.84064 253.67188 312.7L256.84375 312.7L256.84375 312.6219Q256.79688 311.79376 256.39062 311.34064Q256.0 310.8875 255.3125 310.8875ZM261.35938 315.6844Q261.9375 315.6844 262.375 315.34064Q262.8125 314.98126 262.85938 314.45L263.89062 314.45Q263.85938 314.9969 263.5 315.4969Q263.15625 315.98126 262.57812 316.27814Q262.01562 316.575 261.35938 316.575Q260.0625 316.575 259.29688 315.71564Q258.54688 314.84064 258.54688 313.34064L258.54688 313.15314Q258.54688 312.23126 258.875 311.5125Q259.21875 310.79376 259.84375 310.40314Q260.48438 309.9969 261.35938 309.9969Q262.42188 309.9969 263.125 310.6375Q263.84375 311.2625 263.89062 312.29376L262.85938 312.29376Q262.8125 311.66876 262.39062 311.27814Q261.96875 310.8875 261.35938 310.8875Q260.53125 310.8875 260.07812 311.48126Q259.625 312.075 259.625 313.2L259.625 313.40314Q259.625 314.4969 260.07812 315.09064Q260.53125 315.6844 261.35938 315.6844Z" fill-rule="nonzero"/><path fill="#757575" d="M306.26562 316.45L305.1875 316.45L305.1875 309.23126L303.0 310.02814L303.0 309.04376L306.10938 307.8719L306.26562 307.8719L306.26562 316.45ZM314.28125 313.59064L315.46875 313.59064L315.46875 314.46564L314.28125 314.46564L314.28125 316.45L313.20312 316.45L313.20312 314.46564L309.3125 314.46564L309.3125 313.825L313.125 307.91876L314.28125 307.91876L314.28125 313.59064ZM310.54688 313.59064L313.20312 313.59064L313.20312 309.40314L313.0625 309.6375L310.54688 313.59064ZM320.96875 307.91876L320.96875 308.825L320.76562 308.825Q319.5 308.85626 318.75 309.59064Q318.0 310.3094 317.875 311.6219Q318.5625 310.85626 319.71875 310.85626Q320.82812 310.85626 321.5 311.6375Q322.17188 312.41876 322.17188 313.66876Q322.17188 314.98126 321.45312 315.77814Q320.73438 316.575 319.51562 316.575Q318.29688 316.575 317.53125 315.6375Q316.78125 314.6844 316.78125 313.2L316.78125 312.79376Q316.78125 310.4344 317.78125 309.1844Q318.78125 307.9344 320.76562 307.91876L320.96875 307.91876ZM319.54688 311.7625Q318.98438 311.7625 318.51562 312.09064Q318.04688 312.41876 317.85938 312.9344L317.85938 313.325Q317.85938 314.3875 318.32812 315.02814Q318.8125 315.66876 319.51562 315.66876Q320.25 315.66876 320.67188 315.1375Q321.09375 314.59064 321.09375 313.71564Q321.09375 312.84064 320.67188 312.3094Q320.25 311.7625 319.54688 311.7625ZM327.85938 312.7Q327.53125 313.10626 327.04688 313.35626Q326.57812 313.59064 326.01562 313.59064Q325.28125 313.59064 324.73438 313.23126Q324.1875 312.8719 323.89062 312.21564Q323.59375 311.54376 323.59375 310.7469Q323.59375 309.90314 323.90625 309.21564Q324.23438 308.52814 324.82812 308.16876Q325.4375 307.79376 326.23438 307.79376Q327.5 307.79376 328.21875 308.7469Q328.95312 309.7 328.95312 311.325L328.95312 311.6375Q328.95312 314.1375 327.96875 315.27814Q326.98438 316.41876 325.0 316.45L324.78125 316.45L324.78125 315.54376L325.01562 315.54376Q326.35938 315.5125 327.07812 314.84064Q327.79688 314.16876 327.85938 312.7ZM326.1875 312.7Q326.73438 312.7 327.1875 312.3719Q327.65625 312.02814 327.875 311.54376L327.875 311.10626Q327.875 310.04376 327.40625 309.3719Q326.9375 308.7 326.23438 308.7Q325.51562 308.7 325.07812 309.2469Q324.65625 309.79376 324.65625 310.7Q324.65625 311.575 325.0625 312.1375Q325.48438 312.7 326.1875 312.7ZM337.73438 315.825Q337.10938 316.575 335.875 316.575Q334.85938 316.575 334.32812 315.98126Q333.79688 315.3875 333.79688 314.23126L333.79688 310.10626L334.875 310.10626L334.875 314.2Q334.875 315.65314 336.04688 315.65314Q337.29688 315.65314 337.70312 314.71564L337.70312 310.10626L338.79688 310.10626L338.79688 316.45L337.76562 316.45L337.73438 315.825ZM344.51562 314.7625Q344.51562 314.325 344.17188 314.09064Q343.84375 313.84064 343.01562 313.66876Q342.20312 313.4969 341.71875 313.2469Q341.23438 312.9969 341.0 312.66876Q340.78125 312.325 340.78125 311.85626Q340.78125 311.075 341.4375 310.54376Q342.09375 309.9969 343.125 309.9969Q344.20312 309.9969 344.85938 310.5594Q345.53125 311.10626 345.53125 311.96564L344.45312 311.96564Q344.45312 311.52814 344.0625 311.21564Q343.6875 310.8875 343.125 310.8875Q342.53125 310.8875 342.1875 311.15314Q341.85938 311.40314 341.85938 311.8094Q341.85938 312.2 342.17188 312.40314Q342.48438 312.60626 343.29688 312.79376Q344.10938 312.96564 344.60938 313.21564Q345.10938 313.46564 345.34375 313.825Q345.59375 314.1844 345.59375 314.6844Q345.59375 315.54376 344.90625 316.0594Q344.23438 316.575 343.15625 316.575Q342.39062 316.575 341.79688 316.3094Q341.21875 316.02814 340.89062 315.54376Q340.5625 315.0594 340.5625 314.4969L341.64062 314.4969Q341.67188 315.04376 342.07812 315.3719Q342.48438 315.6844 343.15625 315.6844Q343.76562 315.6844 344.14062 315.4344Q344.51562 315.1844 344.51562 314.7625ZM349.45312 316.575Q348.15625 316.575 347.34375 315.73126Q346.54688 314.8719 346.54688 313.45L346.54688 313.2625Q346.54688 312.3094 346.90625 311.575Q347.26562 310.825 347.90625 310.41876Q348.5625 309.9969 349.3125 309.9969Q350.54688 309.9969 351.23438 310.8094Q351.92188 311.6219 351.92188 313.1375L351.92188 313.59064L347.625 313.59064Q347.65625 314.52814 348.17188 315.10626Q348.70312 315.6844 349.51562 315.6844Q350.07812 315.6844 350.46875 315.45Q350.875 315.21564 351.1875 314.825L351.84375 315.34064Q351.04688 316.575 349.45312 316.575ZM349.3125 310.8875Q348.65625 310.8875 348.20312 311.3719Q347.76562 311.84064 347.67188 312.7L350.84375 312.7L350.84375 312.6219Q350.79688 311.79376 350.39062 311.34064Q350.0 310.8875 349.3125 310.8875ZM355.35938 315.6844Q355.9375 315.6844 356.375 315.34064Q356.8125 314.98126 356.85938 314.45L357.89062 314.45Q357.85938 314.9969 357.5 315.4969Q357.15625 315.98126 356.57812 316.27814Q356.01562 316.575 355.35938 316.575Q354.0625 316.575 353.29688 315.71564Q352.54688 314.84064 352.54688 313.34064L352.54688 313.15314Q352.54688 312.23126 352.875 311.5125Q353.21875 310.79376 353.84375 310.40314Q354.48438 309.9969 355.35938 309.9969Q356.42188 309.9969 357.125 310.6375Q357.84375 311.2625 357.89062 312.29376L356.85938 312.29376Q356.8125 311.66876 356.39062 311.27814Q355.96875 310.8875 355.35938 310.8875Q354.53125 310.8875 354.07812 311.48126Q353.625 312.075 353.625 313.2L353.625 313.40314Q353.625 314.4969 354.07812 315.09064Q354.53125 315.6844 355.35938 315.6844Z" fill-rule="nonzero"/><path fill="#757575" d="M400.26562 316.45L399.1875 316.45L399.1875 309.23126L397.0 310.02814L397.0 309.04376L400.10938 307.8719L400.26562 307.8719L400.26562 316.45ZM404.20312 312.16876L404.64062 307.91876L409.01562 307.91876L409.01562 308.91876L405.5625 308.91876L405.29688 311.2469Q405.9375 310.8719 406.73438 310.8719Q407.89062 310.8719 408.57812 311.65314Q409.26562 312.41876 409.26562 313.73126Q409.26562 315.04376 408.54688 315.8094Q407.84375 316.575 406.5625 316.575Q405.4375 316.575 404.71875 315.95Q404.0 315.3094 403.90625 314.2L404.92188 314.2Q405.03125 314.9344 405.45312 315.3094Q405.875 315.6844 406.5625 315.6844Q407.3125 315.6844 407.75 315.16876Q408.1875 314.65314 408.1875 313.7469Q408.1875 312.8875 407.71875 312.3719Q407.25 311.85626 406.46875 311.85626Q405.76562 311.85626 405.35938 312.15314L405.07812 312.3875L404.20312 312.16876ZM411.20312 312.16876L411.64062 307.91876L416.01562 307.91876L416.01562 308.91876L412.5625 308.91876L412.29688 311.2469Q412.9375 310.8719 413.73438 310.8719Q414.89062 310.8719 415.57812 311.65314Q416.26562 312.41876 416.26562 313.73126Q416.26562 315.04376 415.54688 315.8094Q414.84375 316.575 413.5625 316.575Q412.4375 316.575 411.71875 315.95Q411.0 315.3094 410.90625 314.2L411.92188 314.2Q412.03125 314.9344 412.45312 315.3094Q412.875 315.6844 413.5625 315.6844Q414.3125 315.6844 414.75 315.16876Q415.1875 314.65314 415.1875 313.7469Q415.1875 312.8875 414.71875 312.3719Q414.25 311.85626 413.46875 311.85626Q412.76562 311.85626 412.35938 312.15314L412.07812 312.3875L411.20312 312.16876ZM422.89062 310.1375Q422.89062 310.77814 422.54688 311.27814Q422.20312 311.77814 421.64062 312.0594Q422.29688 312.34064 422.6875 312.90314Q423.07812 313.45 423.07812 314.15314Q423.07812 315.2469 422.32812 315.91876Q421.59375 316.575 420.375 316.575Q419.14062 316.575 418.39062 315.91876Q417.65625 315.2469 417.65625 314.15314Q417.65625 313.45 418.03125 312.90314Q418.40625 312.34064 419.07812 312.0594Q418.51562 311.77814 418.1875 311.27814Q417.85938 310.77814 417.85938 310.1375Q417.85938 309.0594 418.54688 308.4344Q419.23438 307.79376 420.375 307.79376Q421.5 307.79376 422.1875 308.4344Q422.89062 309.0594 422.89062 310.1375ZM422.0 314.1219Q422.0 313.40314 421.54688 312.96564Q421.09375 312.5125 420.35938 312.5125Q419.625 312.5125 419.17188 312.96564Q418.73438 313.40314 418.73438 314.1375Q418.73438 314.85626 419.17188 315.27814Q419.60938 315.6844 420.375 315.6844Q421.125 315.6844 421.5625 315.2625Q422.0 314.84064 422.0 314.1219ZM420.375 308.6844Q419.73438 308.6844 419.32812 309.09064Q418.9375 309.48126 418.9375 310.16876Q418.9375 310.8094 419.32812 311.21564Q419.71875 311.6219 420.35938 311.6219Q421.01562 311.6219 421.40625 311.21564Q421.79688 310.8094 421.79688 310.16876Q421.79688 309.5125 421.39062 309.10626Q420.98438 308.6844 420.375 308.6844ZM431.73438 315.825Q431.10938 316.575 429.875 316.575Q428.85938 316.575 428.32812 315.98126Q427.79688 315.3875 427.79688 314.23126L427.79688 310.10626L428.875 310.10626L428.875 314.2Q428.875 315.65314 430.04688 315.65314Q431.29688 315.65314 431.70312 314.71564L431.70312 310.10626L432.79688 310.10626L432.79688 316.45L431.76562 316.45L431.73438 315.825ZM438.51562 314.7625Q438.51562 314.325 438.17188 314.09064Q437.84375 313.84064 437.01562 313.66876Q436.20312 313.4969 435.71875 313.2469Q435.23438 312.9969 435.0 312.66876Q434.78125 312.325 434.78125 311.85626Q434.78125 311.075 435.4375 310.54376Q436.09375 309.9969 437.125 309.9969Q438.20312 309.9969 438.85938 310.5594Q439.53125 311.10626 439.53125 311.96564L438.45312 311.96564Q438.45312 311.52814 438.0625 311.21564Q437.6875 310.8875 437.125 310.8875Q436.53125 310.8875 436.1875 311.15314Q435.85938 311.40314 435.85938 311.8094Q435.85938 312.2 436.17188 312.40314Q436.48438 312.60626 437.29688 312.79376Q438.10938 312.96564 438.60938 313.21564Q439.10938 313.46564 439.34375 313.825Q439.59375 314.1844 439.59375 314.6844Q439.59375 315.54376 438.90625 316.0594Q438.23438 316.575 437.15625 316.575Q436.39062 316.575 435.79688 316.3094Q435.21875 316.02814 434.89062 315.54376Q434.5625 315.0594 434.5625 314.4969L435.64062 314.4969Q435.67188 315.04376 436.07812 315.3719Q436.48438 315.6844 437.15625 315.6844Q437.76562 315.6844 438.14062 315.4344Q438.51562 315.1844 438.51562 314.7625ZM443.45312 316.575Q442.15625 316.575 441.34375 315.73126Q440.54688 314.8719 440.54688 313.45L440.54688 313.2625Q440.54688 312.3094 440.90625 311.575Q441.26562 310.825 441.90625 310.41876Q442.5625 309.9969 443.3125 309.9969Q444.54688 309.9969 445.23438 310.8094Q445.92188 311.6219 445.92188 313.1375L445.92188 313.59064L441.625 313.59064Q441.65625 314.52814 442.17188 315.10626Q442.70312 315.6844 443.51562 315.6844Q444.07812 315.6844 444.46875 315.45Q444.875 315.21564 445.1875 314.825L445.84375 315.34064Q445.04688 316.575 443.45312 316.575ZM443.3125 310.8875Q442.65625 310.8875 442.20312 311.3719Q441.76562 311.84064 441.67188 312.7L444.84375 312.7L444.84375 312.6219Q444.79688 311.79376 444.39062 311.34064Q444.0 310.8875 443.3125 310.8875ZM449.35938 315.6844Q449.9375 315.6844 450.375 315.34064Q450.8125 314.98126 450.85938 314.45L451.89062 314.45Q451.85938 314.9969 451.5 315.4969Q451.15625 315.98126 450.57812 316.27814Q450.01562 316.575 449.35938 316.575Q448.0625 316.575 447.29688 315.71564Q446.54688 314.84064 446.54688 313.34064L446.54688 313.15314Q446.54688 312.23126 446.875 311.5125Q447.21875 310.79376 447.84375 310.40314Q448.48438 309.9969 449.35938 309.9969Q450.42188 309.9969 451.125 310.6375Q451.84375 311.2625 451.89062 312.29376L450.85938 312.29376Q450.8125 311.66876 450.39062 311.27814Q449.96875 310.8875 449.35938 310.8875Q448.53125 310.8875 448.07812 311.48126Q447.625 312.075 447.625 313.2L447.625 313.40314Q447.625 314.4969 448.07812 315.09064Q448.53125 315.6844 449.35938 315.6844Z" fill-rule="nonzero"/><path fill="#757575" d="M494.26562 316.45L493.1875 316.45L493.1875 309.23126L491.0 310.02814L491.0 309.04376L494.10938 307.8719L494.26562 307.8719L494.26562 316.45ZM502.89062 310.1375Q502.89062 310.77814 502.54688 311.27814Q502.20312 311.77814 501.64062 312.0594Q502.29688 312.34064 502.6875 312.90314Q503.07812 313.45 503.07812 314.15314Q503.07812 315.2469 502.32812 315.91876Q501.59375 316.575 500.375 316.575Q499.14062 316.575 498.39062 315.91876Q497.65625 315.2469 497.65625 314.15314Q497.65625 313.45 498.03125 312.90314Q498.40625 312.34064 499.07812 312.0594Q498.51562 311.77814 498.1875 311.27814Q497.85938 310.77814 497.85938 310.1375Q497.85938 309.0594 498.54688 308.4344Q499.23438 307.79376 500.375 307.79376Q501.5 307.79376 502.1875 308.4344Q502.89062 309.0594 502.89062 310.1375ZM502.0 314.1219Q502.0 313.40314 501.54688 312.96564Q501.09375 312.5125 500.35938 312.5125Q499.625 312.5125 499.17188 312.96564Q498.73438 313.40314 498.73438 314.1375Q498.73438 314.85626 499.17188 315.27814Q499.60938 315.6844 500.375 315.6844Q501.125 315.6844 501.5625 315.2625Q502.0 314.84064 502.0 314.1219ZM500.375 308.6844Q499.73438 308.6844 499.32812 309.09064Q498.9375 309.48126 498.9375 310.16876Q498.9375 310.8094 499.32812 311.21564Q499.71875 311.6219 500.35938 311.6219Q501.01562 311.6219 501.40625 311.21564Q501.79688 310.8094 501.79688 310.16876Q501.79688 309.5125 501.39062 309.10626Q500.98438 308.6844 500.375 308.6844ZM510.29688 316.45L504.70312 316.45L504.70312 315.66876L507.65625 312.3875Q508.3125 311.6375 508.5625 311.1844Q508.8125 310.71564 508.8125 310.21564Q508.8125 309.54376 508.40625 309.1219Q508.01562 308.6844 507.32812 308.6844Q506.53125 308.6844 506.07812 309.15314Q505.625 309.60626 505.625 310.4344L504.54688 310.4344Q504.54688 309.2469 505.29688 308.52814Q506.0625 307.79376 507.32812 307.79376Q508.53125 307.79376 509.21875 308.41876Q509.90625 309.04376 509.90625 310.09064Q509.90625 311.34064 508.29688 313.09064L506.01562 315.5594L510.29688 315.5594L510.29688 316.45ZM512.2031 312.16876L512.6406 307.91876L517.0156 307.91876L517.0156 308.91876L513.5625 308.91876L513.2969 311.2469Q513.9375 310.8719 514.7344 310.8719Q515.8906 310.8719 516.5781 311.65314Q517.2656 312.41876 517.2656 313.73126Q517.2656 315.04376 516.5469 315.8094Q515.84375 316.575 514.5625 316.575Q513.4375 316.575 512.71875 315.95Q512.0 315.3094 511.90625 314.2L512.9219 314.2Q513.03125 314.9344 513.4531 315.3094Q513.875 315.6844 514.5625 315.6844Q515.3125 315.6844 515.75 315.16876Q516.1875 314.65314 516.1875 313.7469Q516.1875 312.8875 515.71875 312.3719Q515.25 311.85626 514.46875 311.85626Q513.7656 311.85626 513.3594 312.15314L513.0781 312.3875L512.2031 312.16876ZM525.7344 315.825Q525.1094 316.575 523.875 316.575Q522.8594 316.575 522.3281 315.98126Q521.7969 315.3875 521.7969 314.23126L521.7969 310.10626L522.875 310.10626L522.875 314.2Q522.875 315.65314 524.0469 315.65314Q525.2969 315.65314 525.7031 314.71564L525.7031 310.10626L526.7969 310.10626L526.7969 316.45L525.7656 316.45L525.7344 315.825ZM532.5156 314.7625Q532.5156 314.325 532.1719 314.09064Q531.84375 313.84064 531.0156 313.66876Q530.2031 313.4969 529.71875 313.2469Q529.2344 312.9969 529.0 312.66876Q528.78125 312.325 528.78125 311.85626Q528.78125 311.075 529.4375 310.54376Q530.09375 309.9969 531.125 309.9969Q532.2031 309.9969 532.8594 310.5594Q533.53125 311.10626 533.53125 311.96564L532.4531 311.96564Q532.4531 311.52814 532.0625 311.21564Q531.6875 310.8875 531.125 310.8875Q530.53125 310.8875 530.1875 311.15314Q529.8594 311.40314 529.8594 311.8094Q529.8594 312.2 530.1719 312.40314Q530.4844 312.60626 531.2969 312.79376Q532.1094 312.96564 532.6094 313.21564Q533.1094 313.46564 533.34375 313.825Q533.59375 314.1844 533.59375 314.6844Q533.59375 315.54376 532.90625 316.0594Q532.2344 316.575 531.15625 316.575Q530.3906 316.575 529.7969 316.3094Q529.21875 316.02814 528.8906 315.54376Q528.5625 315.0594 528.5625 314.4969L529.6406 314.4969Q529.6719 315.04376 530.0781 315.3719Q530.4844 315.6844 531.15625 315.6844Q531.7656 315.6844 532.1406 315.4344Q532.5156 315.1844 532.5156 314.7625ZM537.4531 316.575Q536.15625 316.575 535.34375 315.73126Q534.5469 314.8719 534.5469 313.45L534.5469 313.2625Q534.5469 312.3094 534.90625 311.575Q535.2656 310.825 535.90625 310.41876Q536.5625 309.9969 537.3125 309.9969Q538.5469 309.9969 539.2344 310.8094Q539.9219 311.6219 539.9219 313.1375L539.9219 313.59064L535.625 313.59064Q535.65625 314.52814 536.1719 315.10626Q536.7031 315.6844 537.5156 315.6844Q538.0781 315.6844 538.46875 315.45Q538.875 315.21564 539.1875 314.825L539.84375 315.34064Q539.0469 316.575 537.4531 316.575ZM537.3125 310.8875Q536.65625 310.8875 536.2031 311.3719Q535.7656 311.84064 535.6719 312.7L538.84375 312.7L538.84375 312.6219Q538.7969 311.79376 538.3906 311.34064Q538.0 310.8875 537.3125 310.8875ZM543.3594 315.6844Q543.9375 315.6844 544.375 315.34064Q544.8125 314.98126 544.8594 314.45L545.8906 314.45Q545.8594 314.9969 545.5 315.4969Q545.15625 315.98126 544.5781 316.27814Q544.0156 316.575 543.3594 316.575Q542.0625 316.575 541.2969 315.71564Q540.5469 314.84064 540.5469 313.34064L540.5469 313.15314Q540.5469 312.23126 540.875 311.5125Q541.21875 310.79376 541.84375 310.40314Q542.4844 309.9969 543.3594 309.9969Q544.4219 309.9969 545.125 310.6375Q545.84375 311.2625 545.8906 312.29376L544.8594 312.29376Q544.8125 311.66876 544.3906 311.27814Q543.96875 310.8875 543.3594 310.8875Q542.53125 310.8875 542.0781 311.48126Q541.625 312.075 541.625 313.2L541.625 313.40314Q541.625 314.4969 542.0781 315.09064Q542.53125 315.6844 543.3594 315.6844Z" fill-rule="nonzero"/><path fill="#757575" d="M24.39375 31.20625Q21.971874 30.51875 20.878124 29.51875Q19.784374 28.503124 19.784374 27.01875Q19.784374 25.33125 21.128124 24.2375Q22.471874 23.128124 24.6125 23.128124Q26.08125 23.128124 27.221874 23.70625Q28.378124 24.26875 29.003124 25.26875Q29.628124 26.253124 29.628124 27.440624L27.753124 27.440624Q27.753124 26.159374 26.925 25.425Q26.1125 24.675 24.6125 24.675Q23.221874 24.675 22.440624 25.284374Q21.675 25.89375 21.675 26.9875Q21.675 27.846874 22.409374 28.45625Q23.14375 29.05 24.909374 29.55Q26.690624 30.05 27.690624 30.659374Q28.690624 31.253124 29.175 32.05Q29.659374 32.846874 29.659374 33.940624Q29.659374 35.659374 28.315624 36.70625Q26.971874 37.753124 24.70625 37.753124Q23.253124 37.753124 21.971874 37.190624Q20.70625 36.628124 20.01875 35.659374Q19.33125 34.675 19.33125 33.425L21.221874 33.425Q21.221874 34.721874 22.175 35.471874Q23.128124 36.20625 24.70625 36.20625Q26.190624 36.20625 26.9875 35.6125Q27.784374 35.003124 27.784374 33.95625Q27.784374 32.909374 27.05 32.346874Q26.315624 31.76875 24.39375 31.20625ZM36.3 37.753124Q34.159374 37.753124 32.8 36.346874Q31.45625 34.925 31.45625 32.565624L31.45625 32.221874Q31.45625 30.659374 32.05 29.425Q32.659374 28.190624 33.7375 27.4875Q34.815624 26.784374 36.08125 26.784374Q38.14375 26.784374 39.284374 28.14375Q40.425 29.503124 40.425 32.034374L40.425 32.784374L33.26875 32.784374Q33.3 34.346874 34.175 35.315624Q35.05 36.26875 36.39375 36.26875Q37.3625 36.26875 38.01875 35.878124Q38.690624 35.4875 39.190624 34.846874L40.284374 35.70625Q38.95625 37.753124 36.3 37.753124ZM36.08125 28.26875Q34.9875 28.26875 34.2375 29.065624Q33.503124 29.8625 33.33125 31.3L38.6125 31.3L38.6125 31.159374Q38.534374 29.784374 37.8625 29.034374Q37.20625 28.26875 36.08125 28.26875ZM44.628124 26.9875L44.690624 28.315624Q45.89375 26.784374 47.846874 26.784374Q51.20625 26.784374 51.221874 30.565624L51.221874 37.55L49.425 37.55L49.425 30.55Q49.409374 29.409374 48.89375 28.8625Q48.39375 28.315624 47.3 28.315624Q46.425 28.315624 45.753124 28.784374Q45.096874 29.253124 44.721874 30.01875L44.721874 37.55L42.925 37.55L42.925 26.9875L44.628124 26.9875ZM53.471874 32.175Q53.471874 29.753124 54.628124 28.26875Q55.784374 26.784374 57.64375 26.784374Q59.503124 26.784374 60.58125 28.05L60.58125 22.55L62.39375 22.55L62.39375 37.55L60.7375 37.55L60.64375 36.409374Q59.565624 37.753124 57.628124 37.753124Q55.8 37.753124 54.628124 36.253124Q53.471874 34.7375 53.471874 32.315624L53.471874 32.175ZM55.284374 32.378124Q55.284374 34.175 56.01875 35.190624Q56.76875 36.20625 58.08125 36.20625Q59.8 36.20625 60.58125 34.675L60.58125 29.815624Q59.784374 28.315624 58.096874 28.315624Q56.76875 28.315624 56.01875 29.346874Q55.284374 30.378124 55.284374 32.378124ZM65.28438 38.76875L63.721874 38.76875L69.65938 23.33125L71.20625 23.33125L65.28438 38.76875ZM78.40938 31.8L75.08125 31.8L75.08125 37.55L73.19063 37.55L73.19063 23.33125L77.89375 23.33125Q80.3 23.33125 81.59688 24.425Q82.89375 25.51875 82.89375 27.6125Q82.89375 28.940624 82.175 29.925Q81.45625 30.909374 80.175 31.39375L83.51875 37.425L83.51875 37.55L81.50313 37.55L78.40938 31.8ZM75.08125 30.26875L77.95625 30.26875Q79.34688 30.26875 80.175 29.55Q81.00313 28.815624 81.00313 27.6125Q81.00313 26.284374 80.20625 25.58125Q79.425 24.878124 77.94063 24.878124L75.08125 24.878124L75.08125 30.26875ZM89.3 37.753124Q87.15938 37.753124 85.8 36.346874Q84.45625 34.925 84.45625 32.565624L84.45625 32.221874Q84.45625 30.659374 85.05 29.425Q85.65938 28.190624 86.7375 27.4875Q87.81563 26.784374 89.08125 26.784374Q91.14375 26.784374 92.28438 28.14375Q93.425 29.503124 93.425 32.034374L93.425 32.784374L86.26875 32.784374Q86.3 34.346874 87.175 35.315624Q88.05 36.26875 89.39375 36.26875Q90.3625 36.26875 91.01875 35.878124Q91.69063 35.4875 92.19063 34.846874L93.28438 35.70625Q91.95625 37.753124 89.3 37.753124ZM89.08125 28.26875Q87.9875 28.26875 87.2375 29.065624Q86.50313 29.8625 86.33125 31.3L91.6125 31.3L91.6125 31.159374Q91.53438 29.784374 90.8625 29.034374Q90.20625 28.26875 89.08125 28.26875ZM100.15938 36.26875Q101.12813 36.26875 101.84688 35.690624Q102.56563 35.096874 102.64375 34.221874L104.3625 34.221874Q104.3 35.128124 103.72188 35.95625Q103.15938 36.76875 102.19063 37.26875Q101.2375 37.753124 100.15938 37.753124Q98.00313 37.753124 96.72188 36.315624Q95.45625 34.8625 95.45625 32.3625L95.45625 32.065624Q95.45625 30.51875 96.01875 29.315624Q96.58125 28.1125 97.64375 27.45625Q98.70625 26.784374 100.14375 26.784374Q101.925 26.784374 103.09688 27.846874Q104.28438 28.909374 104.3625 30.6125L102.64375 30.6125Q102.56563 29.596874 101.8625 28.940624Q101.175 28.26875 100.14375 28.26875Q98.76875 28.26875 98.00313 29.26875Q97.25313 30.253124 97.25313 32.128124L97.25313 32.471874Q97.25313 34.3 98.00313 35.284374Q98.75313 36.26875 100.15938 36.26875ZM110.3 37.753124Q108.15938 37.753124 106.8 36.346874Q105.45625 34.925 105.45625 32.565624L105.45625 32.221874Q105.45625 30.659374 106.05 29.425Q106.65938 28.190624 107.7375 27.4875Q108.81563 26.784374 110.08125 26.784374Q112.14375 26.784374 113.28438 28.14375Q114.425 29.503124 114.425 32.034374L114.425 32.784374L107.26875 32.784374Q107.3 34.346874 108.175 35.315624Q109.05 36.26875 110.39375 36.26875Q111.3625 36.26875 112.01875 35.878124Q112.69063 35.4875 113.19063 34.846874L114.28438 35.70625Q112.95625 37.753124 110.3 37.753124ZM110.08125 28.26875Q108.9875 28.26875 108.2375 29.065624Q107.50313 29.8625 107.33125 31.3L112.6125 31.3L112.6125 31.159374Q112.53438 29.784374 111.8625 29.034374Q111.20625 28.26875 110.08125 28.26875ZM118.87813 37.55L117.08125 37.55L117.08125 26.9875L118.87813 26.9875L118.87813 37.55ZM116.925 24.175Q116.925 23.7375 117.19063 23.440624Q117.47188 23.128124 117.9875 23.128124Q118.51875 23.128124 118.78438 23.440624Q119.06563 23.7375 119.06563 24.175Q119.06563 24.6125 118.78438 24.909374Q118.51875 25.20625 117.9875 25.20625Q117.47188 25.20625 117.19063 24.909374Q116.925 24.6125 116.925 24.175ZM125.40938 35.096874L128.01875 26.9875L129.8625 26.9875L126.08125 37.55L124.70625 37.55L120.87813 26.9875L122.72188 26.9875L125.40938 35.096874ZM136.3 37.753124Q134.15938 37.753124 132.8 36.346874Q131.45625 34.925 131.45625 32.565624L131.45625 32.221874Q131.45625 30.659374 132.05 29.425Q132.65938 28.190624 133.7375 27.4875Q134.81563 26.784374 136.08125 26.784374Q138.14375 26.784374 139.28438 28.14375Q140.425 29.503124 140.425 32.034374L140.425 32.784374L133.26875 32.784374Q133.3 34.346874 134.175 35.315624Q135.05 36.26875 136.39375 36.26875Q137.3625 36.26875 138.01875 35.878124Q138.69063 35.4875 139.19063 34.846874L140.28438 35.70625Q138.95625 37.753124 136.3 37.753124ZM136.08125 28.26875Q134.9875 28.26875 134.2375 29.065624Q133.50313 29.8625 133.33125 31.3L138.6125 31.3L138.6125 31.159374Q138.53438 29.784374 137.8625 29.034374Q137.20625 28.26875 136.08125 28.26875Z" fill-rule="nonzero"/></svg>